<svg width="24" height="24" viewBox="0 0 24 24" fill="none" xmlns="http://www.w3.org/2000/svg">
<path d="M10.7115 9.23717C10.8425 8.84421 10.6301 8.41947 10.2372 8.28849C9.84421 8.1575 9.41947 8.36987 9.28849 8.76283L10.7115 9.23717ZM9 12L8.28849 11.7628C8.21225 11.9915 8.25061 12.243 8.39157 12.4385C8.53253 12.6341 8.75892 12.75 9 12.75V12ZM12 12L12.7115 12.2372C12.7877 12.0085 12.7494 11.757 12.6084 11.5615C12.4675 11.3659 12.2411 11.25 12 11.25V12ZM10.2885 14.7628C10.1575 15.1558 10.3699 15.5805 10.7628 15.7115C11.1558 15.8425 11.5805 15.6301 11.7115 15.2372L10.2885 14.7628ZM3.5 5.75H17.5V4.25H3.5V5.75ZM17.5 18.25H3.5V19.75H17.5V18.25ZM1.75 16.5V7.5H0.25V16.5H1.75ZM19.25 7.5V9H20.75V7.5H19.25ZM20 9.75H21V8.25H20V9.75ZM22.25 11V13H23.75V11H22.25ZM19.25 9V15H20.75V9H19.25ZM19.25 15V16.5H20.75V15H19.25ZM21 14.25H20V15.75H21V14.25ZM22.25 13C22.25 13.6904 21.6904 14.25 21 14.25V15.75C22.5188 15.75 23.75 14.5188 23.75 13H22.25ZM3.5 18.25C2.5335 18.25 1.75 17.4665 1.75 16.5H0.25C0.25 18.2949 1.70507 19.75 3.5 19.75V18.25ZM17.5 19.75C19.2949 19.75 20.75 18.2949 20.75 16.5H19.25C19.25 17.4665 18.4665 18.25 17.5 18.25V19.75ZM17.5 5.75C18.4665 5.75 19.25 6.5335 19.25 7.5H20.75C20.75 5.70507 19.2949 4.25 17.5 4.25V5.75ZM21 9.75C21.6904 9.75 22.25 10.3096 22.25 11H23.75C23.75 9.48122 22.5188 8.25 21 8.25V9.75ZM3.5 4.25C1.70507 4.25 0.25 5.70507 0.25 7.5H1.75C1.75 6.5335 2.5335 5.75 3.5 5.75V4.25ZM9.28849 8.76283L8.28849 11.7628L9.71151 12.2372L10.7115 9.23717L9.28849 8.76283ZM9 12.75H12V11.25H9V12.75ZM11.2885 11.7628L10.2885 14.7628L11.7115 15.2372L12.7115 12.2372L11.2885 11.7628Z" fill="#272727"/>
</svg>
