<svg width="24" height="24" viewBox="0 0 24 24" fill="none" xmlns="http://www.w3.org/2000/svg">
<path d="M6 11V11.75H6.75V11H6ZM18 11H17.25V11.75H18V11ZM9.54024 13.4028C9.25292 13.1045 8.77814 13.0955 8.47977 13.3828C8.1814 13.6702 8.17244 14.1449 8.45976 14.4433L9.54024 13.4028ZM11 16L10.4598 16.5202C10.5994 16.6653 10.7916 16.7481 10.9929 16.75C11.1943 16.7519 11.3879 16.6727 11.5303 16.5303L11 16ZM15.5303 12.5303C15.8232 12.2374 15.8232 11.7626 15.5303 11.4697C15.2374 11.1768 14.7626 11.1768 14.4697 11.4697L15.5303 12.5303ZM5.5 19.25C3.42893 19.25 1.75 17.5711 1.75 15.5H0.25C0.25 18.3995 2.6005 20.75 5.5 20.75V19.25ZM22.25 15.5C22.25 17.5711 20.5711 19.25 18.5 19.25V20.75C21.3995 20.75 23.75 18.3995 23.75 15.5H22.25ZM18.5 11.75C20.5711 11.75 22.25 13.4289 22.25 15.5H23.75C23.75 12.6005 21.3995 10.25 18.5 10.25V11.75ZM5.5 10.25C2.60051 10.25 0.25 12.6005 0.25 15.5H1.75C1.75 13.4289 3.42893 11.75 5.5 11.75V10.25ZM12 4.75C14.8995 4.75 17.25 7.10051 17.25 10H18.75C18.75 6.27208 15.7279 3.25 12 3.25V4.75ZM12 3.25C8.27208 3.25 5.25 6.27208 5.25 10H6.75C6.75 7.10051 9.1005 4.75 12 4.75V3.25ZM6.75 11V10H5.25V11H6.75ZM5.5 11.75H6V10.25H5.5V11.75ZM18 11.75H18.5V10.25H18V11.75ZM17.25 10V11H18.75V10H17.25ZM8.45976 14.4433L10.4598 16.5202L11.5402 15.4798L9.54024 13.4028L8.45976 14.4433ZM11.5303 16.5303L15.5303 12.5303L14.4697 11.4697L10.4697 15.4697L11.5303 16.5303ZM18.5 19.25H5.5V20.75H18.5V19.25Z" fill="#272727"/>
</svg>
