<svg width="24" height="24" viewBox="0 0 24 24" fill="none" xmlns="http://www.w3.org/2000/svg">
<path d="M16 13H16.75C16.75 12.8011 16.671 12.6103 16.5303 12.4697L16 13ZM9 6L9.53033 5.46967C9.38968 5.32902 9.19891 5.25 9 5.25V6ZM21 8H21.75C21.75 7.80109 21.671 7.61032 21.5303 7.46967L21 8ZM14 1L14.5303 0.46967C14.3897 0.329018 14.1989 0.25 14 0.25V1ZM16 16.25C15.5858 16.25 15.25 16.5858 15.25 17C15.25 17.4142 15.5858 17.75 16 17.75V16.25ZM7.25 6C7.25 6.41421 7.58579 6.75 8 6.75C8.41421 6.75 8.75 6.41421 8.75 6H7.25ZM14 21.25H5V22.75H14V21.25ZM3.75 20V8H2.25V20H3.75ZM15.25 13V20H16.75V13H15.25ZM5 6.75H9V5.25H5V6.75ZM16.5303 12.4697L9.53033 5.46967L8.46967 6.53033L15.4697 13.5303L16.5303 12.4697ZM8.25 6V12.5H9.75V6H8.25ZM9.5 13.75H16V12.25H9.5V13.75ZM5 21.25C4.30964 21.25 3.75 20.6904 3.75 20H2.25C2.25 21.5188 3.48122 22.75 5 22.75V21.25ZM14 22.75C15.5188 22.75 16.75 21.5188 16.75 20H15.25C15.25 20.6904 14.6904 21.25 14 21.25V22.75ZM8.25 12.5C8.25 13.1904 8.80964 13.75 9.5 13.75V12.25C9.63807 12.25 9.75 12.3619 9.75 12.5H8.25ZM3.75 8C3.75 7.30964 4.30964 6.75 5 6.75V5.25C3.48122 5.25 2.25 6.48122 2.25 8H3.75ZM20.25 8V15H21.75V8H20.25ZM10 1.75H14V0.25H10V1.75ZM21.5303 7.46967L14.5303 0.46967L13.4697 1.53033L20.4697 8.53033L21.5303 7.46967ZM13.25 1V7.5H14.75V1H13.25ZM14.5 8.75H21V7.25H14.5V8.75ZM19 16.25H16V17.75H19V16.25ZM8.75 6V2.9995H7.25V6H8.75ZM13.25 7.5C13.25 8.19036 13.8096 8.75 14.5 8.75V7.25C14.6381 7.25 14.75 7.36193 14.75 7.5H13.25ZM20.25 15C20.25 15.6904 19.6904 16.25 19 16.25V17.75C20.5188 17.75 21.75 16.5188 21.75 15H20.25ZM10 0.25C8.48146 0.25 7.25 1.48047 7.25 2.9995H8.75C8.75 2.30939 9.3094 1.75 10 1.75V0.25Z" fill="#272727"/>
</svg>
