<svg width="24" height="24" viewBox="0 0 24 24" fill="none" xmlns="http://www.w3.org/2000/svg">
<path d="M8 6.25C7.58579 6.25 7.25 6.58579 7.25 7C7.25 7.41421 7.58579 7.75 8 7.75V6.25ZM15 7.75C15.4142 7.75 15.75 7.41421 15.75 7C15.75 6.58579 15.4142 6.25 15 6.25V7.75ZM8 9.25C7.58579 9.25 7.25 9.58579 7.25 10C7.25 10.4142 7.58579 10.75 8 10.75V9.25ZM15 10.75C15.4142 10.75 15.75 10.4142 15.75 10C15.75 9.58579 15.4142 9.25 15 9.25V10.75ZM8 12.25C7.58579 12.25 7.25 12.5858 7.25 13C7.25 13.4142 7.58579 13.75 8 13.75V12.25ZM15 13.75C15.4142 13.75 15.75 13.4142 15.75 13C15.75 12.5858 15.4142 12.25 15 12.25V13.75ZM8 15.25C7.58579 15.25 7.25 15.5858 7.25 16C7.25 16.4142 7.58579 16.75 8 16.75V15.25ZM12 16.75C12.4142 16.75 12.75 16.4142 12.75 16C12.75 15.5858 12.4142 15.25 12 15.25V16.75ZM17 20.25H7V21.75H17V20.25ZM5.75 19V5H4.25V19H5.75ZM7 3.75H17V2.25H7V3.75ZM18.25 5V19H19.75V5H18.25ZM17 3.75C17.6904 3.75 18.25 4.30964 18.25 5H19.75C19.75 3.48122 18.5188 2.25 17 2.25V3.75ZM7 20.25C6.30964 20.25 5.75 19.6904 5.75 19H4.25C4.25 20.5188 5.48122 21.75 7 21.75V20.25ZM17 21.75C18.5188 21.75 19.75 20.5188 19.75 19H18.25C18.25 19.6904 17.6904 20.25 17 20.25V21.75ZM5.75 5C5.75 4.30964 6.30964 3.75 7 3.75V2.25C5.48122 2.25 4.25 3.48122 4.25 5H5.75ZM8 7.75H15V6.25H8V7.75ZM8 10.75H15V9.25H8V10.75ZM8 13.75H15V12.25H8V13.75ZM8 16.75H12V15.25H8V16.75Z" fill="#272727"/>
</svg>
