<svg width="24" height="24" viewBox="0 0 24 24" fill="none" xmlns="http://www.w3.org/2000/svg">
<path d="M19 10H19.75C19.75 9.80109 19.671 9.61032 19.5303 9.46967L19 10ZM12 3L12.5303 2.46967C12.3897 2.32902 12.1989 2.25 12 2.25V3ZM17 20.25H7V21.75H17V20.25ZM5.75 19V5H4.25V19H5.75ZM18.25 10V19H19.75V10H18.25ZM7 3.75H12V2.25H7V3.75ZM19.5303 9.46967L12.5303 2.46967L11.4697 3.53033L18.4697 10.5303L19.5303 9.46967ZM11.25 3V9.5H12.75V3H11.25ZM12.5 10.75H19V9.25H12.5V10.75ZM7 20.25C6.30964 20.25 5.75 19.6904 5.75 19H4.25C4.25 20.5188 5.48122 21.75 7 21.75V20.25ZM17 21.75C18.5188 21.75 19.75 20.5188 19.75 19H18.25C18.25 19.6904 17.6904 20.25 17 20.25V21.75ZM11.25 9.5C11.25 10.1904 11.8096 10.75 12.5 10.75V9.25C12.6381 9.25 12.75 9.36193 12.75 9.5H11.25ZM5.75 5C5.75 4.30964 6.30964 3.75 7 3.75V2.25C5.48122 2.25 4.25 3.48122 4.25 5H5.75Z" fill="#272727"/>
</svg>
