<svg width="24" height="24" viewBox="0 0 24 24" fill="none" xmlns="http://www.w3.org/2000/svg">
<path d="M10.1689 20.2779C10.1689 20.6921 10.5047 21.0279 10.9189 21.0279C11.3332 21.0279 11.6689 20.6921 11.6689 20.2779H10.1689ZM17.3307 20.2779C17.3307 20.6921 17.6665 21.0279 18.0807 21.0279C18.4949 21.0279 18.8307 20.6921 18.8307 20.2779H17.3307ZM10 3.25C9.58579 3.25 9.25 3.58579 9.25 4C9.25 4.41421 9.58579 4.75 10 4.75V3.25ZM14 4.75C14.4142 4.75 14.75 4.41421 14.75 4C14.75 3.58579 14.4142 3.25 14 3.25V4.75ZM11.6689 20.2779C11.6689 19.9505 11.7425 19.8107 11.7913 19.7482C11.8414 19.6841 11.9393 19.6069 12.1668 19.5443C12.4019 19.4795 12.7151 19.4471 13.1268 19.4356C13.5422 19.4241 13.9811 19.4345 14.4998 19.4345V17.9345C14.0297 17.9345 13.5266 17.924 13.0852 17.9362C12.6401 17.9486 12.1816 17.9844 11.7687 18.098C11.3482 18.2138 10.9217 18.4249 10.6094 18.8246C10.2958 19.2259 10.1689 19.7253 10.1689 20.2779H11.6689ZM14.4998 19.4345C15.0185 19.4345 15.4575 19.4241 15.8729 19.4356C16.2846 19.4471 16.5977 19.4795 16.8329 19.5443C17.0604 19.6069 17.1583 19.6841 17.2083 19.7482C17.2572 19.8107 17.3307 19.9505 17.3307 20.2779H18.8307C18.8307 19.7253 18.7038 19.2259 18.3903 18.8246C18.078 18.4249 17.6514 18.2138 17.2309 18.098C16.818 17.9844 16.3596 17.9486 15.9145 17.9362C15.473 17.924 14.97 17.9345 14.4998 17.9345V19.4345ZM16.25 13.5C16.25 14.4665 15.4665 15.25 14.5 15.25V16.75C16.2949 16.75 17.75 15.2949 17.75 13.5H16.25ZM14.5 15.25C13.5335 15.25 12.75 14.4665 12.75 13.5H11.25C11.25 15.2949 12.7051 16.75 14.5 16.75V15.25ZM12.75 13.5C12.75 12.5335 13.5335 11.75 14.5 11.75V10.25C12.7051 10.25 11.25 11.7051 11.25 13.5H12.75ZM14.5 11.75C15.4665 11.75 16.25 12.5335 16.25 13.5H17.75C17.75 11.7051 16.2949 10.25 14.5 10.25V11.75ZM10 4.75H14V3.25H10V4.75ZM6 1.75H18V0.25H6V1.75ZM20.25 4V20H21.75V4H20.25ZM18 22.25H6V23.75H18V22.25ZM3.75 20V4H2.25V20H3.75ZM6 22.25C4.75736 22.25 3.75 21.2426 3.75 20H2.25C2.25 22.0711 3.92893 23.75 6 23.75V22.25ZM20.25 20C20.25 21.2426 19.2426 22.25 18 22.25V23.75C20.0711 23.75 21.75 22.0711 21.75 20H20.25ZM18 1.75C19.2426 1.75 20.25 2.75736 20.25 4H21.75C21.75 1.92893 20.0711 0.25 18 0.25V1.75ZM6 0.25C3.92893 0.25 2.25 1.92893 2.25 4H3.75C3.75 2.75736 4.75736 1.75 6 1.75V0.25Z" fill="#272727"/>
</svg>
