<svg width="24" height="24" viewBox="0 0 24 24" fill="none" xmlns="http://www.w3.org/2000/svg">
<path d="M8.78174 9.37501V10.125C8.83551 10.125 8.88913 10.1192 8.94166 10.1078L8.78174 9.37501ZM12.5 4L11.779 3.79338V3.79338L12.5 4ZM15.6881 4.55456L16.4351 4.62087L16.4355 4.6159L15.6881 4.55456ZM15 9L14.2885 8.76283C14.2123 8.99154 14.2506 9.24296 14.3916 9.43853C14.5325 9.63411 14.7589 9.75 15 9.75V9ZM21 15L21.7474 15.0623L21 15ZM9.87892 18.9999L9.94048 18.2524H9.94048L9.87892 18.9999ZM7.98456 10.125H8.78174V8.62501H7.98456V10.125ZM13.221 4.20662C13.3165 3.87345 13.4127 3.59165 13.5332 3.39844C13.5898 3.30774 13.6323 3.26938 13.6515 3.25597C13.6611 3.24931 13.6602 3.25 13.6693 3.25V1.75C12.9582 1.75 12.5115 2.2022 12.2606 2.60452C12.0166 2.99562 11.8735 3.46382 11.779 3.79338L13.221 4.20662ZM13.6693 3.25H15V1.75H13.6693V3.25ZM15 3.25C14.8412 3.25 14.7818 3.12744 14.8099 3.1791C14.8482 3.24951 14.8928 3.39692 14.9212 3.62135C14.9478 3.83166 14.9532 4.05113 14.9511 4.22412C14.95 4.30903 14.9472 4.37926 14.9446 4.42713C14.9434 4.451 14.9423 4.46911 14.9415 4.48049C14.9411 4.48618 14.9408 4.49016 14.9406 4.49233C14.9406 4.49341 14.9405 4.49404 14.9405 4.4942C14.9405 4.49427 14.9405 4.49423 14.9405 4.49407C14.9405 4.49399 14.9405 4.49388 14.9405 4.49374C14.9405 4.49367 14.9405 4.49354 14.9405 4.49351C14.9406 4.49337 14.9406 4.49323 15.6881 4.55456C16.4355 4.6159 16.4356 4.61574 16.4356 4.61557C16.4356 4.61551 16.4356 4.61533 16.4356 4.6152C16.4356 4.61493 16.4356 4.61464 16.4357 4.61431C16.4357 4.61365 16.4358 4.61286 16.4359 4.61195C16.436 4.61013 16.4362 4.60781 16.4364 4.60501C16.4368 4.5994 16.4374 4.59185 16.438 4.58249C16.4393 4.56378 16.4409 4.53775 16.4426 4.50544C16.446 4.44095 16.4496 4.35066 16.451 4.24296C16.4536 4.03072 16.4477 3.73655 16.4093 3.43322C16.3728 3.14401 16.299 2.77777 16.1279 2.46295C15.9467 2.12938 15.5872 1.75 15 1.75V3.25ZM15 9.75H19.1147V8.25H15V9.75ZM19.1147 9.75C19.1259 9.75 19.4816 9.78277 19.8264 10.5184C20.1705 11.2523 20.4471 12.604 20.2526 14.9377L21.7474 15.0623C21.9529 12.596 21.6844 10.9477 21.1846 9.88164C20.6856 8.81723 19.8986 8.25 19.1147 8.25V9.75ZM20.2526 14.9377C20.1611 16.0353 19.874 16.7857 19.5193 17.3052C19.1664 17.8219 18.719 18.151 18.2392 18.3651C17.2401 18.8108 16.1498 18.75 15.5 18.75V20.25C16.0362 20.25 17.4959 20.3392 18.8503 19.7349C19.5473 19.424 20.2275 18.9281 20.758 18.1511C21.2867 17.3768 21.6389 16.3647 21.7474 15.0623L20.2526 14.9377ZM15.5 18.75C14.5259 18.75 13.5796 18.6638 12.6512 18.5574C11.7389 18.4529 10.8075 18.3238 9.94048 18.2524L9.81735 19.7474C10.6539 19.8163 11.5164 19.9372 12.4805 20.0477C13.4285 20.1563 14.4409 20.25 15.5 20.25V18.75ZM9.94048 18.2524C9.3292 18.2021 8.90505 18.1898 8.60583 18.2003C8.32696 18.21 8.08506 18.2405 7.88869 18.3256C7.77423 18.3752 7.65311 18.4525 7.55319 18.5737C7.50576 18.6312 7.47712 18.6826 7.47103 18.6933C7.46353 18.7065 7.4817 18.6731 7.50504 18.6396C7.5291 18.605 7.60225 18.5041 7.7372 18.4246C8.08089 18.2221 8.39714 18.3763 8.42725 18.3904C8.48134 18.4157 8.52237 18.4445 8.50318 18.4319C8.49351 18.4256 8.4526 18.3979 8.39324 18.3614L7.60676 19.6386C7.64215 19.6604 7.65645 19.6704 7.6802 19.686C7.68599 19.6898 7.69795 19.6976 7.71192 19.7061C7.72381 19.7134 7.75335 19.7311 7.79209 19.7493C7.83021 19.7671 8.15124 19.9217 8.49868 19.717C8.6355 19.6364 8.71027 19.5337 8.73598 19.4968C8.75124 19.4749 8.76215 19.4567 8.76706 19.4484C8.76982 19.4438 8.772 19.44 8.7732 19.4379C8.77383 19.4368 8.77436 19.4359 8.77467 19.4353C8.77481 19.4351 8.77498 19.4348 8.77507 19.4346C8.77516 19.4345 8.77522 19.4343 8.77526 19.4343C8.77591 19.4331 8.76791 19.4474 8.75674 19.4647C8.74477 19.4833 8.72955 19.5048 8.71067 19.5277C8.6278 19.6283 8.53737 19.6793 8.48496 19.702C8.41269 19.7333 8.42033 19.7077 8.65822 19.6994C8.87577 19.6918 9.23562 19.6995 9.81736 19.7474L9.94048 18.2524ZM8.94166 10.1078C9.89076 9.90062 10.7074 9.58833 11.4169 8.63471C12.0659 7.76244 12.5956 6.38894 13.221 4.20662L11.779 3.79338C11.151 5.98481 10.6807 7.11131 10.2134 7.73935C9.80671 8.28605 9.39098 8.47439 8.62181 8.64226L8.94166 10.1078ZM15.6881 4.55456C14.941 4.48826 14.941 4.48824 14.941 4.48823C14.941 4.48824 14.941 4.48825 14.941 4.48827C14.941 4.48833 14.941 4.48843 14.941 4.48859C14.9409 4.48889 14.9409 4.48939 14.9408 4.49008C14.9407 4.49147 14.9405 4.49362 14.9403 4.49653C14.9397 4.50234 14.9389 4.51115 14.9379 4.52279C14.9357 4.54608 14.9325 4.58071 14.9283 4.62539C14.9198 4.71477 14.9071 4.84427 14.8907 5.0036C14.8579 5.32257 14.8101 5.75962 14.75 6.23285C14.6263 7.20786 14.4612 8.24462 14.2885 8.76283L15.7115 9.23717C15.9388 8.55538 16.1178 7.36942 16.2381 6.42171C16.3 5.93359 16.3492 5.48428 16.3829 5.15722C16.3997 4.99355 16.4127 4.86012 16.4215 4.76733C16.4259 4.72092 16.4293 4.68465 16.4316 4.65982C16.4327 4.6474 16.4336 4.63784 16.4342 4.63129C16.4345 4.62802 16.4347 4.6255 16.4349 4.62376C16.4349 4.62289 16.435 4.62221 16.435 4.62173C16.4351 4.62149 16.4351 4.62129 16.4351 4.62115C16.4351 4.62108 16.4351 4.62101 16.4351 4.62097C16.4351 4.62092 16.4351 4.62087 15.6881 4.55456ZM3 8.75012H7V7.25012H3V8.75012ZM7.25 9.00012V19H8.75V9.00012H7.25ZM7 19.2501H3V20.7501H7V19.2501ZM2.75 19.0001V9.00012H1.25V19.0001H2.75ZM3 19.2501C2.86193 19.2501 2.75 19.1382 2.75 19.0001H1.25C1.25 19.9666 2.0335 20.7501 3 20.7501V19.2501ZM7.25 19C7.25 19.1382 7.13795 19.2501 7 19.2501V20.7501C7.96662 20.7501 8.75 19.9664 8.75 19H7.25ZM7 8.75012C7.13807 8.75012 7.25 8.86205 7.25 9.00012H8.75C8.75 8.03362 7.9665 7.25012 7 7.25012V8.75012ZM3 7.25012C2.0335 7.25012 1.25 8.03362 1.25 9.00012H2.75C2.75 8.86205 2.86193 8.75012 3 8.75012V7.25012Z" fill="#272727"/>
</svg>
