<svg width="24" height="28" viewBox="0 0 24 28" fill="none" xmlns="http://www.w3.org/2000/svg">
<path d="M2.3753 8.69977L2.84383 9.28542H2.84383L2.3753 8.69977ZM11.3753 1.49977L10.9068 0.914119V0.914119L11.3753 1.49977ZM12.6247 1.49977L12.1562 2.08542L12.1562 2.08542L12.6247 1.49977ZM21.6247 8.69977L22.0932 8.11412L21.6247 8.69977ZM12.669 17.3979L12.1674 16.8403L12.1672 16.8405L12.669 17.3979ZM11.331 17.3979L11.8328 16.8405L11.8327 16.8405L11.331 17.3979ZM21.25 9.48064V21H22.75V9.48064H21.25ZM20 22.25H4V23.75H20V22.25ZM2.75 21V9.48064H1.25V21H2.75ZM2.84383 9.28542L11.8438 2.08542L10.9068 0.914119L1.90678 8.11412L2.84383 9.28542ZM12.1562 2.08542L21.1562 9.28542L22.0932 8.11412L13.0932 0.914119L12.1562 2.08542ZM11.8438 2.08542C11.9351 2.01238 12.0649 2.01238 12.1562 2.08542L13.0932 0.914119C12.4541 0.402812 11.5459 0.402814 10.9068 0.914119L11.8438 2.08542ZM4 22.25C3.30964 22.25 2.75 21.6904 2.75 21H1.25C1.25 22.5188 2.48122 23.75 4 23.75V22.25ZM21.25 21C21.25 21.6904 20.6904 22.25 20 22.25V23.75C21.5188 23.75 22.75 22.5188 22.75 21H21.25ZM22.75 9.48064C22.75 8.94902 22.5083 8.44622 22.0932 8.11412L21.1562 9.28542C21.2155 9.33287 21.25 9.40469 21.25 9.48064H22.75ZM2.75 9.48064C2.75 9.40469 2.78452 9.33287 2.84383 9.28542L1.90678 8.11412C1.49166 8.44622 1.25 8.94902 1.25 9.48064H2.75ZM21.4164 8.52053L12.1674 16.8403L13.1705 17.9555L22.4195 9.63572L21.4164 8.52053ZM11.8327 16.8405L2.58764 8.52063L1.58424 9.63562L10.8293 17.9554L11.8327 16.8405ZM12.1672 16.8405C12.0722 16.926 11.9278 16.926 11.8328 16.8405L10.8293 17.9554C11.4948 18.5544 12.5052 18.5544 13.1707 17.9554L12.1672 16.8405ZM17.5664 12.2383H6.42969V13.7383H17.5664V12.2383ZM8.86861 15.0461L1.70455 21.2454L2.68608 22.3797L9.85014 16.1804L8.86861 15.0461ZM21.9468 21.8873L15.1632 15.1025L14.1024 16.1631L20.886 22.9479L21.9468 21.8873Z" fill="#272727"/>
</svg>
