<svg width="24" height="24" viewBox="0 0 24 24" fill="none" xmlns="http://www.w3.org/2000/svg">
<path d="M21.75 6C21.75 5.58579 21.4142 5.25 21 5.25C20.5858 5.25 20.25 5.58579 20.25 6H21.75ZM20.25 18C20.25 18.4142 20.5858 18.75 21 18.75C21.4142 18.75 21.75 18.4142 21.75 18H20.25ZM17.75 6C17.75 5.58579 17.4142 5.25 17 5.25C16.5858 5.25 16.25 5.58579 16.25 6H17.75ZM16.25 18C16.25 18.4142 16.5858 18.75 17 18.75C17.4142 18.75 17.75 18.4142 17.75 18H16.25ZM4.76243 6.27407L5.13121 5.62092L5.12235 5.61608L4.76243 6.27407ZM13.172 11.0222L12.8032 11.6753L12.8052 11.6764L13.172 11.0222ZM13.172 12.9778L12.8052 12.3236L12.8032 12.3247L13.172 12.9778ZM4.76243 17.7259L5.12239 18.384L5.13118 18.379L4.76243 17.7259ZM20.25 6V18H21.75V6H20.25ZM16.25 6V18H17.75V6H16.25ZM3.9116 17.25C3.86881 17.25 3.84599 17.2423 3.83664 17.2382C3.82794 17.2345 3.82136 17.2299 3.81399 17.2215C3.80014 17.2057 3.75 17.1343 3.75 16.9556H2.25C2.25 17.4139 2.38218 17.8646 2.68739 18.2118C3.00063 18.5682 3.44021 18.75 3.9116 18.75V17.25ZM3.75 16.9556V7.04444H2.25V16.9556H3.75ZM3.75 7.04444C3.75 6.86574 3.80014 6.79426 3.81399 6.7785C3.82136 6.77012 3.82794 6.76554 3.83664 6.76177C3.84599 6.75772 3.86881 6.75 3.9116 6.75V5.25C3.44021 5.25 3.00063 5.43182 2.68739 5.78817C2.38218 6.13537 2.25 6.58612 2.25 7.04444H3.75ZM3.9116 6.75C4.01093 6.75 4.11503 6.77482 4.40251 6.93207L5.12235 5.61608C4.7869 5.43259 4.40481 5.25 3.9116 5.25V6.75ZM4.39369 6.92716L12.8032 11.6753L13.5407 10.3691L5.13118 5.62098L4.39369 6.92716ZM12.8052 11.6764C13.0932 11.8379 13.2033 11.9318 13.2446 11.98C13.2583 11.996 13.255 11.9963 13.2507 11.9844C13.2466 11.9731 13.25 11.9738 13.25 12H14.75C14.75 11.633 14.6362 11.2984 14.3832 11.0034C14.1624 10.746 13.8585 10.5473 13.5387 10.368L12.8052 11.6764ZM13.25 12C13.25 12.0262 13.2466 12.0269 13.2507 12.0156C13.255 12.0037 13.2583 12.004 13.2446 12.02C13.2033 12.0682 13.0932 12.1621 12.8052 12.3236L13.5387 13.632C13.8585 13.4527 14.1624 13.254 14.3832 12.9966C14.6362 12.7016 14.75 12.367 14.75 12H13.25ZM12.8032 12.3247L4.39369 17.0728L5.13118 18.379L13.5407 13.6309L12.8032 12.3247ZM4.40251 17.0679C4.11503 17.2252 4.01093 17.25 3.9116 17.25V18.75C4.40481 18.75 4.7869 18.5674 5.12235 18.3839L4.40251 17.0679Z" fill="#272727"/>
</svg>
