<svg width="24" height="24" viewBox="0 0 24 24" fill="none" xmlns="http://www.w3.org/2000/svg">
<path d="M5.75 14C5.75 13.5858 5.41421 13.25 5 13.25C4.58579 13.25 4.25 13.5858 4.25 14H5.75ZM19.75 14C19.75 13.5858 19.4142 13.25 19 13.25C18.5858 13.25 18.25 13.5858 18.25 14H19.75ZM11.25 15C11.25 15.4142 11.5858 15.75 12 15.75C12.4142 15.75 12.75 15.4142 12.75 15H11.25ZM12 4L12.5303 3.46967C12.2374 3.17678 11.7626 3.17678 11.4697 3.46967L12 4ZM6.46967 8.46967C6.17678 8.76256 6.17678 9.23744 6.46967 9.53033C6.76256 9.82322 7.23744 9.82322 7.53033 9.53033L6.46967 8.46967ZM16.4697 9.53033C16.7626 9.82322 17.2374 9.82322 17.5303 9.53033C17.8232 9.23744 17.8232 8.76256 17.5303 8.46967L16.4697 9.53033ZM4.25 14V17H5.75V14H4.25ZM8 20.75H16V19.25H8V20.75ZM19.75 17V14H18.25V17H19.75ZM12.75 15V4H11.25V15H12.75ZM11.4697 3.46967L6.46967 8.46967L7.53033 9.53033L12.5303 4.53033L11.4697 3.46967ZM11.4697 4.53033L16.4697 9.53033L17.5303 8.46967L12.5303 3.46967L11.4697 4.53033ZM16 20.75C18.0711 20.75 19.75 19.0711 19.75 17H18.25C18.25 18.2426 17.2426 19.25 16 19.25V20.75ZM4.25 17C4.25 19.0711 5.92893 20.75 8 20.75V19.25C6.75736 19.25 5.75 18.2426 5.75 17H4.25Z" fill="#272727"/>
</svg>
