<svg width="24" height="24" viewBox="0 0 24 24" fill="none" xmlns="http://www.w3.org/2000/svg">
<path fill-rule="evenodd" clip-rule="evenodd" d="M1 3.5C1 2.67157 1.67157 2 2.5 2H21.5C22.3284 2 23 2.67157 23 3.5V5.5C23 6.32843 22.3284 7 21.5 7H2.5C1.67157 7 1 6.32843 1 5.5V3.5ZM3.95307 19.0133L3.09406 9.08697C3.04352 8.50284 3.50397 8 4.09028 8H19.9097C20.496 8 20.9565 8.5021 20.906 9.08622L20.0469 19.0133C19.9497 20.1362 18.9749 21 17.8047 21H6.1953C5.0251 21 4.05025 20.1362 3.95307 19.0133ZM10.3536 11.6464C10.1583 11.4512 9.84171 11.4512 9.64645 11.6464C9.45118 11.8417 9.45118 12.1583 9.64645 12.3536L11.2929 14L9.64645 15.6464C9.45118 15.8417 9.45118 16.1583 9.64645 16.3536C9.84171 16.5488 10.1583 16.5488 10.3536 16.3536L12 14.7071L13.6464 16.3536C13.8417 16.5488 14.1583 16.5488 14.3536 16.3536C14.5488 16.1583 14.5488 15.8417 14.3536 15.6464L12.7071 14L14.3536 12.3536C14.5488 12.1583 14.5488 11.8417 14.3536 11.6464C14.1583 11.4512 13.8417 11.4512 13.6464 11.6464L12 13.2929L10.3536 11.6464Z" fill="#272727"/>
</svg>
