<svg width="24" height="24" viewBox="0 0 24 24" fill="none" xmlns="http://www.w3.org/2000/svg">
<path fill-rule="evenodd" clip-rule="evenodd" d="M12 0C5.37258 0 0 5.37258 0 12C0 18.6274 5.37258 24 12 24C18.6274 24 24 18.6274 24 12C24 5.37258 18.6274 0 12 0ZM7.35355 10.6464C7.15829 10.4512 6.84171 10.4512 6.64645 10.6464C6.45118 10.8417 6.45118 11.1583 6.64645 11.3536L11.6464 16.3536C11.8417 16.5488 12.1583 16.5488 12.3536 16.3536L17.3536 11.3536C17.5488 11.1583 17.5488 10.8417 17.3536 10.6464C17.1583 10.4512 16.8417 10.4512 16.6464 10.6464L12 15.2929L7.35355 10.6464Z" fill="#272727"/>
</svg>
