<svg width="24" height="24" viewBox="0 0 24 24" fill="none" xmlns="http://www.w3.org/2000/svg">
<path fill-rule="evenodd" clip-rule="evenodd" d="M8.51541 1.60698C9.36201 0.730289 10.5676 0.25 12 0.25C13.4324 0.25 14.638 0.730289 15.4846 1.60698C16.3272 2.47951 16.75 3.67804 16.75 5V8H15.25V5C15.25 3.99655 14.9329 3.19508 14.4056 2.64896C13.8822 2.10701 13.0879 1.75 12 1.75C10.9122 1.75 10.1178 2.10701 9.59443 2.64896C9.06706 3.19508 8.75 3.99655 8.75 5V8H7.25V5C7.25 3.67804 7.67284 2.47951 8.51541 1.60698ZM7.25 8V10C7.25 10.4142 7.58579 10.75 8 10.75C8.41421 10.75 8.75 10.4142 8.75 10V8H15.25V10C15.25 10.4142 15.5858 10.75 16 10.75C16.4142 10.75 16.75 10.4142 16.75 10V8H18.2241C19.2934 8 20.1796 8.76194 20.2507 9.7425L20.9954 20.0092C21.0736 21.0866 20.1437 22 18.9688 22H5.03116C3.85626 22 2.92644 21.0866 3.00459 20.0092L3.74932 9.7425C3.82044 8.76194 4.7066 8 5.77589 8H7.25ZM7 17.5C6.72386 17.5 6.5 17.7239 6.5 18C6.5 18.2761 6.72386 18.5 7 18.5H17C17.2761 18.5 17.5 18.2761 17.5 18C17.5 17.7239 17.2761 17.5 17 17.5H7Z" fill="#272727"/>
</svg>
