<svg width="24" height="24" viewBox="0 0 24 24" fill="none" xmlns="http://www.w3.org/2000/svg">
<path fill-rule="evenodd" clip-rule="evenodd" d="M4.5 3H19.5C20.8807 3 22 4.11929 22 5.5V14.6818C22 16.0625 20.8807 17.1818 19.5 17.1818H12.2214C12.0055 17.1818 11.7955 17.2517 11.6226 17.3809L6.24384 21.4023C5.91413 21.6488 5.44444 21.4136 5.44444 21.0019V17.1818H4.5C3.11929 17.1818 2 16.0625 2 14.6818V5.5C2 4.11929 3.11929 3 4.5 3ZM7 7.5C6.72386 7.5 6.5 7.72386 6.5 8C6.5 8.27614 6.72386 8.5 7 8.5H17C17.2761 8.5 17.5 8.27614 17.5 8C17.5 7.72386 17.2761 7.5 17 7.5H7ZM7 11.5C6.72386 11.5 6.5 11.7239 6.5 12C6.5 12.2761 6.72386 12.5 7 12.5H13C13.2761 12.5 13.5 12.2761 13.5 12C13.5 11.7239 13.2761 11.5 13 11.5H7Z" fill="#272727"/>
</svg>
