<svg width="24" height="24" viewBox="0 0 24 24" fill="none" xmlns="http://www.w3.org/2000/svg">
<path fill-rule="evenodd" clip-rule="evenodd" d="M2 6C2 3.79086 3.79086 2 6 2H14C15.9002 2 17.4909 3.32493 17.8987 5.10135C17.6098 5.03503 17.309 5 17 5H9C6.79086 5 5 6.79086 5 9V17C5 17.309 5.03503 17.6098 5.10135 17.8987C3.32493 17.4909 2 15.9002 2 14V6ZM6 9C6 7.34315 7.34315 6 9 6H19C20.6569 6 22 7.34315 22 9V19C22 20.6569 20.6569 22 19 22H9C7.34315 22 6 20.6569 6 19V9ZM14 10.5C14.2761 10.5 14.5 10.7239 14.5 11V13.5H17C17.2761 13.5 17.5 13.7239 17.5 14C17.5 14.2761 17.2761 14.5 17 14.5H14.5V17C14.5 17.2761 14.2761 17.5 14 17.5C13.7239 17.5 13.5 17.2761 13.5 17V14.5H11C10.7239 14.5 10.5 14.2761 10.5 14C10.5 13.7239 10.7239 13.5 11 13.5H13.5V11C13.5 10.7239 13.7239 10.5 14 10.5Z" fill="#272727"/>
</svg>
