<svg width="24" height="24" viewBox="0 0 24 24" fill="none" xmlns="http://www.w3.org/2000/svg">
<path fill-rule="evenodd" clip-rule="evenodd" d="M6 0C2.68629 0 0 2.68629 0 6V18C0 21.3137 2.68629 24 6 24H18C21.3137 24 24 21.3137 24 18V6C24 2.68629 21.3137 0 18 0H6ZM6 3.5C4.61929 3.5 3.5 4.61929 3.5 6V8.36364C3.5 8.63978 3.72386 8.86364 4 8.86364C4.27614 8.86364 4.5 8.63978 4.5 8.36364V6C4.5 5.17157 5.17157 4.5 6 4.5H8.36364C8.63978 4.5 8.86364 4.27614 8.86364 4C8.86364 3.72386 8.63978 3.5 8.36364 3.5H6ZM15.6364 3.5C15.3602 3.5 15.1364 3.72386 15.1364 4C15.1364 4.27614 15.3602 4.5 15.6364 4.5H18C18.8284 4.5 19.5 5.17157 19.5 6V8.36364C19.5 8.63978 19.7239 8.86364 20 8.86364C20.2761 8.86364 20.5 8.63978 20.5 8.36364V6C20.5 4.61929 19.3807 3.5 18 3.5H15.6364ZM8.5 8.5C8.5 8.22386 8.27614 8 8 8C7.72386 8 7.5 8.22386 7.5 8.5V10.5C7.5 10.7761 7.72386 11 8 11C8.27614 11 8.5 10.7761 8.5 10.5V8.5ZM12.5 8.5C12.5 8.22386 12.2761 8 12 8C11.7239 8 11.5 8.22386 11.5 8.5V13C11.5 13.2761 11.2761 13.5 11 13.5H10C9.72386 13.5 9.5 13.7239 9.5 14C9.5 14.2761 9.72386 14.5 10 14.5H11C11.8284 14.5 12.5 13.8284 12.5 13V8.5ZM16.5 8.5C16.5 8.22386 16.2761 8 16 8C15.7239 8 15.5 8.22386 15.5 8.5V10.5C15.5 10.7761 15.7239 11 16 11C16.2761 11 16.5 10.7761 16.5 10.5V8.5ZM4.5 15.6364C4.5 15.3602 4.27614 15.1364 4 15.1364C3.72386 15.1364 3.5 15.3602 3.5 15.6364V18C3.5 19.3807 4.61929 20.5 6 20.5H8.36364C8.63978 20.5 8.86364 20.2761 8.86364 20C8.86364 19.7239 8.63978 19.5 8.36364 19.5H6C5.17157 19.5 4.5 18.8284 4.5 18V15.6364ZM20.5 15.6364C20.5 15.3602 20.2761 15.1364 20 15.1364C19.7239 15.1364 19.5 15.3602 19.5 15.6364V18C19.5 18.8284 18.8284 19.5 18 19.5H15.6364C15.3602 19.5 15.1364 19.7239 15.1364 20C15.1364 20.2761 15.3602 20.5 15.6364 20.5H18C19.3807 20.5 20.5 19.3807 20.5 18V15.6364ZM9.33192 16.6261C9.1254 16.4427 8.80938 16.4616 8.62606 16.6681C8.44275 16.8746 8.46156 17.1906 8.66808 17.3739C9.46132 18.078 10.6768 18.5 12 18.5C13.3232 18.5 14.5387 18.078 15.3319 17.3739C15.5384 17.1906 15.5573 16.8746 15.3739 16.6681C15.1906 16.4616 14.8746 16.4427 14.6681 16.6261C14.0931 17.1364 13.1303 17.5 12 17.5C10.8697 17.5 9.90687 17.1364 9.33192 16.6261Z" fill="#272727"/>
</svg>
