<svg width="24" height="24" viewBox="0 0 24 24" fill="none" xmlns="http://www.w3.org/2000/svg">
<path fill-rule="evenodd" clip-rule="evenodd" d="M13.7453 3.53076C13.7528 3.51886 13.7595 3.50867 13.7656 3.5H14.6489C14.6574 3.54351 14.6658 3.59426 14.6732 3.6527C14.6978 3.84751 14.7032 4.05453 14.7011 4.22097C14.7001 4.30209 14.6973 4.36897 14.695 4.41408C14.6938 4.43654 14.6927 4.45333 14.6921 4.46349L14.6915 4.47189L14.6913 4.47407L14.6889 4.49995L14.6794 4.60174C14.6709 4.69054 14.6584 4.81939 14.6421 4.978C14.6094 5.29561 14.5617 5.73062 14.502 6.20137C14.3777 7.18093 14.215 8.19283 14.0513 8.68377C13.9497 8.98872 14.0008 9.32394 14.1888 9.58471C14.3767 9.84548 14.6786 10 15 10H19.0907C19.1196 10.0094 19.3489 10.0886 19.6001 10.6245C19.9182 11.3031 20.1961 12.6054 20.0035 14.917C19.9148 15.9805 19.6386 16.6872 19.3128 17.1642C18.9896 17.6376 18.5809 17.9389 18.1373 18.1368C17.2922 18.5138 16.3751 18.5065 15.7126 18.5012C15.6384 18.5006 15.5674 18.5 15.5 18.5C14.5401 18.5 13.6047 18.415 12.6797 18.3091C12.4025 18.2773 12.1216 18.243 11.8402 18.2087H11.8402C11.2042 18.131 10.5656 18.0531 9.961 18.0033C9.57406 17.9714 9.25862 17.9544 9 17.9489V10.3509C9.97708 10.1372 10.8589 9.80363 11.6175 8.78394C12.2967 7.87096 12.8363 6.45629 13.4613 4.27549C13.557 3.94172 13.6454 3.69099 13.7453 3.53076ZM8.88226 8.3223C9.41479 8.17799 9.71119 7.99562 10.0129 7.59013C10.4498 7.00279 10.9102 5.91746 11.5387 3.72451C11.633 3.39555 11.7839 2.89628 12.0484 2.4722C12.3223 2.03316 12.8362 1.5 13.6693 1.5H15C15.7115 1.5 16.1408 1.96303 16.3476 2.34359C16.5408 2.69915 16.6194 3.10186 16.6574 3.40186C16.6977 3.7207 16.7037 4.02731 16.7009 4.2461C16.6995 4.3576 16.6958 4.45123 16.6923 4.51849C16.6905 4.55221 16.6888 4.57956 16.6874 4.59949L16.6857 4.62379L16.6851 4.63158L16.6849 4.63435L16.6848 4.63544L16.6847 4.63592C16.6847 4.63614 16.6847 4.63635 15.6881 4.55456C16.6841 4.64297 16.6841 4.64303 16.6841 4.6431L16.6841 4.6433L16.6841 4.64392L16.6839 4.64604L16.6832 4.65375L16.6805 4.68266L16.6704 4.79098C16.6615 4.88435 16.6485 5.01843 16.6315 5.18283C16.5977 5.51123 16.5483 5.96258 16.4861 6.45319C16.4251 6.93327 16.3482 7.4827 16.2562 8H19.1147C20.0273 8 20.8862 8.6563 21.4109 9.77551C21.9367 10.8969 22.2039 12.5946 21.9965 15.083C21.8852 16.4195 21.5222 17.4753 20.9645 18.292C20.4043 19.1124 19.6854 19.6361 18.9522 19.9632C17.6776 20.5319 16.3155 20.5115 15.6807 20.5019C15.6115 20.5009 15.5509 20.5 15.5 20.5C14.4268 20.5 13.4034 20.4051 12.452 20.2961C12.1398 20.2603 11.8402 20.2237 11.5497 20.1882C10.9351 20.1131 10.3615 20.043 9.79683 19.9965C9.30124 19.9557 8.97372 19.9448 8.76196 19.9471C8.4243 20.574 7.76191 21 7 21H3C1.89543 21 1 20.1046 1 19V9C1 7.89543 1.89543 7 3 7H7C7.86668 7 8.60461 7.55128 8.88226 8.3223ZM15.6881 4.55456L16.6847 4.63635L16.6842 4.64298L15.6881 4.55456Z" fill="#272727"/>
</svg>
