<svg width="24" height="24" viewBox="0 0 24 24" fill="none" xmlns="http://www.w3.org/2000/svg">
<path fill-rule="evenodd" clip-rule="evenodd" d="M12 0C5.37258 0 0 5.37258 0 12C0 18.6274 5.37258 24 12 24C18.6274 24 24 18.6274 24 12C24 5.37258 18.6274 0 12 0ZM16.7174 7.28278C15.6184 6.18378 13.8366 6.18378 12.7376 7.28278L11.1012 8.91915C10.9059 9.11441 10.9059 9.431 11.1012 9.62626C11.2965 9.82152 11.613 9.82152 11.8083 9.62626L13.4447 7.98989C14.1532 7.28141 15.3018 7.28141 16.0103 7.98989C16.7188 8.69833 16.7187 9.84714 16.0102 10.5557L14.3739 12.1919C14.1787 12.3872 14.1787 12.7037 14.3739 12.899C14.5692 13.0943 14.8858 13.0943 15.081 12.899L16.7173 11.2628C17.8162 10.1638 17.8165 8.38182 16.7174 7.28278ZM14.5354 10.1717C14.7307 9.97647 14.7307 9.65989 14.5354 9.46462C14.3401 9.26936 14.0236 9.26936 13.8283 9.46462L9.46464 13.8283C9.26938 14.0235 9.26938 14.3401 9.46464 14.5354C9.6599 14.7306 9.97649 14.7306 10.1717 14.5354L14.5354 10.1717ZM9.62648 11.8081C9.82174 11.6128 9.82174 11.2962 9.62648 11.101C9.43121 10.9057 9.11463 10.9057 8.91937 11.101L7.283 12.7373C6.184 13.8364 6.18399 15.6182 7.283 16.7172C8.38204 17.8162 10.164 17.816 11.263 16.7171L12.8992 15.0808C13.0945 14.8856 13.0945 14.569 12.8992 14.3737C12.704 14.1785 12.3874 14.1785 12.1921 14.3737L10.5559 16.01C9.84736 16.7185 8.69855 16.7185 7.99011 16.0101C7.28163 15.3016 7.28163 14.1529 7.99011 13.4445L9.62648 11.8081Z" fill="#272727"/>
</svg>
