<svg width="25" height="24" viewBox="0 0 25 24" fill="none" xmlns="http://www.w3.org/2000/svg">
<path fill-rule="evenodd" clip-rule="evenodd" d="M15 5C15 2.23858 17.2386 0 20 0C22.7614 0 25 2.23858 25 5V8.27273C25 8.82501 24.5523 9.27273 24 9.27273C23.4477 9.27273 23 8.82501 23 8.27273V5C23 3.34315 21.6569 2 20 2C18.3431 2 17 3.34315 17 5V10H18C19.1046 10 20 10.8954 20 12V20C20 22.2091 18.2091 24 16 24H8C5.79086 24 4 22.2091 4 20V12C4 10.8954 4.89543 10 6 10H15V5ZM15.3536 15.3536C15.5488 15.1583 15.5488 14.8417 15.3536 14.6464C15.1583 14.4512 14.8417 14.4512 14.6464 14.6464L11.0067 18.2862L9.36016 16.5763C9.16862 16.3773 8.85209 16.3714 8.65318 16.5629C8.45427 16.7545 8.4483 17.071 8.63984 17.2699L10.6398 19.3468C10.733 19.4435 10.861 19.4987 10.9953 19.5C11.1295 19.5012 11.2586 19.4485 11.3536 19.3536L15.3536 15.3536Z" fill="#272727"/>
</svg>
