<svg width="24" height="27" viewBox="0 0 24 27" fill="none" xmlns="http://www.w3.org/2000/svg">
<path fill-rule="evenodd" clip-rule="evenodd" d="M23 9.21036V22C23 23.1045 22.1046 24 21 24H3C1.89543 24 1 23.1045 1 22V9.21036C1 8.90516 1.13938 8.61666 1.37847 8.42697L10.7569 0.9862C11.485 0.408571 12.515 0.408571 13.2431 0.986201L22.6215 8.42697C22.8606 8.61666 23 8.90516 23 9.21036ZM21.5 9.49997L15.1987 15.1379L21.5304 21.4696C21.8233 21.7625 21.8233 22.2374 21.5304 22.5303C21.2375 22.8232 20.7627 22.8232 20.4698 22.5303L17.9394 20H17.9618L13.4365 15.4302C12.6557 14.6418 11.3824 14.6396 10.599 15.4254L6.03818 20H6.06079L3.53043 22.5303C3.23754 22.8232 2.76267 22.8232 2.46977 22.5303C2.17688 22.2374 2.17688 21.7625 2.46977 21.4696L8.80138 15.138L2.5 9.49997L11.3804 2.48916C11.7437 2.20234 12.2563 2.20234 12.6196 2.48916L21.5 9.49997Z" fill="#272727"/>
</svg>
