<svg width="24" height="24" viewBox="0 0 24 24" fill="none" xmlns="http://www.w3.org/2000/svg">
<path fill-rule="evenodd" clip-rule="evenodd" d="M5.29059 1.33018C5 1.879 5 2.60266 5 4.05V19.95C5 21.3973 5 22.121 5.29059 22.6698C5.52509 23.1127 5.88728 23.4749 6.33018 23.7094C6.879 24 7.60266 24 9.05 24H14.95C16.3973 24 17.121 24 17.6698 23.7094C18.1127 23.4749 18.4749 23.1127 18.7094 22.6698C19 22.121 19 21.3973 19 19.95V4.05C19 2.60266 19 1.879 18.7094 1.33018C18.4749 0.887281 18.1127 0.525086 17.6698 0.290586C17.121 0 16.3973 0 14.95 0H9.05C7.60266 0 6.879 0 6.33018 0.290586C5.88728 0.525086 5.52509 0.887281 5.29059 1.33018ZM9.5 1C9.22386 1 9 1.22386 9 1.5C9 2.05228 9.44772 2.5 10 2.5H14C14.5523 2.5 15 2.05228 15 1.5C15 1.22386 14.7761 1 14.5 1H9.5Z" fill="#272727"/>
</svg>
