<svg width="24" height="24" viewBox="0 0 24 24" fill="none" xmlns="http://www.w3.org/2000/svg">
<path fill-rule="evenodd" clip-rule="evenodd" d="M8.31063 20.7575C8.15285 21.3886 8.63021 22 9.28078 22H10.2888C10.664 22 11.0076 21.79 11.1788 21.4561L15 14L19.7 14.1501C20.9656 14.1501 23 13.2538 23 12C23 10.7462 20.9656 10 19.7 10H15L11.1788 2.54391C11.0076 2.21002 10.664 2 10.2888 2H9.28078C8.63021 2 8.15285 2.61139 8.31063 3.24254L9.84468 9.37873C9.92358 9.69431 9.6849 10 9.35961 10H5.68708C5.27317 10 4.90204 9.745 4.7536 9.35862L4.18411 7.87625C4.10989 7.68306 3.92432 7.55556 3.71737 7.55556H1.5C1.22386 7.55556 1 7.77942 1 8.05556L1 15.9444C1 16.2206 1.22386 16.4444 1.5 16.4444H3.71737C3.92432 16.4444 4.10989 16.3169 4.18411 16.1238L4.7536 14.6414C4.90204 14.255 5.27317 14 5.68708 14L9.35961 14C9.6849 14 9.92358 14.3057 9.84468 14.6213L8.31063 20.7575Z" fill="#272727"/>
</svg>
