<svg width="24" height="24" viewBox="0 0 24 24" fill="none" xmlns="http://www.w3.org/2000/svg">
<path d="M17.4233 13.5189C16.0254 15.6193 14.1787 17.0902 12.0002 17.0902C9.82114 17.0902 7.97416 15.6187 6.57619 13.5175C5.09431 14.1168 3 15.2548 3 17.1188C3 18.9505 3.87739 20.6157 5.63246 21.1398C7.14882 21.5926 9.28916 22 12 22C14.7107 22 16.8511 21.5925 18.3675 21.1398C20.1227 20.6157 21 18.9505 21 17.1188C21 15.2577 18.9053 14.1192 17.4233 13.5189Z" fill="#272727"/>
<path d="M7.19735 11.6469C6.44228 9.86519 6 7.71349 6 5.54093C6 3.07278 8.64168 1 12 1C15.3583 1 18 3.07278 18 5.54093C18 7.71352 17.5577 9.86526 16.8026 11.647L16.7983 11.6447C15.4214 14.2021 13.7074 15.5902 12.0002 15.5902C10.2929 15.5902 8.57885 14.202 7.20191 11.6445L7.19735 11.6469Z" fill="#272727"/>
</svg>
