<svg width="24" height="24" viewBox="0 0 24 24" fill="none" xmlns="http://www.w3.org/2000/svg">
<path fill-rule="evenodd" clip-rule="evenodd" d="M0 12C0 5.37258 5.37258 0 12 0C18.6274 0 24 5.37258 24 12C24 18.6274 18.6274 24 12 24C5.37258 24 0 18.6274 0 12ZM12 5.5C8.41015 5.5 5.5 8.41015 5.5 12C5.5 15.5899 8.41015 18.5 12 18.5C13.7931 18.5 15.4154 17.7741 16.592 16.5993C16.7875 16.4042 17.104 16.4044 17.2991 16.5998C17.4943 16.7953 17.494 17.1118 17.2986 17.307C15.9423 18.6611 14.0689 19.5 12 19.5C7.85786 19.5 4.5 16.1421 4.5 12C4.5 7.85786 7.85786 4.5 12 4.5C13.8911 4.5 15.6187 5.20086 16.9375 6.3554L17.6464 5.64645C17.8417 5.45118 18.1583 5.45118 18.3536 5.64645C18.5488 5.84171 18.5488 6.15829 18.3536 6.35355L17.3555 7.3516C17.3408 7.37148 17.3244 7.39052 17.3064 7.40852C17.2886 7.42633 17.2697 7.44251 17.25 7.45707L13.7231 10.984C13.899 11.2818 14 11.6291 14 12C14 13.1046 13.1046 14 12 14C10.8954 14 10 13.1046 10 12C10 10.8954 10.8954 10 12 10C12.3709 10 12.7182 10.101 13.016 10.2769L14.0958 9.19711C13.5114 8.75913 12.7865 8.5 12 8.5C10.067 8.5 8.5 10.067 8.5 12C8.5 13.933 10.067 15.5 12 15.5C12.9665 15.5 13.8405 15.1086 14.4746 14.4746C14.6698 14.2793 14.9864 14.2793 15.1817 14.4746C15.3769 14.6698 15.3769 14.9864 15.1817 15.1817C14.368 15.9954 13.2426 16.5 12 16.5C9.51472 16.5 7.5 14.4853 7.5 12C7.5 9.51472 9.51472 7.5 12 7.5C13.0622 7.5 14.039 7.86881 14.8085 8.48441L16.2286 7.06429C15.0915 6.08891 13.615 5.5 12 5.5Z" fill="#272727"/>
</svg>
