<svg width="24" height="24" viewBox="0 0 24 24" fill="none" xmlns="http://www.w3.org/2000/svg">
<path fill-rule="evenodd" clip-rule="evenodd" d="M12 0C5.37258 0 0 5.37258 0 12C0 18.6274 5.37258 24 12 24C18.6274 24 24 18.6274 24 12C24 5.37258 18.6274 0 12 0ZM8.35355 7.35355C8.54882 7.15829 8.54882 6.84171 8.35355 6.64645C8.15829 6.45118 7.84171 6.45118 7.64645 6.64645L3.64645 10.6464C3.45118 10.8417 3.45118 11.1583 3.64645 11.3536L7.64645 15.3536C7.84171 15.5488 8.15829 15.5488 8.35355 15.3536C8.54882 15.1583 8.54882 14.8417 8.35355 14.6464L4.70711 11L8.35355 7.35355ZM13.3536 7.35355C13.5488 7.15829 13.5488 6.84171 13.3536 6.64645C13.1583 6.45118 12.8417 6.45118 12.6464 6.64645L8.64645 10.6464C8.45118 10.8417 8.45118 11.1583 8.64645 11.3536L12.6464 15.3536C12.8417 15.5488 13.1583 15.5488 13.3536 15.3536C13.5488 15.1583 13.5488 14.8417 13.3536 14.6464L10.2071 11.5H16C17.3807 11.5 18.5 12.6193 18.5 14V17C18.5 17.2761 18.7239 17.5 19 17.5C19.2761 17.5 19.5 17.2761 19.5 17V14C19.5 12.067 17.933 10.5 16 10.5H10.2071L13.3536 7.35355Z" fill="#272727"/>
</svg>
