<svg width="24" height="24" viewBox="0 0 24 24" fill="none" xmlns="http://www.w3.org/2000/svg">
<path fill-rule="evenodd" clip-rule="evenodd" d="M0 12C0 5.37258 5.37258 0 12 0C18.6274 0 24 5.37258 24 12C24 18.6274 18.6274 24 12 24C5.37258 24 0 18.6274 0 12ZM4.75 9C4.75 8.72386 4.97386 8.5 5.25 8.5H11.2915C11.5295 7.08114 12.7635 6 14.25 6C15.7365 6 16.9705 7.08114 17.2085 8.5H18.75C19.0261 8.5 19.25 8.72386 19.25 9C19.25 9.27614 19.0261 9.5 18.75 9.5H17.2085C16.9705 10.9189 15.7365 12 14.25 12C12.7635 12 11.5295 10.9189 11.2915 9.5H5.25C4.97386 9.5 4.75 9.27614 4.75 9ZM4.75 15C4.75 14.7239 4.97386 14.5 5.25 14.5H6.79148C7.02952 13.0811 8.2635 12 9.75 12C11.2365 12 12.4705 13.0811 12.7085 14.5H18.75C19.0261 14.5 19.25 14.7239 19.25 15C19.25 15.2761 19.0261 15.5 18.75 15.5H12.7085C12.4705 16.9189 11.2365 18 9.75 18C8.2635 18 7.02952 16.9189 6.79148 15.5H5.25C4.97386 15.5 4.75 15.2761 4.75 15Z" fill="#272727"/>
</svg>
