<svg width="24" height="24" viewBox="0 0 24 24" fill="none" xmlns="http://www.w3.org/2000/svg">
<path fill-rule="evenodd" clip-rule="evenodd" d="M0.999998 7.55561C0.447714 7.55561 0 8.00333 0 8.55561V15.4445C0 15.9968 0.447716 16.4445 1 16.4445H5.67939C5.77969 16.4445 5.87768 16.4747 5.96062 16.5311L12.4375 20.9371C13.1014 21.3888 14 20.9133 14 20.1103V3.88977C14 3.08683 13.1014 2.61132 12.4375 3.06295L5.96062 7.46901C5.87768 7.52543 5.77969 7.5556 5.67939 7.5556L0.999998 7.55561ZM17.3536 8.64649C17.1583 8.45123 16.8417 8.45123 16.6464 8.64649C16.4512 8.84175 16.4512 9.15834 16.6464 9.3536L19.2929 12L16.6464 14.6465C16.4512 14.8418 16.4512 15.1583 16.6464 15.3536C16.8417 15.5489 17.1583 15.5489 17.3536 15.3536L20 12.7072L22.6464 15.3536C22.8417 15.5489 23.1583 15.5489 23.3536 15.3536C23.5488 15.1583 23.5488 14.8418 23.3536 14.6465L20.7071 12L23.3536 9.3536C23.5488 9.15834 23.5488 8.84175 23.3536 8.64649C23.1583 8.45123 22.8417 8.45123 22.6464 8.64649L20 11.2929L17.3536 8.64649Z" fill="#272727"/>
</svg>
