<svg width="24" height="24" viewBox="0 0 24 24" fill="none" xmlns="http://www.w3.org/2000/svg">
<path fill-rule="evenodd" clip-rule="evenodd" d="M12 0C5.37258 0 0 5.37258 0 12C0 18.6274 5.37258 24 12 24C18.6274 24 24 18.6274 24 12C24 5.37258 18.6274 0 12 0ZM11.3536 8.35355C11.5488 8.15829 11.5488 7.84171 11.3536 7.64645C11.1583 7.45118 10.8417 7.45118 10.6464 7.64645L6.64645 11.6464C6.45118 11.8417 6.45118 12.1583 6.64645 12.3536L10.6464 16.3536C10.8417 16.5488 11.1583 16.5488 11.3536 16.3536C11.5488 16.1583 11.5488 15.8417 11.3536 15.6464L8.20711 12.5L17 12.5C17.2761 12.5 17.5 12.2761 17.5 12C17.5 11.7239 17.2761 11.5 17 11.5L8.20711 11.5L11.3536 8.35355Z" fill="#272727"/>
</svg>
