<svg width="24" height="24" viewBox="0 0 24 24" fill="none" xmlns="http://www.w3.org/2000/svg">
<path fill-rule="evenodd" clip-rule="evenodd" d="M12 0C5.37258 0 0 5.37258 0 12C0 18.6274 5.37258 24 12 24C18.6274 24 24 18.6274 24 12C24 5.37258 18.6274 0 12 0ZM12.5 7C12.5 7.27614 12.7239 7.5 13 7.5H15.7929L7.5 15.7929V13C7.5 12.7239 7.27614 12.5 7 12.5C6.72386 12.5 6.5 12.7239 6.5 13V17C6.5 17.2761 6.72386 17.5 7 17.5H11C11.2761 17.5 11.5 17.2761 11.5 17C11.5 16.7239 11.2761 16.5 11 16.5H8.20711L16.5 8.20711V11C16.5 11.2761 16.7239 11.5 17 11.5C17.2761 11.5 17.5 11.2761 17.5 11V7C17.5 6.72386 17.2761 6.5 17 6.5H13C12.7239 6.5 12.5 6.72386 12.5 7Z" fill="#272727"/>
</svg>
