<svg width="24" height="24" viewBox="0 0 24 24" fill="none" xmlns="http://www.w3.org/2000/svg">
<path fill-rule="evenodd" clip-rule="evenodd" d="M12 0C5.37258 0 0 5.37258 0 12C0 18.6274 5.37258 24 12 24C18.6274 24 24 18.6274 24 12C24 5.37258 18.6274 0 12 0ZM12.3536 6.64645C12.2598 6.55268 12.1326 6.5 12 6.5C11.8674 6.5 11.7402 6.55268 11.6464 6.64645L7.64645 10.6464C7.45119 10.8417 7.45119 11.1583 7.64645 11.3536C7.84171 11.5488 8.15829 11.5488 8.35355 11.3536L11.5 8.20711L11.5 17C11.5 17.2761 11.7239 17.5 12 17.5C12.2761 17.5 12.5 17.2761 12.5 17L12.5 8.20711L15.6464 11.3536C15.8417 11.5488 16.1583 11.5488 16.3536 11.3536C16.5488 11.1583 16.5488 10.8417 16.3536 10.6464L12.3536 6.64645Z" fill="#272727"/>
</svg>
