<svg width="24" height="24" viewBox="0 0 24 24" fill="none" xmlns="http://www.w3.org/2000/svg">
<path fill-rule="evenodd" clip-rule="evenodd" d="M12 0C5.37258 0 0 5.37258 0 12C0 18.6274 5.37258 24 12 24C18.6274 24 24 18.6274 24 12C24 5.37258 18.6274 0 12 0ZM13.4109 5.88458C14.1749 5.12061 15.4135 5.12061 16.1775 5.88458C16.9414 6.64855 16.9414 7.8872 16.1775 8.65117L9.51956 15.3091C9.2352 15.5934 8.77418 15.5934 8.48982 15.3091C8.20547 15.0247 8.20547 14.5637 8.48982 14.2793L13.4109 9.35827C13.6061 9.16301 13.6061 8.84643 13.4109 8.65117C13.2156 8.4559 12.899 8.4559 12.7038 8.65117L7.78271 13.5722C7.10783 14.2471 7.10783 15.3413 7.78271 16.0162C8.45759 16.6911 9.55179 16.6911 10.2267 16.0162L16.8846 9.35827C18.0391 8.20378 18.0391 6.33197 16.8846 5.17747C15.7301 4.02298 13.8583 4.02298 12.7038 5.17747L6.04587 11.8354C4.41175 13.4695 4.41175 16.1189 6.04587 17.753C7.67998 19.3871 10.3294 19.3871 11.9635 17.753L16.8846 12.832C17.0798 12.6367 17.0798 12.3201 16.8846 12.1249C16.6893 11.9296 16.3727 11.9296 16.1775 12.1249L11.2564 17.0459C10.0128 18.2895 7.99656 18.2895 6.75297 17.0459C5.50938 15.8023 5.50938 13.7861 6.75297 12.5425L13.4109 5.88458Z" fill="#272727"/>
</svg>
