<svg width="24" height="24" viewBox="0 0 24 24" fill="none" xmlns="http://www.w3.org/2000/svg">
<path fill-rule="evenodd" clip-rule="evenodd" d="M7.17678 2.76256C7.50497 2.43437 7.95008 2.25 8.41421 2.25H17.5858C18.0499 2.25 18.495 2.43437 18.8232 2.76256L20.9445 4.88388C21.4603 5.39961 21.75 6.09908 21.75 6.82843V19C21.75 20.5188 20.5188 21.75 19 21.75H7C5.48122 21.75 4.25 20.5188 4.25 19V6.82843C4.25 6.09908 4.53973 5.39961 5.05546 4.88388L7.17678 2.76256ZM8.41421 3.75C8.34791 3.75 8.28432 3.77634 8.23744 3.82322L6.11612 5.94454C6.09811 5.96255 6.08072 5.98104 6.06394 6H19.9361C19.9193 5.98104 19.9019 5.96255 19.8839 5.94454L17.7626 3.82322C17.7157 3.77634 17.6521 3.75 17.5858 3.75H8.41421ZM10.5 10C10.5 9.72386 10.2761 9.5 10 9.5C9.72386 9.5 9.5 9.72386 9.5 10C9.5 11.933 11.067 13.5 13 13.5C14.933 13.5 16.5 11.933 16.5 10C16.5 9.72386 16.2761 9.5 16 9.5C15.7239 9.5 15.5 9.72386 15.5 10C15.5 11.3807 14.3807 12.5 13 12.5C11.6193 12.5 10.5 11.3807 10.5 10Z" fill="#272727"/>
</svg>
