<svg width="24" height="24" viewBox="0 0 24 24" fill="none" xmlns="http://www.w3.org/2000/svg">
<path fill-rule="evenodd" clip-rule="evenodd" d="M11.5 21H4.90909C2.19787 21 0 18.7334 0 15.9375C0 13.1416 2.19788 10.875 4.90909 10.875H5.45455V9.75C5.45455 6.02208 8.38505 3 12 3C15.615 3 18.5455 6.02208 18.5455 9.75V10.875H19.0909C21.8021 10.875 24 13.1416 24 15.9375C24 18.7334 21.8021 21 19.0909 21H12.5L12.5 15.2071L14.6464 17.3536C14.8417 17.5488 15.1583 17.5488 15.3536 17.3536C15.5488 17.1583 15.5488 16.8417 15.3536 16.6464L12.3536 13.6464C12.1583 13.4512 11.8417 13.4512 11.6464 13.6464L8.64645 16.6464C8.45119 16.8417 8.45119 17.1583 8.64645 17.3536C8.84171 17.5488 9.15829 17.5488 9.35355 17.3536L11.5 15.2071L11.5 21ZM11.5 21V23C11.5 23.2761 11.7239 23.5 12 23.5C12.2761 23.5 12.5 23.2761 12.5 23V21H11.5Z" fill="#272727"/>
</svg>
