<svg width="24" height="24" viewBox="0 0 24 24" fill="none" xmlns="http://www.w3.org/2000/svg">
<path fill-rule="evenodd" clip-rule="evenodd" d="M12 0C5.37258 0 0 5.37258 0 12C0 18.6274 5.37258 24 12 24C18.6274 24 24 18.6274 24 12C24 5.37258 18.6274 0 12 0ZM14.75 7.875C14.75 7.11561 15.3656 6.5 16.125 6.5C16.8844 6.5 17.5 7.11561 17.5 7.875C17.5 8.63439 16.8844 9.25 16.125 9.25H14.75V7.875ZM16.125 10.25H14.75V13.75H16.125C17.4367 13.75 18.5 14.8133 18.5 16.125C18.5 17.4367 17.4367 18.5 16.125 18.5C14.8133 18.5 13.75 17.4367 13.75 16.125V14.75H10.25V16.125C10.25 17.4367 9.18668 18.5 7.875 18.5C6.56332 18.5 5.5 17.4367 5.5 16.125C5.5 14.8133 6.56332 13.75 7.875 13.75H9.25V10.25H7.875C6.56332 10.25 5.5 9.18668 5.5 7.875C5.5 6.56332 6.56332 5.5 7.875 5.5C9.18668 5.5 10.25 6.56332 10.25 7.875V9.25H13.75V7.875C13.75 6.56332 14.8133 5.5 16.125 5.5C17.4367 5.5 18.5 6.56332 18.5 7.875C18.5 9.18668 17.4367 10.25 16.125 10.25ZM14.75 16.125V14.75H16.125C16.8844 14.75 17.5 15.3656 17.5 16.125C17.5 16.8844 16.8844 17.5 16.125 17.5C15.3656 17.5 14.75 16.8844 14.75 16.125ZM7.875 14.75H9.25V16.125C9.25 16.8844 8.63439 17.5 7.875 17.5C7.11561 17.5 6.5 16.8844 6.5 16.125C6.5 15.3656 7.11561 14.75 7.875 14.75ZM10.25 10.25H13.75V13.75H10.25V10.25ZM9.25 7.875V9.25H7.875C7.11561 9.25 6.5 8.63439 6.5 7.875C6.5 7.11561 7.11561 6.5 7.875 6.5C8.63439 6.5 9.25 7.11561 9.25 7.875Z" fill="#272727"/>
</svg>
