<svg width="24" height="24" viewBox="0 0 24 24" fill="none" xmlns="http://www.w3.org/2000/svg">
<path fill-rule="evenodd" clip-rule="evenodd" d="M3 15.2072V20.0001C3 20.5524 3.44771 21.0001 4 21.0001H8.79289C8.9255 21.0001 9.05268 20.9474 9.14645 20.8536L18.6464 11.3536L12.6464 5.35365L3.14645 14.8536C3.05268 14.9474 3 15.0746 3 15.2072ZM13.3536 4.64654L19.3536 10.6465L21.2929 8.7072C21.6834 8.31668 21.6834 7.68351 21.2929 7.29299L16.7071 2.7072C16.3166 2.31668 15.6834 2.31668 15.2929 2.7072L13.3536 4.64654ZM13.3536 11.3537C13.5488 11.1584 13.5488 10.8418 13.3536 10.6466C13.1583 10.4513 12.8417 10.4513 12.6464 10.6466L7.64644 15.6466C7.45118 15.8418 7.45118 16.1584 7.64644 16.3537C7.84171 16.5489 8.15829 16.5489 8.35355 16.3537L13.3536 11.3537Z" fill="#272727"/>
</svg>
