<svg width="24" height="24" viewBox="0 0 24 24" fill="none" xmlns="http://www.w3.org/2000/svg">
<path fill-rule="evenodd" clip-rule="evenodd" d="M6 3C5.72386 3 5.5 3.22386 5.5 3.5C5.5 3.77614 5.72386 4 6 4H18C18.2761 4 18.5 3.77614 18.5 3.5C18.5 3.22386 18.2761 3 18 3H6ZM4 5.5C3.72386 5.5 3.5 5.72386 3.5 6C3.5 6.27614 3.72386 6.5 4 6.5H20C20.2761 6.5 20.5 6.27614 20.5 6C20.5 5.72386 20.2761 5.5 20 5.5H4ZM3 8C1.89543 8 1 8.89543 1 10V22C1 23.1046 1.89543 24 3 24H21C22.1046 24 23 23.1046 23 22V10C23 8.89543 22.1046 8 21 8H3Z" fill="#272727"/>
</svg>
