<svg width="24" height="24" viewBox="0 0 24 24" fill="none" xmlns="http://www.w3.org/2000/svg">
<path fill-rule="evenodd" clip-rule="evenodd" d="M12 0C5.37258 0 0 5.37258 0 12C0 18.6274 5.37258 24 12 24C18.6274 24 24 18.6274 24 12C24 5.37258 18.6274 0 12 0ZM16.5802 7.34005C15.3541 6.11388 13.3661 6.11388 12.1399 7.34005L10.1374 9.34253C9.13355 10.3464 9.13355 11.974 10.1374 12.9778L10.8066 13.647C11.0019 13.8423 11.3184 13.8423 11.5137 13.647C11.709 13.4517 11.709 13.1352 11.5137 12.9399L10.8445 12.2707C10.2312 11.6574 10.2312 10.663 10.8445 10.0496L12.847 8.04715C13.6826 7.21151 15.0375 7.21151 15.8731 8.04715C16.7088 8.8828 16.7088 10.2376 15.8731 11.0733L15.6065 11.3399C15.4112 11.5352 15.4112 11.8518 15.6065 12.047C15.8017 12.2423 16.1183 12.2423 16.3136 12.047L16.5802 11.7804C17.8064 10.5542 17.8064 8.56621 16.5802 7.34005ZM13.1137 10.2733C12.9184 10.0781 12.6018 10.0781 12.4066 10.2733C12.2113 10.4686 12.2113 10.7852 12.4066 10.9804L13.0757 11.6496C13.6891 12.263 13.6891 13.2574 13.0757 13.8707L11.0733 15.8732C10.2376 16.7088 8.88277 16.7088 8.04713 15.8732C7.21149 15.0375 7.21149 13.6827 8.04713 12.8471L8.31379 12.5804C8.50905 12.3851 8.50905 12.0686 8.31379 11.8733C8.11853 11.678 7.80195 11.678 7.60669 11.8733L7.34003 12.14C6.11386 13.3661 6.11386 15.3541 7.34003 16.5803C8.56619 17.8065 10.5542 17.8065 11.7804 16.5803L13.7828 14.5778C14.7867 13.5739 14.7867 11.9464 13.7828 10.9425L13.1137 10.2733Z" fill="#272727"/>
</svg>
