<svg width="25" height="24" viewBox="0 0 25 24" fill="none" xmlns="http://www.w3.org/2000/svg">
<path fill-rule="evenodd" clip-rule="evenodd" d="M25 5C25 6.65685 23.6569 8 22 8C20.3431 8 19 6.65685 19 5C19 3.34315 20.3431 2 22 2C23.6569 2 25 3.34315 25 5ZM23 8.87398C22.6804 8.95625 22.3453 9 22 9C21.0756 9 20.2245 8.68646 19.5472 8.15993L15.7071 12L20.8536 17.1464C21.0488 17.3417 21.0488 17.6583 20.8536 17.8536C20.6583 18.0488 20.3417 18.0488 20.1464 17.8536L15 12.7071L13.0607 14.6464C12.4749 15.2322 11.5251 15.2322 10.9393 14.6464L9 12.7071L3.85355 17.8536C3.65829 18.0488 3.34171 18.0488 3.14645 17.8536C2.95118 17.6583 2.95118 17.3417 3.14645 17.1464L8.29289 12L3.14645 6.85355C2.95118 6.65829 2.95118 6.34171 3.14645 6.14645C3.34171 5.95118 3.65829 5.95118 3.85355 6.14645L9.35355 11.6464L11.6464 13.9393C11.8417 14.1346 12.1583 14.1346 12.3536 13.9393L14.646 11.6468L14.6464 11.6464L14.6468 11.646L18.8401 7.45282C18.3135 6.77548 18 5.92436 18 5C18 4.6547 18.0438 4.31962 18.126 4H3.5C2.11929 4 1 5.11929 1 6.5V17.5C1 18.8807 2.11929 20 3.5 20H20.5C21.8807 20 23 18.8807 23 17.5V8.87398Z" fill="#272727"/>
</svg>
