<svg width="24" height="24" viewBox="0 0 24 24" fill="none" xmlns="http://www.w3.org/2000/svg">
<path fill-rule="evenodd" clip-rule="evenodd" d="M3.5 4C2.11929 4 1 5.11929 1 6.5V17.5C1 18.8807 2.11929 20 3.5 20H20.5C21.8807 20 23 18.8807 23 17.5V6.5C23 5.11929 21.8807 4 20.5 4H3.5ZM9.35355 11.6464L3.85355 6.14645C3.65829 5.95118 3.34171 5.95118 3.14645 6.14645C2.95118 6.34171 2.95118 6.65829 3.14645 6.85355L8.29289 12L3.14645 17.1464C2.95118 17.3417 2.95118 17.6583 3.14645 17.8536C3.34171 18.0488 3.65829 18.0488 3.85355 17.8536L9 12.7071L10.9393 14.6464C11.5251 15.2322 12.4749 15.2322 13.0607 14.6464L15 12.7071L20.1464 17.8536C20.3417 18.0488 20.6583 18.0488 20.8536 17.8536C21.0488 17.6583 21.0488 17.3417 20.8536 17.1464L15.7071 12L20.8536 6.85355C21.0488 6.65829 21.0488 6.34171 20.8536 6.14645C20.6583 5.95118 20.3417 5.95118 20.1464 6.14645L14.6468 11.6461L14.6464 11.6464L14.6461 11.6468L12.3536 13.9393C12.1583 14.1346 11.8417 14.1346 11.6464 13.9393L9.35355 11.6464Z" fill="#272727"/>
</svg>
