<svg width="24" height="24" viewBox="0 0 24 24" fill="none" xmlns="http://www.w3.org/2000/svg">
<path d="M17.1523 14.3506L21 13.6724V15.9576C21 18.8921 18.6257 20 17.0463 20C15.2655 20 13.9829 18.902 13.9829 17.345C13.9829 15.8179 14.9899 14.7698 17.1523 14.3506Z" fill="#272727"/>
<path d="M10.6575 5.76027C10.2627 5.90419 10 6.27957 10 6.69978V9.99996L20.9719 5.99996V2.18916C20.9719 2.09723 20.8805 2.03328 20.7942 2.06476L10.6575 5.76027Z" fill="#272727"/>
<path d="M17.1523 14.3506L18.7496 14.0691C19.9237 13.8621 21 14.7654 21 15.9576C21 18.8921 18.6257 20 17.0463 20C15.2655 20 13.9829 18.902 13.9829 17.345C13.9829 15.8179 14.9899 14.7698 17.1523 14.3506Z" fill="#272727"/>
<path d="M6.1523 17.3506L10.0001 16.6724V18.9576C10.0001 21.8921 7.6257 23 6.0463 23C4.26551 23 2.98291 21.902 2.98291 20.345C2.98291 18.8179 3.98991 17.7698 6.1523 17.3506Z" fill="#272727"/>
<path d="M6.1523 17.3506L7.74963 17.0691C8.92375 16.8621 10.0001 17.7654 10.0001 18.9576C10.0001 21.8921 7.6257 23 6.0463 23C4.26551 23 2.98291 21.902 2.98291 20.345C2.98291 18.8179 3.98991 17.7698 6.1523 17.3506Z" fill="#272727"/>
<path d="M20.9719 5.99996L10 9.99996M20.9719 5.99996L21 13.6724M20.9719 5.99996V2.18916C20.9719 2.09723 20.8805 2.03328 20.7942 2.06476L10.6575 5.76027C10.2627 5.90419 10 6.27957 10 6.69978V9.99996M10 9.99996V15.9576M21 13.6724L17.1523 14.3506M21 13.6724V15.9576M17.1523 14.3506C14.9899 14.7698 13.9829 15.8179 13.9829 17.345C13.9829 18.902 15.2655 20 17.0463 20C18.6257 20 21 18.8921 21 15.9576M17.1523 14.3506L18.7496 14.0691C19.9237 13.8621 21 14.7654 21 15.9576M10 8.99996L10.0001 16.6724M10.0001 16.6724L6.1523 17.3506M10.0001 16.6724V18.9576M6.1523 17.3506C3.98991 17.7698 2.98291 18.8179 2.98291 20.345C2.98291 21.902 4.26551 23 6.0463 23C7.6257 23 10.0001 21.8921 10.0001 18.9576M6.1523 17.3506L7.74963 17.0691C8.92375 16.8621 10.0001 17.7654 10.0001 18.9576" stroke="#272727" stroke-width="2" stroke-linecap="round"/>
</svg>
