<svg width="24" height="24" viewBox="0 0 24 24" fill="none" xmlns="http://www.w3.org/2000/svg">
<path fill-rule="evenodd" clip-rule="evenodd" d="M1.5 12C1.5 6.20101 6.20101 1.5 12 1.5C17.799 1.5 22.5 6.20101 22.5 12C22.5 14.94 21.2917 17.5978 19.3446 19.5038C19.7891 18.8005 20.0715 18.0047 20.0715 17.3156C20.0715 15.8632 18.2399 14.9436 16.8484 14.4281C15.6938 16.3218 14.0242 17.75 12 17.75C9.97836 17.75 8.31052 16.3256 7.15614 14.4357C5.80073 14.9519 4.04004 15.8691 4.04004 17.3156C4.04004 18.0537 4.33754 18.9144 4.8106 19.6527C2.77272 17.7374 1.5 15.0173 1.5 12ZM8.04202 21.7284C9.26351 22.2259 10.5997 22.5 12 22.5C13.4005 22.5 14.737 22.2258 15.9587 21.7281C14.8748 22.099 13.5503 22.5 12 22.5C10.45 22.5 9.12581 22.0992 8.04202 21.7284ZM12 0.5C5.64873 0.5 0.5 5.64873 0.5 12C0.5 18.3513 5.64873 23.5 12 23.5C18.3513 23.5 23.5 18.3513 23.5 12C23.5 5.64873 18.3513 0.5 12 0.5ZM16.9461 7.74422C16.9461 9.96095 16.3984 12.1579 15.4858 13.7791C14.4661 15.3921 13.2288 16.25 12 16.25C10.7711 16.25 9.53372 15.3921 8.51401 13.779C7.60157 12.1578 7.05507 9.9609 7.05507 7.74422C7.05507 5.70531 9.22569 4 12 4C14.7742 4 16.9461 5.70531 16.9461 7.74422Z" fill="#272727"/>
</svg>
