<svg width="24" height="24" viewBox="0 0 24 24" fill="none" xmlns="http://www.w3.org/2000/svg">
<path fill-rule="evenodd" clip-rule="evenodd" d="M6 0C2.68629 0 0 2.68629 0 6V18C0 21.3137 2.68629 24 6 24H18C21.3137 24 24 21.3137 24 18V6C24 2.68629 21.3137 0 18 0H6ZM7 3.5C5.067 3.5 3.5 5.067 3.5 7V8.36364C3.5 8.63978 3.72386 8.86364 4 8.86364C4.27614 8.86364 4.5 8.63978 4.5 8.36364V7C4.5 5.61929 5.61929 4.5 7 4.5H9.81818C10.0943 4.5 10.3182 4.27614 10.3182 4C10.3182 3.72386 10.0943 3.5 9.81818 3.5H7ZM14.1818 3.5C13.9057 3.5 13.6818 3.72386 13.6818 4C13.6818 4.27614 13.9057 4.5 14.1818 4.5H17C18.3807 4.5 19.5 5.61929 19.5 7V8.36364C19.5 8.63978 19.7239 8.86364 20 8.86364C20.2761 8.86364 20.5 8.63978 20.5 8.36364V7C20.5 5.067 18.933 3.5 17 3.5H14.1818ZM2 11.5C1.72386 11.5 1.5 11.7239 1.5 12C1.5 12.2761 1.72386 12.5 2 12.5H22C22.2761 12.5 22.5 12.2761 22.5 12C22.5 11.7239 22.2761 11.5 22 11.5H2ZM4.5 15.6364C4.5 15.3602 4.27614 15.1364 4 15.1364C3.72386 15.1364 3.5 15.3602 3.5 15.6364V17C3.5 18.933 5.06701 20.5 7 20.5H9.81818C10.0943 20.5 10.3182 20.2761 10.3182 20C10.3182 19.7239 10.0943 19.5 9.81818 19.5H7C5.61929 19.5 4.5 18.3807 4.5 17V15.6364ZM20.5 15.6364C20.5 15.3602 20.2761 15.1364 20 15.1364C19.7239 15.1364 19.5 15.3602 19.5 15.6364V17C19.5 18.3807 18.3807 19.5 17 19.5H14.1818C13.9057 19.5 13.6818 19.7239 13.6818 20C13.6818 20.2761 13.9057 20.5 14.1818 20.5H17C18.933 20.5 20.5 18.933 20.5 17V15.6364Z" fill="#272727"/>
</svg>
