<svg width="24" height="24" viewBox="0 0 24 24" fill="none" xmlns="http://www.w3.org/2000/svg">
<path fill-rule="evenodd" clip-rule="evenodd" d="M0.999998 7.55549C0.447714 7.55549 0 8.00321 0 8.55549V15.4444C0 15.9967 0.447716 16.4444 1 16.4444H5.67939C5.77969 16.4444 5.87768 16.4745 5.96062 16.531L12.4375 20.937C13.1014 21.3886 14 20.9131 14 20.1102V3.88964C14 3.0867 13.1014 2.6112 12.4375 3.06282L5.96062 7.46889C5.87768 7.52531 5.77969 7.55548 5.67939 7.55548L0.999998 7.55549ZM17.3536 8.64637C17.1583 8.45111 16.8417 8.45111 16.6464 8.64637C16.4512 8.84163 16.4512 9.15821 16.6464 9.35348L19.2929 11.9999L16.6464 14.6464C16.4512 14.8416 16.4512 15.1582 16.6464 15.3535C16.8417 15.5487 17.1583 15.5487 17.3536 15.3535L20 12.707L22.6464 15.3535C22.8417 15.5487 23.1583 15.5487 23.3536 15.3535C23.5488 15.1582 23.5488 14.8416 23.3536 14.6464L20.7071 11.9999L23.3536 9.35348C23.5488 9.15821 23.5488 8.84163 23.3536 8.64637C23.1583 8.45111 22.8417 8.45111 22.6464 8.64637L20 11.2928L17.3536 8.64637Z" fill="#272727"/>
</svg>
