<svg width="24" height="24" viewBox="0 0 24 24" fill="none" xmlns="http://www.w3.org/2000/svg">
<path fill-rule="evenodd" clip-rule="evenodd" d="M8 5C4.13401 5 1 8.13401 1 12C1 15.866 4.13401 19 8 19H16C19.866 19 23 15.866 23 12C23 8.13401 19.866 5 16 5H8ZM8 6.5C4.96243 6.5 2.5 8.96243 2.5 12C2.5 15.0376 4.96243 17.5 8 17.5C11.0376 17.5 13.5 15.0376 13.5 12C13.5 8.96243 11.0376 6.5 8 6.5ZM3.5 12C3.5 9.51472 5.51472 7.5 8 7.5C10.4853 7.5 12.5 9.51472 12.5 12C12.5 14.4853 10.4853 16.5 8 16.5C5.51472 16.5 3.5 14.4853 3.5 12Z" fill="#272727"/>
</svg>
