<svg width="24" height="24" viewBox="0 0 24 24" fill="none" xmlns="http://www.w3.org/2000/svg">
<path fill-rule="evenodd" clip-rule="evenodd" d="M1 3.5C1 2.67157 1.67157 2 2.5 2H21.5C22.3284 2 23 2.67157 23 3.5V5.5C23 6.32843 22.3284 7 21.5 7H2.5C1.67157 7 1 6.32843 1 5.5V3.5ZM3.95307 19.0133L3.09406 9.08697C3.04352 8.50284 3.50397 8 4.09028 8H19.9097C20.496 8 20.9565 8.5021 20.906 9.08622L20.0469 19.0133C19.9497 20.1362 18.9749 21 17.8047 21H6.1953C5.0251 21 4.05025 20.1362 3.95307 19.0133ZM9.49994 11C9.2238 11 8.99994 11.2239 8.99994 11.5C8.99994 11.7761 9.2238 12 9.49994 12H14.9999C15.2761 12 15.4999 11.7761 15.4999 11.5C15.4999 11.2239 15.2761 11 14.9999 11H9.49994Z" fill="#272727"/>
</svg>
