<svg width="24" height="24" viewBox="0 0 24 24" fill="none" xmlns="http://www.w3.org/2000/svg">
<path fill-rule="evenodd" clip-rule="evenodd" d="M12 0C5.37258 0 0 5.37258 0 12C0 18.6274 5.37258 24 12 24C18.6274 24 24 18.6274 24 12C24 5.37258 18.6274 0 12 0ZM13.1923 7.5C12.9162 7.5 12.6923 7.72386 12.6923 8C12.6923 8.27614 12.9162 8.5 13.1923 8.5H15C15.8284 8.5 16.5 9.17157 16.5 10V11.7273C16.5 12.5557 15.8284 13.2273 15 13.2273L7.23639 13.2273L9.73218 10.814C9.93069 10.622 9.93601 10.3055 9.74406 10.107C9.55211 9.90847 9.23557 9.90315 9.03705 10.0951L5.65244 13.3678C5.55501 13.462 5.5 13.5918 5.5 13.7273C5.5 13.8628 5.55501 13.9925 5.65244 14.0867L9.03705 17.3594C9.23557 17.5514 9.55211 17.5461 9.74406 17.3476C9.93601 17.149 9.93069 16.8325 9.73218 16.6406L7.23639 14.2273L15 14.2273C16.3807 14.2273 17.5 13.108 17.5 11.7273V10C17.5 8.61929 16.3807 7.5 15 7.5H13.1923Z" fill="#272727"/>
</svg>
