<svg width="24" height="24" viewBox="0 0 24 24" fill="none" xmlns="http://www.w3.org/2000/svg">
<path fill-rule="evenodd" clip-rule="evenodd" d="M12 0C5.37258 0 0 5.37258 0 12C0 18.6274 5.37258 24 12 24C18.6274 24 24 18.6274 24 12C24 5.37258 18.6274 0 12 0ZM12.5 6C12.5 5.72386 12.2761 5.5 12 5.5C11.7239 5.5 11.5 5.72386 11.5 6V13.7929L8.35355 10.6464C8.15829 10.4512 7.84171 10.4512 7.64645 10.6464C7.45118 10.8417 7.45118 11.1583 7.64645 11.3536L11.6464 15.3536C11.8417 15.5488 12.1583 15.5488 12.3536 15.3536L16.3536 11.3536C16.5488 11.1583 16.5488 10.8417 16.3536 10.6464C16.1583 10.4512 15.8417 10.4512 15.6464 10.6464L12.5 13.7929V6ZM8 17.5C7.72386 17.5 7.5 17.7239 7.5 18C7.5 18.2761 7.72386 18.5 8 18.5H16C16.2761 18.5 16.5 18.2761 16.5 18C16.5 17.7239 16.2761 17.5 16 17.5H8Z" fill="#272727"/>
</svg>
