<svg width="24" height="24" viewBox="0 0 24 24" fill="none" xmlns="http://www.w3.org/2000/svg">
<path fill-rule="evenodd" clip-rule="evenodd" d="M12 0C5.37258 0 0 5.37258 0 12C0 18.6274 5.37258 24 12 24C18.6274 24 24 18.6274 24 12C24 5.37258 18.6274 0 12 0ZM13.3536 7.64645C13.1583 7.45118 12.8417 7.45118 12.6464 7.64645C12.4512 7.84171 12.4512 8.15829 12.6464 8.35355L15.7929 11.5H7C6.72386 11.5 6.5 11.7239 6.5 12C6.5 12.2761 6.72386 12.5 7 12.5H15.7929L12.6464 15.6464C12.4512 15.8417 12.4512 16.1583 12.6464 16.3536C12.8417 16.5488 13.1583 16.5488 13.3536 16.3536L17.3536 12.3536C17.5488 12.1583 17.5488 11.8417 17.3536 11.6464L13.3536 7.64645Z" fill="#272727"/>
</svg>
