<svg width="24" height="24" viewBox="0 0 24 24" fill="none" xmlns="http://www.w3.org/2000/svg">
<path fill-rule="evenodd" clip-rule="evenodd" d="M12 0C5.37258 0 0 5.37258 0 12C0 18.6274 5.37258 24 12 24C18.6274 24 24 18.6274 24 12C24 5.37258 18.6274 0 12 0ZM14.3536 7.35355C14.5488 7.15829 14.5488 6.84171 14.3536 6.64645C14.1583 6.45118 13.8417 6.45118 13.6464 6.64645L8.64645 11.6464C8.45118 11.8417 8.45118 12.1583 8.64645 12.3536L13.6464 17.3536C13.8417 17.5488 14.1583 17.5488 14.3536 17.3536C14.5488 17.1583 14.5488 16.8417 14.3536 16.6464L9.70711 12L14.3536 7.35355Z" fill="#272727"/>
</svg>
