<svg width="24" height="24" viewBox="0 0 24 24" fill="none" xmlns="http://www.w3.org/2000/svg">
<path fill-rule="evenodd" clip-rule="evenodd" d="M17.5 4H3.5C1.567 4 0 5.567 0 7.5V16.5C0 18.433 1.567 20 3.5 20H17.5C19.433 20 21 18.433 21 16.5V16C22.6569 16 24 14.6569 24 13V11C24 9.34315 22.6569 8 21 8V7.5C21 5.567 19.433 4 17.5 4ZM22 13C22 13.5523 21.5523 14 21 14V10C21.5523 10 22 10.4477 22 11V13ZM10.4743 9.15811C10.5617 8.89614 10.4201 8.61298 10.1581 8.52566C9.89614 8.43833 9.61298 8.57991 9.52566 8.84189L8.52566 11.8419C8.47483 11.9944 8.5004 12.162 8.59438 12.2924C8.68835 12.4227 8.83928 12.5 9 12.5H11.3063L10.5257 14.8419C10.4383 15.1039 10.5799 15.387 10.8419 15.4743C11.1039 15.5617 11.387 15.4201 11.4743 15.1581L12.4743 12.1581C12.5252 12.0056 12.4996 11.838 12.4056 11.7076C12.3116 11.5773 12.1607 11.5 12 11.5H9.69371L10.4743 9.15811Z" fill="#272727"/>
</svg>
