<svg width="24" height="24" viewBox="0 0 24 24" fill="none" xmlns="http://www.w3.org/2000/svg">
<path fill-rule="evenodd" clip-rule="evenodd" d="M12 0C5.37258 0 0 5.37258 0 12C0 18.6274 5.37258 24 12 24C18.6274 24 24 18.6274 24 12C24 5.37258 18.6274 0 12 0ZM11.3812 4.59288C11.2287 4.4842 11.0284 4.46978 10.8619 4.55552C10.6955 4.64126 10.5909 4.81279 10.5909 5V10.9063L7.29601 8.48592C7.07345 8.32244 6.76051 8.37033 6.59703 8.59288C6.43356 8.81544 6.48144 9.12837 6.70399 9.29185L10.3907 12L6.70399 14.7081C6.48144 14.8716 6.43356 15.1846 6.59703 15.4071C6.76051 15.6297 7.07345 15.6776 7.29601 15.5141L10.5909 13.0937V19C10.5909 19.1872 10.6955 19.3587 10.8619 19.4445C11.0284 19.5302 11.2287 19.5158 11.3812 19.4071L16.2903 15.9071C16.4209 15.814 16.4989 15.6639 16.5 15.5035C16.5011 15.3432 16.4253 15.192 16.296 15.097L12.0799 12L16.296 8.90297C16.4253 8.80802 16.5011 8.65683 16.5 8.49646C16.4989 8.33608 16.4209 8.18598 16.2903 8.09288L11.3812 4.59288ZM15.1472 15.494L11.5909 12.8816V18.0294L15.1472 15.494ZM11.5909 5.97055V11.1184L15.1472 8.50605L11.5909 5.97055Z" fill="#272727"/>
</svg>
