<svg width="24" height="27" viewBox="0 0 24 27" fill="none" xmlns="http://www.w3.org/2000/svg">
<path fill-rule="evenodd" clip-rule="evenodd" d="M11.5 21H4.90909C2.19787 21 0 18.7334 0 15.9375C0 13.1416 2.19788 10.875 4.90909 10.875H5.45455V9.75C5.45455 6.02208 8.38505 3 12 3C15.615 3 18.5455 6.02208 18.5455 9.75V10.875H19.0909C21.8021 10.875 24 13.1416 24 15.9375C24 18.7334 21.8021 21 19.0909 21H12.5V17C12.5 16.7239 12.2761 16.5 12 16.5C11.7239 16.5 11.5 16.7239 11.5 17V21ZM11.5 21V24.7929L9.35355 22.6464C9.15829 22.4512 8.84171 22.4512 8.64645 22.6464C8.45118 22.8417 8.45118 23.1583 8.64645 23.3536L11.6464 26.3536C11.8417 26.5488 12.1583 26.5488 12.3536 26.3536L15.3536 23.3536C15.5488 23.1583 15.5488 22.8417 15.3536 22.6464C15.1583 22.4512 14.8417 22.4512 14.6464 22.6464L12.5 24.7929V21H11.5Z" fill="#272727"/>
</svg>
