<svg width="24" height="24" viewBox="0 0 24 24" fill="none" xmlns="http://www.w3.org/2000/svg">
<path fill-rule="evenodd" clip-rule="evenodd" d="M12 0C5.37258 0 0 5.37258 0 12C0 18.6274 5.37258 24 12 24C18.6274 24 24 18.6274 24 12C24 5.37258 18.6274 0 12 0ZM17.3796 9.3254C17.5593 9.11573 17.5351 8.80008 17.3254 8.62037C17.1157 8.44066 16.8001 8.46494 16.6204 8.6746L10.9718 15.2647L7.35355 11.6464C7.15829 11.4512 6.84171 11.4512 6.64645 11.6464C6.45118 11.8417 6.45118 12.1583 6.64645 12.3536L10.6464 16.3536C10.7449 16.452 10.88 16.505 11.0192 16.4996C11.1584 16.4943 11.289 16.4311 11.3796 16.3254L17.3796 9.3254Z" fill="#272727"/>
</svg>
