<svg width="24" height="24" viewBox="0 0 24 24" fill="none" xmlns="http://www.w3.org/2000/svg">
<path fill-rule="evenodd" clip-rule="evenodd" d="M12 0C5.37258 0 0 5.37258 0 12C0 18.6274 5.37258 24 12 24C18.6274 24 24 18.6274 24 12C24 5.37258 18.6274 0 12 0ZM6.68763 6.73019C7.15177 5.63823 8.29149 5.2207 9.21803 5.69469C10.1745 6.18398 10.6296 7.47272 10.1569 8.58459C9.69281 9.67655 8.55309 10.0941 7.62655 9.6201C6.67009 9.1308 6.21502 7.84206 6.68763 6.73019ZM11.0773 8.97578C10.7564 9.7306 10.1862 10.292 9.51392 10.5856L11.1809 11.4384L18.7723 7.55486C19.0181 7.4291 19.3194 7.52644 19.4451 7.77228C19.5709 8.01813 19.4736 8.31937 19.2277 8.44514L12.2787 12L19.2277 15.5549C19.4736 15.6806 19.5709 15.9819 19.4451 16.2277C19.3194 16.4736 19.0181 16.5709 18.7723 16.4451L11.1809 12.5616L9.51392 13.4144C10.1862 13.708 10.7564 14.2694 11.0773 15.0242C11.7351 16.572 11.1413 18.4447 9.67347 19.1956C8.17568 19.9618 6.43366 19.2287 5.76732 17.661C5.10944 16.1132 5.70325 14.2405 7.17111 13.4896L10.083 12L7.17111 10.5104C5.70325 9.75945 5.10944 7.88676 5.76732 6.33901C6.43366 4.77134 8.17568 4.0382 9.67347 4.80442C11.1413 5.55533 11.7351 7.42802 11.0773 8.97578ZM6.68763 17.2698C6.21502 16.1579 6.67009 14.8692 7.62655 14.3799C8.55309 13.9059 9.69281 14.3234 10.1569 15.4154C10.6296 16.5273 10.1745 17.816 9.21803 18.3053C8.29149 18.7793 7.15177 18.3618 6.68763 17.2698Z" fill="#272727"/>
</svg>
