<svg width="24" height="24" viewBox="0 0 24 24" fill="none" xmlns="http://www.w3.org/2000/svg">
<path fill-rule="evenodd" clip-rule="evenodd" d="M19 19C19 20.1046 18.1046 21 17 21H7C5.89543 21 5 20.1046 5 19V5C5 3.89543 5.89543 3 7 3H12V7.5H8C7.72386 7.5 7.5 7.72386 7.5 8C7.5 8.27614 7.72386 8.5 8 8.5H12C12.021 8.5 12.0417 8.4987 12.062 8.49619C12.2827 9.36074 13.0667 10 14 10H19V19ZM13 7.5V3.48284C13 3.30466 13.2154 3.21543 13.3414 3.34142L18.6586 8.65858C18.7846 8.78457 18.6953 9 18.5172 9H14.5C13.6716 9 13 8.32843 13 7.5ZM8 10.5C7.72386 10.5 7.5 10.7239 7.5 11C7.5 11.2761 7.72386 11.5 8 11.5H16C16.2761 11.5 16.5 11.2761 16.5 11C16.5 10.7239 16.2761 10.5 16 10.5H8ZM8 13.5C7.72386 13.5 7.5 13.7239 7.5 14C7.5 14.2761 7.72386 14.5 8 14.5H16C16.2761 14.5 16.5 14.2761 16.5 14C16.5 13.7239 16.2761 13.5 16 13.5H8ZM8 16.5C7.72386 16.5 7.5 16.7239 7.5 17C7.5 17.2761 7.72386 17.5 8 17.5H12C12.2761 17.5 12.5 17.2761 12.5 17C12.5 16.7239 12.2761 16.5 12 16.5H8Z" fill="#272727"/>
</svg>
