<svg width="24" height="24" viewBox="0 0 24 24" fill="none" xmlns="http://www.w3.org/2000/svg">
<path fill-rule="evenodd" clip-rule="evenodd" d="M3 15.2071V20C3 20.5523 3.44771 21 4 21H8.79289C8.9255 21 9.05268 20.9473 9.14645 20.8535L18.6464 11.3535L12.6464 5.35352L3.14645 14.8535C3.05268 14.9473 3 15.0745 3 15.2071ZM13.3536 4.64642L19.3536 10.6464L21.2929 8.70708C21.6834 8.31655 21.6834 7.68339 21.2929 7.29286L16.7071 2.70708C16.3166 2.31655 15.6834 2.31655 15.2929 2.70708L13.3536 4.64642ZM13.3536 11.3536C13.5488 11.1583 13.5488 10.8417 13.3536 10.6464C13.1583 10.4512 12.8417 10.4512 12.6464 10.6464L7.64644 15.6464C7.45118 15.8417 7.45118 16.1583 7.64644 16.3536C7.84171 16.5488 8.15829 16.5488 8.35355 16.3536L13.3536 11.3536Z" fill="#272727"/>
</svg>
