<svg width="24" height="24" viewBox="0 0 24 24" fill="none" xmlns="http://www.w3.org/2000/svg">
<path d="M12 5C12 4.44772 12.4477 4 13 4H16C16.5523 4 17 4.44772 17 5V19C17 19.5523 16.5523 20 16 20H13C12.4477 20 12 19.5523 12 19V5Z" fill="#272727"/>
<path d="M19 5C19 4.44772 19.4477 4 20 4H23C23.5523 4 24 4.44772 24 5V19C24 19.5523 23.5523 20 23 20H20C19.4477 20 19 19.5523 19 19V5Z" fill="#272727"/>
<path d="M0.994475 19C0.39779 19 0 18.5247 0 17.7815V6.21852C0 5.47531 0.39779 5 0.994475 5C1.31768 5 1.58287 5.12099 1.92265 5.31975L11.0967 10.8593C11.7597 11.2568 12 11.542 12 12C12 12.458 11.7597 12.7432 11.0967 13.1407L1.92265 18.6802C1.58287 18.879 1.31768 19 0.994475 19Z" fill="#272727"/>
</svg>
