<svg width="24" height="24" viewBox="0 0 24 24" fill="none" xmlns="http://www.w3.org/2000/svg">
<path fill-rule="evenodd" clip-rule="evenodd" d="M12 0C5.37258 0 0 5.37258 0 12C0 18.6274 5.37258 24 12 24C18.6274 24 24 18.6274 24 12C24 5.37258 18.6274 0 12 0ZM7.11369 10.4195C7.74925 8.13149 9.71374 6.5 12 6.5C14.0691 6.5 15.874 7.83559 16.6699 9.78571H14.8C14.5238 9.78571 14.3 10.0096 14.3 10.2857C14.3 10.5619 14.5238 10.7857 14.8 10.7857H18C18.1326 10.7857 18.2598 10.733 18.3536 10.6393C18.4473 10.5455 18.5 10.4183 18.5 10.2857L18.5 6.85714C18.5 6.581 18.2761 6.35714 18 6.35714C17.7238 6.35714 17.5 6.581 17.5 6.85715L17.5 9.18552C16.5212 7.01864 14.4387 5.5 12 5.5C9.21269 5.5 6.89149 7.4831 6.15017 10.1519C6.07627 10.418 6.23205 10.6936 6.49811 10.7675C6.76418 10.8414 7.03979 10.6856 7.11369 10.4195ZM17.8499 13.8481C17.9238 13.582 17.768 13.3064 17.5019 13.2325C17.2359 13.1586 16.9603 13.3144 16.8864 13.5805C16.2508 15.8685 14.2863 17.5 12 17.5C9.93076 17.5 8.12678 16.165 7.33023 14.2143H9.2C9.47614 14.2143 9.7 13.9904 9.7 13.7143C9.7 13.4381 9.47614 13.2143 9.2 13.2143H6C5.72386 13.2143 5.5 13.4381 5.5 13.7143V17.1429C5.5 17.419 5.72386 17.6429 6 17.6429C6.27614 17.6429 6.5 17.419 6.5 17.1429V14.8145C7.47827 16.9808 9.56154 18.5 12 18.5C14.7874 18.5 17.1086 16.5169 17.8499 13.8481Z" fill="#272727"/>
</svg>
