<svg width="24" height="24" viewBox="0 0 24 24" fill="none" xmlns="http://www.w3.org/2000/svg">
<path fill-rule="evenodd" clip-rule="evenodd" d="M12 0C5.37258 0 0 5.37258 0 12C0 18.6274 5.37258 24 12 24C18.6274 24 24 18.6274 24 12C24 5.37258 18.6274 0 12 0ZM11.3536 7.35355C11.5488 7.15829 11.5488 6.84171 11.3536 6.64645C11.1583 6.45118 10.8417 6.45118 10.6464 6.64645L6.64645 10.6464C6.45118 10.8417 6.45118 11.1583 6.64645 11.3536L10.6464 15.3536C10.8417 15.5488 11.1583 15.5488 11.3536 15.3536C11.5488 15.1583 11.5488 14.8417 11.3536 14.6464L8.20711 11.5H14C15.3807 11.5 16.5 12.6193 16.5 14V17C16.5 17.2761 16.7239 17.5 17 17.5C17.2761 17.5 17.5 17.2761 17.5 17V14C17.5 12.067 15.933 10.5 14 10.5H8.20711L11.3536 7.35355Z" fill="#272727"/>
</svg>
