<svg width="24" height="24" viewBox="0 0 24 24" fill="none" xmlns="http://www.w3.org/2000/svg">
<path fill-rule="evenodd" clip-rule="evenodd" d="M12.3536 3.64645C12.1583 3.45118 11.8417 3.45118 11.6464 3.64645L6.64645 8.64645C6.45118 8.84171 6.45118 9.15829 6.64645 9.35355C6.84171 9.54882 7.15829 9.54882 7.35355 9.35355L11.5 5.20711V13H5.5C4.67157 13 4 13.6716 4 14.5V18C4 20.2091 5.79086 22 8 22H16C18.2091 22 20 20.2091 20 18V14.5C20 13.6716 19.3284 13 18.5 13H12.5V5.20711L16.6464 9.35355C16.8417 9.54882 17.1583 9.54882 17.3536 9.35355C17.5488 9.15829 17.5488 8.84171 17.3536 8.64645L12.3536 3.64645ZM12.5 13H11.5V15C11.5 15.2761 11.7239 15.5 12 15.5C12.2761 15.5 12.5 15.2761 12.5 15V13Z" fill="#272727"/>
</svg>
