<svg width="24" height="24" viewBox="0 0 24 24" fill="none" xmlns="http://www.w3.org/2000/svg">
<path fill-rule="evenodd" clip-rule="evenodd" d="M0.999998 7.55561C0.447714 7.55561 0 8.00333 0 8.55561V15.4445C0 15.9968 0.447716 16.4445 1 16.4445H5.67939C5.77969 16.4445 5.87768 16.4747 5.96062 16.5311L12.4375 20.9371C13.1014 21.3888 14 20.9133 14 20.1103V3.88977C14 3.08683 13.1014 2.61132 12.4375 3.06295L5.96062 7.46901C5.87768 7.52543 5.77969 7.5556 5.67939 7.5556L0.999998 7.55561ZM20.3904 5.68769C20.2179 5.47208 19.9032 5.43716 19.6876 5.60969C19.472 5.78222 19.4371 6.09687 19.6096 6.31248C20.7717 7.76478 21.5 9.77082 21.5 12.0001C21.5 14.2294 20.7717 16.2354 19.6096 17.6877C19.4371 17.9033 19.472 18.218 19.6876 18.3905C19.9032 18.563 20.2179 18.5281 20.3904 18.3125C21.7026 16.6726 22.5 14.443 22.5 12.0001C22.5 9.55715 21.7026 7.32754 20.3904 5.68769ZM17.3904 8.68769C17.2179 8.47208 16.9032 8.43716 16.6876 8.60969C16.472 8.78222 16.4371 9.09687 16.6096 9.31248C17.1531 9.99175 17.5 10.9389 17.5 12.0001C17.5 13.0613 17.1531 14.0084 16.6096 14.6877C16.4371 14.9033 16.472 15.218 16.6876 15.3905C16.9032 15.563 17.2179 15.5281 17.3904 15.3125C18.084 14.4457 18.5 13.275 18.5 12.0001C18.5 10.7252 18.084 9.5545 17.3904 8.68769Z" fill="#272727"/>
</svg>
