<svg width="24" height="24" viewBox="0 0 24 24" fill="none" xmlns="http://www.w3.org/2000/svg">
<path fill-rule="evenodd" clip-rule="evenodd" d="M8.75 6C8.75 5.30964 9.30964 4.75 10 4.75H14C14.6904 4.75 15.25 5.30964 15.25 6V6.75H8.75V6ZM16.75 6V6.75H19C19.4142 6.75 19.75 7.08579 19.75 7.5C19.75 7.91421 19.4142 8.25 19 8.25H16H8H5C4.58579 8.25 4.25 7.91421 4.25 7.5C4.25 7.08579 4.58579 6.75 5 6.75H7.25V6C7.25 4.48122 8.48122 3.25 10 3.25H14C15.5188 3.25 16.75 4.48122 16.75 6ZM6 19V10C6 9.44772 6.44772 9 7 9H17C17.5523 9 18 9.44772 18 10V19C18 20.6569 16.6569 22 15 22H9C7.34315 22 6 20.6569 6 19ZM10 12.5C10.2761 12.5 10.5 12.7239 10.5 13V18C10.5 18.2761 10.2761 18.5 10 18.5C9.72386 18.5 9.5 18.2761 9.5 18V13C9.5 12.7239 9.72386 12.5 10 12.5ZM14 12.5C14.2761 12.5 14.5 12.7239 14.5 13V18C14.5 18.2761 14.2761 18.5 14 18.5C13.7239 18.5 13.5 18.2761 13.5 18V13C13.5 12.7239 13.7239 12.5 14 12.5Z" fill="#272727"/>
</svg>
