<svg width="24" height="24" viewBox="0 0 24 24" fill="none" xmlns="http://www.w3.org/2000/svg">
<path d="M4.84717 18.1661L3.85063 18.2491V18.2491L4.84717 18.1661ZM19.1528 18.1661L18.1563 18.083V18.083L19.1528 18.1661ZM14.7071 12.7071C15.0976 12.3166 15.0976 11.6834 14.7071 11.2929C14.3166 10.9024 13.6834 10.9024 13.2929 11.2929L14.7071 12.7071ZM9.29289 15.2929C8.90237 15.6834 8.90237 16.3166 9.29289 16.7071C9.68342 17.0976 10.3166 17.0976 10.7071 16.7071L9.29289 15.2929ZM10.7071 11.2929C10.3166 10.9024 9.68342 10.9024 9.29289 11.2929C8.90237 11.6834 8.90237 12.3166 9.29289 12.7071L10.7071 11.2929ZM13.2929 16.7071C13.6834 17.0976 14.3166 17.0976 14.7071 16.7071C15.0976 16.3166 15.0976 15.6834 14.7071 15.2929L13.2929 16.7071ZM3.00345 8.08305L3.85063 18.2491L5.84372 18.083L4.99655 7.91695L3.00345 8.08305ZM6.84027 21H17.1597V19H6.84027V21ZM20.1494 18.2491L20.9965 8.08305L19.0035 7.91695L18.1563 18.083L20.1494 18.2491ZM3 7V5H1V7H3ZM3 5H21V3H3V5ZM21 5V7H23V5H21ZM21 7H20V9H21V7ZM20 7H4V9H20V7ZM4 7H3V9H4V7ZM21 7V9C22.1046 9 23 8.10457 23 7H21ZM3 5V3C1.89543 3 1 3.89543 1 5H3ZM1 7C1 8.10457 1.89543 9 3 9V7H3H1ZM17.1597 21C18.72 21 20.0198 19.804 20.1494 18.2491L18.1563 18.083C18.1131 18.6013 17.6798 19 17.1597 19V21ZM21 5H23C23 3.89543 22.1046 3 21 3V5ZM3.85063 18.2491C3.9802 19.804 5.28 21 6.84027 21V19C6.32018 19 5.88691 18.6013 5.84372 18.083L3.85063 18.2491ZM13.2929 11.2929L11.2929 13.2929L12.7071 14.7071L14.7071 12.7071L13.2929 11.2929ZM11.2929 13.2929L9.29289 15.2929L10.7071 16.7071L12.7071 14.7071L11.2929 13.2929ZM12.7071 13.2929L10.7071 11.2929L9.29289 12.7071L11.2929 14.7071L12.7071 13.2929ZM11.2929 14.7071L13.2929 16.7071L14.7071 15.2929L12.7071 13.2929L11.2929 14.7071Z" fill="#272727"/>
</svg>
