<svg width="24" height="24" viewBox="0 0 24 24" fill="none" xmlns="http://www.w3.org/2000/svg">
<path d="M6 11V12H7V11H6ZM18 11H17V12H18V11ZM9.72032 13.2294C9.33723 12.8316 8.70418 12.8197 8.30636 13.2028C7.90854 13.5858 7.89659 14.2189 8.27968 14.6167L9.72032 13.2294ZM11 16L10.2797 16.6936C10.4659 16.887 10.7221 16.9974 10.9906 17C11.259 17.0025 11.5173 16.897 11.7071 16.7071L11 16ZM15.7071 12.7071C16.0976 12.3166 16.0976 11.6834 15.7071 11.2929C15.3166 10.9024 14.6834 10.9024 14.2929 11.2929L15.7071 12.7071ZM5.5 19C3.567 19 2 17.433 2 15.5H0C0 18.5376 2.46243 21 5.5 21V19ZM22 15.5C22 17.433 20.433 19 18.5 19V21C21.5376 21 24 18.5376 24 15.5H22ZM18.5 12C20.433 12 22 13.567 22 15.5H24C24 12.4624 21.5376 10 18.5 10V12ZM5.5 10C2.46243 10 0 12.4624 0 15.5H2C2 13.567 3.567 12 5.5 12V10ZM12 5C14.7614 5 17 7.23858 17 10H19C19 6.13401 15.866 3 12 3V5ZM12 3C8.13401 3 5 6.13401 5 10H7C7 7.23858 9.23858 5 12 5V3ZM7 11V10H5V11H7ZM5.5 12H6V10H5.5V12ZM18 12H18.5V10H18V12ZM17 10V11H19V10H17ZM8.27968 14.6167L10.2797 16.6936L11.7203 15.3064L9.72032 13.2294L8.27968 14.6167ZM11.7071 16.7071L15.7071 12.7071L14.2929 11.2929L10.2929 15.2929L11.7071 16.7071ZM18.5 19H5.5V21H18.5V19Z" fill="#272727"/>
</svg>
