<svg width="24" height="24" viewBox="0 0 24 24" fill="none" xmlns="http://www.w3.org/2000/svg">
<path d="M16 13H17C17 12.7348 16.8946 12.4804 16.7071 12.2929L16 13ZM9 6L9.70711 5.29289C9.51957 5.10536 9.26522 5 9 5V6ZM21 8H22C22 7.73478 21.8946 7.48043 21.7071 7.29289L21 8ZM14 1L14.7071 0.292893C14.5196 0.105357 14.2652 0 14 0V1ZM16 16C15.4477 16 15 16.4477 15 17C15 17.5523 15.4477 18 16 18V16ZM7 6C7 6.55228 7.44772 7 8 7C8.55228 7 9 6.55228 9 6H7ZM14 21H5V23H14V21ZM4 20V8H2V20H4ZM15 13V20H17V13H15ZM5 7H9V5H5V7ZM16.7071 12.2929L9.70711 5.29289L8.29289 6.70711L15.2929 13.7071L16.7071 12.2929ZM8 6V12.5H10V6H8ZM9.5 14H16V12H9.5V14ZM5 21C4.44772 21 4 20.5523 4 20H2C2 21.6569 3.34315 23 5 23V21ZM14 23C15.6569 23 17 21.6569 17 20H15C15 20.5523 14.5523 21 14 21V23ZM8 12.5C8 13.3284 8.67157 14 9.5 14V12C9.77614 12 10 12.2239 10 12.5H8ZM4 8C4 7.44772 4.44772 7 5 7V5C3.34315 5 2 6.34315 2 8H4ZM20 8V15H22V8H20ZM10 2H14V0H10V2ZM21.7071 7.29289L14.7071 0.292893L13.2929 1.70711L20.2929 8.70711L21.7071 7.29289ZM13 1V7.5H15V1H13ZM14.5 9H21V7H14.5V9ZM19 16H16V18H19V16ZM9 6V2.9995H7V6H9ZM13 7.5C13 8.32843 13.6716 9 14.5 9V7C14.7761 7 15 7.22386 15 7.5H13ZM20 15C20 15.5523 19.5523 16 19 16V18C20.6569 18 22 16.6569 22 15H20ZM10 0C8.34347 0 7 1.34231 7 2.9995H9C9 2.44754 9.44739 2 10 2V0Z" fill="#272727"/>
</svg>
