<svg width="24" height="24" viewBox="0 0 24 24" fill="none" xmlns="http://www.w3.org/2000/svg">
<path d="M5.31733 15.3593L5.73994 16.2657L5.73995 16.2657L5.31733 15.3593ZM22.5065 8.44722C23.0071 8.21382 23.2236 7.61884 22.9902 7.1183C22.7568 6.61776 22.1618 6.4012 21.6613 6.63461L22.5065 8.44722ZM21.6613 17.4595C22.1618 17.6929 22.7568 17.4764 22.9902 16.9759C23.2236 16.4753 23.0071 15.8803 22.5065 15.6469L21.6613 17.4595ZM10.8749 16.6296C9.82455 14.3772 7.14714 13.4027 4.89471 14.453L5.73994 16.2657C6.99129 15.6821 8.47874 16.2235 9.06226 17.4749L10.8749 16.6296ZM4.89471 14.453C2.64228 15.5034 1.66778 18.1808 2.7181 20.4332L4.53072 19.588C3.94721 18.3366 4.48859 16.8492 5.73994 16.2657L4.89471 14.453ZM2.7181 20.4332C3.76843 22.6856 6.44584 23.6601 8.69827 22.6098L7.85303 20.7972C6.60169 21.3807 5.11423 20.8393 4.53072 19.588L2.7181 20.4332ZM8.69827 22.6098C10.9507 21.5595 11.9252 18.8821 10.8749 16.6296L9.06226 17.4749C9.64577 18.7262 9.10438 20.2137 7.85303 20.7972L8.69827 22.6098ZM5.73995 16.2657L22.5065 8.44722L21.6613 6.63461L4.89471 14.453L5.73995 16.2657ZM9.06226 6.61927C8.47874 7.87062 6.99129 8.41201 5.73994 7.82849L4.89471 9.64111C7.14714 10.6914 9.82455 9.71694 10.8749 7.46451L9.06226 6.61927ZM5.73994 7.82849C4.48859 7.24498 3.94721 5.75753 4.53072 4.50618L2.7181 3.66094C1.66778 5.91337 2.64228 8.59078 4.89471 9.64111L5.73994 7.82849ZM4.53072 4.50618C5.11423 3.25483 6.60169 2.71344 7.85303 3.29696L8.69827 1.48434C6.44584 0.434015 3.76843 1.40851 2.7181 3.66094L4.53072 4.50618ZM7.85303 3.29696C9.10438 3.88047 9.64577 5.36792 9.06226 6.61927L10.8749 7.46451C11.9252 5.21208 10.9507 2.53467 8.69827 1.48434L7.85303 3.29696ZM4.89471 9.64111L21.6613 17.4595L22.5065 15.6469L5.73995 7.82849L4.89471 9.64111Z" fill="#272727"/>
</svg>
