<svg width="24" height="24" viewBox="0 0 24 24" fill="none" xmlns="http://www.w3.org/2000/svg">
<path d="M13.468 11.9462C13.8585 11.5557 13.8585 10.9225 13.468 10.532C13.0775 10.1415 12.4443 10.1415 12.0538 10.532L13.468 11.9462ZM6.67335 15.9124C6.28283 16.303 6.28283 16.9361 6.67335 17.3267C7.06387 17.7172 7.69704 17.7172 8.08756 17.3267L6.67335 15.9124ZM2 15.6772L1 15.6772V15.6772H2ZM2 21.6772H3H2ZM21.6848 7.2499L20.9777 7.95701L21.6848 7.2499ZM16.7501 2.31518L17.4572 1.60807L16.7501 2.31518ZM21.6848 8.77173L22.3919 9.47883V9.47883L21.6848 8.77173ZM2.09455 15.4489L1.38745 14.7418L2.09455 15.4489ZM15.2283 2.31518L14.5212 1.60807L15.2283 2.31518ZM12.0538 10.532L6.67335 15.9124L8.08756 17.3267L13.468 11.9462L12.0538 10.532ZM1 15.6772L1 21.6772H3L3 15.6772H1ZM8.32283 21H2.32283V23H8.32283V21ZM22.3919 6.5428L17.4572 1.60807L16.043 3.02229L20.9777 7.95701L22.3919 6.5428ZM9.25821 22.6126L19.9246 11.9462L18.5104 10.532L7.844 21.1983L9.25821 22.6126ZM19.9246 11.9462L22.3919 9.47883L20.9777 8.06462L18.5104 10.532L19.9246 11.9462ZM2.80166 16.156L13.468 5.48965L12.0538 4.07543L1.38745 14.7418L2.80166 16.156ZM13.468 5.48965L15.9354 3.02229L14.5212 1.60807L12.0538 4.07543L13.468 5.48965ZM19.9246 10.532L13.468 4.07543L12.0538 5.48965L18.5104 11.9462L19.9246 10.532ZM1 21.6772C1 22.4077 1.59225 23 2.32283 23V21C2.69682 21 3 21.3032 3 21.6772H1ZM3 15.6772C3 15.8568 2.92866 16.029 2.80166 16.156L1.38745 14.7418C1.13937 14.9899 1 15.3263 1 15.6772L3 15.6772ZM20.9777 7.95701C21.0074 7.98673 21.0074 8.03491 20.9777 8.06462L22.3919 9.47883C23.2027 8.66807 23.2027 7.35356 22.3919 6.5428L20.9777 7.95701ZM8.32283 23C8.67367 23 9.01014 22.8606 9.25821 22.6126L7.844 21.1983C7.97098 21.0714 8.14322 21 8.32283 21V23ZM17.4572 1.60807C16.6464 0.797309 15.3319 0.79731 14.5212 1.60807L15.9354 3.02229C15.9651 2.99257 16.0133 2.99257 16.043 3.02229L17.4572 1.60807Z" fill="#272727"/>
</svg>
