<svg width="24" height="28" viewBox="0 0 24 28" fill="none" xmlns="http://www.w3.org/2000/svg">
<path d="M2.3753 8.69977L3 9.48064H3L2.3753 8.69977ZM11.3753 1.49977L10.7506 0.718902V0.718902L11.3753 1.49977ZM12.6247 1.49977L12 2.28064L12 2.28064L12.6247 1.49977ZM21.6247 8.69977L22.2494 7.9189V7.9189L21.6247 8.69977ZM12.669 17.3979L12.0002 16.6545L12 16.6547L12.669 17.3979ZM11.331 17.3979L12 16.6547L12 16.6546L11.331 17.3979ZM21 9.48064V21H23V9.48064H21ZM20 22H4V24H20V22ZM3 21V9.48064H1V21H3ZM3 9.48064L12 2.28064L10.7506 0.718902L1.75061 7.9189L3 9.48064ZM12 2.28064L21 9.48064L22.2494 7.9189L13.2494 0.718902L12 2.28064ZM12 2.28064V2.28064L13.2494 0.718902C12.519 0.134551 11.481 0.134553 10.7506 0.718902L12 2.28064ZM4 22C3.44772 22 3 21.5523 3 21H1C1 22.6569 2.34315 24 4 24V22ZM21 21C21 21.5523 20.5523 22 20 22V24C21.6569 24 23 22.6569 23 21H21ZM23 9.48064C23 8.87307 22.7238 8.29845 22.2494 7.9189L21 9.48064H23ZM3 9.48064H3L1.75061 7.9189C1.27618 8.29845 1 8.87307 1 9.48064H3ZM21.2492 8.33466L12.0002 16.6545L13.3377 18.1414L22.5867 9.82159L21.2492 8.33466ZM12 16.6546L2.75487 8.3348L1.41701 9.82145L10.6621 18.1413L12 16.6546ZM12 16.6547L12 16.6547L10.6621 18.1412C11.4227 18.8258 12.5773 18.8258 13.3379 18.1412L12 16.6547ZM17.5664 11.9883H6.42969V13.9883H17.5664V11.9883ZM8.70502 14.8571L1.54096 21.0563L2.84966 22.5687L10.0137 16.3695L8.70502 14.8571ZM22.1236 21.7105L15.34 14.9258L13.9256 16.3399L20.7092 23.1246L22.1236 21.7105Z" fill="#272727"/>
</svg>
