<svg width="25" height="24" viewBox="0 0 25 24" fill="none" xmlns="http://www.w3.org/2000/svg">
<path d="M22 9.66318V17C22 17.5523 21.7761 18.0523 21.4142 18.4142M17.3368 5H4C3.45013 5 2.95209 5.22191 2.59054 5.58105M2.59054 5.58105C2.22582 5.94335 2 6.4453 2 7V17C2 17.5523 2.22386 18.0523 2.58579 18.4142M2.59054 5.58105L11.3356 13.4095C11.7145 13.7462 12.2855 13.7462 12.6644 13.4095L17.8395 8.77427M2.58579 18.4142C2.94772 18.7761 3.44772 19 4 19H20C20.5523 19 21.0523 18.7761 21.4142 18.4142M2.58579 18.4142L9.35447 11.6455M21.4142 18.4142L15.0193 11.3162M24 6.5C24 8.433 22.433 10 20.5 10C18.567 10 17 8.433 17 6.5C17 4.567 18.567 3 20.5 3C22.433 3 24 4.567 24 6.5Z" stroke="#272727" stroke-width="2"/>
</svg>
