<svg width="24" height="24" viewBox="0 0 24 24" fill="none" xmlns="http://www.w3.org/2000/svg">
<path d="M10.0172 15.6725L6.16939 16.3507C4.007 16.7699 3 17.8179 3 19.345C3 20.9021 4.2826 22 6.06339 22C7.64279 22 10.0172 20.8921 10.0172 17.9577C10.0172 14.4595 10.0172 13.4982 10.0172 10M20.9719 6.00002L10.0172 10M20.9719 6.00002L21 13.6725M20.9719 6.00002V2.18934C20.9719 2.09738 20.8804 2.03342 20.7941 2.06498L10.6741 5.76135C10.2796 5.90544 10.0172 6.28067 10.0172 6.70066V10M21 13.6725L17.1522 14.3507C14.9898 14.7699 13.9828 15.8179 13.9828 17.345C13.9828 18.9021 15.2654 20 17.0462 20C18.6256 20 21 18.8921 21 15.9577V13.6725Z" stroke="#272727" stroke-width="2" stroke-linecap="round"/>
</svg>
