<svg width="24" height="24" viewBox="0 0 24 24" fill="none" xmlns="http://www.w3.org/2000/svg">
<path fill-rule="evenodd" clip-rule="evenodd" d="M17.0451 20.57C17.1455 20.7373 17.3764 20.7658 17.5144 20.6278L19.1637 18.9785C19.2433 18.8989 19.2716 18.7815 19.2371 18.6743L16.5356 10.2929L19.9652 7.07559C20.8601 6.18069 21.6649 4.10837 20.7783 3.22179C19.8917 2.33521 17.9255 3.24613 17.0306 4.14103L13.7072 7.46443L5.32573 4.76297C5.2186 4.72844 5.10116 4.75678 5.02157 4.83637L3.3723 6.48563C3.2343 6.62364 3.26273 6.8546 3.43009 6.95501L9.62255 10.6705C9.90148 10.8378 9.94887 11.2228 9.71886 11.4528L6.63614 14.5355L4.43195 13.5548C4.3185 13.5044 4.18568 13.529 4.09787 13.6168L2.53101 15.1837C2.30133 15.4134 2.34819 15.7976 2.62635 15.9654L6.00006 18L8.03468 21.3737C8.20243 21.6519 8.58672 21.6988 8.8164 21.4691L10.3833 19.9022C10.4711 19.8144 10.4957 19.6816 10.4452 19.5681L9.46457 17.3639L12.5473 14.2812C12.7773 14.0512 13.1622 14.0986 13.3296 14.3775L17.0451 20.57Z" stroke="#272727" stroke-width="2"/>
</svg>
