<svg width="24" height="24" viewBox="0 0 24 24" fill="none" xmlns="http://www.w3.org/2000/svg">
<path fill-rule="evenodd" clip-rule="evenodd" d="M8.09319 21.6272C8.04585 21.8166 8.18906 22 8.38423 22H10.7166C10.8292 22 10.9323 21.937 10.9836 21.8368L15 14L19.7 14.1501C20.9656 14.1501 23 13.2538 23 12C23 10.7462 20.9656 10 19.7 10H15L10.9836 2.16317C10.9323 2.063 10.8292 2 10.7166 2H8.38423C8.18906 2 8.04585 2.18342 8.09319 2.37276L9.84468 9.37873C9.92358 9.69431 9.6849 10 9.35961 10H5L4.13483 7.74797C4.0903 7.63206 3.97896 7.55556 3.85478 7.55556H1.5C1.22386 7.55556 1 7.77941 1 8.05556L1 15.9444C1 16.2206 1.22386 16.4444 1.5 16.4444H3.85478C3.97896 16.4444 4.0903 16.3679 4.13483 16.252L5 14L9.35961 14C9.6849 14 9.92358 14.3057 9.84468 14.6213L8.09319 21.6272Z" stroke="#272727" stroke-width="2"/>
</svg>
