<svg width="24" height="24" viewBox="0 0 24 24" fill="none" xmlns="http://www.w3.org/2000/svg">
<path d="M12 8.12075V15.8793C12 16.6064 12.4435 17 12.9689 17C13.235 17 13.467 16.9133 13.7331 16.7665L20.3245 12.9706C20.7885 12.7038 21 12.3836 21 11.9967C21 11.6164 20.7885 11.2962 20.3245 11.0294L13.7331 7.24016C13.4602 7.08672 13.235 7 12.9689 7C12.4367 7 12 7.3936 12 8.12075Z" stroke="#272727" stroke-width="2"/>
<path d="M3.00586 8.12075V15.8793C3.00586 16.6064 3.44938 17 3.97478 17C4.24089 17 4.47288 16.9133 4.73899 16.7665L11.3303 12.9706C11.7943 12.7038 12.0059 12.3836 12.0059 11.9967C12.0059 11.6164 11.7943 11.2962 11.3303 11.0294L4.73899 7.24016C4.46606 7.08672 4.24089 7 3.97478 7C3.44255 7 3.00586 7.3936 3.00586 8.12075Z" stroke="#272727" stroke-width="2"/>
</svg>
