<svg width="24" height="24" viewBox="0 0 24 24" fill="none" xmlns="http://www.w3.org/2000/svg">
<path d="M13.4119 10.583C13.0502 10.2226 12.551 10 12 10C10.8954 10 10 10.8954 10 12C10 13.1046 10.8954 14 12 14C12.5533 14 13.0535 13.7747 13.4155 13.4116C13.7763 13.0499 14 12.5513 14 12C14 11.4464 13.7753 10.9451 13.4119 10.583ZM13.4119 10.583L20.9949 3M16.2461 7.76172C15.16 6.67364 13.6588 6 12 6C8.68629 6 6 8.68629 6 12C6 15.3137 8.68629 18 12 18C13.6628 18 15.1675 17.3236 16.2542 16.231M19.0755 4.9324C17.2656 3.12042 14.7634 2 12 2C6.47715 2 2 6.47715 2 12C2 17.5228 6.47715 22 12 22C14.7592 22 17.2575 20.8825 19.0668 19.0754" stroke="#272727" stroke-width="2" stroke-linecap="round"/>
</svg>
