<svg width="24" height="24" viewBox="0 0 24 24" fill="none" xmlns="http://www.w3.org/2000/svg">
<path d="M17 8.99998C17.6186 9.77302 18 10.8319 18 12C18 13.168 17.6186 14.2269 17 15M20 5.99998C21.2372 7.54605 22 9.66388 22 12C22 14.3361 21.2372 16.4539 20 18M6.13039 16.0931L11.4188 19.8705C12.0806 20.3433 13 19.8702 13 19.0568V4.94317C13 4.1298 12.0806 3.65667 11.4188 4.12944L6.13039 7.90685C6.04559 7.96742 5.94398 7.99998 5.83977 7.99998L2 7.99999C1.44771 7.99999 1 8.44771 1 8.99999V15C1 15.5523 1.44772 16 2 16H5.83977C5.94398 16 6.04559 16.0325 6.13039 16.0931Z" stroke="#272727" stroke-width="2" stroke-linecap="round"/>
</svg>
