<svg width="24" height="24" viewBox="0 0 24 24" fill="none" xmlns="http://www.w3.org/2000/svg">
<path fill-rule="evenodd" clip-rule="evenodd" d="M1 3.5C1 2.67157 1.67157 2 2.5 2H21.5C22.3284 2 23 2.67157 23 3.5V5.5C23 6.32843 22.3284 7 21.5 7H2.5C1.67157 7 1 6.32843 1 5.5V3.5ZM3.95307 19.0133L3.09406 9.08697C3.04352 8.50284 3.50397 8 4.09028 8H19.9097C20.496 8 20.9565 8.5021 20.906 9.08622L20.0469 19.0133C19.9497 20.1362 18.9749 21 17.8047 21H6.1953C5.0251 21 4.05025 20.1362 3.95307 19.0133ZM10.5303 11.4697C10.2374 11.1768 9.76256 11.1768 9.46967 11.4697C9.17678 11.7626 9.17678 12.2374 9.46967 12.5303L10.9393 14L9.46967 15.4697C9.17678 15.7626 9.17678 16.2374 9.46967 16.5303C9.76256 16.8232 10.2374 16.8232 10.5303 16.5303L12 15.0607L13.4697 16.5303C13.7626 16.8232 14.2374 16.8232 14.5303 16.5303C14.8232 16.2374 14.8232 15.7626 14.5303 15.4697L13.0607 14L14.5303 12.5303C14.8232 12.2374 14.8232 11.7626 14.5303 11.4697C14.2374 11.1768 13.7626 11.1768 13.4697 11.4697L12 12.9393L10.5303 11.4697Z" fill="#272727"/>
</svg>
