<svg width="24" height="24" viewBox="0 0 24 24" fill="none" xmlns="http://www.w3.org/2000/svg">
<path fill-rule="evenodd" clip-rule="evenodd" d="M1 3.5C1 2.67157 1.67157 2 2.5 2H21.5C22.3284 2 23 2.67157 23 3.5V5.5C23 6.32843 22.3284 7 21.5 7H2.5C1.67157 7 1 6.32843 1 5.5V3.5ZM3.95307 19.0133L3.09406 9.08697C3.04352 8.50284 3.50397 8 4.09028 8H19.9097C20.496 8 20.9565 8.5021 20.906 9.08622L20.0469 19.0133C19.9497 20.1362 18.9749 21 17.8047 21H6.1953C5.0251 21 4.05025 20.1362 3.95307 19.0133ZM9.49994 10.75C9.08573 10.75 8.74994 11.0858 8.74994 11.5C8.74994 11.9142 9.08573 12.25 9.49994 12.25H14.9999C15.4142 12.25 15.7499 11.9142 15.7499 11.5C15.7499 11.0858 15.4142 10.75 14.9999 10.75H9.49994Z" fill="#272727"/>
</svg>
