<svg width="24" height="24" viewBox="0 0 24 24" fill="none" xmlns="http://www.w3.org/2000/svg">
<path fill-rule="evenodd" clip-rule="evenodd" d="M12 0C5.37258 0 0 5.37258 0 12C0 18.6274 5.37258 24 12 24C18.6274 24 24 18.6274 24 12C24 5.37258 18.6274 0 12 0ZM13.1923 7.25C12.7781 7.25 12.4423 7.58579 12.4423 8C12.4423 8.41421 12.7781 8.75 13.1923 8.75H15C15.6904 8.75 16.25 9.30964 16.25 10V11.7273C16.25 12.4176 15.6904 12.9773 15 12.9773L7.85458 12.9773L9.90596 10.9937C10.2037 10.7058 10.2117 10.231 9.92378 9.9332C9.63585 9.63543 9.16105 9.62745 8.86327 9.91538L5.47866 13.1881C5.33252 13.3294 5.25 13.524 5.25 13.7273C5.25 13.9306 5.33252 14.1251 5.47866 14.2664L8.86327 17.5392C9.16105 17.8271 9.63585 17.8191 9.92378 17.5213C10.2117 17.2236 10.2037 16.7488 9.90596 16.4608L7.85458 14.4773L15 14.4773C16.5188 14.4773 17.75 13.2461 17.75 11.7273V10C17.75 8.48122 16.5188 7.25 15 7.25H13.1923Z" fill="#272727"/>
</svg>
