<svg width="24" height="24" viewBox="0 0 24 24" fill="none" xmlns="http://www.w3.org/2000/svg">
<path fill-rule="evenodd" clip-rule="evenodd" d="M12 0C5.37258 0 0 5.37258 0 12C0 18.6274 5.37258 24 12 24C18.6274 24 24 18.6274 24 12C24 5.37258 18.6274 0 12 0ZM12.25 7C12.25 7.41421 12.5858 7.75 13 7.75H15.1893L7.75 15.1893V13C7.75 12.5858 7.41421 12.25 7 12.25C6.58579 12.25 6.25 12.5858 6.25 13V17C6.25 17.4142 6.58579 17.75 7 17.75H11C11.4142 17.75 11.75 17.4142 11.75 17C11.75 16.5858 11.4142 16.25 11 16.25H8.81066L16.25 8.81066V11C16.25 11.4142 16.5858 11.75 17 11.75C17.4142 11.75 17.75 11.4142 17.75 11V7C17.75 6.58579 17.4142 6.25 17 6.25H13C12.5858 6.25 12.25 6.58579 12.25 7Z" fill="#272727"/>
</svg>
