<svg width="25" height="24" viewBox="0 0 25 24" fill="none" xmlns="http://www.w3.org/2000/svg">
<path fill-rule="evenodd" clip-rule="evenodd" d="M12 0.25C10.5676 0.25 9.36201 0.730289 8.51541 1.60698C7.67284 2.47951 7.25 3.67804 7.25 5V8H5.77589C4.7066 8 3.82044 8.76194 3.74932 9.7425L3.00459 20.0092C2.92644 21.0866 3.85626 22 5.03116 22H13.2547C12.5984 21.0591 12.1673 19.9493 12.0396 18.749C12.0265 18.7497 12.0133 18.75 12 18.75H7C6.58579 18.75 6.25 18.4142 6.25 18C6.25 17.5858 6.58579 17.25 7 17.25H12C12.0133 17.25 12.0265 17.2503 12.0396 17.251C12.4134 13.7372 15.387 11 19 11C19.4623 11 19.9141 11.0448 20.3514 11.1303L20.2507 9.7425C20.1796 8.76194 19.2934 8 18.2241 8H16.75V5C16.75 3.67804 16.3272 2.47951 15.4846 1.60698C14.638 0.730289 13.4324 0.25 12 0.25ZM15.25 8H16.75V10C16.75 10.4142 16.4142 10.75 16 10.75C15.5858 10.75 15.25 10.4142 15.25 10V8ZM8.75 8V5C8.75 3.99655 9.06706 3.19508 9.59443 2.64896C10.1178 2.10701 10.9122 1.75 12 1.75C13.0879 1.75 13.8822 2.10701 14.4056 2.64896C14.9329 3.19508 15.25 3.99655 15.25 5V8H8.75ZM8.75 8H7.25V10C7.25 10.4142 7.58579 10.75 8 10.75C8.41421 10.75 8.75 10.4142 8.75 10V8ZM19 12C15.6863 12 13 14.6863 13 18C13 21.3137 15.6863 24 19 24C22.3137 24 25 21.3137 25 18C25 14.6863 22.3137 12 19 12ZM19.75 16C19.75 15.5858 19.4142 15.25 19 15.25C18.5858 15.25 18.25 15.5858 18.25 16V17.25H17C16.5858 17.25 16.25 17.5858 16.25 18C16.25 18.4142 16.5858 18.75 17 18.75H18.25V20C18.25 20.4142 18.5858 20.75 19 20.75C19.4142 20.75 19.75 20.4142 19.75 20V18.75H21C21.4142 18.75 21.75 18.4142 21.75 18C21.75 17.5858 21.4142 17.25 21 17.25H19.75V16Z" fill="#272727"/>
</svg>
