<svg width="24" height="24" viewBox="0 0 24 24" fill="none" xmlns="http://www.w3.org/2000/svg">
<path fill-rule="evenodd" clip-rule="evenodd" d="M24 15.9375C24 18.7334 21.8021 21 19.0909 21H4.90909C2.19787 21 0 18.7334 0 15.9375C0 13.1416 2.19788 10.875 4.90909 10.875H5.45455V9.75C5.45455 6.02208 8.38505 3 12 3C15.615 3 18.5455 6.02208 18.5455 9.75V10.875H19.0909C21.8021 10.875 24 13.1416 24 15.9375ZM15.5303 12.5303C15.8232 12.2374 15.8232 11.7626 15.5303 11.4697C15.2374 11.1768 14.7626 11.1768 14.4697 11.4697L11.0101 14.9292L9.54024 13.4028C9.25292 13.1045 8.77814 13.0955 8.47977 13.3828C8.1814 13.6702 8.17244 14.1449 8.45976 14.4433L10.4598 16.5202C10.5994 16.6653 10.7916 16.7481 10.9929 16.75C11.1943 16.7519 11.3879 16.6727 11.5303 16.5303L15.5303 12.5303Z" fill="#272727"/>
</svg>
