<svg width="24" height="24" viewBox="0 0 24 24" fill="none" xmlns="http://www.w3.org/2000/svg">
<path fill-rule="evenodd" clip-rule="evenodd" d="M11.25 21H4.90909C2.19787 21 0 18.7334 0 15.9375C0 13.1416 2.19788 10.875 4.90909 10.875H5.45455V9.75C5.45455 6.02208 8.38505 3 12 3C15.615 3 18.5455 6.02208 18.5455 9.75V10.875H19.0909C21.8021 10.875 24 13.1416 24 15.9375C24 18.7334 21.8021 21 19.0909 21H12.75L12.75 15.8107L14.4697 17.5303C14.7626 17.8232 15.2374 17.8232 15.5303 17.5303C15.8232 17.2374 15.8232 16.7626 15.5303 16.4697L12.5303 13.4697C12.2374 13.1768 11.7626 13.1768 11.4697 13.4697L8.46967 16.4697C8.17678 16.7626 8.17678 17.2374 8.46967 17.5303C8.76256 17.8232 9.23744 17.8232 9.53033 17.5303L11.25 15.8107L11.25 21ZM11.25 21V23C11.25 23.4142 11.5858 23.75 12 23.75C12.4142 23.75 12.75 23.4142 12.75 23V21H11.25Z" fill="#272727"/>
</svg>
