<svg width="24" height="27" viewBox="0 0 24 27" fill="none" xmlns="http://www.w3.org/2000/svg">
<path fill-rule="evenodd" clip-rule="evenodd" d="M11.25 21H4.90909C2.19787 21 0 18.7334 0 15.9375C0 13.1416 2.19788 10.875 4.90909 10.875H5.45455V9.75C5.45455 6.02208 8.38505 3 12 3C15.615 3 18.5455 6.02208 18.5455 9.75V10.875H19.0909C21.8021 10.875 24 13.1416 24 15.9375C24 18.7334 21.8021 21 19.0909 21H12.75V17C12.75 16.5858 12.4142 16.25 12 16.25C11.5858 16.25 11.25 16.5858 11.25 17V21ZM11.25 21V24.1893L9.53033 22.4697C9.23744 22.1768 8.76256 22.1768 8.46967 22.4697C8.17678 22.7626 8.17678 23.2374 8.46967 23.5303L11.4697 26.5303C11.7626 26.8232 12.2374 26.8232 12.5303 26.5303L15.5303 23.5303C15.8232 23.2374 15.8232 22.7626 15.5303 22.4697C15.2374 22.1768 14.7626 22.1768 14.4697 22.4697L12.75 24.1893V21H11.25Z" fill="#272727"/>
</svg>
