<svg width="24" height="24" viewBox="0 0 24 24" fill="none" xmlns="http://www.w3.org/2000/svg">
<path fill-rule="evenodd" clip-rule="evenodd" d="M12 0C5.37258 0 0 5.37258 0 12C0 18.6274 5.37258 24 12 24C18.6274 24 24 18.6274 24 12C24 5.37258 18.6274 0 12 0ZM6.91771 6.82798C7.3313 5.85495 8.32044 5.51632 9.10417 5.91725C9.93278 6.34114 10.3532 7.48389 9.92687 8.4868C9.51328 9.45983 8.52414 9.79846 7.7404 9.39753C6.9118 8.97364 6.49142 7.83089 6.91771 6.82798ZM11.3073 9.07357C11.0336 9.71755 10.5885 10.234 10.0514 10.5798L11.1809 11.1576L18.6584 7.3323C19.0272 7.14365 19.4791 7.28966 19.6677 7.65843C19.8563 8.02719 19.7103 8.47906 19.3416 8.6677L12.8277 12L19.3416 15.3323C19.7103 15.5209 19.8563 15.9728 19.6677 16.3416C19.4791 16.7103 19.0272 16.8563 18.6584 16.6677L11.1809 12.8424L10.0514 13.4202C10.5885 13.766 11.0336 14.2824 11.3073 14.9264C12.0115 16.5832 11.383 18.6018 9.78732 19.4182C8.14673 20.2574 6.25413 19.4454 5.53724 17.7588C4.83304 16.1021 5.46154 14.0834 7.05726 13.2671L9.53409 12L7.05726 10.7329C5.46154 9.91662 4.83304 7.89793 5.53724 6.24121C6.25413 4.55461 8.14673 3.74258 9.78732 4.58185C11.383 5.39817 12.0115 7.41685 11.3073 9.07357ZM6.91771 17.172C6.49142 16.1691 6.9118 15.0264 7.7404 14.6025C8.52414 14.2015 9.51328 14.5402 9.92687 15.5132C10.3532 16.5161 9.93278 17.6589 9.10417 18.0827C8.32044 18.4837 7.3313 18.145 6.91771 17.172Z" fill="#272727"/>
</svg>
