<svg width="24" height="24" viewBox="0 0 24 24" fill="none" xmlns="http://www.w3.org/2000/svg">
<path fill-rule="evenodd" clip-rule="evenodd" d="M0 12C0 5.37258 5.37258 0 12 0C18.6274 0 24 5.37258 24 12C24 18.6274 18.6274 24 12 24C5.37258 24 0 18.6274 0 12ZM8.46967 7.46967C8.76256 7.17678 9.23744 7.17678 9.53033 7.46967L13.5303 11.4697C13.8232 11.7626 13.8232 12.2374 13.5303 12.5303L9.53033 16.5303C9.23744 16.8232 8.76256 16.8232 8.46967 16.5303C8.17678 16.2374 8.17678 15.7626 8.46967 15.4697L11.1893 12.75H4C3.58579 12.75 3.25 12.4142 3.25 12C3.25 11.5858 3.58579 11.25 4 11.25H11.1893L8.46967 8.53033C8.17678 8.23744 8.17678 7.76256 8.46967 7.46967ZM18 15C19.6569 15 21 13.6569 21 12C21 10.3431 19.6569 9 18 9C16.3431 9 15 10.3431 15 12C15 13.6569 16.3431 15 18 15Z" fill="#272727"/>
</svg>
