<svg width="24" height="24" viewBox="0 0 24 24" fill="none" xmlns="http://www.w3.org/2000/svg">
<path fill-rule="evenodd" clip-rule="evenodd" d="M12 0C5.37258 0 0 5.37258 0 12C0 18.6274 5.37258 24 12 24C18.6274 24 24 18.6274 24 12C24 5.37258 18.6274 0 12 0ZM14.5303 4.46967C14.2374 4.17678 13.7626 4.17678 13.4697 4.46967C13.1768 4.76256 13.1768 5.23744 13.4697 5.53033L16.1893 8.25H10C7.37665 8.25 5.25 10.3766 5.25 13C5.25 15.6234 7.37665 17.75 10 17.75H11C11.4142 17.75 11.75 17.4142 11.75 17C11.75 16.5858 11.4142 16.25 11 16.25H10C8.20507 16.25 6.75 14.7949 6.75 13C6.75 11.2051 8.20507 9.75 10 9.75H16.1893L13.4697 12.4697C13.1768 12.7626 13.1768 13.2374 13.4697 13.5303C13.7626 13.8232 14.2374 13.8232 14.5303 13.5303L18.5303 9.53033C18.8232 9.23744 18.8232 8.76256 18.5303 8.46967L14.5303 4.46967Z" fill="#272727"/>
</svg>
