<svg width="24" height="24" viewBox="0 0 24 24" fill="none" xmlns="http://www.w3.org/2000/svg">
<path fill-rule="evenodd" clip-rule="evenodd" d="M12 0C5.37258 0 0 5.37258 0 12C0 18.6274 5.37258 24 12 24C18.6274 24 24 18.6274 24 12C24 5.37258 18.6274 0 12 0ZM16.6509 7.26934C15.3857 6.00412 13.3344 6.00412 12.0692 7.26934L10.0667 9.27182C9.02379 10.3147 9.02379 12.0056 10.0667 13.0485L10.7359 13.7177C10.9702 13.952 11.3501 13.952 11.5844 13.7177C11.8187 13.4834 11.8187 13.1035 11.5844 12.8692L10.9152 12.2C10.3409 11.6257 10.3409 10.6946 10.9152 10.1203L12.9177 8.11787C13.7143 7.32128 15.0058 7.32128 15.8024 8.11786C16.599 8.91445 16.599 10.206 15.8024 11.0026L15.5357 11.2692C15.3014 11.5035 15.3014 11.8834 15.5357 12.1178C15.7701 12.3521 16.15 12.3521 16.3843 12.1178L16.6509 11.8511C17.9162 10.5859 17.9162 8.53455 16.6509 7.26934ZM13.1844 10.2026C12.9501 9.96831 12.5702 9.96831 12.3358 10.2026C12.1015 10.4369 12.1015 10.8168 12.3358 11.0512L13.005 11.7203C13.5793 12.2946 13.5793 13.2257 13.005 13.8L11.0025 15.8025C10.206 16.5991 8.91443 16.5991 8.11784 15.8025C7.32126 15.0059 7.32125 13.7144 8.11784 12.9178L8.3845 12.6511C8.61882 12.4168 8.61882 12.0369 8.3845 11.8026C8.15019 11.5683 7.77029 11.5683 7.53597 11.8026L7.26932 12.0692C6.0041 13.3345 6.0041 15.3858 7.26932 16.651C8.53453 17.9162 10.5859 17.9162 11.8511 16.651L13.8536 14.6485C14.8965 13.6056 14.8965 11.9147 13.8536 10.8718L13.1844 10.2026Z" fill="#272727"/>
</svg>
