<svg width="25" height="24" viewBox="0 0 25 24" fill="none" xmlns="http://www.w3.org/2000/svg">
<path fill-rule="evenodd" clip-rule="evenodd" d="M15 5C15 2.23858 17.2386 0 20 0C22.7614 0 25 2.23858 25 5V8.27273C25 8.82501 24.5523 9.27273 24 9.27273C23.4477 9.27273 23 8.82501 23 8.27273V5C23 3.34315 21.6569 2 20 2C18.3431 2 17 3.34315 17 5V10H18C19.1046 10 20 10.8954 20 12V20C20 22.2091 18.2091 24 16 24H8C5.79086 24 4 22.2091 4 20V12C4 10.8954 4.89543 10 6 10H15V5ZM15.5303 15.5303C15.8232 15.2374 15.8232 14.7626 15.5303 14.4697C15.2374 14.1768 14.7626 14.1768 14.4697 14.4697L11.0101 17.9292L9.54024 16.4028C9.25292 16.1045 8.77814 16.0955 8.47977 16.3828C8.1814 16.6702 8.17244 17.1449 8.45976 17.4433L10.4598 19.5202C10.5994 19.6653 10.7916 19.7481 10.9929 19.75C11.1943 19.7519 11.3879 19.6727 11.5303 19.5303L15.5303 15.5303Z" fill="#272727"/>
</svg>
