<svg width="24" height="27" viewBox="0 0 24 27" fill="none" xmlns="http://www.w3.org/2000/svg">
<path fill-rule="evenodd" clip-rule="evenodd" d="M23 9.21042V22C23 23.1046 22.1046 24 21 24H3C1.89543 24 1 23.1046 1 22V9.21042C1 8.90522 1.13938 8.61672 1.37847 8.42703L10.7569 0.986261C11.485 0.408632 12.515 0.408633 13.2431 0.986262L22.6215 8.42703C22.8606 8.61672 23 8.90522 23 9.21042ZM21.5 9.50003L15.1987 15.138L21.5304 21.4697C21.8233 21.7626 21.8233 22.2375 21.5304 22.5304C21.2375 22.8233 20.7627 22.8233 20.4698 22.5304L17.9394 20H17.9618L13.4365 15.4302C12.6557 14.6418 11.3824 14.6397 10.599 15.4254L6.03818 20H6.06079L3.53043 22.5304C3.23754 22.8233 2.76267 22.8233 2.46977 22.5304C2.17688 22.2375 2.17688 21.7626 2.46977 21.4697L8.80138 15.1381L2.5 9.50003L11.3804 2.48922C11.7437 2.2024 12.2563 2.2024 12.6196 2.48922L21.5 9.50003Z" fill="#272727"/>
</svg>
