<svg width="24" height="24" viewBox="0 0 24 24" fill="none" xmlns="http://www.w3.org/2000/svg">
<path fill-rule="evenodd" clip-rule="evenodd" d="M16.5838 19.8012C16.9185 20.3591 17.6884 20.4538 18.1484 19.9938L18.8612 19.281C19.1265 19.0157 19.221 18.6242 19.1059 18.2671L16.5356 10.2929L19.9652 7.07559C20.8601 6.18069 21.6649 4.10837 20.7783 3.22179C19.8917 2.33521 17.9255 3.24613 17.0306 4.14103L13.7072 7.46443L5.73293 4.89421C5.37583 4.77911 4.98435 4.87359 4.71905 5.13889L4.00626 5.85168C3.54623 6.31171 3.64101 7.08156 4.19887 7.41628L9.62255 10.6705C9.90148 10.8378 9.94887 11.2228 9.71886 11.4528L6.63614 14.5355L4.5575 13.6107C4.36842 13.5266 4.14704 13.5676 4.0007 13.714L2.53101 15.1837C2.30133 15.4134 2.34819 15.7976 2.62635 15.9654L6.00006 18L8.03468 21.3737C8.20243 21.6519 8.58672 21.6988 8.8164 21.4691L10.2861 19.9994C10.4324 19.853 10.4735 19.6317 10.3894 19.4426L9.46457 17.3639L12.5473 14.2812C12.7773 14.0512 13.1622 14.0986 13.3296 14.3775L16.5838 19.8012Z" fill="#272727"/>
</svg>
