<svg width="24" height="24" viewBox="0 0 24 24" fill="none" xmlns="http://www.w3.org/2000/svg">
<path fill-rule="evenodd" clip-rule="evenodd" d="M12 0C5.37258 0 0 5.37258 0 12C0 18.6274 5.37258 24 12 24C18.6274 24 24 18.6274 24 12C24 5.37258 18.6274 0 12 0ZM12.6917 4.46606C12.3968 4.17517 11.922 4.17842 11.6311 4.47331C11.3402 4.7682 11.3434 5.24306 11.6383 5.53394L12.51 6.39376C12.3315 6.38584 12.1659 6.38585 12.0137 6.38586H12C8.83407 6.38586 6.25 8.92017 6.25 12.0679C6.25 15.2157 8.83407 17.75 12 17.75C15.1659 17.75 17.75 15.2157 17.75 12.0679C17.75 11.6537 17.4142 11.3179 17 11.3179C16.5858 11.3179 16.25 11.6537 16.25 12.0679C16.25 14.368 14.3569 16.25 12 16.25C9.64308 16.25 7.75 14.368 7.75 12.0679C7.75 9.76787 9.64308 7.88586 12 7.88586C12.363 7.88586 12.7055 7.88742 13.0807 7.97537L11.6383 9.39813C11.3434 9.68901 11.3402 10.1639 11.6311 10.4588C11.922 10.7537 12.3968 10.7569 12.6917 10.466L15.1917 7.99998C15.3346 7.85904 15.415 7.66673 15.415 7.46604C15.415 7.26534 15.3346 7.07303 15.1917 6.93209L12.6917 4.46606Z" fill="#272727"/>
</svg>
