<svg width="24" height="24" viewBox="0 0 24 24" fill="none" xmlns="http://www.w3.org/2000/svg">
<path fill-rule="evenodd" clip-rule="evenodd" d="M12 0C5.37258 0 0 5.37258 0 12C0 18.6274 5.37258 24 12 24C18.6274 24 24 18.6274 24 12C24 5.37258 18.6274 0 12 0ZM11.5303 7.53033C11.8232 7.23744 11.8232 6.76256 11.5303 6.46967C11.2374 6.17678 10.7626 6.17678 10.4697 6.46967L6.46967 10.4697C6.17678 10.7626 6.17678 11.2374 6.46967 11.5303L10.4697 15.5303C10.7626 15.8232 11.2374 15.8232 11.5303 15.5303C11.8232 15.2374 11.8232 14.7626 11.5303 14.4697L8.81066 11.75H14C15.2426 11.75 16.25 12.7574 16.25 14V17C16.25 17.4142 16.5858 17.75 17 17.75C17.4142 17.75 17.75 17.4142 17.75 17V14C17.75 11.9289 16.0711 10.25 14 10.25H8.81066L11.5303 7.53033Z" fill="#272727"/>
</svg>
