<svg width="24" height="24" viewBox="0 0 24 24" fill="none" xmlns="http://www.w3.org/2000/svg">
<path fill-rule="evenodd" clip-rule="evenodd" d="M12 0C5.37258 0 0 5.37258 0 12C0 18.6274 5.37258 24 12 24C18.6274 24 24 18.6274 24 12C24 5.37258 18.6274 0 12 0ZM8.53033 7.53033C8.82322 7.23744 8.82322 6.76256 8.53033 6.46967C8.23744 6.17678 7.76256 6.17678 7.46967 6.46967L3.46967 10.4697C3.17678 10.7626 3.17678 11.2374 3.46967 11.5303L7.46967 15.5303C7.76256 15.8232 8.23744 15.8232 8.53033 15.5303C8.82322 15.2374 8.82322 14.7626 8.53033 14.4697L5.06066 11L8.53033 7.53033ZM13.5303 7.53033C13.8232 7.23744 13.8232 6.76256 13.5303 6.46967C13.2374 6.17678 12.7626 6.17678 12.4697 6.46967L8.46967 10.4697C8.17678 10.7626 8.17678 11.2374 8.46967 11.5303L12.4697 15.5303C12.7626 15.8232 13.2374 15.8232 13.5303 15.5303C13.8232 15.2374 13.8232 14.7626 13.5303 14.4697L10.8107 11.75H16C17.2426 11.75 18.25 12.7574 18.25 14V17C18.25 17.4142 18.5858 17.75 19 17.75C19.4142 17.75 19.75 17.4142 19.75 17V14C19.75 11.9289 18.0711 10.25 16 10.25H10.8107L13.5303 7.53033Z" fill="#272727"/>
</svg>
