<svg width="24" height="24" viewBox="0 0 24 24" fill="none" xmlns="http://www.w3.org/2000/svg">
<path fill-rule="evenodd" clip-rule="evenodd" d="M12 0C5.37258 0 0 5.37258 0 12C0 18.6274 5.37258 24 12 24C18.6274 24 24 18.6274 24 12C24 5.37258 18.6274 0 12 0ZM7.75 11C7.75 9.20507 9.20507 7.75 11 7.75C12.7949 7.75 14.25 9.20507 14.25 11C14.25 12.7949 12.7949 14.25 11 14.25C9.20507 14.25 7.75 12.7949 7.75 11ZM11 6.25C8.37665 6.25 6.25 8.37665 6.25 11C6.25 13.6234 8.37665 15.75 11 15.75C12.041 15.75 13.0038 15.4151 13.7865 14.8472L16.4697 17.5303C16.7626 17.8232 17.2374 17.8232 17.5303 17.5303C17.8232 17.2374 17.8232 16.7626 17.5303 16.4697L14.8472 13.7865C15.4151 13.0038 15.75 12.041 15.75 11C15.75 8.37665 13.6234 6.25 11 6.25Z" fill="#272727"/>
</svg>
