<svg width="24" height="24" viewBox="0 0 24 24" fill="none" xmlns="http://www.w3.org/2000/svg">
<path fill-rule="evenodd" clip-rule="evenodd" d="M12 0C5.37258 0 0 5.37258 0 12C0 18.6274 5.37258 24 12 24C18.6274 24 24 18.6274 24 12C24 5.37258 18.6274 0 12 0ZM6.75 11C6.75 8.65279 8.65279 6.75 11 6.75C13.3472 6.75 15.25 8.65279 15.25 11C15.25 13.3472 13.3472 15.25 11 15.25C8.65279 15.25 6.75 13.3472 6.75 11ZM11 5.25C7.82436 5.25 5.25 7.82436 5.25 11C5.25 14.1756 7.82436 16.75 11 16.75C12.3174 16.75 13.5314 16.3069 14.501 15.5617L16.4697 17.5303C16.7626 17.8232 17.2374 17.8232 17.5303 17.5303C17.8232 17.2374 17.8232 16.7626 17.5303 16.4697L15.5617 14.501C16.3069 13.5314 16.75 12.3174 16.75 11C16.75 7.82436 14.1756 5.25 11 5.25Z" fill="#272727"/>
</svg>
