<svg width="24" height="24" viewBox="0 0 24 24" fill="none" xmlns="http://www.w3.org/2000/svg">
<path fill-rule="evenodd" clip-rule="evenodd" d="M12.5303 3.46967C12.2374 3.17678 11.7626 3.17678 11.4697 3.46967L6.46967 8.46967C6.17678 8.76256 6.17678 9.23744 6.46967 9.53033C6.76256 9.82322 7.23744 9.82322 7.53033 9.53033L11.25 5.81066V13H5.5C4.67157 13 4 13.6716 4 14.5V18C4 20.2091 5.79086 22 8 22H16C18.2091 22 20 20.2091 20 18V14.5C20 13.6716 19.3284 13 18.5 13H12.75V5.81066L16.4697 9.53033C16.7626 9.82322 17.2374 9.82322 17.5303 9.53033C17.8232 9.23744 17.8232 8.76256 17.5303 8.46967L12.5303 3.46967ZM12.75 13H11.25V15C11.25 15.4142 11.5858 15.75 12 15.75C12.4142 15.75 12.75 15.4142 12.75 15V13Z" fill="#272727"/>
</svg>
