<svg width="24" height="24" viewBox="0 0 24 24" fill="none" xmlns="http://www.w3.org/2000/svg">
<path fill-rule="evenodd" clip-rule="evenodd" d="M0.999998 7.55561C0.447714 7.55561 0 8.00333 0 8.55561V15.4445C0 15.9968 0.447716 16.4445 1 16.4445H5.67939C5.77969 16.4445 5.87768 16.4747 5.96062 16.5311L12.4375 20.9371C13.1014 21.3888 14 20.9133 14 20.1103V3.88977C14 3.08683 13.1014 2.61132 12.4375 3.06295L5.96062 7.46901C5.87768 7.52543 5.77969 7.5556 5.67939 7.5556L0.999998 7.55561ZM20.7808 5.3753C20.4357 4.94408 19.8064 4.87423 19.3752 5.21929C18.944 5.56435 18.8741 6.19365 19.2192 6.62488C20.3063 7.98341 21 9.87766 21 12.0001C21 14.1225 20.3063 16.0168 19.2192 17.3753C18.8741 17.8065 18.944 18.4358 19.3752 18.7809C19.8064 19.1259 20.4357 19.0561 20.7808 18.6249C22.168 16.8913 23 14.5499 23 12.0001C23 9.45031 22.168 7.10892 20.7808 5.3753ZM17.7808 8.3753C17.4357 7.94408 16.8064 7.87423 16.3752 8.21929C15.944 8.56435 15.8741 9.19365 16.2192 9.62488C16.6877 10.2104 17 11.0457 17 12.0001C17 12.9545 16.6877 13.7898 16.2192 14.3753C15.8741 14.8065 15.944 15.4358 16.3752 15.7809C16.8064 16.1259 17.4357 16.0561 17.7808 15.6249C18.5494 14.6643 19 13.3818 19 12.0001C19 10.6184 18.5494 9.33588 17.7808 8.3753Z" fill="#272727"/>
</svg>
