<svg width="24" height="24" viewBox="0 0 24 24" fill="none" xmlns="http://www.w3.org/2000/svg">
<path d="M17.5 15.5767L20.8292 17.5539C21.2803 17.827 21.8109 18 22.2886 18C23.3234 18 24 17.481 24 16.7344V7.26555C24 6.51897 23.3234 6 22.2886 6C21.8109 6 21.2803 6.17299 20.8292 6.44613L17.5 8.41701V15.5767Z" fill="#272727"/>
<path fill-rule="evenodd" clip-rule="evenodd" d="M16 8C16 6.34315 14.6569 5 13 5H3C1.34315 5 0 6.34315 0 8V16C0 17.6569 1.34315 19 3 19H13C14.6569 19 16 17.6569 16 16V8ZM8 14C9.10457 14 10 13.1046 10 12C10 10.8954 9.10457 10 8 10C6.89543 10 6 10.8954 6 12C6 13.1046 6.89543 14 8 14Z" fill="#272727"/>
</svg>
