<svg width="24" height="24" viewBox="0 0 24 24" fill="none" xmlns="http://www.w3.org/2000/svg">
<path d="M6.75 10C6.75 9.58579 6.41421 9.25 6 9.25C5.58579 9.25 5.25 9.58579 5.25 10H6.75ZM5.25 14C5.25 14.4142 5.58579 14.75 6 14.75C6.41421 14.75 6.75 14.4142 6.75 14H5.25ZM10.75 10C10.75 9.58579 10.4142 9.25 10 9.25C9.58579 9.25 9.25 9.58579 9.25 10H10.75ZM9.25 14C9.25 14.4142 9.58579 14.75 10 14.75C10.4142 14.75 10.75 14.4142 10.75 14H9.25ZM14.75 10C14.75 9.58579 14.4142 9.25 14 9.25C13.5858 9.25 13.25 9.58579 13.25 10H14.75ZM13.25 14C13.25 14.4142 13.5858 14.75 14 14.75C14.4142 14.75 14.75 14.4142 14.75 14H13.25ZM3.5 5.75H17.5V4.25H3.5V5.75ZM17.5 18.25H3.5V19.75H17.5V18.25ZM1.75 16.5V7.5H0.25V16.5H1.75ZM19.25 7.5V9H20.75V7.5H19.25ZM20 9.75H21V8.25H20V9.75ZM22.25 11V13H23.75V11H22.25ZM19.25 9V15H20.75V9H19.25ZM19.25 15V16.5H20.75V15H19.25ZM21 14.25H20V15.75H21V14.25ZM22.25 13C22.25 13.6904 21.6904 14.25 21 14.25V15.75C22.5188 15.75 23.75 14.5188 23.75 13H22.25ZM3.5 18.25C2.5335 18.25 1.75 17.4665 1.75 16.5H0.25C0.25 18.2949 1.70507 19.75 3.5 19.75V18.25ZM17.5 19.75C19.2949 19.75 20.75 18.2949 20.75 16.5H19.25C19.25 17.4665 18.4665 18.25 17.5 18.25V19.75ZM17.5 5.75C18.4665 5.75 19.25 6.5335 19.25 7.5H20.75C20.75 5.70507 19.2949 4.25 17.5 4.25V5.75ZM21 9.75C21.6904 9.75 22.25 10.3096 22.25 11H23.75C23.75 9.48122 22.5188 8.25 21 8.25V9.75ZM3.5 4.25C1.70507 4.25 0.25 5.70507 0.25 7.5H1.75C1.75 6.5335 2.5335 5.75 3.5 5.75V4.25ZM5.25 10V14H6.75V10H5.25ZM9.25 10V14H10.75V10H9.25ZM13.25 10V14H14.75V10H13.25Z" fill="#272727"/>
</svg>
