<svg width="24" height="24" viewBox="0 0 24 24" fill="none" xmlns="http://www.w3.org/2000/svg">
<path d="M12.2704 16.6738L12.6759 16.0429L12.2704 16.6738ZM11.7296 16.6738L11.3241 16.0429L11.7296 16.6738ZM5.77038 20.5048L6.17595 21.1356L5.77038 20.5048ZM18.2296 20.5048L17.8241 21.1356L18.2296 20.5048ZM7.5 4.75H16.5V3.25H7.5V4.75ZM18.25 6.5V20.0842H19.75V6.5H18.25ZM5.75 20.0842V6.5H4.25V20.0842H5.75ZM18.6352 19.8739L12.6759 16.0429L11.8648 17.3047L17.8241 21.1356L18.6352 19.8739ZM11.3241 16.0429L5.36481 19.8739L6.17595 21.1356L12.1352 17.3047L11.3241 16.0429ZM12.6759 16.0429C12.2642 15.7782 11.7358 15.7782 11.3241 16.0429L12.1352 17.3047C12.0528 17.3576 11.9472 17.3576 11.8648 17.3047L12.6759 16.0429ZM4.25 20.0842C4.25 21.0731 5.34406 21.6704 6.17595 21.1356L5.36481 19.8739C5.53119 19.7669 5.75 19.8864 5.75 20.0842H4.25ZM18.25 20.0842C18.25 19.8864 18.4688 19.7669 18.6352 19.8739L17.8241 21.1356C18.6559 21.6704 19.75 21.0731 19.75 20.0842H18.25ZM16.5 4.75C17.4665 4.75 18.25 5.5335 18.25 6.5H19.75C19.75 4.70507 18.2949 3.25 16.5 3.25V4.75ZM7.5 3.25C5.70507 3.25 4.25 4.70508 4.25 6.5H5.75C5.75 5.5335 6.5335 4.75 7.5 4.75V3.25Z" fill="#272727"/>
</svg>
