<svg width="24" height="24" viewBox="0 0 24 24" fill="none" xmlns="http://www.w3.org/2000/svg">
<path d="M5.4 5.46667L6 5.91667L5.4 5.46667ZM7.7 2.4L7.1 1.95V1.95L7.7 2.4ZM18.3 2.4L17.7 2.85V2.85L18.3 2.4ZM20.6 5.46667L21.2 5.01667V5.01667L20.6 5.46667ZM16.75 10C16.75 9.58579 16.4142 9.25 16 9.25C15.5858 9.25 15.25 9.58579 15.25 10H16.75ZM10.75 10C10.75 9.58579 10.4142 9.25 10 9.25C9.58579 9.25 9.25 9.58579 9.25 10H10.75ZM20.25 6.66667V19H21.75V6.66667H20.25ZM19 20.25H7V21.75H19V20.25ZM5.75 19V6.66667H4.25V19H5.75ZM6 5.91667L8.3 2.85L7.1 1.95L4.8 5.01667L6 5.91667ZM8.5 2.75H17.5V1.25H8.5V2.75ZM17.7 2.85L20 5.91667L21.2 5.01667L18.9 1.95L17.7 2.85ZM17.5 2.75C17.5787 2.75 17.6528 2.78705 17.7 2.85L18.9 1.95C18.5695 1.50934 18.0508 1.25 17.5 1.25V2.75ZM8.3 2.85C8.34721 2.78705 8.42131 2.75 8.5 2.75V1.25C7.94917 1.25 7.4305 1.50934 7.1 1.95L8.3 2.85ZM7 20.25C6.30964 20.25 5.75 19.6904 5.75 19H4.25C4.25 20.5188 5.48122 21.75 7 21.75V20.25ZM20.25 19C20.25 19.6904 19.6904 20.25 19 20.25V21.75C20.5188 21.75 21.75 20.5188 21.75 19H20.25ZM21.75 6.66667C21.75 6.07165 21.557 5.49268 21.2 5.01667L20 5.91667C20.1623 6.13304 20.25 6.3962 20.25 6.66667H21.75ZM5.75 6.66667C5.75 6.3962 5.83772 6.13304 6 5.91667L4.8 5.01667C4.44299 5.49268 4.25 6.07165 4.25 6.66667H5.75ZM5.11747 6.75H20.8777V5.25H5.11747V6.75ZM15.25 10C15.25 11.2426 14.2426 12.25 13 12.25V13.75C15.0711 13.75 16.75 12.0711 16.75 10H15.25ZM13 12.25C11.7574 12.25 10.75 11.2426 10.75 10H9.25C9.25 12.0711 10.9289 13.75 13 13.75V12.25Z" fill="#272727"/>
</svg>
