<svg width="24" height="24" viewBox="0 0 24 24" fill="none" xmlns="http://www.w3.org/2000/svg">
<path d="M7.25001 12C7.25001 12.4142 7.5858 12.75 8.00001 12.75C8.41422 12.75 8.75001 12.4142 8.75001 12H7.25001ZM15.25 12C15.25 12.4142 15.5858 12.75 16 12.75C16.4142 12.75 16.75 12.4142 16.75 12H15.25ZM7.00001 17.25C6.5858 17.25 6.25001 17.5858 6.25001 18C6.25001 18.4142 6.5858 18.75 7.00001 18.75V17.25ZM17 18.75C17.4142 18.75 17.75 18.4142 17.75 18C17.75 17.5858 17.4142 17.25 17 17.25V18.75ZM20.1245 8.86696L20.8728 8.81707L20.1245 8.86696ZM20.8578 19.867L21.6061 19.8171L20.8578 19.867ZM3.14222 19.867L2.39388 19.8171L3.14222 19.867ZM3.87555 8.86696L4.62389 8.91685L3.87555 8.86696ZM8.75001 12V6H7.25001V12H8.75001ZM15.25 6V12H16.75V6H15.25ZM12 2.75C13.0879 2.75 13.8822 3.10701 14.4056 3.64896C14.933 4.19508 15.25 4.99655 15.25 6H16.75C16.75 4.67804 16.3272 3.47951 15.4846 2.60698C14.638 1.73029 13.4324 1.25 12 1.25V2.75ZM12 1.25C10.5676 1.25 9.36202 1.73029 8.51542 2.60698C7.67284 3.47951 7.25001 4.67804 7.25001 6H8.75001C8.75001 4.99655 9.06707 4.19508 9.59444 3.64896C10.1178 3.10701 10.9122 2.75 12 2.75V1.25ZM7.00001 18.75H17V17.25H7.00001V18.75ZM5.87112 7.75H18.1289V6.25H5.87112V7.75ZM19.3761 8.91685L20.1095 19.9169L21.6061 19.8171L20.8728 8.81707L19.3761 8.91685ZM18.8622 21.25H5.13778V22.75H18.8622V21.25ZM3.89055 19.9169L4.62389 8.91685L3.12721 8.81707L2.39388 19.8171L3.89055 19.9169ZM5.13778 21.25C4.4147 21.25 3.84246 20.6383 3.89055 19.9169L2.39388 19.8171C2.28806 21.4043 3.54701 22.75 5.13778 22.75V21.25ZM20.1095 19.9169C20.1576 20.6383 19.5853 21.25 18.8622 21.25V22.75C20.453 22.75 21.712 21.4043 21.6061 19.8171L20.1095 19.9169ZM18.1289 7.75C18.787 7.75 19.3324 8.26023 19.3761 8.91685L20.8728 8.81707C20.7765 7.3725 19.5767 6.25 18.1289 6.25V7.75ZM5.87112 6.25C4.42334 6.25 3.22351 7.3725 3.12721 8.81707L4.62389 8.91685C4.66766 8.26023 5.21304 7.75 5.87112 7.75V6.25Z" fill="#272727"/>
</svg>
