<svg width="27" height="26" viewBox="0 0 27 26" fill="none" xmlns="http://www.w3.org/2000/svg">
<path d="M7.25001 12C7.25001 12.4142 7.5858 12.75 8.00001 12.75C8.41422 12.75 8.75001 12.4142 8.75001 12H7.25001ZM15.25 11C15.25 11.4142 15.5858 11.75 16 11.75C16.4142 11.75 16.75 11.4142 16.75 11H15.25ZM7.00001 17.25C6.5858 17.25 6.25001 17.5858 6.25001 18C6.25001 18.4142 6.5858 18.75 7.00001 18.75V17.25ZM3.14222 19.867L2.39388 19.8171L3.14222 19.867ZM3.87555 8.86696L4.62389 8.91685L3.87555 8.86696ZM20.1245 8.86696L20.8728 8.81707L20.1245 8.86696ZM19.75 15C19.75 14.5858 19.4142 14.25 19 14.25C18.5858 14.25 18.25 14.5858 18.25 15H19.75ZM18.25 21C18.25 21.4142 18.5858 21.75 19 21.75C19.4142 21.75 19.75 21.4142 19.75 21H18.25ZM22 18.75C22.4142 18.75 22.75 18.4142 22.75 18C22.75 17.5858 22.4142 17.25 22 17.25V18.75ZM16 17.25C15.5858 17.25 15.25 17.5858 15.25 18C15.25 18.4142 15.5858 18.75 16 18.75V17.25ZM8.75001 12V6H7.25001V12H8.75001ZM15.25 6V11H16.75V6H15.25ZM12 2.75C13.0879 2.75 13.8822 3.10701 14.4056 3.64896C14.933 4.19508 15.25 4.99655 15.25 6H16.75C16.75 4.67804 16.3272 3.47951 15.4846 2.60698C14.638 1.73029 13.4324 1.25 12 1.25V2.75ZM12 1.25C10.5676 1.25 9.36202 1.73029 8.51542 2.60698C7.67284 3.47951 7.25001 4.67804 7.25001 6H8.75001C8.75001 4.99655 9.06707 4.19508 9.59444 3.64896C10.1178 3.10701 10.9122 2.75 12 2.75V1.25ZM7.00001 18.75H12V17.25H7.00001V18.75ZM5.87112 7.75H18.1289V6.25H5.87112V7.75ZM3.89055 19.9169L4.62389 8.91685L3.12721 8.81707L2.39388 19.8171L3.89055 19.9169ZM19.3761 8.91685L19.5183 11.0499L21.015 10.9501L20.8728 8.81707L19.3761 8.91685ZM13 21.25H5.13779V22.75H13V21.25ZM2.39388 19.8171C2.28806 21.4043 3.54701 22.75 5.13779 22.75V21.25C4.4147 21.25 3.84246 20.6383 3.89055 19.9169L2.39388 19.8171ZM18.1289 7.75C18.787 7.75 19.3324 8.26023 19.3761 8.91685L20.8728 8.81707C20.7765 7.3725 19.5767 6.25 18.1289 6.25V7.75ZM5.87112 6.25C4.42334 6.25 3.22351 7.3725 3.12721 8.81707L4.62389 8.91685C4.66766 8.26023 5.21304 7.75 5.87112 7.75V6.25ZM25.25 18C25.25 21.4518 22.4518 24.25 19 24.25V25.75C23.2802 25.75 26.75 22.2802 26.75 18H25.25ZM19 24.25C15.5482 24.25 12.75 21.4518 12.75 18H11.25C11.25 22.2802 14.7198 25.75 19 25.75V24.25ZM12.75 18C12.75 14.5482 15.5482 11.75 19 11.75V10.25C14.7198 10.25 11.25 13.7198 11.25 18H12.75ZM19 11.75C22.4518 11.75 25.25 14.5482 25.25 18H26.75C26.75 13.7198 23.2802 10.25 19 10.25V11.75ZM18.25 15V18H19.75V15H18.25ZM18.25 18V21H19.75V18H18.25ZM22 17.25H19V18.75H22V17.25ZM19 17.25H16V18.75H19V17.25Z" fill="#272727"/>
</svg>
