<svg width="24" height="27" viewBox="0 0 24 27" fill="none" xmlns="http://www.w3.org/2000/svg">
<path d="M6 11V11.75H6.75V11H6ZM18 11H17.25V11.75H18V11ZM6.75 20.75C7.16421 20.75 7.5 20.4142 7.5 20C7.5 19.5858 7.16421 19.25 6.75 19.25V20.75ZM17.25 19.25C16.8358 19.25 16.5 19.5858 16.5 20C16.5 20.4142 16.8358 20.75 17.25 20.75V19.25ZM12.75 17C12.75 16.5858 12.4142 16.25 12 16.25C11.5858 16.25 11.25 16.5858 11.25 17H12.75ZM12 26L11.4697 26.5303C11.7626 26.8232 12.2374 26.8232 12.5303 26.5303L12 26ZM15.5303 23.5303C15.8232 23.2374 15.8232 22.7626 15.5303 22.4697C15.2374 22.1768 14.7626 22.1768 14.4697 22.4697L15.5303 23.5303ZM9.53033 22.4697C9.23744 22.1768 8.76256 22.1768 8.46967 22.4697C8.17678 22.7626 8.17678 23.2374 8.46967 23.5303L9.53033 22.4697ZM5.5 19.25C3.42893 19.25 1.75 17.5711 1.75 15.5H0.25C0.25 18.3995 2.6005 20.75 5.5 20.75V19.25ZM22.25 15.5C22.25 17.5711 20.5711 19.25 18.5 19.25V20.75C21.3995 20.75 23.75 18.3995 23.75 15.5H22.25ZM18.5 11.75C20.5711 11.75 22.25 13.4289 22.25 15.5H23.75C23.75 12.6005 21.3995 10.25 18.5 10.25V11.75ZM5.5 10.25C2.60051 10.25 0.25 12.6005 0.25 15.5H1.75C1.75 13.4289 3.42893 11.75 5.5 11.75V10.25ZM12 4.75C14.8995 4.75 17.25 7.10051 17.25 10H18.75C18.75 6.27208 15.7279 3.25 12 3.25V4.75ZM12 3.25C8.27208 3.25 5.25 6.27208 5.25 10H6.75C6.75 7.10051 9.1005 4.75 12 4.75V3.25ZM6.75 11V10H5.25V11H6.75ZM5.5 11.75H6V10.25H5.5V11.75ZM18 11.75H18.5V10.25H18V11.75ZM17.25 10V11H18.75V10H17.25ZM6.75 19.25H5.5V20.75H6.75V19.25ZM18.5 19.25H17.25V20.75H18.5V19.25ZM11.25 17V26H12.75V17H11.25ZM12.5303 26.5303L15.5303 23.5303L14.4697 22.4697L11.4697 25.4697L12.5303 26.5303ZM12.5303 25.4697L9.53033 22.4697L8.46967 23.5303L11.4697 26.5303L12.5303 25.4697Z" fill="#272727"/>
</svg>
