<svg width="24" height="24" viewBox="0 0 24 24" fill="none" xmlns="http://www.w3.org/2000/svg">
<path d="M5.31733 15.3593L5.63429 16.0391H5.63429L5.31733 15.3593ZM22.4009 8.22065C22.7763 8.04559 22.9387 7.59936 22.7637 7.22395C22.5886 6.84855 22.1424 6.68613 21.767 6.86119L22.4009 8.22065ZM21.767 17.233C22.1424 17.408 22.5886 17.2456 22.7637 16.8702C22.9387 16.4948 22.7763 16.0486 22.4009 15.8735L21.767 17.233ZM10.6483 16.7353C9.65632 14.608 7.12766 13.6876 5.00036 14.6796L5.63429 16.0391C7.01077 15.3972 8.64697 15.9927 9.28884 17.3692L10.6483 16.7353ZM5.00036 14.6796C2.87307 15.6716 1.95271 18.2003 2.94468 20.3275L4.30414 19.6936C3.66228 18.3171 4.2578 16.6809 5.63429 16.0391L5.00036 14.6796ZM2.94468 20.3275C3.93666 22.4548 6.46532 23.3752 8.59262 22.3832L7.95869 21.0238C6.5822 21.6656 4.94601 21.0701 4.30414 19.6936L2.94468 20.3275ZM8.59262 22.3832C10.7199 21.3913 11.6403 18.8626 10.6483 16.7353L9.28884 17.3692C9.9307 18.7457 9.33517 20.3819 7.95869 21.0238L8.59262 22.3832ZM5.63429 16.0391L22.4009 8.22065L21.767 6.86119L5.00036 14.6796L5.63429 16.0391ZM9.28884 6.72493C8.64697 8.10141 7.01077 8.69694 5.63429 8.05507L5.00036 9.41453C7.12766 10.4065 9.65632 9.48615 10.6483 7.35885L9.28884 6.72493ZM5.63429 8.05507C4.2578 7.41321 3.66228 5.77701 4.30414 4.40052L2.94468 3.7666C1.95271 5.89389 2.87307 8.42256 5.00036 9.41453L5.63429 8.05507ZM4.30414 4.40052C4.94601 3.02404 6.5822 2.42851 7.95869 3.07038L8.59262 1.71092C6.46532 0.718943 3.93666 1.6393 2.94468 3.7666L4.30414 4.40052ZM7.95869 3.07038C9.33517 3.71224 9.9307 5.34844 9.28884 6.72493L10.6483 7.35885C11.6403 5.23156 10.7199 2.70289 8.59262 1.71092L7.95869 3.07038ZM5.00036 9.41453L21.767 17.233L22.4009 15.8735L5.63429 8.05507L5.00036 9.41453Z" fill="#272727"/>
</svg>
