<svg width="24" height="24" viewBox="0 0 24 24" fill="none" xmlns="http://www.w3.org/2000/svg">
<path d="M14.75 11C14.75 10.5858 14.4142 10.25 14 10.25C13.5858 10.25 13.25 10.5858 13.25 11H14.75ZM13.25 17C13.25 17.4142 13.5858 17.75 14 17.75C14.4142 17.75 14.75 17.4142 14.75 17H13.25ZM17 14.75C17.4142 14.75 17.75 14.4142 17.75 14C17.75 13.5858 17.4142 13.25 17 13.25V14.75ZM11 13.25C10.5858 13.25 10.25 13.5858 10.25 14C10.25 14.4142 10.5858 14.75 11 14.75V13.25ZM9 7.75H19V6.25H9V7.75ZM20.25 9V19H21.75V9H20.25ZM19 20.25H9V21.75H19V20.25ZM7.75 19V9H6.25V19H7.75ZM9 20.25C8.30964 20.25 7.75 19.6904 7.75 19H6.25C6.25 20.5188 7.48122 21.75 9 21.75V20.25ZM20.25 19C20.25 19.6904 19.6904 20.25 19 20.25V21.75C20.5188 21.75 21.75 20.5188 21.75 19H20.25ZM19 7.75C19.6904 7.75 20.25 8.30964 20.25 9H21.75C21.75 7.48122 20.5188 6.25 19 6.25V7.75ZM9 6.25C7.48122 6.25 6.25 7.48122 6.25 9H7.75C7.75 8.30964 8.30964 7.75 9 7.75V6.25ZM5 3.75H15V2.25H5V3.75ZM3.75 15V5H2.25V15H3.75ZM7 16.25H5V17.75H7V16.25ZM16.25 5V7H17.75V5H16.25ZM2.25 15C2.25 16.5188 3.48122 17.75 5 17.75V16.25C4.30964 16.25 3.75 15.6904 3.75 15H2.25ZM15 3.75C15.6904 3.75 16.25 4.30964 16.25 5H17.75C17.75 3.48122 16.5188 2.25 15 2.25V3.75ZM5 2.25C3.48122 2.25 2.25 3.48122 2.25 5H3.75C3.75 4.30964 4.30964 3.75 5 3.75V2.25ZM14.75 14V11H13.25V14H14.75ZM13.25 14V17H14.75V14H13.25ZM14 14.75H17V13.25H14V14.75ZM14 13.25H11V14.75H14V13.25Z" fill="#272727"/>
</svg>
