<svg width="24" height="24" viewBox="0 0 24 24" fill="none" xmlns="http://www.w3.org/2000/svg">
<path d="M13.2912 11.7694C13.5841 11.4765 13.5841 11.0017 13.2912 10.7088C12.9984 10.4159 12.5235 10.4159 12.2306 10.7088L13.2912 11.7694ZM6.85013 16.0892C6.55723 16.3821 6.55723 16.857 6.85013 17.1499C7.14302 17.4428 7.61789 17.4428 7.91079 17.1499L6.85013 16.0892ZM2 15.6772L1.25 15.6772V15.6772H2ZM2 21.6772H2.75H2ZM21.6848 7.2499L21.1545 7.78023L21.6848 7.2499ZM16.7501 2.31518L17.2804 1.78485L16.7501 2.31518ZM21.6848 8.77173L22.2152 9.30206L21.6848 8.77173ZM2.09455 15.4489L1.56422 14.9186L2.09455 15.4489ZM15.2283 2.31518L14.6979 1.78485V1.78485L15.2283 2.31518ZM12.2306 10.7088L6.85013 16.0892L7.91079 17.1499L13.2912 11.7694L12.2306 10.7088ZM1.25 15.6772L1.25 21.6772H2.75L2.75 15.6772H1.25ZM8.32283 21.25H2.32283V22.75H8.32283V21.25ZM22.2152 6.71957L17.2804 1.78485L16.2198 2.84551L21.1545 7.78023L22.2152 6.71957ZM9.08143 22.4358L19.7478 11.7694L18.6871 10.7088L8.02077 21.3751L9.08143 22.4358ZM19.7478 11.7694L22.2152 9.30206L21.1545 8.2414L18.6871 10.7088L19.7478 11.7694ZM2.62488 15.9792L13.2912 5.31287L12.2306 4.25221L1.56422 14.9186L2.62488 15.9792ZM13.2912 5.31287L15.7586 2.84551L14.6979 1.78485L12.2306 4.25221L13.2912 5.31287ZM19.7478 10.7088L13.2912 4.25221L12.2306 5.31287L18.6871 11.7694L19.7478 10.7088ZM1.25 21.6772C1.25 22.2697 1.73032 22.75 2.32283 22.75V21.25C2.55875 21.25 2.75 21.4413 2.75 21.6772H1.25ZM2.75 15.6772C2.75 15.7905 2.705 15.8991 2.62488 15.9792L1.56422 14.9186C1.36303 15.1198 1.25 15.3926 1.25 15.6772L2.75 15.6772ZM21.1545 7.78023C21.2818 7.90758 21.2818 8.11405 21.1545 8.2414L22.2152 9.30206C22.9283 8.58892 22.9283 7.43271 22.2152 6.71957L21.1545 7.78023ZM8.32283 22.75C8.60737 22.75 8.88024 22.637 9.08143 22.4358L8.02077 21.3751C8.10088 21.295 8.20953 21.25 8.32283 21.25V22.75ZM17.2804 1.78485C16.5673 1.07172 15.4111 1.07172 14.6979 1.78485L15.7586 2.84551C15.886 2.71816 16.0924 2.71816 16.2198 2.84551L17.2804 1.78485Z" fill="#272727"/>
</svg>
