<svg width="24" height="24" viewBox="0 0 24 24" fill="none" xmlns="http://www.w3.org/2000/svg">
<path d="M10.0172 15.6724L6.16939 16.3506C4.007 16.7698 3 17.8179 3 19.345C3 20.902 4.2826 22 6.06339 22C7.64279 22 10.0172 20.8921 10.0172 17.9576C10.0172 14.4594 10.0172 13.4981 10.0172 9.99996M20.9719 5.99996L10.0172 9.99996M20.9719 5.99996L21 13.6724M20.9719 5.99996V2.18928C20.9719 2.09732 20.8804 2.03336 20.7941 2.06491L10.6741 5.76129C10.2796 5.90538 10.0172 6.28061 10.0172 6.7006V9.99996M21 13.6724L17.1522 14.3506C14.9898 14.7698 13.9828 15.8179 13.9828 17.345C13.9828 18.902 15.2654 20 17.0462 20C18.6256 20 21 18.8921 21 15.9576V13.6724Z" stroke="#272727" stroke-width="1.5" stroke-linecap="round"/>
</svg>
