<svg width="24" height="24" viewBox="0 0 24 24" fill="none" xmlns="http://www.w3.org/2000/svg">
<path d="M6 4C6 2.89543 6.89543 2 8 2H16C17.1046 2 18 2.89543 18 4V20C18 21.1046 17.1046 22 16 22H8C6.89543 22 6 21.1046 6 20V4Z" stroke="#272727" stroke-width="1.5" stroke-linecap="round"/>
<path d="M8.75 6C8.75 5.86193 8.86193 5.75 9 5.75C9.13807 5.75 9.25 5.86193 9.25 6C9.25 6.13807 9.13807 6.25 9 6.25C8.86193 6.25 8.75 6.13807 8.75 6ZM11.75 6C11.75 5.86193 11.8619 5.75 12 5.75C12.1381 5.75 12.25 5.86193 12.25 6C12.25 6.13807 12.1381 6.25 12 6.25C11.8619 6.25 11.75 6.13807 11.75 6ZM14.75 6C14.75 5.86193 14.8619 5.75 15 5.75C15.1381 5.75 15.25 5.86193 15.25 6C15.25 6.13807 15.1381 6.25 15 6.25C14.8619 6.25 14.75 6.13807 14.75 6ZM8.75 9C8.75 8.86193 8.86193 8.75 9 8.75C9.13807 8.75 9.25 8.86193 9.25 9C9.25 9.13807 9.13807 9.25 9 9.25C8.86193 9.25 8.75 9.13807 8.75 9ZM11.75 9C11.75 8.86193 11.8619 8.75 12 8.75C12.1381 8.75 12.25 8.86193 12.25 9C12.25 9.13807 12.1381 9.25 12 9.25C11.8619 9.25 11.75 9.13807 11.75 9ZM14.75 9C14.75 8.86193 14.8619 8.75 15 8.75C15.1381 8.75 15.25 8.86193 15.25 9C15.25 9.13807 15.1381 9.25 15 9.25C14.8619 9.25 14.75 9.13807 14.75 9ZM8.75 19C8.75 18.8619 8.86193 18.75 9 18.75C9.13807 18.75 9.25 18.8619 9.25 19C9.25 19.1381 9.13807 19.25 9 19.25C8.86193 19.25 8.75 19.1381 8.75 19ZM11.75 19C11.75 18.8619 11.8619 18.75 12 18.75C12.1381 18.75 12.25 18.8619 12.25 19C12.25 19.1381 12.1381 19.25 12 19.25C11.8619 19.25 11.75 19.1381 11.75 19ZM14.75 19C14.75 18.8619 14.8619 18.75 15 18.75C15.1381 18.75 15.25 18.8619 15.25 19C15.25 19.1381 15.1381 19.25 15 19.25C14.8619 19.25 14.75 19.1381 14.75 19ZM8.75 12C8.75 11.8619 8.86193 11.75 9 11.75C9.13807 11.75 9.25 11.8619 9.25 12C9.25 12.1381 9.13807 12.25 9 12.25C8.86193 12.25 8.75 12.1381 8.75 12ZM11.75 12C11.75 11.8619 11.8619 11.75 12 11.75C12.1381 11.75 12.25 11.8619 12.25 12C12.25 12.1381 12.1381 12.25 12 12.25C11.8619 12.25 11.75 12.1381 11.75 12Z" fill="#272727" stroke="#272727" stroke-width="1.5"/>
</svg>
