<svg width="24" height="24" viewBox="0 0 24 24" fill="none" xmlns="http://www.w3.org/2000/svg">
<path d="M14.6065 15.6728C14.2047 15.572 13.7973 15.816 13.6966 16.2178C13.5958 16.6196 13.8399 17.027 14.2416 17.1277L14.6065 15.6728ZM9.75836 17.1277C10.1601 17.027 10.4042 16.6196 10.3034 16.2178C10.2027 15.816 9.79528 15.572 9.3935 15.6728L9.75836 17.1277ZM12 17.6667V16.9167V17.6667ZM21.25 12C21.25 17.1086 17.1086 21.25 12 21.25V22.75C17.9371 22.75 22.75 17.9371 22.75 12H21.25ZM12 21.25C6.89137 21.25 2.75 17.1086 2.75 12H1.25C1.25 17.9371 6.06294 22.75 12 22.75V21.25ZM2.75 12C2.75 6.89137 6.89137 2.75 12 2.75V1.25C6.06294 1.25 1.25 6.06294 1.25 12H2.75ZM12 2.75C17.1086 2.75 21.25 6.89137 21.25 12H22.75C22.75 6.06294 17.9371 1.25 12 1.25V2.75ZM17.25 19.5139V20H18.75V19.5139H17.25ZM6.75 20V19.5139H5.25V20H6.75ZM14.2416 17.1277C15.2133 17.3714 15.9935 17.759 16.5148 18.2042C17.0355 18.6489 17.25 19.1034 17.25 19.5139H18.75C18.75 18.5343 18.2296 17.6961 17.4889 17.0635C16.7488 16.4314 15.741 15.9573 14.6065 15.6728L14.2416 17.1277ZM9.3935 15.6728C8.25897 15.9573 7.25121 16.4314 6.51107 17.0635C5.77035 17.6961 5.25 18.5343 5.25 19.5139H6.75C6.75 19.1034 6.9645 18.6489 7.4852 18.2042C8.00646 17.759 8.78667 17.3714 9.75836 17.1277L9.3935 15.6728ZM12 18.4167C13.6903 18.4167 15.0108 17.094 15.8617 15.4949C16.7346 13.8546 17.25 11.6974 17.25 9.53183H15.75C15.75 11.4818 15.2816 13.392 14.5375 14.7903C13.7715 16.2297 12.842 16.9167 12 16.9167V18.4167ZM17.25 9.53183C17.25 7.0456 14.7621 5.25 12 5.25V6.75C14.2754 6.75 15.75 8.17872 15.75 9.53183H17.25ZM12 5.25C9.23793 5.25 6.75 7.0456 6.75 9.53183H8.25C8.25 8.17872 9.7246 6.75 12 6.75V5.25ZM6.75 9.53183C6.75 11.6974 7.26542 13.8546 8.13829 15.4949C8.98921 17.094 10.3097 18.4167 12 18.4167V16.9167C11.158 16.9167 10.2285 16.2297 9.46247 14.7903C8.71842 13.392 8.25 11.4818 8.25 9.53183H6.75Z" fill="#272727"/>
</svg>
