<svg width="24" height="24" viewBox="0 0 24 24" fill="none" xmlns="http://www.w3.org/2000/svg">
<path d="M7 10.75C7.41421 10.75 7.75 10.4142 7.75 10C7.75 9.58579 7.41421 9.25 7 9.25V10.75ZM17 9.25C16.5858 9.25 16.25 9.58579 16.25 10C16.25 10.4142 16.5858 10.75 17 10.75V9.25ZM11.25 15C11.25 15.4142 11.5858 15.75 12 15.75C12.4142 15.75 12.75 15.4142 12.75 15H11.25ZM12 3L12.5303 2.46967C12.2374 2.17678 11.7626 2.17678 11.4697 2.46967L12 3ZM8.46967 5.46967C8.17678 5.76256 8.17678 6.23744 8.46967 6.53033C8.76256 6.82322 9.23744 6.82322 9.53033 6.53033L8.46967 5.46967ZM14.4697 6.53033C14.7626 6.82322 15.2374 6.82322 15.5303 6.53033C15.8232 6.23744 15.8232 5.76256 15.5303 5.46967L14.4697 6.53033ZM7 9.25H6.8V10.75H7V9.25ZM4.25 11.8V19H5.75V11.8H4.25ZM7 21.75H17V20.25H7V21.75ZM19.75 19V11.8H18.25V19H19.75ZM17.2 9.25H17V10.75H17.2V9.25ZM12.75 15V3H11.25V15H12.75ZM11.4697 2.46967L8.46967 5.46967L9.53033 6.53033L12.5303 3.53033L11.4697 2.46967ZM11.4697 3.53033L14.4697 6.53033L15.5303 5.46967L12.5303 2.46967L11.4697 3.53033ZM19.75 11.8C19.75 10.3917 18.6083 9.25 17.2 9.25V10.75C17.7799 10.75 18.25 11.2201 18.25 11.8H19.75ZM17 21.75C18.5188 21.75 19.75 20.5188 19.75 19H18.25C18.25 19.6904 17.6904 20.25 17 20.25V21.75ZM4.25 19C4.25 20.5188 5.48122 21.75 7 21.75V20.25C6.30964 20.25 5.75 19.6904 5.75 19H4.25ZM6.8 9.25C5.39167 9.25 4.25 10.3917 4.25 11.8H5.75C5.75 11.2201 6.2201 10.75 6.8 10.75V9.25Z" fill="#272727"/>
</svg>
