<svg width="24" height="24" viewBox="0 0 24 24" fill="none" xmlns="http://www.w3.org/2000/svg">
<path d="M12 9.04888L12.074 9.79521L12.75 9.72812V9.04888H12ZM12 15.0001H12.75V14.3198L12.073 14.2536L12 15.0001ZM12.8123 19.3502L12.3438 18.7645L12.8123 19.3502ZM3.00444 18.6976L3.75411 18.7199L3.00444 18.6976ZM3.18384 18.7607L2.59604 18.2948H2.59604L3.18384 18.7607ZM21.5119 12.3905L21.9804 12.9761L21.5119 12.3905ZM21.5119 11.6096L21.9804 11.024L21.5119 11.6096ZM12.8123 4.64993L12.3438 5.23558L12.8123 4.64993ZM11.25 5.04037V9.04888H12.75V5.04037H11.25ZM11.9259 8.30255C6.59841 8.83136 2.41598 13.248 2.25477 18.6754L3.75411 18.7199C3.89278 14.0513 7.49182 10.2501 12.074 9.79521L11.9259 8.30255ZM3.77164 19.2265C5.67946 16.8191 8.7347 15.4343 11.927 15.7465L12.073 14.2536C8.35565 13.8901 4.80917 15.5022 2.59604 18.2948L3.77164 19.2265ZM11.25 15.0001V18.9597H12.75V15.0001H11.25ZM13.2808 19.9358L21.9804 12.9761L21.0434 11.8048L12.3438 18.7645L13.2808 19.9358ZM21.9804 11.024L13.2808 4.06428L12.3438 5.23558L21.0434 12.1953L21.9804 11.024ZM11.25 18.9597C11.25 20.0079 12.4624 20.5906 13.2808 19.9358L12.3438 18.7645C12.5075 18.6336 12.75 18.7501 12.75 18.9597H11.25ZM2.25477 18.6754C2.22914 19.5385 3.29177 19.832 3.77164 19.2265L2.59604 18.2948C2.9563 17.8402 3.77403 18.0492 3.75411 18.7199L2.25477 18.6754ZM21.9804 12.9761C22.6059 12.4757 22.6059 11.5244 21.9804 11.024L21.0434 12.1953C20.9183 12.0952 20.9183 11.9049 21.0434 11.8048L21.9804 12.9761ZM12.75 5.04037C12.75 5.25 12.5075 5.36654 12.3438 5.23558L13.2808 4.06428C12.4624 3.40952 11.25 3.99223 11.25 5.04037H12.75Z" fill="#272727"/>
</svg>
