<svg width="24" height="24" viewBox="0 0 24 24" fill="none" xmlns="http://www.w3.org/2000/svg">
<path d="M1 9H23M3.7 21H20.3C21.7912 21 23 19.7912 23 18.3V5.7C23 4.20883 21.7912 3 20.3 3H3.7C2.20883 3 1 4.20883 1 5.7V18.3C1 19.7912 2.20883 21 3.7 21Z" stroke="#272727" stroke-width="1.5"/>
<path d="M4.25 6C4.25 6.13807 4.13807 6.25 4 6.25C3.86193 6.25 3.75 6.13807 3.75 6C3.75 5.86193 3.86193 5.75 4 5.75C4.13807 5.75 4.25 5.86193 4.25 6ZM7.25 6C7.25 6.13807 7.13807 6.25 7 6.25C6.86193 6.25 6.75 6.13807 6.75 6C6.75 5.86193 6.86193 5.75 7 5.75C7.13807 5.75 7.25 5.86193 7.25 6ZM10.25 6C10.25 6.13807 10.1381 6.25 10 6.25C9.86193 6.25 9.75 6.13807 9.75 6C9.75 5.86193 9.86193 5.75 10 5.75C10.1381 5.75 10.25 5.86193 10.25 6Z" fill="#272727" stroke="#272727" stroke-width="1.5"/>
</svg>
