<svg width="24" height="24" viewBox="0 0 24 24" fill="none" xmlns="http://www.w3.org/2000/svg">
<path d="M4.84717 18.1661L4.3489 18.2076L4.84717 18.1661ZM19.1528 18.1661L18.6546 18.1246L19.1528 18.1661ZM14.3536 12.3536C14.5488 12.1583 14.5488 11.8417 14.3536 11.6464C14.1583 11.4512 13.8417 11.4512 13.6464 11.6464L14.3536 12.3536ZM9.64645 15.6464C9.45118 15.8417 9.45118 16.1583 9.64645 16.3536C9.84171 16.5488 10.1583 16.5488 10.3536 16.3536L9.64645 15.6464ZM10.3536 11.6464C10.1583 11.4512 9.84171 11.4512 9.64645 11.6464C9.45118 11.8417 9.45118 12.1583 9.64645 12.3536L10.3536 11.6464ZM13.6464 16.3536C13.8417 16.5488 14.1583 16.5488 14.3536 16.3536C14.5488 16.1583 14.5488 15.8417 14.3536 15.6464L13.6464 16.3536ZM3.50173 8.04152L4.3489 18.2076L5.34545 18.1246L4.49827 7.95848L3.50173 8.04152ZM6.84027 20.5H17.1597V19.5H6.84027V20.5ZM19.6511 18.2076L20.4983 8.04152L19.5017 7.95848L18.6546 18.1246L19.6511 18.2076ZM2.5 7V5H1.5V7H2.5ZM3 4.5H21V3.5H3V4.5ZM21.5 5V7H22.5V5H21.5ZM21 7.5H20V8.5H21V7.5ZM20 7.5H4V8.5H20V7.5ZM4 7.5H3V8.5H4V7.5ZM21.5 7C21.5 7.27614 21.2761 7.5 21 7.5V8.5C21.8284 8.5 22.5 7.82843 22.5 7H21.5ZM2.5 5C2.5 4.72386 2.72386 4.5 3 4.5V3.5C2.17157 3.5 1.5 4.17157 1.5 5H2.5ZM1.5 7C1.5 7.82843 2.17157 8.5 3 8.5V7.5C2.72386 7.5 2.5 7.27614 2.5 7H1.5ZM17.1597 20.5C18.46 20.5 19.5431 19.5033 19.6511 18.2076L18.6546 18.1246C18.5898 18.902 17.9399 19.5 17.1597 19.5V20.5ZM21 4.5C21.2761 4.5 21.5 4.72386 21.5 5H22.5C22.5 4.17157 21.8284 3.5 21 3.5V4.5ZM4.3489 18.2076C4.45688 19.5033 5.54004 20.5 6.84027 20.5V19.5C6.06013 19.5 5.41023 18.902 5.34545 18.1246L4.3489 18.2076ZM13.6464 11.6464L11.6464 13.6464L12.3536 14.3536L14.3536 12.3536L13.6464 11.6464ZM11.6464 13.6464L9.64645 15.6464L10.3536 16.3536L12.3536 14.3536L11.6464 13.6464ZM12.3536 13.6464L10.3536 11.6464L9.64645 12.3536L11.6464 14.3536L12.3536 13.6464ZM11.6464 14.3536L13.6464 16.3536L14.3536 15.6464L12.3536 13.6464L11.6464 14.3536Z" fill="#272727"/>
</svg>
