<svg width="24" height="24" viewBox="0 0 24 24" fill="none" xmlns="http://www.w3.org/2000/svg">
<path d="M4.84717 18.1661L4.3489 18.2076L4.84717 18.1661ZM19.1528 18.1661L18.6546 18.1246L19.1528 18.1661ZM14 12.5C14.2761 12.5 14.5 12.2761 14.5 12C14.5 11.7239 14.2761 11.5 14 11.5V12.5ZM10 11.5C9.72386 11.5 9.5 11.7239 9.5 12C9.5 12.2761 9.72386 12.5 10 12.5V11.5ZM3.50173 8.04152L4.3489 18.2076L5.34545 18.1246L4.49827 7.95848L3.50173 8.04152ZM6.84027 20.5H17.1597V19.5H6.84027V20.5ZM19.6511 18.2076L20.4983 8.04152L19.5017 7.95848L18.6546 18.1246L19.6511 18.2076ZM2.5 7V5H1.5V7H2.5ZM3 4.5H21V3.5H3V4.5ZM21.5 5V7H22.5V5H21.5ZM21 7.5H20V8.5H21V7.5ZM20 7.5H4V8.5H20V7.5ZM4 7.5H3V8.5H4V7.5ZM21.5 7C21.5 7.27614 21.2761 7.5 21 7.5V8.5C21.8284 8.5 22.5 7.82843 22.5 7H21.5ZM2.5 5C2.5 4.72386 2.72386 4.5 3 4.5V3.5C2.17157 3.5 1.5 4.17157 1.5 5H2.5ZM1.5 7C1.5 7.82843 2.17157 8.5 3 8.5V7.5C2.72386 7.5 2.5 7.27614 2.5 7H1.5ZM17.1597 20.5C18.46 20.5 19.5431 19.5033 19.6511 18.2076L18.6546 18.1246C18.5898 18.902 17.9399 19.5 17.1597 19.5V20.5ZM21 4.5C21.2761 4.5 21.5 4.72386 21.5 5H22.5C22.5 4.17157 21.8284 3.5 21 3.5V4.5ZM4.3489 18.2076C4.45688 19.5033 5.54004 20.5 6.84027 20.5V19.5C6.06013 19.5 5.41023 18.902 5.34545 18.1246L4.3489 18.2076ZM14 11.5H10V12.5H14V11.5Z" fill="#272727"/>
</svg>
