<svg width="24" height="24" viewBox="0 0 24 24" fill="none" xmlns="http://www.w3.org/2000/svg">
<path d="M6.5 10C6.5 9.72386 6.27614 9.5 6 9.5C5.72386 9.5 5.5 9.72386 5.5 10H6.5ZM5.5 14C5.5 14.2761 5.72386 14.5 6 14.5C6.27614 14.5 6.5 14.2761 6.5 14H5.5ZM10.5 10C10.5 9.72386 10.2761 9.5 10 9.5C9.72386 9.5 9.5 9.72386 9.5 10H10.5ZM9.5 14C9.5 14.2761 9.72386 14.5 10 14.5C10.2761 14.5 10.5 14.2761 10.5 14H9.5ZM14.5 10C14.5 9.72386 14.2761 9.5 14 9.5C13.7239 9.5 13.5 9.72386 13.5 10H14.5ZM13.5 14C13.5 14.2761 13.7239 14.5 14 14.5C14.2761 14.5 14.5 14.2761 14.5 14H13.5ZM3.5 5.5H17.5V4.5H3.5V5.5ZM17.5 18.5H3.5V19.5H17.5V18.5ZM1.5 16.5V7.5H0.5V16.5H1.5ZM19.5 7.5V9H20.5V7.5H19.5ZM20 9.5H21V8.5H20V9.5ZM22.5 11V13H23.5V11H22.5ZM19.5 9V15H20.5V9H19.5ZM19.5 15V16.5H20.5V15H19.5ZM21 14.5H20V15.5H21V14.5ZM22.5 13C22.5 13.8284 21.8284 14.5 21 14.5V15.5C22.3807 15.5 23.5 14.3807 23.5 13H22.5ZM3.5 18.5C2.39543 18.5 1.5 17.6046 1.5 16.5H0.5C0.5 18.1569 1.84315 19.5 3.5 19.5V18.5ZM17.5 19.5C19.1569 19.5 20.5 18.1569 20.5 16.5H19.5C19.5 17.6046 18.6046 18.5 17.5 18.5V19.5ZM17.5 5.5C18.6046 5.5 19.5 6.39543 19.5 7.5H20.5C20.5 5.84315 19.1569 4.5 17.5 4.5V5.5ZM21 9.5C21.8284 9.5 22.5 10.1716 22.5 11H23.5C23.5 9.61929 22.3807 8.5 21 8.5V9.5ZM3.5 4.5C1.84315 4.5 0.5 5.84315 0.5 7.5H1.5C1.5 6.39543 2.39543 5.5 3.5 5.5V4.5ZM5.5 10V14H6.5V10H5.5ZM9.5 10V14H10.5V10H9.5ZM13.5 10V14H14.5V10H13.5Z" fill="#272727"/>
</svg>
