<svg width="24" height="24" viewBox="0 0 24 24" fill="none" xmlns="http://www.w3.org/2000/svg">
<path d="M22.1419 12.4476C22.1222 12.946 21.9482 13.219 21.7007 13.6521L19.2108 18.0093C18.4565 19.3294 17.5937 21 16.0733 21H8.0733C6.56955 21 5.6904 19.3299 4.94433 18.0243L2.44593 13.6521C2.19845 13.219 2.02443 12.946 2.00465 12.4476C1.97178 11.619 2.28558 10.6285 2.69704 9.90845L4.94433 5.97569C5.6904 4.67008 6.56956 3 8.0733 3H16.0733C17.5937 3 18.4565 4.6706 19.2108 5.99068L21.4496 9.90845C21.861 10.6285 22.1748 11.619 22.1419 12.4476Z" stroke="#272727" stroke-linecap="round" stroke-linejoin="round"/>
<path d="M16.0733 12C16.0733 14.2091 14.2824 16 12.0733 16C9.86416 16 8.0733 14.2091 8.0733 12C8.0733 9.79086 9.86416 8 12.0733 8C14.2824 8 16.0733 9.79086 16.0733 12Z" stroke="#272727" stroke-linecap="round" stroke-linejoin="round"/>
</svg>
