<svg width="24" height="24" viewBox="0 0 24 24" fill="none" xmlns="http://www.w3.org/2000/svg">
<path d="M16 13H16.5C16.5 12.8674 16.4473 12.7402 16.3536 12.6464L16 13ZM9 6L9.35355 5.64645C9.25979 5.55268 9.13261 5.5 9 5.5V6ZM21 8H21.5C21.5 7.86739 21.4473 7.74021 21.3536 7.64645L21 8ZM14 1L14.3536 0.646447C14.2598 0.552678 14.1326 0.5 14 0.5V1ZM16 16.5C15.7239 16.5 15.5 16.7239 15.5 17C15.5 17.2761 15.7239 17.5 16 17.5V16.5ZM7.5 6C7.5 6.27614 7.72386 6.5 8 6.5C8.27614 6.5 8.5 6.27614 8.5 6H7.5ZM14 21.5H5V22.5H14V21.5ZM3.5 20V8H2.5V20H3.5ZM15.5 13V20H16.5V13H15.5ZM5 6.5H9V5.5H5V6.5ZM16.3536 12.6464L9.35355 5.64645L8.64645 6.35355L15.6464 13.3536L16.3536 12.6464ZM8.5 6V12.5H9.5V6H8.5ZM9.5 13.5H16V12.5H9.5V13.5ZM5 21.5C4.17157 21.5 3.5 20.8284 3.5 20H2.5C2.5 21.3807 3.61929 22.5 5 22.5V21.5ZM14 22.5C15.3807 22.5 16.5 21.3807 16.5 20H15.5C15.5 20.8284 14.8284 21.5 14 21.5V22.5ZM8.5 12.5C8.5 13.0523 8.94772 13.5 9.5 13.5V12.5H8.5ZM3.5 8C3.5 7.17157 4.17157 6.5 5 6.5V5.5C3.61929 5.5 2.5 6.61929 2.5 8H3.5ZM20.5 8V15H21.5V8H20.5ZM10 1.5H14V0.5H10V1.5ZM21.3536 7.64645L14.3536 0.646447L13.6464 1.35355L20.6464 8.35355L21.3536 7.64645ZM13.5 1V7.5H14.5V1H13.5ZM14.5 8.5H21V7.5H14.5V8.5ZM19 16.5H16V17.5H19V16.5ZM8.5 6V2.9995H7.5V6H8.5ZM13.5 7.5C13.5 8.05228 13.9477 8.5 14.5 8.5V7.5H13.5ZM20.5 15C20.5 15.8284 19.8284 16.5 19 16.5V17.5C20.3807 17.5 21.5 16.3807 21.5 15H20.5ZM10 0.5C8.61945 0.5 7.5 1.61862 7.5 2.9995H8.5C8.5 2.17123 9.17141 1.5 10 1.5V0.5Z" fill="#272727"/>
</svg>
