<svg width="24" height="24" viewBox="0 0 24 24" fill="none" xmlns="http://www.w3.org/2000/svg">
<path d="M8 6.5C7.72386 6.5 7.5 6.72386 7.5 7C7.5 7.27614 7.72386 7.5 8 7.5V6.5ZM15 7.5C15.2761 7.5 15.5 7.27614 15.5 7C15.5 6.72386 15.2761 6.5 15 6.5V7.5ZM8 9.5C7.72386 9.5 7.5 9.72386 7.5 10C7.5 10.2761 7.72386 10.5 8 10.5V9.5ZM15 10.5C15.2761 10.5 15.5 10.2761 15.5 10C15.5 9.72386 15.2761 9.5 15 9.5V10.5ZM8 12.5C7.72386 12.5 7.5 12.7239 7.5 13C7.5 13.2761 7.72386 13.5 8 13.5V12.5ZM15 13.5C15.2761 13.5 15.5 13.2761 15.5 13C15.5 12.7239 15.2761 12.5 15 12.5V13.5ZM8 15.5C7.72386 15.5 7.5 15.7239 7.5 16C7.5 16.2761 7.72386 16.5 8 16.5V15.5ZM12 16.5C12.2761 16.5 12.5 16.2761 12.5 16C12.5 15.7239 12.2761 15.5 12 15.5V16.5ZM17 20.5H7V21.5H17V20.5ZM5.5 19V5H4.5V19H5.5ZM7 3.5H17V2.5H7V3.5ZM18.5 5V19H19.5V5H18.5ZM17 3.5C17.8284 3.5 18.5 4.17157 18.5 5H19.5C19.5 3.61929 18.3807 2.5 17 2.5V3.5ZM7 20.5C6.17157 20.5 5.5 19.8284 5.5 19H4.5C4.5 20.3807 5.61929 21.5 7 21.5V20.5ZM17 21.5C18.3807 21.5 19.5 20.3807 19.5 19H18.5C18.5 19.8284 17.8284 20.5 17 20.5V21.5ZM5.5 5C5.5 4.17157 6.17157 3.5 7 3.5V2.5C5.61929 2.5 4.5 3.61929 4.5 5H5.5ZM8 7.5H15V6.5H8V7.5ZM8 10.5H15V9.5H8V10.5ZM8 13.5H15V12.5H8V13.5ZM8 16.5H12V15.5H8V16.5Z" fill="#272727"/>
</svg>
