<svg width="24" height="24" viewBox="0 0 24 24" fill="none" xmlns="http://www.w3.org/2000/svg">
<path d="M14.5 11C14.5 10.7239 14.2761 10.5 14 10.5C13.7239 10.5 13.5 10.7239 13.5 11H14.5ZM13.5 17C13.5 17.2761 13.7239 17.5 14 17.5C14.2761 17.5 14.5 17.2761 14.5 17H13.5ZM17 14.5C17.2761 14.5 17.5 14.2761 17.5 14C17.5 13.7239 17.2761 13.5 17 13.5V14.5ZM11 13.5C10.7239 13.5 10.5 13.7239 10.5 14C10.5 14.2761 10.7239 14.5 11 14.5V13.5ZM9 7.5H19V6.5H9V7.5ZM20.5 9V19H21.5V9H20.5ZM19 20.5H9V21.5H19V20.5ZM7.5 19V9H6.5V19H7.5ZM9 20.5C8.17157 20.5 7.5 19.8284 7.5 19H6.5C6.5 20.3807 7.61929 21.5 9 21.5V20.5ZM20.5 19C20.5 19.8284 19.8284 20.5 19 20.5V21.5C20.3807 21.5 21.5 20.3807 21.5 19H20.5ZM19 7.5C19.8284 7.5 20.5 8.17157 20.5 9H21.5C21.5 7.61929 20.3807 6.5 19 6.5V7.5ZM9 6.5C7.61929 6.5 6.5 7.61929 6.5 9H7.5C7.5 8.17157 8.17157 7.5 9 7.5V6.5ZM5 3.5H15V2.5H5V3.5ZM3.5 15V5H2.5V15H3.5ZM7 16.5H5V17.5H7V16.5ZM16.5 5V7H17.5V5H16.5ZM2.5 15C2.5 16.3807 3.61929 17.5 5 17.5V16.5C4.17157 16.5 3.5 15.8284 3.5 15H2.5ZM15 3.5C15.8284 3.5 16.5 4.17157 16.5 5H17.5C17.5 3.61929 16.3807 2.5 15 2.5V3.5ZM5 2.5C3.61929 2.5 2.5 3.61929 2.5 5H3.5C3.5 4.17157 4.17157 3.5 5 3.5V2.5ZM14.5 14V11H13.5V14H14.5ZM13.5 14V17H14.5V14H13.5ZM14 14.5H17V13.5H14V14.5ZM14 13.5H11V14.5H14V13.5Z" fill="#272727"/>
</svg>
