<svg width="24" height="24" viewBox="0 0 24 24" fill="none" xmlns="http://www.w3.org/2000/svg">
<path d="M10.4189 20.2779C10.4189 20.554 10.6428 20.7779 10.9189 20.7779C11.1951 20.7779 11.4189 20.554 11.4189 20.2779H10.4189ZM17.5807 20.2779C17.5807 20.554 17.8046 20.7779 18.0807 20.7779C18.3569 20.7779 18.5807 20.554 18.5807 20.2779H17.5807ZM10 3.5C9.72386 3.5 9.5 3.72386 9.5 4C9.5 4.27614 9.72386 4.5 10 4.5V3.5ZM14 4.5C14.2761 4.5 14.5 4.27614 14.5 4C14.5 3.72386 14.2761 3.5 14 3.5V4.5ZM11.4189 20.2779C11.4189 19.9129 11.5014 19.7132 11.5943 19.5943C11.6881 19.4742 11.8408 19.3747 12.1004 19.3032C12.3652 19.2304 12.7026 19.1973 13.1198 19.1857C13.5396 19.1741 13.9892 19.1845 14.4998 19.1845V18.1845C14.0216 18.1845 13.5292 18.174 13.0921 18.1861C12.6526 18.1983 12.2183 18.2336 11.8351 18.3391C11.4467 18.446 11.075 18.6348 10.8064 18.9785C10.5369 19.3233 10.4189 19.7628 10.4189 20.2779H11.4189ZM14.4998 19.1845C15.0104 19.1845 15.4601 19.1741 15.8798 19.1857C16.2971 19.1973 16.6344 19.2304 16.8992 19.3032C17.1589 19.3747 17.3115 19.4742 17.4053 19.5943C17.4983 19.7132 17.5807 19.9129 17.5807 20.2779H18.5807C18.5807 19.7628 18.4627 19.3233 18.1933 18.9785C17.9247 18.6348 17.5529 18.446 17.1646 18.3391C16.7813 18.2336 16.3471 18.1983 15.9075 18.1861C15.4704 18.174 14.9781 18.1845 14.4998 18.1845V19.1845ZM16.5 13.5C16.5 14.6046 15.6046 15.5 14.5 15.5V16.5C16.1569 16.5 17.5 15.1569 17.5 13.5H16.5ZM14.5 15.5C13.3954 15.5 12.5 14.6046 12.5 13.5H11.5C11.5 15.1569 12.8431 16.5 14.5 16.5V15.5ZM12.5 13.5C12.5 12.3954 13.3954 11.5 14.5 11.5V10.5C12.8431 10.5 11.5 11.8431 11.5 13.5H12.5ZM14.5 11.5C15.6046 11.5 16.5 12.3954 16.5 13.5H17.5C17.5 11.8431 16.1569 10.5 14.5 10.5V11.5ZM10 4.5H14V3.5H10V4.5ZM6 1.5H18V0.5H6V1.5ZM20.5 4V20H21.5V4H20.5ZM18 22.5H6V23.5H18V22.5ZM3.5 20V4H2.5V20H3.5ZM6 22.5C4.61929 22.5 3.5 21.3807 3.5 20H2.5C2.5 21.933 4.067 23.5 6 23.5V22.5ZM20.5 20C20.5 21.3807 19.3807 22.5 18 22.5V23.5C19.933 23.5 21.5 21.933 21.5 20H20.5ZM18 1.5C19.3807 1.5 20.5 2.61929 20.5 4H21.5C21.5 2.067 19.933 0.5 18 0.5V1.5ZM6 0.5C4.067 0.5 2.5 2.067 2.5 4H3.5C3.5 2.61929 4.61929 1.5 6 1.5V0.5Z" fill="#272727"/>
</svg>
