<svg width="24" height="24" viewBox="0 0 24 24" fill="none" xmlns="http://www.w3.org/2000/svg">
<path d="M10.0172 15.6725L6.16939 16.3507C4.007 16.77 3 17.818 3 19.3451C3 20.9022 4.2826 22.0001 6.06339 22.0001C7.64279 22.0001 10.0172 20.8922 10.0172 17.9577C10.0172 14.4595 10.0172 13.4983 10.0172 10.0001M20.9719 6.00008L10.0172 10.0001M20.9719 6.00008L21 13.6725M20.9719 6.00008V2.1894C20.9719 2.09744 20.8804 2.03349 20.7941 2.06504L10.6741 5.76141C10.2796 5.9055 10.0172 6.28074 10.0172 6.70072V10.0001M21 13.6725L17.1522 14.3508C14.9898 14.77 13.9828 15.818 13.9828 17.3451C13.9828 18.9022 15.2654 20.0001 17.0462 20.0001C18.6256 20.0001 21 18.8922 21 15.9577V13.6725Z" stroke="#272727" stroke-linecap="round"/>
</svg>
