<svg width="24" height="24" viewBox="0 0 24 24" fill="none" xmlns="http://www.w3.org/2000/svg">
<path d="M5.5 14C5.5 13.7239 5.27614 13.5 5 13.5C4.72386 13.5 4.5 13.7239 4.5 14H5.5ZM19.5 14C19.5 13.7239 19.2761 13.5 19 13.5C18.7239 13.5 18.5 13.7239 18.5 14H19.5ZM11.5 15C11.5 15.2761 11.7239 15.5 12 15.5C12.2761 15.5 12.5 15.2761 12.5 15H11.5ZM12 4L12.3536 3.64645C12.1583 3.45118 11.8417 3.45118 11.6464 3.64645L12 4ZM6.64645 8.64645C6.45118 8.84171 6.45118 9.15829 6.64645 9.35355C6.84171 9.54882 7.15829 9.54882 7.35355 9.35355L6.64645 8.64645ZM16.6464 9.35355C16.8417 9.54882 17.1583 9.54882 17.3536 9.35355C17.5488 9.15829 17.5488 8.84171 17.3536 8.64645L16.6464 9.35355ZM4.5 14V17H5.5V14H4.5ZM8 20.5H16V19.5H8V20.5ZM19.5 17V14H18.5V17H19.5ZM12.5 15V4H11.5V15H12.5ZM11.6464 3.64645L6.64645 8.64645L7.35355 9.35355L12.3536 4.35355L11.6464 3.64645ZM11.6464 4.35355L16.6464 9.35355L17.3536 8.64645L12.3536 3.64645L11.6464 4.35355ZM16 20.5C17.933 20.5 19.5 18.933 19.5 17H18.5C18.5 18.3807 17.3807 19.5 16 19.5V20.5ZM4.5 17C4.5 18.933 6.067 20.5 8 20.5V19.5C6.61929 19.5 5.5 18.3807 5.5 17H4.5Z" fill="#272727"/>
</svg>
