<svg width="24" height="24" viewBox="0 0 24 24" fill="none" xmlns="http://www.w3.org/2000/svg">
<path d="M12 9.04876L12.0494 9.54631L12.5 9.50159V9.04876H12ZM12 14.9999H12.5V14.5464L12.0487 14.5023L12 14.9999ZM12.8124 19.3501L12.5 18.9596L12.8124 19.3501ZM3.00449 18.6975L3.50427 18.7123L3.00449 18.6975ZM3.18389 18.7605L2.79202 18.45H2.79202L3.18389 18.7605ZM21.512 12.3904L21.8243 12.7808L21.512 12.3904ZM21.512 11.6095L21.8243 11.2191L21.512 11.6095ZM12.8124 4.64981L12.5 5.04025L12.8124 4.64981ZM11.5 5.04024V9.04876H12.5V5.04024H11.5ZM11.9506 8.55121C6.74735 9.06769 2.66216 13.3818 2.50471 18.6827L3.50427 18.7123C3.64669 13.9173 7.34296 10.0135 12.0494 9.54631L11.9506 8.55121ZM3.57576 19.0711C5.53445 16.5995 8.67157 15.1768 11.9513 15.4976L12.0487 14.5023C8.41887 14.1473 4.95426 15.7215 2.79202 18.45L3.57576 19.0711ZM11.5 14.9999V18.9596H12.5V14.9999H11.5ZM13.1247 19.7405L21.8243 12.7808L21.1996 11.9999L12.5 18.9596L13.1247 19.7405ZM21.8243 11.2191L13.1247 4.25938L12.5 5.04025L21.1996 11.9999L21.8243 11.2191ZM11.5 18.9596C11.5 19.7981 12.4699 20.2643 13.1247 19.7405L12.5 18.9596H11.5ZM2.50471 18.6827C2.48666 19.2902 3.23591 19.4999 3.57576 19.0711L2.79202 18.45C3.01226 18.1721 3.5166 18.2973 3.50427 18.7123L2.50471 18.6827ZM21.8243 12.7808C22.3247 12.3805 22.3247 11.6194 21.8243 11.2191L21.1996 11.9999V11.9999L21.8243 12.7808ZM12.5 5.04024L12.5 5.04025L13.1247 4.25938C12.4699 3.73557 11.5 4.20174 11.5 5.04024H12.5Z" fill="#272727"/>
</svg>
