<svg width="15" height="16" viewBox="0 0 15 16" fill="none" xmlns="http://www.w3.org/2000/svg">
<path fill-rule="evenodd" clip-rule="evenodd" d="M10.6138 0.891554C10.4966 0.774344 10.3376 0.708496 10.1718 0.708496C10.0061 0.708496 9.84711 0.774344 9.7299 0.891554L2.06957 8.55188C1.99105 8.6304 1.93487 8.72842 1.9068 8.83587L1.07347 12.0262C1.0174 12.2409 1.07935 12.4692 1.23624 12.6261C1.39314 12.783 1.62145 12.845 1.83614 12.7889L5.02649 11.9556C5.13393 11.9275 5.23196 11.8713 5.31048 11.7928L12.9708 4.13246C13.2149 3.88838 13.2149 3.49265 12.9708 3.24858L10.6138 0.891554ZM3.07337 9.31585L10.1718 2.21738L11.645 3.69052L4.54651 10.789L2.55254 11.3098L3.07337 9.31585Z" fill="black"/>
<path d="M1.33301 14.0418C0.98783 14.0418 0.708008 14.3217 0.708008 14.6668C0.708008 15.012 0.98783 15.2918 1.33301 15.2918H13.833C14.1782 15.2918 14.458 15.012 14.458 14.6668C14.458 14.3217 14.1782 14.0418 13.833 14.0418H1.33301Z" fill="black"/>
</svg>
