<svg width="24" height="24" viewBox="0 0 24 24" fill="none" xmlns="http://www.w3.org/2000/svg">
<path fill-rule="evenodd" clip-rule="evenodd" d="M12 0C5.37258 0 0 5.37258 0 12C0 18.6274 5.37258 24 12 24C18.6274 24 24 18.6274 24 12C24 5.37258 18.6274 0 12 0ZM11 7.5C10.7239 7.5 10.5 7.72386 10.5 8C10.5 8.27614 10.7239 8.5 11 8.5H14.7929L7.64645 15.6464C7.45118 15.8417 7.45118 16.1583 7.64645 16.3536C7.84171 16.5488 8.15829 16.5488 8.35355 16.3536L15.5 9.20711V13.0769C15.5 13.3531 15.7239 13.5769 16 13.5769C16.2761 13.5769 16.5 13.3531 16.5 13.0769V8C16.5 7.72386 16.2761 7.5 16 7.5H11Z" fill="#272727"/>
</svg>
