<svg width="24" height="24" viewBox="0 0 24 24" fill="none" xmlns="http://www.w3.org/2000/svg">
<path fill-rule="evenodd" clip-rule="evenodd" d="M12 0C5.37258 0 0 5.37258 0 12C0 18.6274 5.37258 24 12 24C18.6274 24 24 18.6274 24 12C24 5.37258 18.6274 0 12 0ZM12.5 7C12.5 6.72386 12.2761 6.5 12 6.5C11.7239 6.5 11.5 6.72386 11.5 7V15.7929L8.35355 12.6464C8.15829 12.4512 7.84171 12.4512 7.64645 12.6464C7.45118 12.8417 7.45118 13.1583 7.64645 13.3536L11.6464 17.3536C11.8417 17.5488 12.1583 17.5488 12.3536 17.3536L16.3536 13.3536C16.5488 13.1583 16.5488 12.8417 16.3536 12.6464C16.1583 12.4512 15.8417 12.4512 15.6464 12.6464L12.5 15.7929V7Z" fill="#272727"/>
</svg>
