<svg width="24" height="24" viewBox="0 0 24 24" fill="none" xmlns="http://www.w3.org/2000/svg">
<path fill-rule="evenodd" clip-rule="evenodd" d="M7 2C7.55228 2 8 2.44772 8 3V6C8 6.55228 7.55228 7 7 7C6.44772 7 6 6.55228 6 6V3C6 2.44772 6.44772 2 7 2ZM17 2C17.5523 2 18 2.44772 18 3V6C18 6.55228 17.5523 7 17 7C16.4477 7 16 6.55228 16 6V3C16 2.44772 16.4477 2 17 2ZM5 4V6C5 7.10457 5.89543 8 7 8C8.10457 8 9 7.10457 9 6V4H15V6C15 7.10457 15.8954 8 17 8C18.1046 8 19 7.10457 19 6V4H20C21.1046 4 22 4.89543 22 6V9.5H2V6C2 4.89543 2.89543 4 4 4H5ZM2 10.5V20C2 21.1046 2.89543 22 4 22H20C21.1046 22 22 21.1046 22 20V10.5H2Z" fill="#272727"/>
</svg>
