<svg width="25" height="24" viewBox="0 0 25 24" fill="none" xmlns="http://www.w3.org/2000/svg">
<path fill-rule="evenodd" clip-rule="evenodd" d="M12 0.25C10.5676 0.25 9.36201 0.730289 8.51541 1.60698C7.67284 2.47951 7.25 3.67804 7.25 5V8H5.77589C4.7066 8 3.82044 8.76194 3.74932 9.7425L3.00459 20.0092C2.92644 21.0866 3.85626 22 5.03116 22H13.2547C12.5532 20.9943 12.109 19.7957 12.0176 18.4997C12.0117 18.4999 12.0059 18.5 12 18.5H7C6.72386 18.5 6.5 18.2761 6.5 18C6.5 17.7239 6.72386 17.5 7 17.5H12C12.0059 17.5 12.0117 17.5001 12.0176 17.5003C12.2738 13.8675 15.302 11 19 11C19.4623 11 19.9141 11.0448 20.3514 11.1303L20.2507 9.7425C20.1796 8.76194 19.2934 8 18.2241 8H16.75V5C16.75 3.67804 16.3272 2.47951 15.4846 1.60698C14.638 0.730289 13.4324 0.25 12 0.25ZM15.25 8H16.75V10C16.75 10.4142 16.4142 10.75 16 10.75C15.5858 10.75 15.25 10.4142 15.25 10V8ZM8.75 8V5C8.75 3.99655 9.06706 3.19508 9.59443 2.64896C10.1178 2.10701 10.9122 1.75 12 1.75C13.0879 1.75 13.8822 2.10701 14.4056 2.64896C14.9329 3.19508 15.25 3.99655 15.25 5V8H8.75ZM8.75 8H7.25V10C7.25 10.4142 7.58579 10.75 8 10.75C8.41421 10.75 8.75 10.4142 8.75 10V8ZM19 12C15.6863 12 13 14.6863 13 18C13 21.3137 15.6863 24 19 24C22.3137 24 25 21.3137 25 18C25 14.6863 22.3137 12 19 12ZM19.5 16C19.5 15.7239 19.2761 15.5 19 15.5C18.7239 15.5 18.5 15.7239 18.5 16V17.5H17C16.7239 17.5 16.5 17.7239 16.5 18C16.5 18.2761 16.7239 18.5 17 18.5H18.5V20C18.5 20.2761 18.7239 20.5 19 20.5C19.2761 20.5 19.5 20.2761 19.5 20V18.5H21C21.2761 18.5 21.5 18.2761 21.5 18C21.5 17.7239 21.2761 17.5 21 17.5H19.5V16Z" fill="#272727"/>
</svg>
