<svg width="24" height="24" viewBox="0 0 24 24" fill="none" xmlns="http://www.w3.org/2000/svg">
<path fill-rule="evenodd" clip-rule="evenodd" d="M24 15.9375C24 18.7334 21.8021 21 19.0909 21H4.90909C2.19787 21 0 18.7334 0 15.9375C0 13.1416 2.19788 10.875 4.90909 10.875H5.45455V9.75C5.45455 6.02208 8.38505 3 12 3C15.615 3 18.5455 6.02208 18.5455 9.75V10.875H19.0909C21.8021 10.875 24 13.1416 24 15.9375ZM15.3536 12.3536C15.5488 12.1583 15.5488 11.8417 15.3536 11.6464C15.1583 11.4512 14.8417 11.4512 14.6464 11.6464L11.0067 15.2862L9.36016 13.5763C9.16862 13.3773 8.85209 13.3714 8.65318 13.5629C8.45427 13.7545 8.4483 14.071 8.63984 14.2699L10.6398 16.3468C10.733 16.4435 10.861 16.4987 10.9953 16.5C11.1295 16.5012 11.2586 16.4485 11.3536 16.3536L15.3536 12.3536Z" fill="#272727"/>
</svg>
