<svg width="24" height="24" viewBox="0 0 24 24" fill="none" xmlns="http://www.w3.org/2000/svg">
<path fill-rule="evenodd" clip-rule="evenodd" d="M2.40142 9.93618C1.6367 11.2058 1.6367 12.7942 2.40142 14.0638L5.70456 19.5479C6.24733 20.449 7.22244 21 8.27441 21H15.7258C16.7777 21 17.7528 20.449 18.2956 19.5479L21.5987 14.0638C22.3635 12.7942 22.3635 11.2058 21.5987 9.93618L18.2956 4.45213C17.7528 3.551 16.7777 3 15.7258 3H8.27441C7.22244 3 6.24733 3.551 5.70456 4.45213L2.40142 9.93618ZM15.8344 12C15.8344 14.2091 14.0436 16 11.8344 16C9.62529 16 7.83443 14.2091 7.83443 12C7.83443 9.79086 9.62529 8 11.8344 8C14.0436 8 15.8344 9.79086 15.8344 12Z" fill="#272727"/>
</svg>
