<svg width="24" height="24" viewBox="0 0 24 24" fill="none" xmlns="http://www.w3.org/2000/svg">
<path fill-rule="evenodd" clip-rule="evenodd" d="M20 18C21.1046 18 22 17.1046 22 16V7H17C15.8954 7 15 6.10457 15 5V0H10C8.89543 0 8 0.89543 8 2V5H9.58579C9.851 5 10.1054 5.10536 10.2929 5.29289L16.7071 11.7071C16.8946 11.8946 17 12.149 17 12.4142V18H20ZM16 0.482843V4.5C16 5.32843 16.6716 6 17.5 6H21.5172C21.6953 6 21.7846 5.78457 21.6586 5.65858L16.3414 0.341421C16.2154 0.215428 16 0.304662 16 0.482843ZM16 22C16 23.1046 15.1046 24 14 24H4C2.89543 24 2 23.1046 2 22V8C2 6.89543 2.89543 6 4 6H9V11C9 12.1046 9.89543 13 11 13H16V22ZM10 10.5V6.48284C10 6.30466 10.2154 6.21543 10.3414 6.34142L15.6586 11.6586C15.7846 11.7846 15.6953 12 15.5172 12H11.5C10.6716 12 10 11.3284 10 10.5Z" fill="#272727"/>
</svg>
