<svg width="24" height="24" viewBox="0 0 24 24" fill="none" xmlns="http://www.w3.org/2000/svg">
<path fill-rule="evenodd" clip-rule="evenodd" d="M0 12C0 5.37258 5.37258 0 12 0C18.6274 0 24 5.37258 24 12C24 18.6274 18.6274 24 12 24C5.37258 24 0 18.6274 0 12ZM8.64645 7.64645C8.84171 7.45118 9.15829 7.45118 9.35355 7.64645L13.3536 11.6464C13.5488 11.8417 13.5488 12.1583 13.3536 12.3536L9.35355 16.3536C9.15829 16.5488 8.84171 16.5488 8.64645 16.3536C8.45118 16.1583 8.45118 15.8417 8.64645 15.6464L11.7929 12.5H4C3.72386 12.5 3.5 12.2761 3.5 12C3.5 11.7239 3.72386 11.5 4 11.5H11.7929L8.64645 8.35355C8.45118 8.15829 8.45118 7.84171 8.64645 7.64645ZM18 15C19.6569 15 21 13.6569 21 12C21 10.3431 19.6569 9 18 9C16.3431 9 15 10.3431 15 12C15 13.6569 16.3431 15 18 15Z" fill="#272727"/>
</svg>
