<svg width="24" height="24" viewBox="0 0 24 24" fill="none" xmlns="http://www.w3.org/2000/svg">
<path fill-rule="evenodd" clip-rule="evenodd" d="M12 0C5.37258 0 0 5.37258 0 12C0 18.6274 5.37258 24 12 24C18.6274 24 24 18.6274 24 12C24 5.37258 18.6274 0 12 0ZM14.3536 4.64645C14.1583 4.45118 13.8417 4.45118 13.6464 4.64645C13.4512 4.84171 13.4512 5.15829 13.6464 5.35355L16.7929 8.5H10C7.51472 8.5 5.5 10.5147 5.5 13C5.5 15.4853 7.51472 17.5 10 17.5H11C11.2761 17.5 11.5 17.2761 11.5 17C11.5 16.7239 11.2761 16.5 11 16.5H10C8.067 16.5 6.5 14.933 6.5 13C6.5 11.067 8.067 9.5 10 9.5H16.7929L13.6464 12.6464C13.4512 12.8417 13.4512 13.1583 13.6464 13.3536C13.8417 13.5488 14.1583 13.5488 14.3536 13.3536L18.3536 9.35355C18.5488 9.15829 18.5488 8.84171 18.3536 8.64645L14.3536 4.64645Z" fill="#272727"/>
</svg>
