<svg width="24" height="24" viewBox="0 0 24 24" fill="none" xmlns="http://www.w3.org/2000/svg">
<path fill-rule="evenodd" clip-rule="evenodd" d="M4.73223 2.73223C4 3.46447 4 4.64298 4 7V17C4 19.357 4 20.5355 4.73223 21.2678C5.46447 22 6.64298 22 9 22H15C17.357 22 18.5355 22 19.2678 21.2678C20 20.5355 20 19.357 20 17V7C20 4.64298 20 3.46447 19.2678 2.73223C18.5355 2 17.357 2 15 2H9C6.64298 2 5.46447 2 4.73223 2.73223ZM15 16C16.1046 16 17 15.1046 17 14C17 12.8954 16.1046 12 15 12C13.8954 12 13 12.8954 13 14C13 15.1046 13.8954 16 15 16ZM14.6033 17.0038H14.6033C13.3173 16.9838 12.2882 16.9678 12.0514 18.9999C11.9875 19.5484 12.4477 20 13 20H17C17.5523 20 18.0125 19.5484 17.9486 18.9999C17.7118 16.9678 16.6827 16.9838 15.3967 17.0038H15.3967C15.2669 17.0059 15.1345 17.0079 15 17.0079C14.8655 17.0079 14.7331 17.0059 14.6033 17.0038ZM10 3.5C9.72386 3.5 9.5 3.72386 9.5 4C9.5 4.27614 9.72386 4.5 10 4.5H14C14.2761 4.5 14.5 4.27614 14.5 4C14.5 3.72386 14.2761 3.5 14 3.5H10Z" fill="#272727"/>
</svg>
