<svg width="24" height="24" viewBox="0 0 24 24" fill="none" xmlns="http://www.w3.org/2000/svg">
<path fill-rule="evenodd" clip-rule="evenodd" d="M5 4.05C5 2.60266 5 1.879 5.29059 1.33018C5.52509 0.887281 5.88728 0.525086 6.33018 0.290586C6.879 0 7.60266 0 9.05 0H14.95C16.3973 0 17.121 0 17.6698 0.290586C18.1127 0.525086 18.4749 0.887281 18.7094 1.33018C19 1.879 19 2.60266 19 4.05V19.95C19 21.3973 19 22.121 18.7094 22.6698C18.4749 23.1127 18.1127 23.4749 17.6698 23.7094C17.121 24 16.3973 24 14.95 24H9.05C7.60266 24 6.879 24 6.33018 23.7094C5.88728 23.4749 5.52509 23.1127 5.29059 22.6698C5 22.121 5 21.3973 5 19.95V4.05ZM7.5 5C7.22386 5 7 5.22386 7 5.5V6.5C7 6.77614 7.22386 7 7.5 7H8.5C8.77614 7 9 6.77614 9 6.5V5.5C9 5.22386 8.77614 5 8.5 5H7.5ZM11.5 5C11.2239 5 11 5.22386 11 5.5V6.5C11 6.77614 11.2239 7 11.5 7H12.5C12.7761 7 13 6.77614 13 6.5V5.5C13 5.22386 12.7761 5 12.5 5H11.5ZM15.5 5C15.2239 5 15 5.22386 15 5.5V6.5C15 6.77614 15.2239 7 15.5 7H16.5C16.7761 7 17 6.77614 17 6.5V5.5C17 5.22386 16.7761 5 16.5 5H15.5ZM7.5 9C7.22386 9 7 9.22386 7 9.5V10.5C7 10.7761 7.22386 11 7.5 11H8.5C8.77614 11 9 10.7761 9 10.5V9.5C9 9.22386 8.77614 9 8.5 9H7.5ZM11.5 9C11.2239 9 11 9.22386 11 9.5V10.5C11 10.7761 11.2239 11 11.5 11H12.5C12.7761 11 13 10.7761 13 10.5V9.5C13 9.22386 12.7761 9 12.5 9H11.5ZM15.5 9C15.2239 9 15 9.22386 15 9.5V10.5C15 10.7761 15.2239 11 15.5 11H16.5C16.7761 11 17 10.7761 17 10.5V9.5C17 9.22386 16.7761 9 16.5 9H15.5ZM7.5 13C7.22386 13 7 13.2239 7 13.5V14.5C7 14.7761 7.22386 15 7.5 15H8.5C8.77614 15 9 14.7761 9 14.5V13.5C9 13.2239 8.77614 13 8.5 13H7.5ZM11.5 13C11.2239 13 11 13.2239 11 13.5V14.5C11 14.7761 11.2239 15 11.5 15H12.5C12.7761 15 13 14.7761 13 14.5V13.5C13 13.2239 12.7761 13 12.5 13H11.5ZM7.5 20C7.22386 20 7 20.2239 7 20.5V21.5C7 21.7761 7.22386 22 7.5 22H8.5C8.77614 22 9 21.7761 9 21.5V20.5C9 20.2239 8.77614 20 8.5 20H7.5ZM11.5 20C11.2239 20 11 20.2239 11 20.5V21.5C11 21.7761 11.2239 22 11.5 22H12.5C12.7761 22 13 21.7761 13 21.5V20.5C13 20.2239 12.7761 20 12.5 20H11.5ZM15.5 20C15.2239 20 15 20.2239 15 20.5V21.5C15 21.7761 15.2239 22 15.5 22H16.5C16.7761 22 17 21.7761 17 21.5V20.5C17 20.2239 16.7761 20 16.5 20H15.5ZM9.5 1C9.22386 1 9 1.22386 9 1.5C9 2.05228 9.44772 2.5 10 2.5H14C14.5523 2.5 15 2.05228 15 1.5C15 1.22386 14.7761 1 14.5 1H9.5Z" fill="#272727"/>
</svg>
