<svg width="24" height="24" viewBox="0 0 24 24" fill="none" xmlns="http://www.w3.org/2000/svg">
<path fill-rule="evenodd" clip-rule="evenodd" d="M16.5838 19.8013C16.9185 20.3592 17.6884 20.454 18.1484 19.9939L18.8612 19.2811C19.1265 19.0158 19.221 18.6244 19.1059 18.2673L16.5356 10.293L19.9652 7.07571C20.8601 6.18081 21.6649 4.1085 20.7783 3.22192C19.8917 2.33534 17.9255 3.24626 17.0306 4.14116L13.7072 7.46456L5.73293 4.89433C5.37583 4.77923 4.98435 4.87371 4.71905 5.13901L4.00626 5.8518C3.54623 6.31183 3.64101 7.08169 4.19887 7.4164L9.62255 10.6706C9.90148 10.838 9.94887 11.2229 9.71886 11.4529L6.63614 14.5356L4.5575 13.6108C4.36842 13.5267 4.14704 13.5678 4.0007 13.7141L2.53101 15.1838C2.30133 15.4135 2.34819 15.7978 2.62635 15.9655L6.00006 18.0001L8.03468 21.3739C8.20243 21.652 8.58672 21.6989 8.8164 21.4692L10.2861 19.9995C10.4324 19.8532 10.4735 19.6318 10.3894 19.4427L9.46457 17.3641L12.5473 14.2813C12.7773 14.0513 13.1622 14.0987 13.3296 14.3776L16.5838 19.8013Z" fill="#272727"/>
</svg>
