<svg width="24" height="24" viewBox="0 0 24 24" fill="none" xmlns="http://www.w3.org/2000/svg">
<path fill-rule="evenodd" clip-rule="evenodd" d="M12 0C5.37258 0 0 5.37258 0 12C0 18.6274 5.37258 24 12 24C18.6274 24 24 18.6274 24 12C24 5.37258 18.6274 0 12 0ZM12.5162 4.64404C12.3196 4.45011 12.003 4.45228 11.8091 4.64887C11.6151 4.84547 11.6173 5.16204 11.8139 5.35596L13.1999 6.72313C12.7471 6.63584 12.3509 6.63585 12.0096 6.63586H12C8.9689 6.63586 6.5 9.06145 6.5 12.0679C6.5 15.0744 8.9689 17.5 12 17.5C15.0311 17.5 17.5 15.0744 17.5 12.0679C17.5 11.7918 17.2761 11.5679 17 11.5679C16.7239 11.5679 16.5 11.7918 16.5 12.0679C16.5 14.5093 14.4918 16.5 12 16.5C9.50825 16.5 7.5 14.5093 7.5 12.0679C7.5 9.62659 9.50825 7.63586 12 7.63586C12.4885 7.63586 12.9724 7.6377 13.5536 7.86007L11.8139 9.57611C11.6173 9.77003 11.6151 10.0866 11.8091 10.2832C12.003 10.4798 12.3196 10.482 12.5162 10.288L15.0162 7.822C15.1114 7.72804 15.165 7.59983 15.165 7.46604C15.165 7.33224 15.1114 7.20403 15.0162 7.11007L12.5162 4.64404Z" fill="#272727"/>
</svg>
