<svg width="24" height="24" viewBox="0 0 24 24" fill="none" xmlns="http://www.w3.org/2000/svg">
<path fill-rule="evenodd" clip-rule="evenodd" d="M12 0C5.37258 0 0 5.37258 0 12C0 18.6274 5.37258 24 12 24C18.6274 24 24 18.6274 24 12C24 5.37258 18.6274 0 12 0ZM6.5 11C6.5 8.51472 8.51472 6.5 11 6.5C13.4853 6.5 15.5 8.51472 15.5 11C15.5 13.4853 13.4853 15.5 11 15.5C8.51472 15.5 6.5 13.4853 6.5 11ZM11 5.5C7.96243 5.5 5.5 7.96243 5.5 11C5.5 14.0376 7.96243 16.5 11 16.5C12.3503 16.5 13.587 16.0134 14.5442 15.2059C14.5684 15.2594 14.6025 15.3096 14.6464 15.3536L16.6464 17.3536C16.8417 17.5488 17.1583 17.5488 17.3536 17.3536C17.5488 17.1583 17.5488 16.8417 17.3536 16.6464L15.3536 14.6464C15.3096 14.6025 15.2594 14.5684 15.2059 14.5442C16.0134 13.587 16.5 12.3503 16.5 11C16.5 7.96243 14.0376 5.5 11 5.5Z" fill="#272727"/>
</svg>
