<svg width="24" height="24" viewBox="0 0 24 24" fill="none" xmlns="http://www.w3.org/2000/svg">
<path fill-rule="evenodd" clip-rule="evenodd" d="M12.3536 2.64645C12.1583 2.45118 11.8417 2.45118 11.6464 2.64645L8.64645 5.64645C8.45118 5.84171 8.45118 6.15829 8.64645 6.35355C8.84171 6.54882 9.15829 6.54882 9.35355 6.35355L11.5 4.20711V9H7C5.34315 9 4 10.3431 4 12V19C4 20.6569 5.34315 22 7 22H17C18.6569 22 20 20.6569 20 19V12C20 10.3431 18.6569 9 17 9H12.5V4.20711L14.6464 6.35355C14.8417 6.54882 15.1583 6.54882 15.3536 6.35355C15.5488 6.15829 15.5488 5.84171 15.3536 5.64645L12.3536 2.64645ZM12.5 9H11.5V15C11.5 15.2761 11.7239 15.5 12 15.5C12.2761 15.5 12.5 15.2761 12.5 15V9Z" fill="#272727"/>
</svg>
