<svg width="24" height="24" viewBox="0 0 24 24" fill="none" xmlns="http://www.w3.org/2000/svg">
<path fill-rule="evenodd" clip-rule="evenodd" d="M0.999998 7.55549C0.447714 7.55549 0 8.00321 0 8.55549V15.4444C0 15.9967 0.447716 16.4444 1 16.4444H5.67939C5.77969 16.4444 5.87768 16.4745 5.96062 16.531L12.4375 20.937C13.1014 21.3886 14 20.9131 14 20.1102V3.88964C14 3.0867 13.1014 2.6112 12.4375 3.06282L5.96062 7.46889C5.87768 7.52531 5.77969 7.55548 5.67939 7.55548L0.999998 7.55549ZM20.3904 5.68757C20.2179 5.47196 19.9032 5.43704 19.6876 5.60957C19.472 5.7821 19.4371 6.09675 19.6096 6.31236C20.7717 7.76466 21.5 9.7707 21.5 12C21.5 14.2292 20.7717 16.2353 19.6096 17.6876C19.4371 17.9032 19.472 18.2178 19.6876 18.3904C19.9032 18.5629 20.2179 18.528 20.3904 18.3124C21.7026 16.6725 22.5 14.4429 22.5 12C22.5 9.55703 21.7026 7.32742 20.3904 5.68757ZM17.3904 8.68757C17.2179 8.47196 16.9032 8.43704 16.6876 8.60957C16.472 8.7821 16.4371 9.09675 16.6096 9.31236C17.1531 9.99162 17.5 10.9388 17.5 12C17.5 13.0612 17.1531 14.0083 16.6096 14.6876C16.4371 14.9032 16.472 15.2178 16.6876 15.3904C16.9032 15.5629 17.2179 15.528 17.3904 15.3124C18.084 14.4456 18.5 13.2749 18.5 12C18.5 10.7251 18.084 9.55438 17.3904 8.68757Z" fill="#272727"/>
</svg>
