<svg width="24" height="24" viewBox="0 0 24 24" fill="none" xmlns="http://www.w3.org/2000/svg">
<path fill-rule="evenodd" clip-rule="evenodd" d="M0 12C0 5.37258 5.37258 0 12 0C18.6274 0 24 5.37258 24 12C24 18.6274 18.6274 24 12 24C5.37258 24 0 18.6274 0 12ZM11.9543 8.5C9.2179 8.5 7.06173 9.43926 5.35993 11.2042C5.16826 11.403 4.85173 11.4088 4.65294 11.2171C4.45416 11.0254 4.44839 10.7089 4.64007 10.5101C6.53761 8.54214 8.95702 7.5 11.9543 7.5C14.9466 7.5 17.4592 8.53978 19.3598 10.51C19.5516 10.7087 19.5459 11.0253 19.3471 11.217C19.1484 11.4087 18.8319 11.403 18.6402 11.2043C16.9418 9.44377 14.6957 8.5 11.9543 8.5ZM11.9974 11.3561C10.0436 11.3561 8.66729 12.1138 7.45729 13.3498C7.26411 13.5471 6.94755 13.5505 6.75022 13.3573C6.5529 13.1641 6.54953 12.8476 6.74271 12.6502C8.10125 11.2625 9.723 10.3561 11.9974 10.3561C14.2713 10.3561 15.8984 11.2622 17.2573 12.6502C17.4505 12.8476 17.4471 13.1641 17.2498 13.3573C17.0525 13.5505 16.7359 13.5471 16.5427 13.3498C15.333 12.1141 13.9515 11.3561 11.9974 11.3561ZM12.0001 14.2143C11.0509 14.2143 10.1166 14.6702 9.59 15.2746C9.40862 15.4828 9.09279 15.5046 8.88457 15.3232C8.67635 15.1418 8.65459 14.826 8.83597 14.6178C9.55386 13.7937 10.764 13.2143 12.0001 13.2143C13.2358 13.2143 14.449 13.7934 15.1672 14.6178C15.3486 14.826 15.3268 15.1418 15.1186 15.3232C14.9104 15.5046 14.5945 15.4828 14.4132 15.2746C13.8869 14.6705 12.9497 14.2143 12.0001 14.2143ZM12 18C12.5523 18 13 17.5523 13 17C13 16.4477 12.5523 16 12 16C11.4477 16 11 16.4477 11 17C11 17.5523 11.4477 18 12 18Z" fill="#272727"/>
</svg>
