<svg width="24" height="24" viewBox="0 0 24 24" fill="none" xmlns="http://www.w3.org/2000/svg">
<path d="M4.84717 18.1661L3.85063 18.2491V18.2491L4.84717 18.1661ZM19.1528 18.1661L18.1563 18.083V18.083L19.1528 18.1661ZM14 13C14.5523 13 15 12.5523 15 12C15 11.4477 14.5523 11 14 11V13ZM10 11C9.44772 11 9 11.4477 9 12C9 12.5523 9.44772 13 10 13V11ZM3.00345 8.08305L3.85063 18.2491L5.84372 18.083L4.99655 7.91695L3.00345 8.08305ZM6.84027 21H17.1597V19H6.84027V21ZM20.1494 18.2491L20.9965 8.08305L19.0035 7.91695L18.1563 18.083L20.1494 18.2491ZM3 7V5H1V7H3ZM3 5H21V3H3V5ZM21 5V7H23V5H21ZM21 7H20V9H21V7ZM20 7H4V9H20V7ZM4 7H3V9H4V7ZM21 7V9C22.1046 9 23 8.10457 23 7H21ZM3 5V3C1.89543 3 1 3.89543 1 5H3ZM1 7C1 8.10457 1.89543 9 3 9V7H3H1ZM17.1597 21C18.72 21 20.0198 19.804 20.1494 18.2491L18.1563 18.083C18.1131 18.6013 17.6798 19 17.1597 19V21ZM21 5H23C23 3.89543 22.1046 3 21 3V5ZM3.85063 18.2491C3.9802 19.804 5.28 21 6.84027 21V19C6.32018 19 5.88691 18.6013 5.84372 18.083L3.85063 18.2491ZM14 11H10V13H14V11Z" fill="#272727"/>
</svg>
