<svg width="24" height="24" viewBox="0 0 24 24" fill="none" xmlns="http://www.w3.org/2000/svg">
<path d="M7 10C7 9.44772 6.55228 9 6 9C5.44772 9 5 9.44772 5 10H7ZM5 14C5 14.5523 5.44772 15 6 15C6.55228 15 7 14.5523 7 14H5ZM11 10C11 9.44772 10.5523 9 10 9C9.44771 9 9 9.44772 9 10H11ZM9 14C9 14.5523 9.44771 15 10 15C10.5523 15 11 14.5523 11 14H9ZM15 10C15 9.44772 14.5523 9 14 9C13.4477 9 13 9.44772 13 10H15ZM13 14C13 14.5523 13.4477 15 14 15C14.5523 15 15 14.5523 15 14H13ZM3.5 6H17.5V4H3.5V6ZM17.5 18H3.5V20H17.5V18ZM2 16.5V7.5H0V16.5H2ZM19 7.5V9H21V7.5H19ZM20 10H21V8H20V10ZM22 11V13H24V11H22ZM19 9V15H21V9H19ZM19 15V16.5H21V15H19ZM21 14H20V16H21V14ZM22 13C22 13.5523 21.5523 14 21 14V16C22.6569 16 24 14.6569 24 13H22ZM3.5 18C2.67157 18 2 17.3284 2 16.5H0C0 18.433 1.567 20 3.5 20V18ZM17.5 20C19.433 20 21 18.433 21 16.5H19C19 17.3284 18.3284 18 17.5 18V20ZM17.5 6C18.3284 6 19 6.67157 19 7.5H21C21 5.567 19.433 4 17.5 4V6ZM21 10C21.5523 10 22 10.4477 22 11H24C24 9.34315 22.6569 8 21 8V10ZM3.5 4C1.567 4 0 5.567 0 7.5H2C2 6.67157 2.67157 6 3.5 6V4ZM5 10V14H7V10H5ZM9 10V14H11V10H9ZM13 10V14H15V10H13Z" fill="#272727"/>
</svg>
