<svg width="24" height="24" viewBox="0 0 24 24" fill="none" xmlns="http://www.w3.org/2000/svg">
<path d="M10.9487 9.31623C11.1233 8.79228 10.8402 8.22596 10.3162 8.05132C9.79228 7.87667 9.22596 8.15983 9.05132 8.68377L10.9487 9.31623ZM9 12L8.05132 11.6838C7.94967 11.9887 8.00081 12.3239 8.18876 12.5847C8.37671 12.8455 8.67856 13 9 13V12ZM12 12L12.9487 12.3162C13.0503 12.0113 12.9992 11.6761 12.8112 11.4153C12.6233 11.1545 12.3214 11 12 11V12ZM10.0513 14.6838C9.87667 15.2077 10.1598 15.774 10.6838 15.9487C11.2077 16.1233 11.774 15.8402 11.9487 15.3162L10.0513 14.6838ZM3.5 6H17.5V4H3.5V6ZM17.5 18H3.5V20H17.5V18ZM2 16.5V7.5H0V16.5H2ZM19 7.5V9H21V7.5H19ZM20 10H21V8H20V10ZM22 11V13H24V11H22ZM19 9V15H21V9H19ZM19 15V16.5H21V15H19ZM21 14H20V16H21V14ZM22 13C22 13.5523 21.5523 14 21 14V16C22.6569 16 24 14.6569 24 13H22ZM3.5 18C2.67157 18 2 17.3284 2 16.5H0C0 18.433 1.567 20 3.5 20V18ZM17.5 20C19.433 20 21 18.433 21 16.5H19C19 17.3284 18.3284 18 17.5 18V20ZM17.5 6C18.3284 6 19 6.67157 19 7.5H21C21 5.567 19.433 4 17.5 4V6ZM21 10C21.5523 10 22 10.4477 22 11H24C24 9.34315 22.6569 8 21 8V10ZM3.5 4C1.567 4 0 5.567 0 7.5H2C2 6.67157 2.67157 6 3.5 6V4ZM9.05132 8.68377L8.05132 11.6838L9.94868 12.3162L10.9487 9.31623L9.05132 8.68377ZM9 13H12V11H9V13ZM11.0513 11.6838L10.0513 14.6838L11.9487 15.3162L12.9487 12.3162L11.0513 11.6838Z" fill="#272727"/>
</svg>
