<svg width="24" height="24" viewBox="0 0 24 24" fill="none" xmlns="http://www.w3.org/2000/svg">
<path d="M5.4 5.46667L6.2 6.06667L5.4 5.46667ZM7.7 2.4L6.9 1.8L6.9 1.8L7.7 2.4ZM18.3 2.4L17.5 3V3L18.3 2.4ZM20.6 5.46667L21.4 4.86667L21.4 4.86667L20.6 5.46667ZM17 10C17 9.44772 16.5523 9 16 9C15.4477 9 15 9.44772 15 10H17ZM11 10C11 9.44772 10.5523 9 10 9C9.44772 9 9 9.44772 9 10H11ZM20 6.66667V19H22V6.66667H20ZM19 20H7V22H19V20ZM6 19V6.66667H4V19H6ZM6.2 6.06667L8.5 3L6.9 1.8L4.6 4.86667L6.2 6.06667ZM8.5 3H17.5V1H8.5V3ZM17.5 3L19.8 6.06667L21.4 4.86667L19.1 1.8L17.5 3ZM17.5 3V3L19.1 1.8C18.7223 1.29639 18.1295 1 17.5 1V3ZM8.5 3L8.5 3V1C7.87049 1 7.27771 1.29639 6.9 1.8L8.5 3ZM7 20C6.44772 20 6 19.5523 6 19H4C4 20.6569 5.34315 22 7 22V20ZM20 19C20 19.5523 19.5523 20 19 20V22C20.6569 22 22 20.6569 22 19H20ZM22 6.66667C22 6.01756 21.7895 5.38596 21.4 4.86667L19.8 6.06667C19.9298 6.23976 20 6.4503 20 6.66667H22ZM6 6.66667C6 6.4503 6.07018 6.23976 6.2 6.06667L4.6 4.86667C4.21053 5.38596 4 6.01756 4 6.66667H6ZM5.11747 7H20.8777V5H5.11747V7ZM15 10C15 11.1046 14.1046 12 13 12V14C15.2091 14 17 12.2091 17 10H15ZM13 12C11.8954 12 11 11.1046 11 10H9C9 12.2091 10.7909 14 13 14V12Z" fill="#272727"/>
</svg>
