<svg width="27" height="26" viewBox="0 0 27 26" fill="none" xmlns="http://www.w3.org/2000/svg">
<path d="M7.00001 12C7.00001 12.5523 7.44772 13 8.00001 13C8.55229 13 9.00001 12.5523 9.00001 12H7.00001ZM15 11C15 11.5523 15.4477 12 16 12C16.5523 12 17 11.5523 17 11H15ZM7.00001 17C6.44772 17 6.00001 17.4477 6.00001 18C6.00001 18.5523 6.44772 19 7.00001 19V17ZM3.14222 19.867L2.14443 19.8004L3.14222 19.867ZM3.87555 8.86696L4.87333 8.93348L3.87555 8.86696ZM20.1245 8.86696L21.1223 8.80044V8.80044L20.1245 8.86696ZM20 15C20 14.4477 19.5523 14 19 14C18.4477 14 18 14.4477 18 15H20ZM18 21C18 21.5523 18.4477 22 19 22C19.5523 22 20 21.5523 20 21H18ZM22 19C22.5523 19 23 18.5523 23 18C23 17.4477 22.5523 17 22 17V19ZM16 17C15.4477 17 15 17.4477 15 18C15 18.5523 15.4477 19 16 19V17ZM9.00001 12V6H7.00001V12H9.00001ZM15 6V11H17V6H15ZM12 3C13.0304 3 13.7563 3.33646 14.2257 3.82262C14.7006 4.31434 15 5.04963 15 6H17C17 4.62496 16.5595 3.36025 15.6644 2.43332C14.764 1.50084 13.4898 1 12 1V3ZM12 1C10.5102 1 9.23606 1.50084 8.33559 2.43332C7.44047 3.36025 7.00001 4.62496 7.00001 6H9.00001C9.00001 5.04963 9.29944 4.31434 9.77428 3.82262C10.2438 3.33646 10.9696 3 12 3V1ZM7.00001 19H12V17H7.00001V19ZM5.87112 8H18.1289V6H5.87112V8ZM4.14 19.9335L4.87333 8.93348L2.87776 8.80044L2.14443 19.8004L4.14 19.9335ZM19.1267 8.93348L19.2689 11.0665L21.2645 10.9335L21.1223 8.80044L19.1267 8.93348ZM13 21H5.13779V23H13V21ZM2.14443 19.8004C2.02899 21.532 3.40239 23 5.13779 23V21C4.55932 21 4.10152 20.5107 4.14 19.9335L2.14443 19.8004ZM18.1289 8C18.6554 8 19.0917 8.40818 19.1267 8.93348L21.1223 8.80044C21.0172 7.22455 19.7083 6 18.1289 6V8ZM5.87112 6C4.29173 6 2.98282 7.22455 2.87776 8.80044L4.87333 8.93348C4.90835 8.40818 5.34466 8 5.87112 8V6ZM25 18C25 21.3137 22.3137 24 19 24V26C23.4183 26 27 22.4183 27 18H25ZM19 24C15.6863 24 13 21.3137 13 18H11C11 22.4183 14.5817 26 19 26V24ZM13 18C13 14.6863 15.6863 12 19 12V10C14.5817 10 11 13.5817 11 18H13ZM19 12C22.3137 12 25 14.6863 25 18H27C27 13.5817 23.4183 10 19 10V12ZM18 15V18H20V15H18ZM18 18V21H20V18H18ZM22 17H19V19H22V17ZM19 17H16V19H19V17Z" fill="#272727"/>
</svg>
