<svg width="24" height="24" viewBox="0 0 24 24" fill="none" xmlns="http://www.w3.org/2000/svg">
<path d="M7.00001 12C7.00001 12.5523 7.44772 13 8.00001 13C8.55229 13 9.00001 12.5523 9.00001 12H7.00001ZM15 12C15 12.5523 15.4477 13 16 13C16.5523 13 17 12.5523 17 12H15ZM7.00001 17C6.44772 17 6.00001 17.4477 6.00001 18C6.00001 18.5523 6.44772 19 7.00001 19V17ZM17 19C17.5523 19 18 18.5523 18 18C18 17.4477 17.5523 17 17 17V19ZM20.1245 8.86696L21.1223 8.80044L20.1245 8.86696ZM20.8578 19.867L21.8556 19.8004L20.8578 19.867ZM3.14222 19.867L2.14443 19.8004L3.14222 19.867ZM3.87555 8.86696L4.87333 8.93348L3.87555 8.86696ZM9.00001 12V6H7.00001V12H9.00001ZM15 6V12H17V6H15ZM12 3C13.0304 3 13.7563 3.33646 14.2257 3.82262C14.7006 4.31434 15 5.04963 15 6H17C17 4.62496 16.5595 3.36025 15.6644 2.43332C14.764 1.50084 13.4898 1 12 1V3ZM12 1C10.5102 1 9.23606 1.50084 8.33559 2.43332C7.44047 3.36025 7.00001 4.62496 7.00001 6H9.00001C9.00001 5.04963 9.29944 4.31434 9.77428 3.82262C10.2438 3.33646 10.9696 3 12 3V1ZM7.00001 19H17V17H7.00001V19ZM5.87112 8H18.1289V6H5.87112V8ZM19.1267 8.93348L19.86 19.9335L21.8556 19.8004L21.1223 8.80044L19.1267 8.93348ZM18.8622 21H5.13778V23H18.8622V21ZM4.14 19.9335L4.87333 8.93348L2.87776 8.80044L2.14443 19.8004L4.14 19.9335ZM5.13778 21C4.55932 21 4.10152 20.5107 4.14 19.9335L2.14443 19.8004C2.02899 21.532 3.40239 23 5.13778 23V21ZM19.86 19.9335C19.8985 20.5107 19.4407 21 18.8622 21V23C20.5976 23 21.971 21.532 21.8556 19.8004L19.86 19.9335ZM18.1289 8C18.6554 8 19.0917 8.40818 19.1267 8.93348L21.1223 8.80044C21.0172 7.22455 19.7083 6 18.1289 6V8ZM5.87112 6C4.29173 6 2.98282 7.22455 2.87776 8.80044L4.87333 8.93348C4.90835 8.40818 5.34466 8 5.87112 8V6Z" fill="#272727"/>
</svg>
