<svg width="24" height="27" viewBox="0 0 24 27" fill="none" xmlns="http://www.w3.org/2000/svg">
<path d="M6 11V12H7V11H6ZM18 11H17V12H18V11ZM6.75 21C7.30228 21 7.75 20.5523 7.75 20C7.75 19.4477 7.30228 19 6.75 19V21ZM17.25 19C16.6977 19 16.25 19.4477 16.25 20C16.25 20.5523 16.6977 21 17.25 21V19ZM13 17C13 16.4477 12.5523 16 12 16C11.4477 16 11 16.4477 11 17H13ZM12 26L11.2929 26.7071C11.6834 27.0976 12.3166 27.0976 12.7071 26.7071L12 26ZM15.7071 23.7071C16.0976 23.3166 16.0976 22.6834 15.7071 22.2929C15.3166 21.9024 14.6834 21.9024 14.2929 22.2929L15.7071 23.7071ZM9.70711 22.2929C9.31658 21.9024 8.68342 21.9024 8.29289 22.2929C7.90237 22.6834 7.90237 23.3166 8.29289 23.7071L9.70711 22.2929ZM5.5 19C3.567 19 2 17.433 2 15.5H0C0 18.5376 2.46243 21 5.5 21V19ZM22 15.5C22 17.433 20.433 19 18.5 19V21C21.5376 21 24 18.5376 24 15.5H22ZM18.5 12C20.433 12 22 13.567 22 15.5H24C24 12.4624 21.5376 10 18.5 10V12ZM5.5 10C2.46243 10 0 12.4624 0 15.5H2C2 13.567 3.567 12 5.5 12V10ZM12 5C14.7614 5 17 7.23858 17 10H19C19 6.13401 15.866 3 12 3V5ZM12 3C8.13401 3 5 6.13401 5 10H7C7 7.23858 9.23858 5 12 5V3ZM7 11V10H5V11H7ZM5.5 12H6V10H5.5V12ZM18 12H18.5V10H18V12ZM17 10V11H19V10H17ZM6.75 19H5.5V21H6.75V19ZM18.5 19H17.25V21H18.5V19ZM11 17V26H13V17H11ZM12.7071 26.7071L15.7071 23.7071L14.2929 22.2929L11.2929 25.2929L12.7071 26.7071ZM12.7071 25.2929L9.70711 22.2929L8.29289 23.7071L11.2929 26.7071L12.7071 25.2929Z" fill="#272727"/>
</svg>
