<svg width="24" height="24" viewBox="0 0 24 24" fill="none" xmlns="http://www.w3.org/2000/svg">
<path d="M22.1419 12.4476C22.1221 12.946 21.9481 13.219 21.7006 13.6521L19.2107 18.0093C18.4564 19.3294 17.5936 21 16.0732 21H8.07321C6.56946 21 5.69031 19.3299 4.94424 18.0243L2.44583 13.6521C2.19836 13.219 2.02434 12.946 2.00456 12.4476C1.97168 11.619 2.28549 10.6285 2.69695 9.90845L4.94424 5.97569C5.69031 4.67008 6.56946 3 8.07321 3H16.0732C17.5936 3 18.4564 4.6706 19.2107 5.99068L21.4495 9.90845C21.8609 10.6285 22.1747 11.619 22.1419 12.4476Z" stroke="#272727" stroke-width="2" stroke-linecap="round" stroke-linejoin="round"/>
</svg>
