<svg width="24" height="24" viewBox="0 0 24 24" fill="none" xmlns="http://www.w3.org/2000/svg">
<path d="M9 9V6.5C9 5.11929 7.88071 4 6.5 4C5.11929 4 4 5.11929 4 6.5C4 7.88071 5.11929 9 6.5 9H9ZM9 9H15M9 9V15M9 15H6.5C5.11929 15 4 16.1193 4 17.5C4 18.8807 5.11929 20 6.5 20C7.88071 20 9 18.8807 9 17.5V15ZM9 15H15M15 9H17.5C18.8807 9 20 7.88071 20 6.5C20 5.11929 18.8807 4 17.5 4C16.1193 4 15 5.11929 15 6.5V9ZM15 9V15M15 15V17.5C15 18.8807 16.1193 20 17.5 20C18.8807 20 20 18.8807 20 17.5C20 16.1193 18.8807 15 17.5 15H15Z" stroke="#272727" stroke-width="2" stroke-linecap="round"/>
</svg>
