<svg width="24" height="24" viewBox="0 0 24 24" fill="none" xmlns="http://www.w3.org/2000/svg">
<path d="M8 11V6C8 3.79086 9.79086 2 12 2C14.2091 2 16 3.79086 16 6V11M8 11H7C5.89543 11 5 11.8954 5 13V19C5 21.2091 6.79086 23 9 23H15C17.2091 23 19 21.2091 19 19V13C19 11.8954 18.1046 11 17 11H16M8 11H16M13 17C13 17.5523 12.5523 18 12 18C11.4477 18 11 17.5523 11 17C11 16.4477 11.4477 16 12 16C12.5523 16 13 16.4477 13 17Z" stroke="#272727" stroke-width="2" stroke-linecap="round" stroke-linejoin="round"/>
</svg>
