<svg width="24" height="24" viewBox="0 0 24 24" fill="none" xmlns="http://www.w3.org/2000/svg">
<path d="M6 4C6 2.89543 6.89543 2 8 2H16C17.1046 2 18 2.89543 18 4V20C18 21.1046 17.1046 22 16 22H8C6.89543 22 6 21.1046 6 20V4Z" stroke="#272727" stroke-width="2" stroke-linecap="round"/>
<mask id="path-3-inside-1" fill="white">
<path d="M8 6C8 5.44772 8.44772 5 9 5C9.55228 5 10 5.44772 10 6C10 6.55228 9.55228 7 9 7C8.44772 7 8 6.55228 8 6Z"/>
<path d="M11 6C11 5.44772 11.4477 5 12 5C12.5523 5 13 5.44772 13 6C13 6.55228 12.5523 7 12 7C11.4477 7 11 6.55228 11 6Z"/>
<path d="M14 6C14 5.44772 14.4477 5 15 5C15.5523 5 16 5.44772 16 6C16 6.55228 15.5523 7 15 7C14.4477 7 14 6.55228 14 6Z"/>
<path d="M8 9C8 8.44772 8.44772 8 9 8C9.55228 8 10 8.44772 10 9C10 9.55228 9.55228 10 9 10C8.44772 10 8 9.55228 8 9Z"/>
<path d="M11 9C11 8.44772 11.4477 8 12 8C12.5523 8 13 8.44772 13 9C13 9.55228 12.5523 10 12 10C11.4477 10 11 9.55228 11 9Z"/>
<path d="M14 9C14 8.44772 14.4477 8 15 8C15.5523 8 16 8.44772 16 9C16 9.55228 15.5523 10 15 10C14.4477 10 14 9.55228 14 9Z"/>
<path d="M8 19C8 18.4477 8.44772 18 9 18C9.55228 18 10 18.4477 10 19C10 19.5523 9.55228 20 9 20C8.44772 20 8 19.5523 8 19Z"/>
<path d="M11 19C11 18.4477 11.4477 18 12 18C12.5523 18 13 18.4477 13 19C13 19.5523 12.5523 20 12 20C11.4477 20 11 19.5523 11 19Z"/>
<path d="M14 19C14 18.4477 14.4477 18 15 18C15.5523 18 16 18.4477 16 19C16 19.5523 15.5523 20 15 20C14.4477 20 14 19.5523 14 19Z"/>
<path d="M8 12C8 11.4477 8.44772 11 9 11C9.55228 11 10 11.4477 10 12C10 12.5523 9.55228 13 9 13C8.44772 13 8 12.5523 8 12Z"/>
<path d="M11 12C11 11.4477 11.4477 11 12 11C12.5523 11 13 11.4477 13 12C13 12.5523 12.5523 13 12 13C11.4477 13 11 12.5523 11 12Z"/>
</mask>
<path d="M8 6C8 5.44772 8.44772 5 9 5C9.55228 5 10 5.44772 10 6C10 6.55228 9.55228 7 9 7C8.44772 7 8 6.55228 8 6Z" fill="#272727"/>
<path d="M11 6C11 5.44772 11.4477 5 12 5C12.5523 5 13 5.44772 13 6C13 6.55228 12.5523 7 12 7C11.4477 7 11 6.55228 11 6Z" fill="#272727"/>
<path d="M14 6C14 5.44772 14.4477 5 15 5C15.5523 5 16 5.44772 16 6C16 6.55228 15.5523 7 15 7C14.4477 7 14 6.55228 14 6Z" fill="#272727"/>
<path d="M8 9C8 8.44772 8.44772 8 9 8C9.55228 8 10 8.44772 10 9C10 9.55228 9.55228 10 9 10C8.44772 10 8 9.55228 8 9Z" fill="#272727"/>
<path d="M11 9C11 8.44772 11.4477 8 12 8C12.5523 8 13 8.44772 13 9C13 9.55228 12.5523 10 12 10C11.4477 10 11 9.55228 11 9Z" fill="#272727"/>
<path d="M14 9C14 8.44772 14.4477 8 15 8C15.5523 8 16 8.44772 16 9C16 9.55228 15.5523 10 15 10C14.4477 10 14 9.55228 14 9Z" fill="#272727"/>
<path d="M8 19C8 18.4477 8.44772 18 9 18C9.55228 18 10 18.4477 10 19C10 19.5523 9.55228 20 9 20C8.44772 20 8 19.5523 8 19Z" fill="#272727"/>
<path d="M11 19C11 18.4477 11.4477 18 12 18C12.5523 18 13 18.4477 13 19C13 19.5523 12.5523 20 12 20C11.4477 20 11 19.5523 11 19Z" fill="#272727"/>
<path d="M14 19C14 18.4477 14.4477 18 15 18C15.5523 18 16 18.4477 16 19C16 19.5523 15.5523 20 15 20C14.4477 20 14 19.5523 14 19Z" fill="#272727"/>
<path d="M8 12C8 11.4477 8.44772 11 9 11C9.55228 11 10 11.4477 10 12C10 12.5523 9.55228 13 9 13C8.44772 13 8 12.5523 8 12Z" fill="#272727"/>
<path d="M11 12C11 11.4477 11.4477 11 12 11C12.5523 11 13 11.4477 13 12C13 12.5523 12.5523 13 12 13C11.4477 13 11 12.5523 11 12Z" fill="#272727"/>
<path d="M9 5C9.55228 5 10 5.44772 10 6H6C6 7.65685 7.34315 9 9 9V5ZM8 6C8 5.44772 8.44772 5 9 5V9C10.6569 9 12 7.65685 12 6H8ZM9 7C8.44772 7 8 6.55228 8 6H12C12 4.34315 10.6569 3 9 3V7ZM9 3C7.34315 3 6 4.34315 6 6H10C10 6.55228 9.55228 7 9 7V3ZM12 5C12.5523 5 13 5.44772 13 6H9C9 7.65685 10.3431 9 12 9V5ZM11 6C11 5.44772 11.4477 5 12 5V9C13.6569 9 15 7.65685 15 6H11ZM12 7C11.4477 7 11 6.55228 11 6H15C15 4.34315 13.6569 3 12 3V7ZM12 3C10.3431 3 9 4.34315 9 6H13C13 6.55228 12.5523 7 12 7V3ZM15 5C15.5523 5 16 5.44772 16 6H12C12 7.65685 13.3431 9 15 9V5ZM14 6C14 5.44772 14.4477 5 15 5V9C16.6569 9 18 7.65685 18 6H14ZM15 7C14.4477 7 14 6.55228 14 6H18C18 4.34315 16.6569 3 15 3V7ZM15 3C13.3431 3 12 4.34315 12 6H16C16 6.55228 15.5523 7 15 7V3ZM9 8C9.55228 8 10 8.44772 10 9H6C6 10.6569 7.34315 12 9 12V8ZM8 9C8 8.44772 8.44772 8 9 8V12C10.6569 12 12 10.6569 12 9H8ZM9 10C8.44772 10 8 9.55228 8 9H12C12 7.34315 10.6569 6 9 6V10ZM9 6C7.34315 6 6 7.34315 6 9H10C10 9.55228 9.55228 10 9 10V6ZM12 8C12.5523 8 13 8.44772 13 9H9C9 10.6569 10.3431 12 12 12V8ZM11 9C11 8.44772 11.4477 8 12 8V12C13.6569 12 15 10.6569 15 9H11ZM12 10C11.4477 10 11 9.55228 11 9H15C15 7.34315 13.6569 6 12 6V10ZM12 6C10.3431 6 9 7.34315 9 9H13C13 9.55228 12.5523 10 12 10V6ZM15 8C15.5523 8 16 8.44772 16 9H12C12 10.6569 13.3431 12 15 12V8ZM14 9C14 8.44772 14.4477 8 15 8V12C16.6569 12 18 10.6569 18 9H14ZM15 10C14.4477 10 14 9.55228 14 9H18C18 7.34315 16.6569 6 15 6V10ZM15 6C13.3431 6 12 7.34315 12 9H16C16 9.55228 15.5523 10 15 10V6ZM9 18C9.55228 18 10 18.4477 10 19H6C6 20.6569 7.34315 22 9 22V18ZM8 19C8 18.4477 8.44772 18 9 18V22C10.6569 22 12 20.6569 12 19H8ZM9 20C8.44772 20 8 19.5523 8 19H12C12 17.3431 10.6569 16 9 16V20ZM9 16C7.34315 16 6 17.3431 6 19H10C10 19.5523 9.55228 20 9 20V16ZM12 18C12.5523 18 13 18.4477 13 19H9C9 20.6569 10.3431 22 12 22V18ZM11 19C11 18.4477 11.4477 18 12 18V22C13.6569 22 15 20.6569 15 19H11ZM12 20C11.4477 20 11 19.5523 11 19H15C15 17.3431 13.6569 16 12 16V20ZM12 16C10.3431 16 9 17.3431 9 19H13C13 19.5523 12.5523 20 12 20V16ZM15 18C15.5523 18 16 18.4477 16 19H12C12 20.6569 13.3431 22 15 22V18ZM14 19C14 18.4477 14.4477 18 15 18V22C16.6569 22 18 20.6569 18 19H14ZM15 20C14.4477 20 14 19.5523 14 19H18C18 17.3431 16.6569 16 15 16V20ZM15 16C13.3431 16 12 17.3431 12 19H16C16 19.5523 15.5523 20 15 20V16ZM9 11C9.55228 11 10 11.4477 10 12H6C6 13.6569 7.34315 15 9 15V11ZM8 12C8 11.4477 8.44772 11 9 11V15C10.6569 15 12 13.6569 12 12H8ZM9 13C8.44772 13 8 12.5523 8 12H12C12 10.3431 10.6569 9 9 9V13ZM9 9C7.34315 9 6 10.3431 6 12H10C10 12.5523 9.55228 13 9 13V9ZM12 11C12.5523 11 13 11.4477 13 12H9C9 13.6569 10.3431 15 12 15V11ZM11 12C11 11.4477 11.4477 11 12 11V15C13.6569 15 15 13.6569 15 12H11ZM12 13C11.4477 13 11 12.5523 11 12H15C15 10.3431 13.6569 9 12 9V13ZM12 9C10.3431 9 9 10.3431 9 12H13C13 12.5523 12.5523 13 12 13V9Z" fill="#272727" mask="url(#path-3-inside-1)"/>
</svg>
