<svg width="24" height="24" viewBox="0 0 24 24" fill="none" xmlns="http://www.w3.org/2000/svg">
<path d="M12 8.12075V15.8793C12 16.6064 11.5565 17 11.0311 17C10.765 17 10.533 16.9133 10.2669 16.7665L3.67551 12.9706C3.21152 12.7038 3 12.3836 3 11.9967C3 11.6164 3.21152 11.2962 3.67551 11.0294L10.2669 7.24016C10.5398 7.08672 10.765 7 11.0311 7C11.5633 7 12 7.3936 12 8.12075Z" stroke="#272727" stroke-width="2"/>
<path d="M21.0246 8.12075V15.8793C21.0246 16.6064 20.5811 17 20.0557 17C19.7896 17 19.5576 16.9133 19.2915 16.7665L12.7001 12.9706C12.2361 12.7038 12.0246 12.3836 12.0246 11.9967C12.0246 11.6164 12.2361 11.2962 12.7001 11.0294L19.2915 7.24016C19.5644 7.08672 19.7896 7 20.0557 7C20.5879 7 21.0246 7.3936 21.0246 8.12075Z" stroke="#272727" stroke-width="2"/>
</svg>
