<svg width="24" height="24" viewBox="0 0 24 24" fill="none" xmlns="http://www.w3.org/2000/svg">
<path d="M22 6C22 5.44772 21.5523 5 21 5C20.4477 5 20 5.44772 20 6H22ZM20 18C20 18.5523 20.4477 19 21 19C21.5523 19 22 18.5523 22 18H20ZM18 6C18 5.44772 17.5523 5 17 5C16.4477 5 16 5.44772 16 6H18ZM16 18C16 18.5523 16.4477 19 17 19C17.5523 19 18 18.5523 18 18H16ZM4.76243 6.27407L5.25414 5.40321L5.24233 5.39675L4.76243 6.27407ZM13.172 11.0222L12.6803 11.893L12.6829 11.8945L13.172 11.0222ZM13.172 12.9778L12.6829 12.1055L12.6803 12.107L13.172 12.9778ZM4.76243 17.7259L5.24237 18.6033L5.25409 18.5967L4.76243 17.7259ZM20 6V18H22V6H20ZM16 6V18H18V6H16ZM3.9116 17C3.90013 17 3.91149 16.9982 3.93605 17.0088C3.96148 17.0199 3.98499 17.0374 4.00176 17.0564C4.03647 17.0959 4 17.0877 4 16.9556H2C2 17.4605 2.14585 17.9744 2.49962 18.3769C2.8641 18.7915 3.37423 19 3.9116 19V17ZM4 16.9556V7.04444H2V16.9556H4ZM4 7.04444C4 6.91234 4.03647 6.90407 4.00176 6.94356C3.98499 6.96263 3.96148 6.98013 3.93605 6.99115C3.91149 7.0018 3.90013 7 3.9116 7V5C3.37423 5 2.8641 5.20848 2.49962 5.62311C2.14585 6.02556 2 6.53951 2 7.04444H4ZM3.9116 7C3.94528 7 4.00305 6.99852 4.28254 7.1514L5.24233 5.39675C4.89888 5.20888 4.47046 5 3.9116 5V7ZM4.27077 7.14486L12.6803 11.893L13.6636 10.1514L5.25409 5.40329L4.27077 7.14486ZM12.6829 11.8945C12.8154 11.9687 12.9069 12.0269 12.9706 12.073C13.0016 12.0955 13.0227 12.1128 13.0366 12.1251C13.0503 12.1374 13.0553 12.1433 13.0548 12.1427C13.0513 12.1386 13.0314 12.1131 13.0156 12.0693C13.0001 12.0265 13 11.9977 13 12H15C15 11.5761 14.8666 11.183 14.5729 10.8406C14.3223 10.5484 13.9861 10.3322 13.661 10.15L12.6829 11.8945ZM13 12C13 12.0023 13.0001 11.9735 13.0156 11.9307C13.0314 11.8869 13.0513 11.8614 13.0548 11.8573C13.0553 11.8567 13.0503 11.8626 13.0366 11.8749C13.0227 11.8872 13.0016 11.9045 12.9706 11.927C12.9069 11.9731 12.8154 12.0313 12.6829 12.1055L13.661 13.85C13.9861 13.6678 14.3223 13.4516 14.5729 13.1594C14.8666 12.817 15 12.4239 15 12H13ZM12.6803 12.107L4.27077 16.8551L5.25409 18.5967L13.6636 13.8486L12.6803 12.107ZM4.28254 16.8486C4.00305 17.0015 3.94528 17 3.9116 17V19C4.47046 19 4.89888 18.7911 5.24233 18.6033L4.28254 16.8486Z" fill="#272727"/>
</svg>
