<svg width="24" height="24" viewBox="0 0 24 24" fill="none" xmlns="http://www.w3.org/2000/svg">
<path d="M16.1265 13C16.4318 13.1659 21 14.3327 21 17.1188C21 18.9505 20.1227 20.6157 18.3675 21.1398C16.8511 21.5925 14.7107 22 12 22C9.28916 22 7.14882 21.5926 5.63246 21.1398C3.87739 20.6157 3 18.9505 3 17.1188C3 14.327 7.57125 13.1639 7.87346 13M12 16C15.3764 16 18 10.8323 18 5.54093C18 3.07278 15.3583 1 12 1C8.64168 1 6 3.07278 6 5.54093C6 10.8323 8.62358 16 12 16Z" stroke="#272727" stroke-width="2"/>
</svg>
