<svg width="24" height="24" viewBox="0 0 24 24" fill="none" xmlns="http://www.w3.org/2000/svg">
<path d="M12 9.04882L12.0987 10.0439L13 9.95447V9.04882H12ZM12 15H13V14.093L12.0973 14.0047L12 15ZM12.8123 19.3501L12.1876 18.5692L12.8123 19.3501ZM3.00444 18.6976L4.004 18.7272L3.00444 18.6976ZM3.18384 18.7606L2.4001 18.1395H2.4001L3.18384 18.7606ZM21.5119 12.3904L22.1366 13.1713L21.5119 12.3904ZM21.5119 11.6096L22.1366 10.8287L21.5119 11.6096ZM12.8123 4.64987L12.1876 5.43074L12.8123 4.64987ZM11 5.04031V9.04882H13V5.04031H11ZM11.9012 8.05371C6.44951 8.59485 2.16984 13.114 2.00488 18.6679L4.004 18.7272C4.13891 14.1852 7.64072 10.4864 12.0987 10.0439L11.9012 8.05371ZM3.96758 19.3817C5.8245 17.0385 8.79788 15.6916 11.9026 15.9952L12.0973 14.0047C8.29247 13.6327 4.66412 15.2826 2.4001 18.1395L3.96758 19.3817ZM11 15V18.9597H13V15H11ZM13.437 20.131L22.1366 13.1713L20.8872 11.6096L12.1876 18.5692L13.437 20.131ZM22.1366 10.8287L13.437 3.869L12.1876 5.43074L20.8872 12.3904L22.1366 10.8287ZM11 18.9597C11 20.2174 12.4549 20.9167 13.437 20.131L12.1876 18.5692C12.515 18.3073 13 18.5404 13 18.9597H11ZM2.00488 18.6679C1.97165 19.7867 3.34768 20.1639 3.96758 19.3817L2.4001 18.1395C2.90039 17.5082 4.03152 17.8009 4.004 18.7272L2.00488 18.6679ZM22.1366 13.1713C22.8872 12.5708 22.8872 11.4292 22.1366 10.8287L20.8872 12.3904C20.637 12.1903 20.637 11.8097 20.8872 11.6096L22.1366 13.1713ZM13 5.04031C13 5.45956 12.515 5.69264 12.1876 5.43074L13.437 3.869C12.4549 3.08329 11 3.78254 11 5.04031H13Z" fill="#272727"/>
</svg>
