<svg width="24" height="24" viewBox="0 0 24 24" fill="none" xmlns="http://www.w3.org/2000/svg">
<path d="M17.7071 8.29287C17.3166 7.90235 16.6834 7.90235 16.2929 8.29287C15.9024 8.6834 15.9024 9.31656 16.2929 9.70709L17.7071 8.29287ZM22.2929 15.7071C22.6834 16.0976 23.3166 16.0976 23.7071 15.7071C24.0976 15.3166 24.0976 14.6834 23.7071 14.2929L22.2929 15.7071ZM23.7071 9.70709C24.0976 9.31656 24.0976 8.6834 23.7071 8.29287C23.3166 7.90235 22.6834 7.90235 22.2929 8.29287L23.7071 9.70709ZM16.2929 14.2929C15.9024 14.6834 15.9024 15.3166 16.2929 15.7071C16.6834 16.0976 17.3166 16.0976 17.7071 15.7071L16.2929 14.2929ZM6.13039 16.0931L5.54915 16.9069L6.13039 16.0931ZM5.83977 7.99998L5.83977 6.99998L5.83977 7.99998ZM6.13039 7.90685L5.54915 7.09311L6.13039 7.90685ZM11.4188 19.8705L10.8375 20.6843L11.4188 19.8705ZM11.4188 4.12944L12 4.94317V4.94317L11.4188 4.12944ZM2 7.99999L2 8.99999L2 7.99999ZM16.2929 9.70709L19.2929 12.7071L20.7071 11.2929L17.7071 8.29287L16.2929 9.70709ZM19.2929 12.7071L22.2929 15.7071L23.7071 14.2929L20.7071 11.2929L19.2929 12.7071ZM20.7071 12.7071L23.7071 9.70709L22.2929 8.29287L19.2929 11.2929L20.7071 12.7071ZM19.2929 11.2929L16.2929 14.2929L17.7071 15.7071L20.7071 12.7071L19.2929 11.2929ZM12 4.94317V19.0568H14V4.94317H12ZM2 15V8.99999H0V15H2ZM2 8.99999L5.83977 8.99998L5.83977 6.99998L1.99999 6.99999L2 8.99999ZM6.71162 8.72058L12 4.94317L10.8375 3.3157L5.54915 7.09311L6.71162 8.72058ZM12 19.0568L6.71162 15.2794L5.54915 16.9069L10.8375 20.6843L12 19.0568ZM5.83977 15H2V17H5.83977V15ZM6.71162 15.2794C6.45722 15.0977 6.1524 15 5.83977 15V17C5.73556 17 5.63395 16.9674 5.54915 16.9069L6.71162 15.2794ZM5.83977 8.99998C6.1524 8.99998 6.45722 8.90229 6.71162 8.72058L5.54915 7.09311C5.63395 7.03254 5.73555 6.99998 5.83977 6.99998L5.83977 8.99998ZM0 15C0 16.1046 0.89543 17 2 17V15H2H0ZM12 19.0568L10.8375 20.6843C12.1613 21.6298 14 20.6835 14 19.0568H12ZM14 4.94317C14 3.31642 12.1613 2.37018 10.8375 3.3157L12 4.94317H14ZM2 8.99999V8.99999L1.99999 6.99999C0.895428 6.99999 0 7.89542 0 8.99999H2Z" fill="#272727"/>
</svg>
