<svg width="24" height="24" viewBox="0 0 24 24" fill="none" xmlns="http://www.w3.org/2000/svg">
<path d="M8.01855 14.7247C8.90744 13.7247 10.4392 13 12.0001 13C13.561 13 15.0971 13.7247 15.986 14.7247M5 12C6.83467 10.1634 8.97617 8.99853 11.9963 8.99853C15.0163 8.99853 17.1653 10.1634 19 12M2 9C4.57096 6.38697 7.83923 5 11.9347 5C16.0302 5 19.4293 6.38849 22 9M13 18C13 18.5523 12.5523 19 12 19C11.4477 19 11 18.5523 11 18C11 17.4477 11.4477 17 12 17C12.5523 17 13 17.4477 13 18Z" stroke="#272727" stroke-width="2" stroke-linecap="round" stroke-linejoin="round"/>
</svg>
