<svg width="24" height="24" viewBox="0 0 24 24" fill="none" xmlns="http://www.w3.org/2000/svg">
<path d="M10.4743 9.15811C10.5617 8.89614 10.4201 8.61298 10.1581 8.52566C9.89614 8.43833 9.61298 8.57991 9.52566 8.84189L10.4743 9.15811ZM9 12L8.52566 11.8419C8.47483 11.9944 8.5004 12.162 8.59438 12.2924C8.68835 12.4227 8.83928 12.5 9 12.5V12ZM12 12L12.4743 12.1581C12.5252 12.0056 12.4996 11.838 12.4056 11.7076C12.3116 11.5773 12.1607 11.5 12 11.5V12ZM10.5257 14.8419C10.4383 15.1039 10.5799 15.387 10.8419 15.4743C11.1039 15.5617 11.387 15.4201 11.4743 15.1581L10.5257 14.8419ZM3.5 5.5H17.5V4.5H3.5V5.5ZM17.5 18.5H3.5V19.5H17.5V18.5ZM1.5 16.5V7.5H0.5V16.5H1.5ZM19.5 7.5V9H20.5V7.5H19.5ZM20 9.5H21V8.5H20V9.5ZM22.5 11V13H23.5V11H22.5ZM19.5 9V15H20.5V9H19.5ZM19.5 15V16.5H20.5V15H19.5ZM21 14.5H20V15.5H21V14.5ZM22.5 13C22.5 13.8284 21.8284 14.5 21 14.5V15.5C22.3807 15.5 23.5 14.3807 23.5 13H22.5ZM3.5 18.5C2.39543 18.5 1.5 17.6046 1.5 16.5H0.5C0.5 18.1569 1.84315 19.5 3.5 19.5V18.5ZM17.5 19.5C19.1569 19.5 20.5 18.1569 20.5 16.5H19.5C19.5 17.6046 18.6046 18.5 17.5 18.5V19.5ZM17.5 5.5C18.6046 5.5 19.5 6.39543 19.5 7.5H20.5C20.5 5.84315 19.1569 4.5 17.5 4.5V5.5ZM21 9.5C21.8284 9.5 22.5 10.1716 22.5 11H23.5C23.5 9.61929 22.3807 8.5 21 8.5V9.5ZM3.5 4.5C1.84315 4.5 0.5 5.84315 0.5 7.5H1.5C1.5 6.39543 2.39543 5.5 3.5 5.5V4.5ZM9.52566 8.84189L8.52566 11.8419L9.47434 12.1581L10.4743 9.15811L9.52566 8.84189ZM9 12.5H12V11.5H9V12.5ZM11.5257 11.8419L10.5257 14.8419L11.4743 15.1581L12.4743 12.1581L11.5257 11.8419Z" fill="#272727"/>
</svg>
