<svg width="24" height="24" viewBox="0 0 24 24" fill="none" xmlns="http://www.w3.org/2000/svg">
<path d="M12.2704 16.6738L12.5408 16.2532H12.5408L12.2704 16.6738ZM11.7296 16.6738L11.4592 16.2532L11.7296 16.6738ZM5.77038 20.5048L6.04076 20.9253L5.77038 20.5048ZM18.2296 20.5048L17.9592 20.9253L18.2296 20.5048ZM7.5 4.5H16.5V3.5H7.5V4.5ZM18.5 6.5V20.0842H19.5V6.5H18.5ZM5.5 20.0842V6.5H4.5V20.0842H5.5ZM18.5 20.0842L12.5408 16.2532L12 17.0944L17.9592 20.9253L18.5 20.0842ZM11.4592 16.2532L5.5 20.0842L6.04076 20.9253L12 17.0944L11.4592 16.2532ZM12.5408 16.2532C12.2113 16.0415 11.7887 16.0415 11.4592 16.2532L12 17.0944L12.5408 16.2532ZM4.5 20.0842C4.5 20.8753 5.37525 21.3532 6.04076 20.9253L5.5 20.0842H5.5H4.5ZM18.5 20.0842L17.9592 20.9253C18.6248 21.3532 19.5 20.8753 19.5 20.0842H18.5ZM16.5 4.5C17.6046 4.5 18.5 5.39543 18.5 6.5H19.5C19.5 4.84315 18.1569 3.5 16.5 3.5V4.5ZM7.5 3.5C5.84315 3.5 4.5 4.84315 4.5 6.5H5.5C5.5 5.39543 6.39543 4.5 7.5 4.5V3.5Z" fill="#272727"/>
</svg>
