<svg width="24" height="24" viewBox="0 0 24 24" fill="none" xmlns="http://www.w3.org/2000/svg">
<path d="M5.4 5.46667L5.8 5.76667H5.8L5.4 5.46667ZM7.7 2.4L7.3 2.1L7.3 2.1L7.7 2.4ZM18.3 2.4L17.9 2.7L17.9 2.7L18.3 2.4ZM20.6 5.46667L21 5.16667V5.16667L20.6 5.46667ZM16.5 10C16.5 9.72386 16.2761 9.5 16 9.5C15.7239 9.5 15.5 9.72386 15.5 10H16.5ZM10.5 10C10.5 9.72386 10.2761 9.5 10 9.5C9.72386 9.5 9.5 9.72386 9.5 10H10.5ZM20.5 6.66667V19H21.5V6.66667H20.5ZM19 20.5H7V21.5H19V20.5ZM5.5 19V6.66667H4.5V19H5.5ZM5.8 5.76667L8.1 2.7L7.3 2.1L5 5.16667L5.8 5.76667ZM8.5 2.5H17.5V1.5H8.5V2.5ZM17.9 2.7L20.2 5.76667L21 5.16667L18.7 2.1L17.9 2.7ZM17.5 2.5C17.6574 2.5 17.8056 2.5741 17.9 2.7L18.7 2.1C18.4167 1.72229 17.9721 1.5 17.5 1.5V2.5ZM8.1 2.7C8.19443 2.5741 8.34262 2.5 8.5 2.5V1.5C8.02786 1.5 7.58328 1.72229 7.3 2.1L8.1 2.7ZM7 20.5C6.17157 20.5 5.5 19.8284 5.5 19H4.5C4.5 20.3807 5.61929 21.5 7 21.5V20.5ZM20.5 19C20.5 19.8284 19.8284 20.5 19 20.5V21.5C20.3807 21.5 21.5 20.3807 21.5 19H20.5ZM21.5 6.66667C21.5 6.12574 21.3246 5.59941 21 5.16667L20.2 5.76667C20.3947 6.02631 20.5 6.34211 20.5 6.66667H21.5ZM5.5 6.66667C5.5 6.34211 5.60527 6.02631 5.8 5.76667L5 5.16667C4.67544 5.59941 4.5 6.12574 4.5 6.66667H5.5ZM5.11747 6.5H20.8777V5.5H5.11747V6.5ZM15.5 10C15.5 11.3807 14.3807 12.5 13 12.5V13.5C14.933 13.5 16.5 11.933 16.5 10H15.5ZM13 12.5C11.6193 12.5 10.5 11.3807 10.5 10H9.5C9.5 11.933 11.067 13.5 13 13.5V12.5Z" fill="#272727"/>
</svg>
