<svg width="27" height="26" viewBox="0 0 27 26" fill="none" xmlns="http://www.w3.org/2000/svg">
<path d="M7.50001 12C7.50001 12.2761 7.72387 12.5 8.00001 12.5C8.27615 12.5 8.50001 12.2761 8.50001 12H7.50001ZM15.5 11C15.5 11.2761 15.7239 11.5 16 11.5C16.2762 11.5 16.5 11.2761 16.5 11H15.5ZM7.00001 17.5C6.72387 17.5 6.50001 17.7239 6.50001 18C6.50001 18.2761 6.72387 18.5 7.00001 18.5V17.5ZM3.14222 19.867L2.64332 19.8337L3.14222 19.867ZM3.87555 8.86696L4.37444 8.90022L3.87555 8.86696ZM20.1245 8.86696L20.6234 8.8337L20.1245 8.86696ZM19.5 15C19.5 14.7239 19.2762 14.5 19 14.5C18.7239 14.5 18.5 14.7239 18.5 15H19.5ZM18.5 21C18.5 21.2761 18.7239 21.5 19 21.5C19.2762 21.5 19.5 21.2761 19.5 21H18.5ZM22 18.5C22.2762 18.5 22.5 18.2761 22.5 18C22.5 17.7239 22.2762 17.5 22 17.5V18.5ZM16 17.5C15.7239 17.5 15.5 17.7239 15.5 18C15.5 18.2761 15.7239 18.5 16 18.5V17.5ZM8.50001 12V6H7.50001V12H8.50001ZM15.5 6V11H16.5V6H15.5ZM12 2.5C13.1453 2.5 14.0082 2.87755 14.5854 3.4753C15.1653 4.07582 15.5 4.94346 15.5 6H16.5C16.5 4.73113 16.0948 3.59877 15.3048 2.78065C14.512 1.95974 13.375 1.5 12 1.5V2.5ZM12 1.5C10.6251 1.5 9.48798 1.95974 8.69526 2.78065C7.90522 3.59877 7.50001 4.73113 7.50001 6H8.50001C8.50001 4.94346 8.8347 4.07582 9.4146 3.4753C9.99183 2.87755 10.8547 2.5 12 2.5V1.5ZM7.00001 18.5H12V17.5H7.00001V18.5ZM5.87112 7.5H18.1289V6.5H5.87112V7.5ZM3.64111 19.9002L4.37444 8.90022L3.37666 8.8337L2.64332 19.8337L3.64111 19.9002ZM19.6256 8.90022L19.7678 11.0333L20.7656 10.9667L20.6234 8.8337L19.6256 8.90022ZM13 21.5H5.13779V22.5H13V21.5ZM2.64332 19.8337C2.54713 21.2767 3.69162 22.5 5.13779 22.5V21.5C4.27009 21.5 3.58339 20.766 3.64111 19.9002L2.64332 19.8337ZM18.1289 7.5C18.9186 7.5 19.5731 8.11227 19.6256 8.90022L20.6234 8.8337C20.5358 7.52046 19.4451 6.5 18.1289 6.5V7.5ZM5.87112 6.5C4.55496 6.5 3.46421 7.52046 3.37666 8.8337L4.37444 8.90022C4.42697 8.11228 5.08142 7.5 5.87112 7.5V6.5ZM25.5 18C25.5 21.5899 22.5899 24.5 19 24.5V25.5C23.1421 25.5 26.5 22.1421 26.5 18H25.5ZM19 24.5C15.4102 24.5 12.5 21.5899 12.5 18H11.5C11.5 22.1421 14.8579 25.5 19 25.5V24.5ZM12.5 18C12.5 14.4101 15.4102 11.5 19 11.5V10.5C14.8579 10.5 11.5 13.8579 11.5 18H12.5ZM19 11.5C22.5899 11.5 25.5 14.4101 25.5 18H26.5C26.5 13.8579 23.1421 10.5 19 10.5V11.5ZM18.5 15V18H19.5V15H18.5ZM18.5 18V21H19.5V18H18.5ZM22 17.5H19V18.5H22V17.5ZM19 17.5H16V18.5H19V17.5Z" fill="#272727"/>
</svg>
