<svg width="24" height="24" viewBox="0 0 24 24" fill="none" xmlns="http://www.w3.org/2000/svg">
<path d="M6 11V11.5H6.5V11H6ZM18 11H17.5V11.5H18V11ZM9.36016 13.5763C9.16862 13.3773 8.85209 13.3714 8.65318 13.5629C8.45427 13.7545 8.4483 14.071 8.63984 14.2699L9.36016 13.5763ZM11 16L10.6398 16.3468C10.733 16.4435 10.861 16.4987 10.9953 16.5C11.1295 16.5012 11.2586 16.4485 11.3536 16.3536L11 16ZM15.3536 12.3536C15.5488 12.1583 15.5488 11.8417 15.3536 11.6464C15.1583 11.4512 14.8417 11.4512 14.6464 11.6464L15.3536 12.3536ZM5.5 19.5C3.29086 19.5 1.5 17.7091 1.5 15.5H0.5C0.5 18.2614 2.73858 20.5 5.5 20.5V19.5ZM22.5 15.5C22.5 17.7091 20.7091 19.5 18.5 19.5V20.5C21.2614 20.5 23.5 18.2614 23.5 15.5H22.5ZM18.5 11.5C20.7091 11.5 22.5 13.2909 22.5 15.5H23.5C23.5 12.7386 21.2614 10.5 18.5 10.5V11.5ZM5.5 10.5C2.73858 10.5 0.5 12.7386 0.5 15.5H1.5C1.5 13.2909 3.29086 11.5 5.5 11.5V10.5ZM12 4.5C15.0376 4.5 17.5 6.96243 17.5 10H18.5C18.5 6.41015 15.5899 3.5 12 3.5V4.5ZM12 3.5C8.41015 3.5 5.5 6.41015 5.5 10H6.5C6.5 6.96243 8.96243 4.5 12 4.5V3.5ZM6.5 11V10H5.5V11H6.5ZM5.5 11.5H6V10.5H5.5V11.5ZM18 11.5H18.5V10.5H18V11.5ZM17.5 10V11H18.5V10H17.5ZM8.63984 14.2699L10.6398 16.3468L11.3602 15.6532L9.36016 13.5763L8.63984 14.2699ZM11.3536 16.3536L15.3536 12.3536L14.6464 11.6464L10.6464 15.6464L11.3536 16.3536ZM18.5 19.5H5.5V20.5H18.5V19.5Z" fill="#272727"/>
</svg>
