<svg width="24" height="27" viewBox="0 0 24 27" fill="none" xmlns="http://www.w3.org/2000/svg">
<path d="M6 11V11.5H6.5V11H6ZM18 11H17.5V11.5H18V11ZM6.75 20.5C7.02614 20.5 7.25 20.2761 7.25 20C7.25 19.7239 7.02614 19.5 6.75 19.5V20.5ZM17.25 19.5C16.9739 19.5 16.75 19.7239 16.75 20C16.75 20.2761 16.9739 20.5 17.25 20.5V19.5ZM12.5 17C12.5 16.7239 12.2761 16.5 12 16.5C11.7239 16.5 11.5 16.7239 11.5 17H12.5ZM12 26L11.6464 26.3536C11.8417 26.5488 12.1583 26.5488 12.3536 26.3536L12 26ZM15.3536 23.3536C15.5488 23.1583 15.5488 22.8417 15.3536 22.6464C15.1583 22.4512 14.8417 22.4512 14.6464 22.6464L15.3536 23.3536ZM9.35355 22.6464C9.15829 22.4512 8.84171 22.4512 8.64645 22.6464C8.45118 22.8417 8.45118 23.1583 8.64645 23.3536L9.35355 22.6464ZM5.5 19.5C3.29086 19.5 1.5 17.7091 1.5 15.5H0.5C0.5 18.2614 2.73858 20.5 5.5 20.5V19.5ZM22.5 15.5C22.5 17.7091 20.7091 19.5 18.5 19.5V20.5C21.2614 20.5 23.5 18.2614 23.5 15.5H22.5ZM18.5 11.5C20.7091 11.5 22.5 13.2909 22.5 15.5H23.5C23.5 12.7386 21.2614 10.5 18.5 10.5V11.5ZM5.5 10.5C2.73858 10.5 0.5 12.7386 0.5 15.5H1.5C1.5 13.2909 3.29086 11.5 5.5 11.5V10.5ZM12 4.5C15.0376 4.5 17.5 6.96243 17.5 10H18.5C18.5 6.41015 15.5899 3.5 12 3.5V4.5ZM12 3.5C8.41015 3.5 5.5 6.41015 5.5 10H6.5C6.5 6.96243 8.96243 4.5 12 4.5V3.5ZM6.5 11V10H5.5V11H6.5ZM5.5 11.5H6V10.5H5.5V11.5ZM18 11.5H18.5V10.5H18V11.5ZM17.5 10V11H18.5V10H17.5ZM6.75 19.5H5.5V20.5H6.75V19.5ZM18.5 19.5H17.25V20.5H18.5V19.5ZM11.5 17V26H12.5V17H11.5ZM12.3536 26.3536L15.3536 23.3536L14.6464 22.6464L11.6464 25.6464L12.3536 26.3536ZM12.3536 25.6464L9.35355 22.6464L8.64645 23.3536L11.6464 26.3536L12.3536 25.6464Z" fill="#272727"/>
</svg>
