<svg width="24" height="24" viewBox="0 0 24 24" fill="none" xmlns="http://www.w3.org/2000/svg">
<path d="M5.31726 15.3595L5.52857 15.8126H5.52857L5.31726 15.3595ZM22.2952 7.99419C22.5454 7.87749 22.6537 7.58 22.537 7.32973C22.4203 7.07946 22.1228 6.97118 21.8726 7.08788L22.2952 7.99419ZM21.8726 17.0065C22.1228 17.1232 22.4203 17.0149 22.537 16.7647C22.6537 16.5144 22.5454 16.2169 22.2952 16.1002L21.8726 17.0065ZM10.4217 16.8411C9.48804 14.8389 7.10812 13.9727 5.10596 14.9063L5.52857 15.8126C7.03019 15.1124 8.81513 15.7621 9.51535 17.2637L10.4217 16.8411ZM5.10596 14.9063C3.1038 15.8399 2.23757 18.2199 3.1712 20.222L4.07751 19.7994C3.37729 18.2978 4.02695 16.5128 5.52857 15.8126L5.10596 14.9063ZM3.1712 20.222C4.10482 22.2242 6.48474 23.0904 8.4869 22.1568L8.06428 21.2505C6.56266 21.9507 4.77772 21.301 4.07751 19.7994L3.1712 20.222ZM8.4869 22.1568C10.4891 21.2232 11.3553 18.8432 10.4217 16.8411L9.51535 17.2637C10.2156 18.7653 9.5659 20.5503 8.06428 21.2505L8.4869 22.1568ZM5.52857 15.8126L22.2952 7.99419L21.8726 7.08788L5.10595 14.9063L5.52857 15.8126ZM9.51535 6.8307C8.81513 8.33232 7.03019 8.98199 5.52857 8.28177L5.10596 9.18808C7.10812 10.1217 9.48804 9.25548 10.4217 7.25332L9.51535 6.8307ZM5.52857 8.28177C4.02695 7.58155 3.37729 5.79661 4.07751 4.29499L3.1712 3.87237C2.23757 5.87453 3.1038 8.25446 5.10596 9.18808L5.52857 8.28177ZM4.07751 4.29499C4.77772 2.79337 6.56266 2.14371 8.06428 2.84392L8.4869 1.93762C6.48474 1.00399 4.10482 1.87021 3.1712 3.87237L4.07751 4.29499ZM8.06428 2.84392C9.5659 3.54414 10.2156 5.32908 9.51535 6.8307L10.4217 7.25332C11.3553 5.25116 10.4891 2.87124 8.4869 1.93762L8.06428 2.84392ZM5.10595 9.18808L21.8726 17.0065L22.2952 16.1002L5.52857 8.28177L5.10595 9.18808Z" fill="#272727"/>
</svg>
