<svg width="24" height="24" viewBox="0 0 24 24" fill="none" xmlns="http://www.w3.org/2000/svg">
<path d="M19 10H19.5C19.5 9.86739 19.4473 9.74021 19.3536 9.64645L19 10ZM12 3L12.3536 2.64645C12.2598 2.55268 12.1326 2.5 12 2.5V3ZM17 20.5H7V21.5H17V20.5ZM5.5 19V5H4.5V19H5.5ZM18.5 10V19H19.5V10H18.5ZM7 3.5H12V2.5H7V3.5ZM19.3536 9.64645L12.3536 2.64645L11.6464 3.35355L18.6464 10.3536L19.3536 9.64645ZM11.5 3V9.5H12.5V3H11.5ZM12.5 10.5H19V9.5H12.5V10.5ZM7 20.5C6.17157 20.5 5.5 19.8284 5.5 19H4.5C4.5 20.3807 5.61929 21.5 7 21.5V20.5ZM17 21.5C18.3807 21.5 19.5 20.3807 19.5 19H18.5C18.5 19.8284 17.8284 20.5 17 20.5V21.5ZM11.5 9.5C11.5 10.0523 11.9477 10.5 12.5 10.5V9.5H11.5ZM5.5 5C5.5 4.17157 6.17157 3.5 7 3.5V2.5C5.61929 2.5 4.5 3.61929 4.5 5H5.5Z" fill="#272727"/>
</svg>
