<svg width="24" height="24" viewBox="0 0 24 24" fill="none" xmlns="http://www.w3.org/2000/svg">
<path d="M13.1145 11.5926C13.3097 11.3974 13.3097 11.0808 13.1145 10.8855C12.9192 10.6903 12.6026 10.6903 12.4074 10.8855L13.1145 11.5926ZM7.0269 16.266C6.83164 16.4613 6.83164 16.7778 7.0269 16.9731C7.22217 17.1684 7.53875 17.1684 7.73401 16.9731L7.0269 16.266ZM2 15.6772L1.5 15.6772V15.6772H2ZM2 21.6772H2.5H2ZM21.6848 7.2499L21.3313 7.60346L21.6848 7.2499ZM16.7501 2.31518L17.1037 1.96163L16.7501 2.31518ZM21.6848 8.77173L22.0384 9.12528L21.6848 8.77173ZM2.09455 15.4489L1.741 15.0953L2.09455 15.4489ZM15.2283 2.31518L14.8747 1.96163V1.96163L15.2283 2.31518ZM12.4074 10.8855L7.0269 16.266L7.73401 16.9731L13.1145 11.5926L12.4074 10.8855ZM1.5 15.6772L1.5 21.6772H2.5L2.5 15.6772H1.5ZM8.32283 21.5H2.32283V22.5H8.32283V21.5ZM22.0384 6.89635L17.1037 1.96163L16.3965 2.66873L21.3313 7.60346L22.0384 6.89635ZM8.90465 22.259L19.571 11.5926L18.8639 10.8855L8.19755 21.5519L8.90465 22.259ZM19.571 11.5926L22.0384 9.12528L21.3313 8.41817L18.8639 10.8855L19.571 11.5926ZM2.44811 15.8025L13.1145 5.13609L12.4074 4.42899L1.741 15.0953L2.44811 15.8025ZM13.1145 5.13609L15.5818 2.66873L14.8747 1.96163L12.4074 4.42899L13.1145 5.13609ZM19.571 10.8855L13.1145 4.42899L12.4074 5.13609L18.8639 11.5926L19.571 10.8855ZM1.5 21.6772C1.5 22.1316 1.86839 22.5 2.32283 22.5V21.5C2.42068 21.5 2.5 21.5793 2.5 21.6772H1.5ZM2.5 15.6772C2.5 15.7242 2.48133 15.7692 2.44811 15.8025L1.741 15.0953C1.58669 15.2497 1.5 15.4589 1.5 15.6772L2.5 15.6772ZM21.3313 7.60346C21.5562 7.82843 21.5562 8.1932 21.3313 8.41817L22.0384 9.12528C22.6539 8.50978 22.6539 7.51185 22.0384 6.89635L21.3313 7.60346ZM8.32283 22.5C8.54106 22.5 8.75035 22.4133 8.90465 22.259L8.19755 21.5519C8.23077 21.5187 8.27584 21.5 8.32283 21.5V22.5ZM17.1037 1.96163C16.4881 1.34612 15.4902 1.34612 14.8747 1.96163L15.5818 2.66873C15.8068 2.44376 16.1716 2.44376 16.3965 2.66873L17.1037 1.96163Z" fill="#272727"/>
</svg>
