<svg width="24" height="24" viewBox="0 0 24 24" fill="none" xmlns="http://www.w3.org/2000/svg">
<path d="M8.78174 9.37501V9.87501C8.81759 9.87501 8.85333 9.87116 8.88835 9.86351L8.78174 9.37501ZM12.5 4L12.0193 3.86225V3.86226L12.5 4ZM15.6881 4.55456L16.1861 4.59877L16.1864 4.59546L15.6881 4.55456ZM15 9L14.5257 8.84189C14.4748 8.99436 14.5004 9.16197 14.5944 9.29236C14.6884 9.42274 14.8393 9.5 15 9.5V9ZM21 15L21.4983 15.0415L21 15ZM9.87892 18.9999L9.91996 18.5016L9.87892 18.9999ZM7.98456 9.87501H8.78174V8.87501H7.98456V9.87501ZM12.9807 4.13775C13.076 3.80518 13.18 3.49231 13.3211 3.26612C13.4576 3.04739 13.5679 3 13.6693 3V2C13.0801 2 12.7007 2.37124 12.4727 2.73684C12.2493 3.09496 12.114 3.5321 12.0193 3.86225L12.9807 4.13775ZM13.6693 3H15V2H13.6693V3ZM15 3C15.0027 3 14.9994 3.00027 14.9929 2.99811C14.9864 2.99599 14.9824 2.99338 14.9817 2.99288C14.9815 2.99273 14.9864 2.99622 14.9952 3.00695C15.0042 3.01784 15.016 3.03479 15.0296 3.05974C15.09 3.17089 15.1395 3.35476 15.1692 3.58999C15.1978 3.81581 15.2033 4.04773 15.2011 4.22726C15.1999 4.31597 15.197 4.38954 15.1943 4.44018C15.193 4.46546 15.1918 4.48489 15.1909 4.49749C15.1905 4.50379 15.1901 4.50837 15.1899 4.51111C15.1898 4.51248 15.1898 4.51339 15.1897 4.51382C15.1897 4.51404 15.1897 4.51414 15.1897 4.51411C15.1897 4.5141 15.1897 4.51406 15.1897 4.51398C15.1897 4.51395 15.1897 4.51387 15.1897 4.51385C15.1897 4.51377 15.1897 4.51367 15.6881 4.55456C16.1864 4.59546 16.1864 4.59535 16.1864 4.59523C16.1864 4.59518 16.1864 4.59506 16.1864 4.59496C16.1864 4.59476 16.1865 4.59453 16.1865 4.59427C16.1865 4.59375 16.1866 4.5931 16.1866 4.59233C16.1868 4.59079 16.1869 4.58875 16.1871 4.58623C16.1875 4.5812 16.188 4.57424 16.1886 4.56549C16.1898 4.548 16.1913 4.52329 16.1929 4.49238C16.1962 4.43067 16.1997 4.34372 16.201 4.23982C16.2036 4.03412 16.1977 3.7524 16.1613 3.46457C16.1261 3.18616 16.0572 2.85639 15.9082 2.58231C15.7525 2.29572 15.4628 2 15 2V3ZM15 9.5H19.1147V8.5H15V9.5ZM19.1147 9.5C19.2547 9.5 19.6822 9.62185 20.0528 10.4122C20.4228 11.2016 20.698 12.6027 20.5017 14.9585L21.4983 15.0415C21.702 12.5973 21.4321 10.9984 20.9582 9.98776C20.4849 8.97815 19.7698 8.5 19.1147 8.5V9.5ZM20.5017 14.9585C20.4074 16.0902 20.1095 16.8842 19.7257 17.4462C19.3433 18.0063 18.857 18.3632 18.341 18.5934C17.2828 19.0655 16.1309 19 15.5 19V20C16.0552 20 17.4533 20.0845 18.7485 19.5066C19.4093 19.2118 20.0506 18.7437 20.5516 18.0101C21.0513 17.2783 21.3926 16.3098 21.4983 15.0415L20.5017 14.9585ZM15.5 19C14.5118 19 13.5544 18.9125 12.6228 18.8058C11.7018 18.7003 10.7819 18.5726 9.91996 18.5016L9.83788 19.4982C10.6795 19.5675 11.5535 19.6899 12.509 19.7993C13.4537 19.9076 14.4551 20 15.5 20V19ZM9.91996 18.5016C9.3136 18.4516 8.90017 18.4402 8.61456 18.4501C8.34252 18.4596 8.13966 18.4893 7.98807 18.555C7.90142 18.5925 7.81556 18.6484 7.7461 18.7327C7.71306 18.7728 7.69312 18.8085 7.6884 18.8168C7.68307 18.8262 7.69491 18.8044 7.7102 18.7825C7.72597 18.7598 7.77446 18.6928 7.86411 18.64C8.09261 18.5054 8.30265 18.6081 8.32139 18.6168C8.35611 18.6331 8.38159 18.6511 8.36601 18.6409C8.354 18.633 8.31752 18.6083 8.26216 18.5742L7.73784 19.4258C7.77723 19.45 7.79596 19.4629 7.81736 19.477C7.81848 19.4777 7.85521 19.5028 7.89795 19.5228C7.9247 19.5353 8.13951 19.6384 8.37176 19.5016C8.46329 19.4477 8.51341 19.3789 8.53082 19.3539C8.54113 19.3391 8.54855 19.3268 8.55196 19.321C8.55387 19.3178 8.5554 19.3151 8.55628 19.3136C8.55707 19.3122 8.55787 19.3108 8.55788 19.3108C8.55865 19.3094 8.55369 19.3183 8.54672 19.3291C8.53921 19.3408 8.52963 19.3543 8.51776 19.3687C8.46535 19.4323 8.41018 19.4619 8.38558 19.4726C8.35809 19.4845 8.40477 19.4581 8.64949 19.4495C8.88065 19.4414 9.25122 19.4499 9.83788 19.4982L9.91996 18.5016ZM8.88835 9.86351C9.80746 9.66292 10.5573 9.37128 11.2163 8.48549C11.835 7.65392 12.3548 6.32158 12.9807 4.13774L12.0193 3.86226C11.3918 6.05217 10.9116 7.21983 10.414 7.88858C9.95684 8.5031 9.47428 8.7121 8.67512 8.88651L8.88835 9.86351ZM15.6881 4.55456C15.19 4.51036 15.19 4.51035 15.19 4.51035C15.19 4.51037 15.19 4.51039 15.19 4.51042C15.19 4.51049 15.19 4.51061 15.19 4.51078C15.1899 4.51111 15.1899 4.51164 15.1898 4.51236C15.1897 4.51381 15.1895 4.51602 15.1892 4.51899C15.1887 4.52492 15.1879 4.53386 15.1868 4.54563C15.1847 4.56918 15.1814 4.60408 15.1771 4.64905C15.1686 4.739 15.1559 4.86915 15.1394 5.02921C15.1064 5.34952 15.0584 5.78861 14.998 6.26433C14.8748 7.23479 14.7075 8.29641 14.5257 8.84189L15.4743 9.15811C15.6925 8.50359 15.8692 7.3425 15.99 6.39024C16.0517 5.90459 16.1006 5.45733 16.1342 5.13162C16.1509 4.96867 16.1639 4.8359 16.1727 4.74367C16.177 4.69755 16.1804 4.66156 16.1826 4.63698C16.1838 4.62469 16.1846 4.61525 16.1852 4.60883C16.1855 4.60562 16.1857 4.60316 16.1859 4.60148C16.1859 4.60064 16.186 4.59999 16.186 4.59954C16.1861 4.59931 16.1861 4.59913 16.1861 4.59901C16.1861 4.59894 16.1861 4.59888 16.1861 4.59885C16.1861 4.5988 16.1861 4.59877 15.6881 4.55456ZM3 8.50012H7V7.50012H3V8.50012ZM7.5 9.00012V19H8.5V9.00012H7.5ZM7 19.5001H3V20.5001H7V19.5001ZM2.5 19.0001V9.00012H1.5V19.0001H2.5ZM3 19.5001C2.72386 19.5001 2.5 19.2763 2.5 19.0001H1.5C1.5 19.8285 2.17157 20.5001 3 20.5001V19.5001ZM7.5 19C7.5 19.2762 7.27606 19.5001 7 19.5001V20.5001C7.82851 20.5001 8.5 19.8283 8.5 19H7.5ZM7 8.50012C7.27614 8.50012 7.5 8.72398 7.5 9.00012H8.5C8.5 8.17169 7.82843 7.50012 7 7.50012V8.50012ZM3 7.50012C2.17157 7.50012 1.5 8.17169 1.5 9.00012H2.5C2.5 8.72398 2.72386 8.50012 3 8.50012V7.50012Z" fill="#272727"/>
</svg>
