<svg width="24" height="28" viewBox="0 0 24 28" fill="none" xmlns="http://www.w3.org/2000/svg">
<path d="M2.3753 8.69989L2.68765 9.09033H2.68765L2.3753 8.69989ZM11.3753 1.49989L11.063 1.10946V1.10946L11.3753 1.49989ZM12.6247 1.49989L12.3123 1.89033V1.89033L12.6247 1.49989ZM21.6247 8.69989L21.937 8.30946L21.6247 8.69989ZM12.669 17.3981L12.3346 17.0263L12.3345 17.0264L12.669 17.3981ZM11.331 17.3981L11.6655 17.0264L11.6655 17.0264L11.331 17.3981ZM21.5 9.48076V21.0001H22.5V9.48076H21.5ZM20 22.5001H4V23.5001H20V22.5001ZM2.5 21.0001V9.48076H1.5V21.0001H2.5ZM2.68765 9.09033L11.6877 1.89033L11.063 1.10946L2.06296 8.30946L2.68765 9.09033ZM12.3123 1.89033L21.3123 9.09033L21.937 8.30946L12.937 1.10946L12.3123 1.89033ZM11.6877 1.89033C11.8703 1.74424 12.1297 1.74424 12.3123 1.89033L12.937 1.10946C12.3892 0.671196 11.6108 0.671197 11.063 1.10946L11.6877 1.89033ZM4 22.5001C3.17157 22.5001 2.5 21.8286 2.5 21.0001H1.5C1.5 22.3808 2.61929 23.5001 4 23.5001V22.5001ZM21.5 21.0001C21.5 21.8286 20.8284 22.5001 20 22.5001V23.5001C21.3807 23.5001 22.5 22.3808 22.5 21.0001H21.5ZM22.5 9.48076C22.5 9.02508 22.2929 8.59412 21.937 8.30946L21.3123 9.09033C21.431 9.18521 21.5 9.32887 21.5 9.48076H22.5ZM2.5 9.48076C2.5 9.32887 2.56904 9.18521 2.68765 9.09033L2.06296 8.30946C1.70713 8.59412 1.5 9.02509 1.5 9.48076H2.5ZM21.5836 8.70651L12.3346 17.0263L13.0034 17.7698L22.2524 9.44998L21.5836 8.70651ZM11.6655 17.0264L2.4204 8.70658L1.75147 9.44991L10.9966 17.7697L11.6655 17.0264ZM12.3345 17.0264C12.1443 17.1976 11.8557 17.1976 11.6655 17.0264L10.9966 17.7697C11.567 18.2831 12.433 18.2831 13.0034 17.7697L12.3345 17.0264ZM17.5664 12.4884H6.42969V13.4884H17.5664V12.4884ZM9.0322 15.2353L1.86814 21.4345L2.52249 22.1907L9.68655 15.9915L9.0322 15.2353ZM21.77 22.0642L14.9864 15.2794L14.2792 15.9865L21.0628 22.7712L21.77 22.0642Z" fill="#272727"/>
</svg>
