<svg width="24" height="24" viewBox="0 0 24 24" fill="none" xmlns="http://www.w3.org/2000/svg">
<path d="M6 4C6 2.89543 6.89543 2 8 2H16C17.1046 2 18 2.89543 18 4V20C18 21.1046 17.1046 22 16 22H8C6.89543 22 6 21.1046 6 20V4Z" stroke="#272727" stroke-linecap="round"/>
<path d="M8.5 6C8.5 5.72386 8.72386 5.5 9 5.5C9.27614 5.5 9.5 5.72386 9.5 6C9.5 6.27614 9.27614 6.5 9 6.5C8.72386 6.5 8.5 6.27614 8.5 6ZM11.5 6C11.5 5.72386 11.7239 5.5 12 5.5C12.2761 5.5 12.5 5.72386 12.5 6C12.5 6.27614 12.2761 6.5 12 6.5C11.7239 6.5 11.5 6.27614 11.5 6ZM14.5 6C14.5 5.72386 14.7239 5.5 15 5.5C15.2761 5.5 15.5 5.72386 15.5 6C15.5 6.27614 15.2761 6.5 15 6.5C14.7239 6.5 14.5 6.27614 14.5 6ZM8.5 9C8.5 8.72386 8.72386 8.5 9 8.5C9.27614 8.5 9.5 8.72386 9.5 9C9.5 9.27614 9.27614 9.5 9 9.5C8.72386 9.5 8.5 9.27614 8.5 9ZM11.5 9C11.5 8.72386 11.7239 8.5 12 8.5C12.2761 8.5 12.5 8.72386 12.5 9C12.5 9.27614 12.2761 9.5 12 9.5C11.7239 9.5 11.5 9.27614 11.5 9ZM14.5 9C14.5 8.72386 14.7239 8.5 15 8.5C15.2761 8.5 15.5 8.72386 15.5 9C15.5 9.27614 15.2761 9.5 15 9.5C14.7239 9.5 14.5 9.27614 14.5 9ZM8.5 19C8.5 18.7239 8.72386 18.5 9 18.5C9.27614 18.5 9.5 18.7239 9.5 19C9.5 19.2761 9.27614 19.5 9 19.5C8.72386 19.5 8.5 19.2761 8.5 19ZM11.5 19C11.5 18.7239 11.7239 18.5 12 18.5C12.2761 18.5 12.5 18.7239 12.5 19C12.5 19.2761 12.2761 19.5 12 19.5C11.7239 19.5 11.5 19.2761 11.5 19ZM14.5 19C14.5 18.7239 14.7239 18.5 15 18.5C15.2761 18.5 15.5 18.7239 15.5 19C15.5 19.2761 15.2761 19.5 15 19.5C14.7239 19.5 14.5 19.2761 14.5 19ZM8.5 12C8.5 11.7239 8.72386 11.5 9 11.5C9.27614 11.5 9.5 11.7239 9.5 12C9.5 12.2761 9.27614 12.5 9 12.5C8.72386 12.5 8.5 12.2761 8.5 12ZM11.5 12C11.5 11.7239 11.7239 11.5 12 11.5C12.2761 11.5 12.5 11.7239 12.5 12C12.5 12.2761 12.2761 12.5 12 12.5C11.7239 12.5 11.5 12.2761 11.5 12Z" fill="#272727" stroke="#272727"/>
</svg>
