<svg width="24" height="24" viewBox="0 0 24 24" fill="none" xmlns="http://www.w3.org/2000/svg">
<path fill-rule="evenodd" clip-rule="evenodd" d="M17.045 20.5701C17.1454 20.7375 17.3764 20.7659 17.5144 20.6279L19.1636 18.9786C19.2432 18.899 19.2716 18.7816 19.2371 18.6745L16.5356 10.293L19.9651 7.07571C20.86 6.18081 21.6648 4.1085 20.7782 3.22192C19.8916 2.33534 17.9255 3.24626 17.0306 4.14116L13.7072 7.46456L5.32568 4.76309C5.21855 4.72856 5.1011 4.7569 5.02151 4.83649L3.37225 6.48576C3.23424 6.62376 3.26267 6.85472 3.43003 6.95514L9.62249 10.6706C9.90142 10.838 9.94881 11.2229 9.7188 11.4529L6.63609 14.5356L4.43189 13.555C4.31844 13.5045 4.18562 13.5291 4.09781 13.6169L2.53095 15.1838C2.30127 15.4135 2.34814 15.7978 2.62629 15.9655L6 18.0001L8.03463 21.3739C8.20237 21.652 8.58666 21.6989 8.81634 21.4692L10.3832 19.9023C10.471 19.8145 10.4956 19.6817 10.4452 19.5682L9.46451 17.3641L12.5472 14.2813C12.7772 14.0513 13.1622 14.0987 13.3295 14.3776L17.045 20.5701Z" stroke="#272727"/>
</svg>
