<svg width="24" height="24" viewBox="0 0 24 24" fill="none" xmlns="http://www.w3.org/2000/svg">
<path d="M21.5 6C21.5 5.72386 21.2761 5.5 21 5.5C20.7239 5.5 20.5 5.72386 20.5 6H21.5ZM20.5 18C20.5 18.2761 20.7239 18.5 21 18.5C21.2761 18.5 21.5 18.2761 21.5 18H20.5ZM17.5 6C17.5 5.72386 17.2761 5.5 17 5.5C16.7239 5.5 16.5 5.72386 16.5 6H17.5ZM16.5 18C16.5 18.2761 16.7239 18.5 17 18.5C17.2761 18.5 17.5 18.2761 17.5 18H16.5ZM4.76243 6.27407L5.00828 5.83864L5.00238 5.83541L4.76243 6.27407ZM13.172 11.0222L12.9261 11.4576L12.9274 11.4583L13.172 11.0222ZM13.172 12.9778L12.9274 12.5416L12.9261 12.5424L13.172 12.9778ZM4.76243 17.7259L5.0024 18.1646L5.00826 18.1613L4.76243 17.7259ZM20.5 6V18H21.5V6H20.5ZM16.5 6V18H17.5V6H16.5ZM3.9116 17.5C3.77007 17.5 3.68328 17.4515 3.62623 17.3866C3.56381 17.3156 3.5 17.1809 3.5 16.9556H2.5C2.5 17.3673 2.61851 17.7548 2.87516 18.0468C3.13716 18.3448 3.50618 18.5 3.9116 18.5V17.5ZM3.5 16.9556V7.04444H2.5V16.9556H3.5ZM3.5 7.04444C3.5 6.81913 3.56381 6.68444 3.62623 6.61345C3.68328 6.54854 3.77007 6.5 3.9116 6.5V5.5C3.50618 5.5 3.13716 5.65516 2.87516 5.95322C2.61851 6.24519 2.5 6.63272 2.5 7.04444H3.5ZM3.9116 6.5C4.07658 6.5 4.22701 6.55111 4.52248 6.71274L5.00238 5.83541C4.67492 5.65629 4.33917 5.5 3.9116 5.5V6.5ZM4.5166 6.70947L12.9261 11.4576L13.4178 10.5868L5.00826 5.83868L4.5166 6.70947ZM12.9274 11.4583C13.2207 11.6228 13.3631 11.7341 13.4344 11.8172C13.4841 11.8752 13.5 11.9175 13.5 12H14.5C14.5 11.6899 14.4058 11.4137 14.1934 11.1661C14.0026 10.9436 13.7309 10.7624 13.4165 10.5861L12.9274 11.4583ZM13.5 12C13.5 12.0825 13.4841 12.1248 13.4344 12.1828C13.3631 12.2659 13.2207 12.3772 12.9274 12.5417L13.4165 13.4139C13.7309 13.2376 14.0026 13.0564 14.1934 12.8339C14.4058 12.5863 14.5 12.3101 14.5 12H13.5ZM12.9261 12.5424L4.5166 17.2905L5.00826 18.1613L13.4178 13.4132L12.9261 12.5424ZM4.52248 17.2873C4.22701 17.4489 4.07658 17.5 3.9116 17.5V18.5C4.33917 18.5 4.67492 18.3437 5.00238 18.1646L4.52248 17.2873Z" fill="#272727"/>
</svg>
