<svg width="24" height="24" viewBox="0 0 24 24" fill="none" xmlns="http://www.w3.org/2000/svg">
<path d="M7 10.5C7.27614 10.5 7.5 10.2761 7.5 10C7.5 9.72386 7.27614 9.5 7 9.5V10.5ZM17 9.5C16.7239 9.5 16.5 9.72386 16.5 10C16.5 10.2761 16.7239 10.5 17 10.5V9.5ZM11.5 15C11.5 15.2761 11.7239 15.5 12 15.5C12.2761 15.5 12.5 15.2761 12.5 15H11.5ZM12 3L12.3536 2.64645C12.1583 2.45118 11.8417 2.45118 11.6464 2.64645L12 3ZM8.64645 5.64645C8.45118 5.84171 8.45118 6.15829 8.64645 6.35355C8.84171 6.54882 9.15829 6.54882 9.35355 6.35355L8.64645 5.64645ZM14.6464 6.35355C14.8417 6.54882 15.1583 6.54882 15.3536 6.35355C15.5488 6.15829 15.5488 5.84171 15.3536 5.64645L14.6464 6.35355ZM7 9.5H6.8V10.5H7V9.5ZM4.5 11.8V19H5.5V11.8H4.5ZM7 21.5H17V20.5H7V21.5ZM19.5 19V11.8H18.5V19H19.5ZM17.2 9.5H17V10.5H17.2V9.5ZM12.5 15V3H11.5V15H12.5ZM11.6464 2.64645L8.64645 5.64645L9.35355 6.35355L12.3536 3.35355L11.6464 2.64645ZM11.6464 3.35355L14.6464 6.35355L15.3536 5.64645L12.3536 2.64645L11.6464 3.35355ZM19.5 11.8C19.5 10.5297 18.4703 9.5 17.2 9.5V10.5C17.918 10.5 18.5 11.082 18.5 11.8H19.5ZM17 21.5C18.3807 21.5 19.5 20.3807 19.5 19H18.5C18.5 19.8284 17.8284 20.5 17 20.5V21.5ZM4.5 19C4.5 20.3807 5.61929 21.5 7 21.5V20.5C6.17157 20.5 5.5 19.8284 5.5 19H4.5ZM6.8 9.5C5.52975 9.5 4.5 10.5297 4.5 11.8H5.5C5.5 11.082 6.08203 10.5 6.8 10.5V9.5Z" fill="#272727"/>
</svg>
