<svg width="24" height="24" viewBox="0 0 24 24" fill="none" xmlns="http://www.w3.org/2000/svg">
<path d="M17.3536 8.64643C17.1583 8.45116 16.8417 8.45116 16.6464 8.64643C16.4512 8.84169 16.4512 9.15827 16.6464 9.35353L17.3536 8.64643ZM22.6464 15.3535C22.8417 15.5488 23.1583 15.5488 23.3536 15.3535C23.5488 15.1583 23.5488 14.8417 23.3536 14.6464L22.6464 15.3535ZM23.3536 9.35353C23.5488 9.15827 23.5488 8.84169 23.3536 8.64643C23.1583 8.45116 22.8417 8.45116 22.6464 8.64643L23.3536 9.35353ZM16.6464 14.6464C16.4512 14.8417 16.4512 15.1583 16.6464 15.3535C16.8417 15.5488 17.1583 15.5488 17.3536 15.3535L16.6464 14.6464ZM6.13039 16.0931L5.83977 16.5L6.13039 16.0931ZM5.83977 7.99998L5.83977 7.49998L5.83977 7.99998ZM6.13039 7.90685L5.83977 7.49998L6.13039 7.90685ZM11.4188 19.8705L11.1281 20.2774L11.4188 19.8705ZM11.4188 4.12944L11.7094 4.5363V4.5363L11.4188 4.12944ZM2 7.99999L2 8.49999L2 7.99999ZM16.6464 9.35353L19.6464 12.3535L20.3536 11.6464L17.3536 8.64643L16.6464 9.35353ZM19.6464 12.3535L22.6464 15.3535L23.3536 14.6464L20.3536 11.6464L19.6464 12.3535ZM20.3536 12.3535L23.3536 9.35353L22.6464 8.64643L19.6464 11.6464L20.3536 12.3535ZM19.6464 11.6464L16.6464 14.6464L17.3536 15.3535L20.3536 12.3535L19.6464 11.6464ZM12.5 4.94317V19.0568H13.5V4.94317H12.5ZM1.5 15V8.99999H0.5V15H1.5ZM2 8.49999L5.83977 8.49998L5.83977 7.49998L2 7.49999L2 8.49999ZM6.421 8.31371L11.7094 4.5363L11.1281 3.72257L5.83977 7.49998L6.421 8.31371ZM11.7094 19.4637L6.42101 15.6863L5.83977 16.5L11.1281 20.2774L11.7094 19.4637ZM5.83977 15.5H2V16.5H5.83977V15.5ZM6.42101 15.6863C6.2514 15.5651 6.04819 15.5 5.83977 15.5V16.5H5.83977L6.42101 15.6863ZM5.83977 8.49998C6.04819 8.49998 6.25141 8.43486 6.421 8.31371L5.83977 7.49998L5.83977 7.49998L5.83977 8.49998ZM0.5 15C0.5 15.8284 1.17157 16.5 2 16.5V15.5C1.72386 15.5 1.5 15.2761 1.5 15H0.5ZM12.5 19.0568C12.5 19.4635 12.0403 19.7 11.7094 19.4637L11.1281 20.2774C12.1209 20.9865 13.5 20.2768 13.5 19.0568H12.5ZM13.5 4.94317C13.5 3.72311 12.1209 3.01342 11.1281 3.72257L11.7094 4.5363C12.0403 4.29992 12.5 4.53648 12.5 4.94317H13.5ZM1.5 8.99999C1.5 8.72385 1.72386 8.49999 2 8.49999L2 7.49999C1.17157 7.49999 0.5 8.17156 0.5 8.99999H1.5Z" fill="#272727"/>
</svg>
