<svg width="24" height="24" viewBox="0 0 24 24" fill="none" xmlns="http://www.w3.org/2000/svg">
<path d="M1 9H23M3.7 21H20.3C21.7912 21 23 19.7912 23 18.3V5.7C23 4.20883 21.7912 3 20.3 3H3.7C2.20883 3 1 4.20883 1 5.7V18.3C1 19.7912 2.20883 21 3.7 21Z" stroke="#272727"/>
<path d="M4.5 6C4.5 6.27614 4.27614 6.5 4 6.5C3.72386 6.5 3.5 6.27614 3.5 6C3.5 5.72386 3.72386 5.5 4 5.5C4.27614 5.5 4.5 5.72386 4.5 6ZM7.5 6C7.5 6.27614 7.27614 6.5 7 6.5C6.72386 6.5 6.5 6.27614 6.5 6C6.5 5.72386 6.72386 5.5 7 5.5C7.27614 5.5 7.5 5.72386 7.5 6ZM10.5 6C10.5 6.27614 10.2761 6.5 10 6.5C9.72386 6.5 9.5 6.27614 9.5 6C9.5 5.72386 9.72386 5.5 10 5.5C10.2761 5.5 10.5 5.72386 10.5 6Z" fill="#272727" stroke="#272727"/>
</svg>
