<svg width="24" height="24" viewBox="0 0 24 24" fill="none" xmlns="http://www.w3.org/2000/svg">
<path fill-rule="evenodd" clip-rule="evenodd" d="M12 0C5.37258 0 0 5.37258 0 12C0 18.6274 5.37258 24 12 24C18.6274 24 24 18.6274 24 12C24 5.37258 18.6274 0 12 0ZM10.25 8C10.25 8.41421 10.5858 8.75 11 8.75H14.1893L7.46967 15.4697C7.17678 15.7626 7.17678 16.2374 7.46967 16.5303C7.76256 16.8232 8.23744 16.8232 8.53033 16.5303L15.25 9.81066V13.0769C15.25 13.4911 15.5858 13.8269 16 13.8269C16.4142 13.8269 16.75 13.4911 16.75 13.0769V8C16.75 7.58579 16.4142 7.25 16 7.25H11C10.5858 7.25 10.25 7.58579 10.25 8Z" fill="#272727"/>
</svg>
