<svg width="24" height="24" viewBox="0 0 24 24" fill="none" xmlns="http://www.w3.org/2000/svg">
<path fill-rule="evenodd" clip-rule="evenodd" d="M12 0C5.37258 0 0 5.37258 0 12C0 18.6274 5.37258 24 12 24C18.6274 24 24 18.6274 24 12C24 5.37258 18.6274 0 12 0ZM7.53033 10.4697C7.23744 10.1768 6.76256 10.1768 6.46967 10.4697C6.17678 10.7626 6.17678 11.2374 6.46967 11.5303L11.4697 16.5303C11.7626 16.8232 12.2374 16.8232 12.5303 16.5303L17.5303 11.5303C17.8232 11.2374 17.8232 10.7626 17.5303 10.4697C17.2374 10.1768 16.7626 10.1768 16.4697 10.4697L12 14.9393L7.53033 10.4697Z" fill="#272727"/>
</svg>
