<svg width="24" height="24" viewBox="0 0 24 24" fill="none" xmlns="http://www.w3.org/2000/svg">
<path fill-rule="evenodd" clip-rule="evenodd" d="M12 0C5.37258 0 0 5.37258 0 12C0 18.6274 5.37258 24 12 24C18.6274 24 24 18.6274 24 12C24 5.37258 18.6274 0 12 0ZM17.5303 13.4697L12.5303 8.46967C12.2374 8.17678 11.7626 8.17678 11.4697 8.46967L6.46967 13.4697C6.17678 13.7626 6.17678 14.2374 6.46967 14.5303C6.76256 14.8232 7.23744 14.8232 7.53033 14.5303L12 10.0607L16.4697 14.5303C16.7626 14.8232 17.2374 14.8232 17.5303 14.5303C17.8232 14.2374 17.8232 13.7626 17.5303 13.4697Z" fill="#272727"/>
</svg>
