<svg width="24" height="24" viewBox="0 0 24 24" fill="none" xmlns="http://www.w3.org/2000/svg">
<path fill-rule="evenodd" clip-rule="evenodd" d="M17.5 4H3.5C1.567 4 0 5.567 0 7.5V16.5C0 18.433 1.567 20 3.5 20H17.5C19.433 20 21 18.433 21 16.5V16C22.6569 16 24 14.6569 24 13V11C24 9.34315 22.6569 8 21 8V7.5C21 5.567 19.433 4 17.5 4ZM22 13C22 13.5523 21.5523 14 21 14V10C21.5523 10 22 10.4477 22 11V13ZM10.7115 9.23717C10.8425 8.84421 10.6301 8.41947 10.2372 8.28849C9.84421 8.1575 9.41947 8.36987 9.28849 8.76283L8.28849 11.7628C8.21225 11.9915 8.2506 12.243 8.39157 12.4385C8.53253 12.6341 8.75892 12.75 9 12.75H10.9594L10.2885 14.7628C10.1575 15.1558 10.3699 15.5805 10.7628 15.7115C11.1558 15.8425 11.5805 15.6301 11.7115 15.2372L12.7115 12.2372C12.7877 12.0085 12.7494 11.757 12.6084 11.5615C12.4675 11.3659 12.2411 11.25 12 11.25H10.0406L10.7115 9.23717Z" fill="#272727"/>
</svg>
