<svg width="24" height="24" viewBox="0 0 24 24" fill="none" xmlns="http://www.w3.org/2000/svg">
<path fill-rule="evenodd" clip-rule="evenodd" d="M17.5 4H3.5C1.567 4 0 5.567 0 7.5V16.5C0 18.433 1.567 20 3.5 20H17.5C19.433 20 21 18.433 21 16.5V16C22.6569 16 24 14.6569 24 13V11C24 9.34315 22.6569 8 21 8V7.5C21 5.567 19.433 4 17.5 4ZM21 10V14C21.5523 14 22 13.5523 22 13V11C22 10.4477 21.5523 10 21 10ZM6 9.25C6.41421 9.25 6.75 9.58579 6.75 10V14C6.75 14.4142 6.41421 14.75 6 14.75C5.58579 14.75 5.25 14.4142 5.25 14V10C5.25 9.58579 5.58579 9.25 6 9.25ZM10 9.25C10.4142 9.25 10.75 9.58579 10.75 10V10V10.0001V10.0002V10.0003V10.0004V10.0005V10.0006V10.0008V10.001V10.0012V10.0015V10.0017V10.002V10.0023V10.0026V10.0029V10.0033V10.0037V10.0041V10.0045V10.005V10.0054V10.0059V10.0064V10.007V10.0075V10.0081V10.0087V10.0093V10.0099V10.0106V10.0113V10.012V10.0127V10.0135V10.0142V10.015V10.0159V10.0167V10.0176V10.0184V10.0193V10.0203V10.0212V10.0222V10.0232V10.0242V10.0253V10.0263V10.0274V10.0285V10.0297V10.0308V10.032V10.0332V10.0345V10.0357V10.037V10.0383V10.0396V10.041V10.0423V10.0437V10.0452V10.0466V10.0481V10.0496V10.0511V10.0526V10.0542V10.0558V10.0574V10.059V10.0607V10.0624V10.0641V10.0658V10.0676V10.0694V10.0712V10.073V10.0749V10.0768V10.0787V10.0806V10.0826V10.0846V10.0866V10.0886V10.0907V10.0928V10.0949V10.0971V10.0992V10.1014V10.1036V10.1059V10.1082V10.1105V10.1128V10.1151V10.1175V10.1199V10.1223V10.1248V10.1273V10.1298V10.1323V10.1349V10.1375V10.1401V10.1427V10.1454V10.1481V10.1508V10.1536V10.1564V10.1592V10.162V10.1649V10.1677V10.1707V10.1736V10.1766V10.1796V10.1826V10.1857V10.1887V10.1919V10.195V10.1982V10.2014V10.2046V10.2078V10.2111V10.2144V10.2178V10.2211V10.2245V10.2279V10.2314V10.2349V10.2384V10.2419V10.2455V10.2491V10.2527V10.2563V10.26V10.2637V10.2675V10.2713V10.2751V10.2789V10.2827V10.2866V10.2905V10.2945V10.2985V10.3025V10.3065V10.3106V10.3147V10.3188V10.323V10.3272V10.3314V10.3356V10.3399V10.3442V10.3486V10.3529V10.3573V10.3618V10.3662V10.3707V10.3752V10.3798V10.3844V10.389V10.3936V10.3983V10.403V10.4078V10.4126V10.4174V10.4222V10.4271V10.432V10.4369V10.4419V10.4469V10.4519V10.4569V10.462V10.4672V10.4723V10.4775V10.4827V10.488V10.4933V10.4986V10.5039V10.5093V10.5147V10.5202V10.5257V10.5312V10.5367V10.5423V10.5479V10.5535V10.5592V10.5649V10.5707V10.5765V10.5823V10.5881V10.594V10.5999V10.6059V10.6118V10.6178V10.6239V10.63V10.6361V10.6422V10.6484V10.6546V10.6609V10.6672V10.6735V10.6798V10.6862V10.6926V10.6991V10.7056V10.7121V10.7187V10.7253V10.7319V10.7386V10.7453V10.752V10.7588V10.7656V10.7724V10.7793V10.7862V10.7932V10.8001V10.8072V10.8142V10.8213V10.8284V10.8356V10.8428V10.85V10.8573V10.8646V10.8719V10.8793V10.8867V10.8942V10.9016V10.9092V10.9167V10.9243V10.932V10.9396V10.9473V10.9551V10.9628V10.9707V10.9785V10.9864V10.9943V11.0023V11.0103V11.0183V11.0264V11.0345V11.0427V11.0508V11.0591V11.0673V11.0756V11.084V11.0923V11.1007V11.1092V11.1177V11.1262V11.1348V11.1434V11.152V11.1607V11.1694V11.1782V11.187V11.1958V11.2047V11.2136V11.2225V11.2315V11.2405V11.2496V11.2587V11.2678V11.277V11.2863V11.2955V11.3048V11.3142V11.3235V11.3329V11.3424V11.3519V11.3614V11.371V11.3806V11.3903V11.4V11.4097V11.4195V11.4293V11.4392V11.4491V11.459V11.469V11.479V11.489V11.4991V11.5093V11.5195V11.5297V11.5399V11.5502V11.5606V11.571V11.5814V11.5919V11.6024V11.6129V11.6235V11.6341V11.6448V11.6555V11.6663V11.6771V11.6879V11.6988V11.7097V11.7206V11.7317V11.7427V11.7538V11.7649V11.7761V11.7873V11.7986V11.8099V11.8212V11.8326V11.844V11.8555V11.867V11.8785V11.8901V11.9018V11.9134V11.9252V11.9369V11.9487V11.9606V11.9725V11.9844V11.9964V12.0084V12.0205V12.0326V12.0448V12.057V12.0692V12.0815V12.0938V12.1062V12.1186V12.1311V12.1436V12.1562V12.1687V12.1814V12.1941V12.2068V12.2196V12.2324V12.2452V12.2581V12.2711V12.2841V12.2971V12.3102V12.3233V12.3365V12.3497V12.363V12.3763V12.3897V12.4031V12.4165V12.43V12.4435V12.4571V12.4707V12.4844V12.4981V12.5119V12.5257V12.5395V12.5534V12.5674V12.5814V12.5954V12.6095V12.6236V12.6378V12.652V12.6663V12.6806V12.695V12.7094V12.7238V12.7383V12.7529V12.7675V12.7821V12.7968V12.8116V12.8263V12.8412V12.856V12.871V12.8859V12.901V12.916V12.9311V12.9463V12.9615V12.9768V12.9921V13.0074V13.0228V13.0383V13.0538V13.0693V13.0849V13.1005V13.1162V13.132V13.1478V13.1636V13.1795V13.1954V13.2114V13.2274V13.2435V13.2596V13.2758V13.292V13.3083V13.3246V13.341V13.3574V13.3739V13.3904V13.4069V13.4236V13.4402V13.4569V13.4737V13.4905V13.5074V13.5243V13.5413V13.5583V13.5753V13.5925V13.6096V13.6268V13.6441V13.6614V13.6788V13.6962V13.7137V13.7312V13.7487V13.7663V13.784V13.8017V13.8195V13.8373V13.8552V13.8731V13.8911V13.9091V13.9272V13.9453V13.9635V13.9817V14C10.75 14.4142 10.4142 14.75 10 14.75C9.58579 14.75 9.25 14.4142 9.25 14V13.9817V13.9635V13.9453V13.9272V13.9091V13.8911V13.8731V13.8552V13.8373V13.8195V13.8017V13.784V13.7663V13.7487V13.7312V13.7137V13.6962V13.6788V13.6614V13.6441V13.6268V13.6096V13.5925V13.5753V13.5583V13.5413V13.5243V13.5074V13.4905V13.4737V13.4569V13.4402V13.4236V13.4069V13.3904V13.3739V13.3574V13.341V13.3246V13.3083V13.292V13.2758V13.2596V13.2435V13.2274V13.2114V13.1954V13.1795V13.1636V13.1478V13.132V13.1162V13.1005V13.0849V13.0693V13.0538V13.0383V13.0228V13.0074V12.9921V12.9768V12.9615V12.9463V12.9311V12.916V12.901V12.8859V12.871V12.856V12.8412V12.8263V12.8116V12.7968V12.7821V12.7675V12.7529V12.7383V12.7238V12.7094V12.695V12.6806V12.6663V12.652V12.6378V12.6236V12.6095V12.5954V12.5814V12.5674V12.5534V12.5395V12.5257V12.5119V12.4981V12.4844V12.4707V12.4571V12.4435V12.43V12.4165V12.4031V12.3897V12.3763V12.363V12.3497V12.3365V12.3233V12.3102V12.2971V12.2841V12.2711V12.2581V12.2452V12.2324V12.2196V12.2068V12.1941V12.1814V12.1687V12.1562V12.1436V12.1311V12.1186V12.1062V12.0938V12.0815V12.0692V12.057V12.0448V12.0326V12.0205V12.0084V11.9964V11.9844V11.9725V11.9606V11.9487V11.9369V11.9252V11.9134V11.9018V11.8901V11.8785V11.867V11.8555V11.844V11.8326V11.8212V11.8099V11.7986V11.7873V11.7761V11.7649V11.7538V11.7427V11.7317V11.7206V11.7097V11.6988V11.6879V11.6771V11.6663V11.6555V11.6448V11.6341V11.6235V11.6129V11.6024V11.5919V11.5814V11.571V11.5606V11.5502V11.5399V11.5297V11.5195V11.5093V11.4991V11.489V11.479V11.469V11.459V11.4491V11.4392V11.4293V11.4195V11.4097V11.4V11.3903V11.3806V11.371V11.3614V11.3519V11.3424V11.3329V11.3235V11.3142V11.3048V11.2955V11.2863V11.277V11.2678V11.2587V11.2496V11.2405V11.2315V11.2225V11.2136V11.2047V11.1958V11.187V11.1782V11.1694V11.1607V11.152V11.1434V11.1348V11.1262V11.1177V11.1092V11.1007V11.0923V11.084V11.0756V11.0673V11.0591V11.0508V11.0427V11.0345V11.0264V11.0183V11.0103V11.0023V10.9943V10.9864V10.9785V10.9707V10.9628V10.9551V10.9473V10.9396V10.932V10.9243V10.9167V10.9092V10.9016V10.8942V10.8867V10.8793V10.8719V10.8646V10.8573V10.85V10.8428V10.8356V10.8284V10.8213V10.8142V10.8072V10.8001V10.7932V10.7862V10.7793V10.7724V10.7656V10.7588V10.752V10.7453V10.7386V10.7319V10.7253V10.7187V10.7121V10.7056V10.6991V10.6926V10.6862V10.6798V10.6735V10.6672V10.6609V10.6546V10.6484V10.6422V10.6361V10.63V10.6239V10.6178V10.6118V10.6059V10.5999V10.594V10.5881V10.5823V10.5765V10.5707V10.5649V10.5592V10.5535V10.5479V10.5423V10.5367V10.5312V10.5257V10.5202V10.5147V10.5093V10.5039V10.4986V10.4933V10.488V10.4827V10.4775V10.4723V10.4672V10.462V10.4569V10.4519V10.4469V10.4419V10.4369V10.432V10.4271V10.4222V10.4174V10.4126V10.4078V10.403V10.3983V10.3936V10.389V10.3844V10.3798V10.3752V10.3707V10.3662V10.3618V10.3573V10.3529V10.3486V10.3442V10.3399V10.3356V10.3314V10.3272V10.323V10.3188V10.3147V10.3106V10.3065V10.3025V10.2985V10.2945V10.2905V10.2866V10.2827V10.2789V10.2751V10.2713V10.2675V10.2637V10.26V10.2563V10.2527V10.2491V10.2455V10.2419V10.2384V10.2349V10.2314V10.2279V10.2245V10.2211V10.2178V10.2144V10.2111V10.2078V10.2046V10.2014V10.1982V10.195V10.1919V10.1887V10.1857V10.1826V10.1796V10.1766V10.1736V10.1707V10.1677V10.1649V10.162V10.1592V10.1564V10.1536V10.1508V10.1481V10.1454V10.1427V10.1401V10.1375V10.1349V10.1323V10.1298V10.1273V10.1248V10.1223V10.1199V10.1175V10.1151V10.1128V10.1105V10.1082V10.1059V10.1036V10.1014V10.0992V10.0971V10.0949V10.0928V10.0907V10.0886V10.0866V10.0846V10.0826V10.0806V10.0787V10.0768V10.0749V10.073V10.0712V10.0694V10.0676V10.0658V10.0641V10.0624V10.0607V10.059V10.0574V10.0558V10.0542V10.0526V10.0511V10.0496V10.0481V10.0466V10.0452V10.0437V10.0423V10.041V10.0396V10.0383V10.037V10.0357V10.0345V10.0332V10.032V10.0308V10.0297V10.0285V10.0274V10.0263V10.0253V10.0242V10.0232V10.0222V10.0212V10.0203V10.0193V10.0184V10.0176V10.0167V10.0159V10.015V10.0142V10.0135V10.0127V10.012V10.0113V10.0106V10.0099V10.0093V10.0087V10.0081V10.0075V10.007V10.0064V10.0059V10.0054V10.005V10.0045V10.0041V10.0037V10.0033V10.0029V10.0026V10.0023V10.002V10.0017V10.0015V10.0012V10.001V10.0008V10.0006V10.0005V10.0004V10.0003V10.0002V10.0001V10V10C9.25 9.58579 9.58579 9.25 10 9.25ZM14 9.25C14.4142 9.25 14.75 9.58579 14.75 10V10V10.0001V10.0002V10.0003V10.0004V10.0005V10.0006V10.0008V10.001V10.0012V10.0015V10.0017V10.002V10.0023V10.0026V10.0029V10.0033V10.0037V10.0041V10.0045V10.005V10.0054V10.0059V10.0064V10.007V10.0075V10.0081V10.0087V10.0093V10.0099V10.0106V10.0113V10.012V10.0127V10.0135V10.0142V10.015V10.0159V10.0167V10.0176V10.0184V10.0193V10.0203V10.0212V10.0222V10.0232V10.0242V10.0253V10.0263V10.0274V10.0285V10.0297V10.0308V10.032V10.0332V10.0345V10.0357V10.037V10.0383V10.0396V10.041V10.0423V10.0437V10.0452V10.0466V10.0481V10.0496V10.0511V10.0526V10.0542V10.0558V10.0574V10.059V10.0607V10.0624V10.0641V10.0658V10.0676V10.0694V10.0712V10.073V10.0749V10.0768V10.0787V10.0806V10.0826V10.0846V10.0866V10.0886V10.0907V10.0928V10.0949V10.0971V10.0992V10.1014V10.1036V10.1059V10.1082V10.1105V10.1128V10.1151V10.1175V10.1199V10.1223V10.1248V10.1273V10.1298V10.1323V10.1349V10.1375V10.1401V10.1427V10.1454V10.1481V10.1508V10.1536V10.1564V10.1592V10.162V10.1649V10.1677V10.1707V10.1736V10.1766V10.1796V10.1826V10.1857V10.1887V10.1919V10.195V10.1982V10.2014V10.2046V10.2078V10.2111V10.2144V10.2178V10.2211V10.2245V10.2279V10.2314V10.2349V10.2384V10.2419V10.2455V10.2491V10.2527V10.2563V10.26V10.2637V10.2675V10.2713V10.2751V10.2789V10.2827V10.2866V10.2905V10.2945V10.2985V10.3025V10.3065V10.3106V10.3147V10.3188V10.323V10.3272V10.3314V10.3356V10.3399V10.3442V10.3486V10.3529V10.3573V10.3618V10.3662V10.3707V10.3752V10.3798V10.3844V10.389V10.3936V10.3983V10.403V10.4078V10.4126V10.4174V10.4222V10.4271V10.432V10.4369V10.4419V10.4469V10.4519V10.4569V10.462V10.4672V10.4723V10.4775V10.4827V10.488V10.4933V10.4986V10.5039V10.5093V10.5147V10.5202V10.5257V10.5312V10.5367V10.5423V10.5479V10.5535V10.5592V10.5649V10.5707V10.5765V10.5823V10.5881V10.594V10.5999V10.6059V10.6118V10.6178V10.6239V10.63V10.6361V10.6422V10.6484V10.6546V10.6609V10.6672V10.6735V10.6798V10.6862V10.6926V10.6991V10.7056V10.7121V10.7187V10.7253V10.7319V10.7386V10.7453V10.752V10.7588V10.7656V10.7724V10.7793V10.7862V10.7932V10.8001V10.8072V10.8142V10.8213V10.8284V10.8356V10.8428V10.85V10.8573V10.8646V10.8719V10.8793V10.8867V10.8942V10.9016V10.9092V10.9167V10.9243V10.932V10.9396V10.9473V10.9551V10.9628V10.9707V10.9785V10.9864V10.9943V11.0023V11.0103V11.0183V11.0264V11.0345V11.0427V11.0508V11.0591V11.0673V11.0756V11.084V11.0923V11.1007V11.1092V11.1177V11.1262V11.1348V11.1434V11.152V11.1607V11.1694V11.1782V11.187V11.1958V11.2047V11.2136V11.2225V11.2315V11.2405V11.2496V11.2587V11.2678V11.277V11.2863V11.2955V11.3048V11.3142V11.3235V11.3329V11.3424V11.3519V11.3614V11.371V11.3806V11.3903V11.4V11.4097V11.4195V11.4293V11.4392V11.4491V11.459V11.469V11.479V11.489V11.4991V11.5093V11.5195V11.5297V11.5399V11.5502V11.5606V11.571V11.5814V11.5919V11.6024V11.6129V11.6235V11.6341V11.6448V11.6555V11.6663V11.6771V11.6879V11.6988V11.7097V11.7206V11.7317V11.7427V11.7538V11.7649V11.7761V11.7873V11.7986V11.8099V11.8212V11.8326V11.844V11.8555V11.867V11.8785V11.8901V11.9018V11.9134V11.9252V11.9369V11.9487V11.9606V11.9725V11.9844V11.9964V12.0084V12.0205V12.0326V12.0448V12.057V12.0692V12.0815V12.0938V12.1062V12.1186V12.1311V12.1436V12.1562V12.1687V12.1814V12.1941V12.2068V12.2196V12.2324V12.2452V12.2581V12.2711V12.2841V12.2971V12.3102V12.3233V12.3365V12.3497V12.363V12.3763V12.3897V12.4031V12.4165V12.43V12.4435V12.4571V12.4707V12.4844V12.4981V12.5119V12.5257V12.5395V12.5534V12.5674V12.5814V12.5954V12.6095V12.6236V12.6378V12.652V12.6663V12.6806V12.695V12.7094V12.7238V12.7383V12.7529V12.7675V12.7821V12.7968V12.8116V12.8263V12.8412V12.856V12.871V12.8859V12.901V12.916V12.9311V12.9463V12.9615V12.9768V12.9921V13.0074V13.0228V13.0383V13.0538V13.0693V13.0849V13.1005V13.1162V13.132V13.1478V13.1636V13.1795V13.1954V13.2114V13.2274V13.2435V13.2596V13.2758V13.292V13.3083V13.3246V13.341V13.3574V13.3739V13.3904V13.4069V13.4236V13.4402V13.4569V13.4737V13.4905V13.5074V13.5243V13.5413V13.5583V13.5753V13.5925V13.6096V13.6268V13.6441V13.6614V13.6788V13.6962V13.7137V13.7312V13.7487V13.7663V13.784V13.8017V13.8195V13.8373V13.8552V13.8731V13.8911V13.9091V13.9272V13.9453V13.9635V13.9817V14C14.75 14.4142 14.4142 14.75 14 14.75C13.5858 14.75 13.25 14.4142 13.25 14V13.9817V13.9635V13.9453V13.9272V13.9091V13.8911V13.8731V13.8552V13.8373V13.8195V13.8017V13.784V13.7663V13.7487V13.7312V13.7137V13.6962V13.6788V13.6614V13.6441V13.6268V13.6096V13.5925V13.5753V13.5583V13.5413V13.5243V13.5074V13.4905V13.4737V13.4569V13.4402V13.4236V13.4069V13.3904V13.3739V13.3574V13.341V13.3246V13.3083V13.292V13.2758V13.2596V13.2435V13.2274V13.2114V13.1954V13.1795V13.1636V13.1478V13.132V13.1162V13.1005V13.0849V13.0693V13.0538V13.0383V13.0228V13.0074V12.9921V12.9768V12.9615V12.9463V12.9311V12.916V12.901V12.8859V12.871V12.856V12.8412V12.8263V12.8116V12.7968V12.7821V12.7675V12.7529V12.7383V12.7238V12.7094V12.695V12.6806V12.6663V12.652V12.6378V12.6236V12.6095V12.5954V12.5814V12.5674V12.5534V12.5395V12.5257V12.5119V12.4981V12.4844V12.4707V12.4571V12.4435V12.43V12.4165V12.4031V12.3897V12.3763V12.363V12.3497V12.3365V12.3233V12.3102V12.2971V12.2841V12.2711V12.2581V12.2452V12.2324V12.2196V12.2068V12.1941V12.1814V12.1687V12.1562V12.1436V12.1311V12.1186V12.1062V12.0938V12.0815V12.0692V12.057V12.0448V12.0326V12.0205V12.0084V11.9964V11.9844V11.9725V11.9606V11.9487V11.9369V11.9252V11.9134V11.9018V11.8901V11.8785V11.867V11.8555V11.844V11.8326V11.8212V11.8099V11.7986V11.7873V11.7761V11.7649V11.7538V11.7427V11.7317V11.7206V11.7097V11.6988V11.6879V11.6771V11.6663V11.6555V11.6448V11.6341V11.6235V11.6129V11.6024V11.5919V11.5814V11.571V11.5606V11.5502V11.5399V11.5297V11.5195V11.5093V11.4991V11.489V11.479V11.469V11.459V11.4491V11.4392V11.4293V11.4195V11.4097V11.4V11.3903V11.3806V11.371V11.3614V11.3519V11.3424V11.3329V11.3235V11.3142V11.3048V11.2955V11.2863V11.277V11.2678V11.2587V11.2496V11.2405V11.2315V11.2225V11.2136V11.2047V11.1958V11.187V11.1782V11.1694V11.1607V11.152V11.1434V11.1348V11.1262V11.1177V11.1092V11.1007V11.0923V11.084V11.0756V11.0673V11.0591V11.0508V11.0427V11.0345V11.0264V11.0183V11.0103V11.0023V10.9943V10.9864V10.9785V10.9707V10.9628V10.9551V10.9473V10.9396V10.932V10.9243V10.9167V10.9092V10.9016V10.8942V10.8867V10.8793V10.8719V10.8646V10.8573V10.85V10.8428V10.8356V10.8284V10.8213V10.8142V10.8072V10.8001V10.7932V10.7862V10.7793V10.7724V10.7656V10.7588V10.752V10.7453V10.7386V10.7319V10.7253V10.7187V10.7121V10.7056V10.6991V10.6926V10.6862V10.6798V10.6735V10.6672V10.6609V10.6546V10.6484V10.6422V10.6361V10.63V10.6239V10.6178V10.6118V10.6059V10.5999V10.594V10.5881V10.5823V10.5765V10.5707V10.5649V10.5592V10.5535V10.5479V10.5423V10.5367V10.5312V10.5257V10.5202V10.5147V10.5093V10.5039V10.4986V10.4933V10.488V10.4827V10.4775V10.4723V10.4672V10.462V10.4569V10.4519V10.4469V10.4419V10.4369V10.432V10.4271V10.4222V10.4174V10.4126V10.4078V10.403V10.3983V10.3936V10.389V10.3844V10.3798V10.3752V10.3707V10.3662V10.3618V10.3573V10.3529V10.3486V10.3442V10.3399V10.3356V10.3314V10.3272V10.323V10.3188V10.3147V10.3106V10.3065V10.3025V10.2985V10.2945V10.2905V10.2866V10.2827V10.2789V10.2751V10.2713V10.2675V10.2637V10.26V10.2563V10.2527V10.2491V10.2455V10.2419V10.2384V10.2349V10.2314V10.2279V10.2245V10.2211V10.2178V10.2144V10.2111V10.2078V10.2046V10.2014V10.1982V10.195V10.1919V10.1887V10.1857V10.1826V10.1796V10.1766V10.1736V10.1707V10.1677V10.1649V10.162V10.1592V10.1564V10.1536V10.1508V10.1481V10.1454V10.1427V10.1401V10.1375V10.1349V10.1323V10.1298V10.1273V10.1248V10.1223V10.1199V10.1175V10.1151V10.1128V10.1105V10.1082V10.1059V10.1036V10.1014V10.0992V10.0971V10.0949V10.0928V10.0907V10.0886V10.0866V10.0846V10.0826V10.0806V10.0787V10.0768V10.0749V10.073V10.0712V10.0694V10.0676V10.0658V10.0641V10.0624V10.0607V10.059V10.0574V10.0558V10.0542V10.0526V10.0511V10.0496V10.0481V10.0466V10.0452V10.0437V10.0423V10.041V10.0396V10.0383V10.037V10.0357V10.0345V10.0332V10.032V10.0308V10.0297V10.0285V10.0274V10.0263V10.0253V10.0242V10.0232V10.0222V10.0212V10.0203V10.0193V10.0184V10.0176V10.0167V10.0159V10.015V10.0142V10.0135V10.0127V10.012V10.0113V10.0106V10.0099V10.0093V10.0087V10.0081V10.0075V10.007V10.0064V10.0059V10.0054V10.005V10.0045V10.0041V10.0037V10.0033V10.0029V10.0026V10.0023V10.002V10.0017V10.0015V10.0012V10.001V10.0008V10.0006V10.0005V10.0004V10.0003V10.0002V10.0001V10V10C13.25 9.58579 13.5858 9.25 14 9.25Z" fill="#272727"/>
</svg>
