<svg width="24" height="24" viewBox="0 0 24 24" fill="none" xmlns="http://www.w3.org/2000/svg">
<path fill-rule="evenodd" clip-rule="evenodd" d="M12 0C5.37258 0 0 5.37258 0 12C0 18.6274 5.37258 24 12 24C18.6274 24 24 18.6274 24 12C24 5.37258 18.6274 0 12 0ZM11.5263 4.38932C11.2976 4.22629 10.9971 4.20467 10.7474 4.33327C10.4978 4.46188 10.3409 4.71918 10.3409 5V10.4124L7.44401 8.28444C7.11018 8.03922 6.64077 8.11105 6.39555 8.44488C6.15033 8.77871 6.22217 9.24812 6.55599 9.49334L9.96842 12L6.55599 14.5067C6.22217 14.7519 6.15033 15.2213 6.39555 15.5551C6.64077 15.8889 7.11018 15.9608 7.44401 15.7156L10.3409 13.5876V19C10.3409 19.2808 10.4978 19.5381 10.7474 19.6667C10.9971 19.7953 11.2976 19.7737 11.5263 19.6107L16.4354 16.1107C16.6313 15.971 16.7483 15.7459 16.75 15.5053C16.7517 15.2648 16.6379 15.038 16.444 14.8956L12.5022 12L16.444 9.10445C16.6379 8.96203 16.7517 8.73525 16.75 8.49468C16.7483 8.25412 16.6313 8.02897 16.4354 7.88932L11.5263 4.38932ZM14.7208 15.4909L11.8409 13.3755V17.5442L14.7208 15.4909ZM11.8409 6.45582V10.6245L14.7208 8.50907L11.8409 6.45582Z" fill="#272727"/>
</svg>
