<svg width="24" height="24" viewBox="0 0 24 24" fill="none" xmlns="http://www.w3.org/2000/svg">
<path fill-rule="evenodd" clip-rule="evenodd" d="M7.17678 2.76256C7.50497 2.43437 7.95008 2.25 8.41421 2.25H17.5858C18.0499 2.25 18.495 2.43437 18.8232 2.76256L20.9445 4.88388C21.4603 5.39961 21.75 6.09908 21.75 6.82843V19C21.75 20.5188 20.5188 21.75 19 21.75H7C5.48122 21.75 4.25 20.5188 4.25 19V6.82843C4.25 6.09908 4.53973 5.39961 5.05546 4.88388L7.17678 2.76256ZM8.41421 3.75C8.34791 3.75 8.28432 3.77634 8.23744 3.82322L6.11612 5.94454C6.09811 5.96255 6.08072 5.98104 6.06394 6H19.9361C19.9193 5.98104 19.9019 5.96255 19.8839 5.94454L17.7626 3.82322C17.7157 3.77634 17.6521 3.75 17.5858 3.75H8.41421ZM10.75 10C10.75 9.58579 10.4142 9.25 10 9.25C9.58579 9.25 9.25 9.58579 9.25 10C9.25 12.0711 10.9289 13.75 13 13.75C15.0711 13.75 16.75 12.0711 16.75 10C16.75 9.58579 16.4142 9.25 16 9.25C15.5858 9.25 15.25 9.58579 15.25 10C15.25 11.2426 14.2426 12.25 13 12.25C11.7574 12.25 10.75 11.2426 10.75 10Z" fill="#272727"/>
</svg>
