<svg width="24" height="24" viewBox="0 0 24 24" fill="none" xmlns="http://www.w3.org/2000/svg">
<path fill-rule="evenodd" clip-rule="evenodd" d="M12 0C5.37258 0 0 5.37258 0 12C0 18.6274 5.37258 24 12 24C18.6274 24 24 18.6274 24 12C24 5.37258 18.6274 0 12 0ZM15 7.875C15 7.25368 15.5037 6.75 16.125 6.75C16.7463 6.75 17.25 7.25368 17.25 7.875C17.25 8.49632 16.7463 9 16.125 9H15V7.875ZM16.125 10.5H15V13.5H16.125C17.5747 13.5 18.75 14.6753 18.75 16.125C18.75 17.5747 17.5747 18.75 16.125 18.75C14.6753 18.75 13.5 17.5747 13.5 16.125V15H10.5V16.125C10.5 17.5747 9.32475 18.75 7.875 18.75C6.42525 18.75 5.25 17.5747 5.25 16.125C5.25 14.6753 6.42525 13.5 7.875 13.5H9V10.5H7.875C6.42525 10.5 5.25 9.32475 5.25 7.875C5.25 6.42525 6.42525 5.25 7.875 5.25C9.32475 5.25 10.5 6.42525 10.5 7.875V9H13.5V7.875C13.5 6.42525 14.6753 5.25 16.125 5.25C17.5747 5.25 18.75 6.42525 18.75 7.875C18.75 9.32475 17.5747 10.5 16.125 10.5ZM15 16.125V15H16.125C16.7463 15 17.25 15.5037 17.25 16.125C17.25 16.7463 16.7463 17.25 16.125 17.25C15.5037 17.25 15 16.7463 15 16.125ZM7.875 15H9V16.125C9 16.7463 8.49632 17.25 7.875 17.25C7.25368 17.25 6.75 16.7463 6.75 16.125C6.75 15.5037 7.25368 15 7.875 15ZM10.5 10.5H13.5V13.5H10.5V10.5ZM9 7.875V9H7.875C7.25368 9 6.75 8.49632 6.75 7.875C6.75 7.25368 7.25368 6.75 7.875 6.75C8.49632 6.75 9 7.25368 9 7.875Z" fill="#272727"/>
</svg>
