<svg width="24" height="24" viewBox="0 0 24 24" fill="none" xmlns="http://www.w3.org/2000/svg">
<path fill-rule="evenodd" clip-rule="evenodd" d="M4.5 3H19.5C20.8807 3 22 4.11929 22 5.5V14.6818C22 16.0625 20.8807 17.1818 19.5 17.1818H12.2214C12.0055 17.1818 11.7955 17.2517 11.6226 17.3809L6.24384 21.4023C5.91413 21.6488 5.44444 21.4136 5.44444 21.0019V17.1818H4.5C3.11929 17.1818 2 16.0625 2 14.6818V5.5C2 4.11929 3.11929 3 4.5 3ZM7 7.25C6.58579 7.25 6.25 7.58579 6.25 8C6.25 8.41421 6.58579 8.75 7 8.75H17C17.4142 8.75 17.75 8.41421 17.75 8C17.75 7.58579 17.4142 7.25 17 7.25H7ZM7 11.25C6.58579 11.25 6.25 11.5858 6.25 12C6.25 12.4142 6.58579 12.75 7 12.75H13C13.4142 12.75 13.75 12.4142 13.75 12C13.75 11.5858 13.4142 11.25 13 11.25H7Z" fill="#272727"/>
</svg>
