<svg width="24" height="24" viewBox="0 0 24 24" fill="none" xmlns="http://www.w3.org/2000/svg">
<path fill-rule="evenodd" clip-rule="evenodd" d="M2 6C2 3.79086 3.79086 2 6 2H14C15.9002 2 17.4909 3.32493 17.8987 5.10135C17.6098 5.03503 17.309 5 17 5H9C6.79086 5 5 6.79086 5 9V17C5 17.309 5.03503 17.6098 5.10135 17.8987C3.32493 17.4909 2 15.9002 2 14V6ZM6 9C6 7.34315 7.34315 6 9 6H19C20.6569 6 22 7.34315 22 9V19C22 20.6569 20.6569 22 19 22H9C7.34315 22 6 20.6569 6 19V9ZM14 10.25C14.4142 10.25 14.75 10.5858 14.75 11V13.25H17C17.4142 13.25 17.75 13.5858 17.75 14C17.75 14.4142 17.4142 14.75 17 14.75H14.75V17C14.75 17.4142 14.4142 17.75 14 17.75C13.5858 17.75 13.25 17.4142 13.25 17V14.75H11C10.5858 14.75 10.25 14.4142 10.25 14C10.25 13.5858 10.5858 13.25 11 13.25H13.25V11C13.25 10.5858 13.5858 10.25 14 10.25Z" fill="#272727"/>
</svg>
