<svg width="24" height="24" viewBox="0 0 24 24" fill="none" xmlns="http://www.w3.org/2000/svg">
<path fill-rule="evenodd" clip-rule="evenodd" d="M3 15.2071V20C3 20.5523 3.44771 21 4 21H8.79289C8.9255 21 9.05268 20.9473 9.14645 20.8535L18.4697 11.5303L12.4697 5.5303L3.14645 14.8535C3.05268 14.9473 3 15.0745 3 15.2071ZM13.5303 4.46964L19.5303 10.4696L21.2929 8.70708C21.6834 8.31655 21.6834 7.68339 21.2929 7.29286L16.7071 2.70708C16.3166 2.31655 15.6834 2.31655 15.2929 2.70708L13.5303 4.46964ZM13.5303 11.5303C13.8232 11.2374 13.8232 10.7626 13.5303 10.4697C13.2374 10.1768 12.7626 10.1768 12.4697 10.4697L7.46967 15.4697C7.17677 15.7626 7.17677 16.2374 7.46967 16.5303C7.76256 16.8232 8.23743 16.8232 8.53033 16.5303L13.5303 11.5303Z" fill="#272727"/>
</svg>
