<svg width="24" height="24" viewBox="0 0 24 24" fill="none" xmlns="http://www.w3.org/2000/svg">
<path fill-rule="evenodd" clip-rule="evenodd" d="M6 0C2.68629 0 0 2.68629 0 6V18C0 21.3137 2.68629 24 6 24H18C21.3137 24 24 21.3137 24 18V6C24 2.68629 21.3137 0 18 0H6ZM6 3.25C4.48122 3.25 3.25 4.48122 3.25 6V8.36364C3.25 8.77785 3.58579 9.11364 4 9.11364C4.41421 9.11364 4.75 8.77785 4.75 8.36364V6C4.75 5.30964 5.30964 4.75 6 4.75H8.36364C8.77785 4.75 9.11364 4.41421 9.11364 4C9.11364 3.58579 8.77785 3.25 8.36364 3.25H6ZM15.6364 3.25C15.2222 3.25 14.8864 3.58579 14.8864 4C14.8864 4.41421 15.2222 4.75 15.6364 4.75H18C18.6904 4.75 19.25 5.30964 19.25 6V8.36364C19.25 8.77785 19.5858 9.11364 20 9.11364C20.4142 9.11364 20.75 8.77785 20.75 8.36364V6C20.75 4.48122 19.5188 3.25 18 3.25H15.6364ZM8.75 8.5C8.75 8.08579 8.41421 7.75 8 7.75C7.58579 7.75 7.25 8.08579 7.25 8.5V10.5C7.25 10.9142 7.58579 11.25 8 11.25C8.41421 11.25 8.75 10.9142 8.75 10.5V8.5ZM12.75 8.5C12.75 8.08579 12.4142 7.75 12 7.75C11.5858 7.75 11.25 8.08579 11.25 8.5V13C11.25 13.1381 11.1381 13.25 11 13.25H10C9.58579 13.25 9.25 13.5858 9.25 14C9.25 14.4142 9.58579 14.75 10 14.75H11C11.9665 14.75 12.75 13.9665 12.75 13V8.5ZM16.75 8.5C16.75 8.08579 16.4142 7.75 16 7.75C15.5858 7.75 15.25 8.08579 15.25 8.5V10.5C15.25 10.9142 15.5858 11.25 16 11.25C16.4142 11.25 16.75 10.9142 16.75 10.5V8.5ZM4.75 15.6364C4.75 15.2222 4.41421 14.8864 4 14.8864C3.58579 14.8864 3.25 15.2222 3.25 15.6364V18C3.25 19.5188 4.48122 20.75 6 20.75H8.36364C8.77785 20.75 9.11364 20.4142 9.11364 20C9.11364 19.5858 8.77785 19.25 8.36364 19.25H6C5.30964 19.25 4.75 18.6904 4.75 18V15.6364ZM20.75 15.6364C20.75 15.2222 20.4142 14.8864 20 14.8864C19.5858 14.8864 19.25 15.2222 19.25 15.6364V18C19.25 18.6904 18.6904 19.25 18 19.25H15.6364C15.2222 19.25 14.8864 19.5858 14.8864 20C14.8864 20.4142 15.2222 20.75 15.6364 20.75H18C19.5188 20.75 20.75 19.5188 20.75 18V15.6364ZM9.49788 16.4391C9.1881 16.1641 8.71407 16.1923 8.43909 16.5021C8.16412 16.8119 8.19234 17.2859 8.50212 17.5609C9.34993 18.3135 10.6285 18.75 12 18.75C13.3715 18.75 14.6501 18.3135 15.4979 17.5609C15.8077 17.2859 15.8359 16.8119 15.5609 16.5021C15.2859 16.1923 14.8119 16.1641 14.5021 16.4391C13.9817 16.901 13.082 17.25 12 17.25C10.918 17.25 10.0183 16.901 9.49788 16.4391Z" fill="#272727"/>
</svg>
