<svg width="24" height="24" viewBox="0 0 24 24" fill="none" xmlns="http://www.w3.org/2000/svg">
<path fill-rule="evenodd" clip-rule="evenodd" d="M6 2.75C5.58579 2.75 5.25 3.08579 5.25 3.5C5.25 3.91421 5.58579 4.25 6 4.25H18C18.4142 4.25 18.75 3.91421 18.75 3.5C18.75 3.08579 18.4142 2.75 18 2.75H6ZM4 5.25C3.58579 5.25 3.25 5.58579 3.25 6C3.25 6.41421 3.58579 6.75 4 6.75H20C20.4142 6.75 20.75 6.41421 20.75 6C20.75 5.58579 20.4142 5.25 20 5.25H4ZM3 8C1.89543 8 1 8.89543 1 10V22C1 23.1046 1.89543 24 3 24H21C22.1046 24 23 23.1046 23 22V10C23 8.89543 22.1046 8 21 8H3Z" fill="#272727"/>
</svg>
