<svg width="24" height="24" viewBox="0 0 24 24" fill="none" xmlns="http://www.w3.org/2000/svg">
<path fill-rule="evenodd" clip-rule="evenodd" d="M12 0C5.37258 0 0 5.37258 0 12C0 18.6274 5.37258 24 12 24C18.6274 24 24 18.6274 24 12C24 5.37258 18.6274 0 12 0ZM16.773 7.22724C15.6433 6.09756 13.8117 6.09756 12.682 7.22724L11.0457 8.86361C10.8197 9.08955 10.8197 9.45586 11.0457 9.6818C11.2716 9.90773 11.6379 9.90773 11.8638 9.6818L13.5002 8.04543C14.178 7.36762 15.277 7.36762 15.9548 8.04543C16.6325 8.72319 16.6325 9.82227 15.9546 10.5001L14.3184 12.1364C14.0925 12.3623 14.0925 12.7286 14.3184 12.9545C14.5443 13.1805 14.9106 13.1805 15.1366 12.9545L16.7728 11.3183C17.9025 10.1887 17.9027 8.35696 16.773 7.22724ZM14.5909 10.2273C14.8169 10.0013 14.8169 9.63502 14.5909 9.40909C14.365 9.18315 13.9987 9.18315 13.7728 9.40909L9.4091 13.7727C9.18317 13.9987 9.18317 14.365 9.4091 14.5909C9.63504 14.8169 10.0014 14.8169 10.2273 14.5909L14.5909 10.2273ZM9.68202 11.8636C9.90795 11.6377 9.90795 11.2714 9.68202 11.0454C9.45608 10.8195 9.08977 10.8195 8.86383 11.0454L7.22746 12.6818C6.09778 13.8115 6.09778 15.6431 7.22746 16.7727C8.35718 17.9025 10.1889 17.9022 11.3185 16.7726L12.9548 15.1364C13.1807 14.9104 13.1807 14.5441 12.9548 14.3182C12.7288 14.0922 12.3625 14.0922 12.1366 14.3182L10.5003 15.9544C9.82248 16.6323 8.72341 16.6323 8.04565 15.9545C7.36784 15.2767 7.36784 14.1778 8.04565 13.5L9.68202 11.8636Z" fill="#272727"/>
</svg>
