<svg width="24" height="24" viewBox="0 0 24 24" fill="none" xmlns="http://www.w3.org/2000/svg">
<path fill-rule="evenodd" clip-rule="evenodd" d="M12 1C9.23858 1 7 3.23858 7 6V10H6C4.89543 10 4 10.8954 4 12V20C4 22.2091 5.79086 24 8 24H16C18.2091 24 20 22.2091 20 20V12C20 10.8954 19.1046 10 18 10H17V6C17 3.23858 14.7614 1 12 1ZM15 10V6C15 4.34315 13.6569 3 12 3C10.3431 3 9 4.34315 9 6V10H15ZM14 17C14 18.1046 13.1046 19 12 19C10.8954 19 10 18.1046 10 17C10 15.8954 10.8954 15 12 15C13.1046 15 14 15.8954 14 17Z" fill="#272727"/>
</svg>
