<svg width="24" height="24" viewBox="0 0 24 24" fill="none" xmlns="http://www.w3.org/2000/svg">
<path fill-rule="evenodd" clip-rule="evenodd" d="M3.5 4C2.11929 4 1 5.11929 1 6.5V17.5C1 18.8807 2.11929 20 3.5 20H20.5C21.8807 20 23 18.8807 23 17.5V6.5C23 5.11929 21.8807 4 20.5 4H3.5ZM9.52986 11.4692L4.03033 5.96967C3.73744 5.67678 3.26256 5.67678 2.96967 5.96967C2.67678 6.26256 2.67678 6.73744 2.96967 7.03033L7.93934 12L2.96967 16.9697C2.67678 17.2626 2.67678 17.7374 2.96967 18.0303C3.26256 18.3232 3.73744 18.3232 4.03033 18.0303L9 13.0607L10.7626 14.8232C11.446 15.5066 12.554 15.5066 13.2374 14.8232L15 13.0607L19.9697 18.0303C20.2626 18.3232 20.7374 18.3232 21.0303 18.0303C21.3232 17.7374 21.3232 17.2626 21.0303 16.9697L16.0607 12L21.0303 7.03033C21.3232 6.73744 21.3232 6.26256 21.0303 5.96967C20.7374 5.67678 20.2626 5.67678 19.9697 5.96967L14.4699 11.4694L14.4697 11.4697L14.4694 11.4699L12.1768 13.7626C12.0791 13.8602 11.9209 13.8602 11.8232 13.7626L9.5308 11.4701L9.53033 11.4697L9.52986 11.4692Z" fill="#272727"/>
</svg>
