<svg width="25" height="24" viewBox="0 0 25 24" fill="none" xmlns="http://www.w3.org/2000/svg">
<path fill-rule="evenodd" clip-rule="evenodd" d="M25 5C25 6.65685 23.6569 8 22 8C20.3431 8 19 6.65685 19 5C19 3.34315 20.3431 2 22 2C23.6569 2 25 3.34315 25 5ZM23 8.87398C22.6804 8.95625 22.3453 9 22 9C21.1665 9 20.3925 8.74505 19.7518 8.30888L16.0607 12L21.0303 16.9697C21.3232 17.2626 21.3232 17.7374 21.0303 18.0303C20.7374 18.3232 20.2626 18.3232 19.9697 18.0303L15 13.0607L13.2374 14.8232C12.554 15.5066 11.446 15.5066 10.7626 14.8232L9 13.0607L4.03033 18.0303C3.73744 18.3232 3.26256 18.3232 2.96967 18.0303C2.67678 17.7374 2.67678 17.2626 2.96967 16.9697L7.93934 12L2.96967 7.03033C2.67678 6.73744 2.67678 6.26256 2.96967 5.96967C3.26256 5.67678 3.73744 5.67678 4.03033 5.96967L9.52986 11.4692L9.53033 11.4697L9.5308 11.4701L11.8232 13.7626C11.9209 13.8602 12.0791 13.8602 12.1768 13.7626L14.4691 11.4702L14.4697 11.4697L14.4702 11.4691L18.6911 7.24822C18.2549 6.60751 18 5.83353 18 5C18 4.6547 18.0438 4.31962 18.126 4H3.5C2.11929 4 1 5.11929 1 6.5V17.5C1 18.8807 2.11929 20 3.5 20H20.5C21.8807 20 23 18.8807 23 17.5V8.87398Z" fill="#272727"/>
</svg>
