<svg width="24" height="24" viewBox="0 0 24 24" fill="none" xmlns="http://www.w3.org/2000/svg">
<path fill-rule="evenodd" clip-rule="evenodd" d="M12 0C5.37258 0 0 5.37258 0 12C0 18.6274 5.37258 24 12 24C18.6274 24 24 18.6274 24 12C24 5.37258 18.6274 0 12 0ZM6 7.25C5.58579 7.25 5.25 7.58579 5.25 8C5.25 8.41421 5.58579 8.75 6 8.75H18C18.4142 8.75 18.75 8.41421 18.75 8C18.75 7.58579 18.4142 7.25 18 7.25H6ZM6 11.25C5.58579 11.25 5.25 11.5858 5.25 12C5.25 12.4142 5.58579 12.75 6 12.75H14C14.4142 12.75 14.75 12.4142 14.75 12C14.75 11.5858 14.4142 11.25 14 11.25H6ZM6 15.25C5.58579 15.25 5.25 15.5858 5.25 16C5.25 16.4142 5.58579 16.75 6 16.75H16C16.4142 16.75 16.75 16.4142 16.75 16C16.75 15.5858 16.4142 15.25 16 15.25H6Z" fill="#272727"/>
</svg>
