<svg width="24" height="24" viewBox="0 0 24 24" fill="none" xmlns="http://www.w3.org/2000/svg">
<path d="M17.1523 14.3507L21 13.6725V15.9577C21 18.8921 18.6257 20 17.0463 20C15.2655 20 13.9829 18.9021 13.9829 17.345C13.9829 15.8179 14.9899 14.7699 17.1523 14.3507Z" fill="#272727"/>
<path d="M10.6575 5.76033C10.2627 5.90425 10 6.27963 10 6.69984V10L20.9719 6.00002V2.18922C20.9719 2.09729 20.8805 2.03334 20.7942 2.06483L10.6575 5.76033Z" fill="#272727"/>
<path d="M17.1523 14.3507L18.7496 14.0691C19.9237 13.8622 21 14.7654 21 15.9577C21 18.8921 18.6257 20 17.0463 20C15.2655 20 13.9829 18.9021 13.9829 17.345C13.9829 15.8179 14.9899 14.7699 17.1523 14.3507Z" fill="#272727"/>
<path d="M6.1523 17.3507L10.0001 16.6725V18.9577C10.0001 21.8921 7.6257 23 6.0463 23C4.26551 23 2.98291 21.9021 2.98291 20.345C2.98291 18.8179 3.98991 17.7699 6.1523 17.3507Z" fill="#272727"/>
<path d="M6.1523 17.3507L7.74963 17.0691C8.92375 16.8622 10.0001 17.7654 10.0001 18.9577C10.0001 21.8921 7.6257 23 6.0463 23C4.26551 23 2.98291 21.9021 2.98291 20.345C2.98291 18.8179 3.98991 17.7699 6.1523 17.3507Z" fill="#272727"/>
<path d="M20.9719 6.00002L10 10M20.9719 6.00002L21 13.6725M20.9719 6.00002V2.18922C20.9719 2.09729 20.8805 2.03334 20.7942 2.06483L10.6575 5.76033C10.2627 5.90425 10 6.27963 10 6.69984V10M10 10V15.9576M21 13.6725L17.1523 14.3507M21 13.6725V15.9577M17.1523 14.3507C14.9899 14.7699 13.9829 15.8179 13.9829 17.345C13.9829 18.9021 15.2655 20 17.0463 20C18.6257 20 21 18.8921 21 15.9577M17.1523 14.3507L18.7496 14.0691C19.9237 13.8622 21 14.7654 21 15.9577M10 9.00002L10.0001 16.6725M10.0001 16.6725L6.1523 17.3507M10.0001 16.6725V18.9577M6.1523 17.3507C3.98991 17.7699 2.98291 18.8179 2.98291 20.345C2.98291 21.9021 4.26551 23 6.0463 23C7.6257 23 10.0001 21.8921 10.0001 18.9577M6.1523 17.3507L7.74963 17.0691C8.92375 16.8622 10.0001 17.7654 10.0001 18.9577" stroke="#272727" stroke-width="2" stroke-linecap="round"/>
</svg>
