<svg width="24" height="24" viewBox="0 0 24 24" fill="none" xmlns="http://www.w3.org/2000/svg">
<path fill-rule="evenodd" clip-rule="evenodd" d="M0 12C0 5.37258 5.37258 0 12 0C18.6274 0 24 5.37258 24 12C24 18.6274 18.6274 24 12 24C5.37258 24 0 18.6274 0 12ZM12 5.75C8.54822 5.75 5.75 8.54822 5.75 12C5.75 15.4518 8.54822 18.25 12 18.25C13.7241 18.25 15.2837 17.5523 16.4154 16.4224C16.7085 16.1297 17.1834 16.1301 17.4761 16.4232C17.7687 16.7163 17.7683 17.1912 17.4752 17.4839C16.0741 18.8828 14.1379 19.75 12 19.75C7.71979 19.75 4.25 16.2802 4.25 12C4.25 7.71979 7.71979 4.25 12 4.25C13.8699 4.25 15.5854 4.91335 16.9237 6.01569L17.4697 5.46967C17.7626 5.17678 18.2374 5.17678 18.5303 5.46967C18.8232 5.76256 18.8232 6.23744 18.5303 6.53033L17.5442 7.51641C17.5255 7.54035 17.5051 7.56341 17.483 7.58543C17.4613 7.60717 17.4385 7.6273 17.4149 7.6458L13.8417 11.2189C13.9436 11.4589 14 11.7229 14 12C14 13.1046 13.1046 14 12 14C10.8954 14 10 13.1046 10 12C10 10.8954 10.8954 10 12 10C12.2771 10 12.5411 10.0564 12.7811 10.1583L13.7059 9.23345C13.2101 8.92671 12.6262 8.75 12 8.75C10.2051 8.75 8.75 10.2051 8.75 12C8.75 13.7949 10.2051 15.25 12 15.25C12.8975 15.25 13.7087 14.8869 14.2978 14.2978C14.5907 14.0049 15.0656 14.0049 15.3585 14.2978C15.6513 14.5907 15.6513 15.0656 15.3585 15.3585C14.4998 16.2171 13.3117 16.75 12 16.75C9.37665 16.75 7.25 14.6234 7.25 12C7.25 9.37665 9.37665 7.25 12 7.25C13.0405 7.25 14.0038 7.5855 14.7862 8.15316L15.8569 7.08245C14.7942 6.24741 13.4558 5.75 12 5.75Z" fill="#272727"/>
</svg>
