<svg width="24" height="24" viewBox="0 0 24 24" fill="none" xmlns="http://www.w3.org/2000/svg">
<path fill-rule="evenodd" clip-rule="evenodd" d="M12 0C5.37258 0 0 5.37258 0 12C0 18.6274 5.37258 24 12 24C18.6274 24 24 18.6274 24 12C24 5.37258 18.6274 0 12 0ZM7.35457 10.4864C7.96369 8.29359 9.839 6.75 12 6.75C13.8332 6.75 15.4598 7.85989 16.2838 9.53571H14.8C14.3858 9.53571 14.05 9.8715 14.05 10.2857C14.05 10.6999 14.3858 11.0357 14.8 11.0357H18C18.1989 11.0357 18.3897 10.9567 18.5303 10.816C18.671 10.6754 18.75 10.4846 18.75 10.2857L18.75 6.85714C18.75 6.44293 18.4142 6.10714 18 6.10714C17.5858 6.10714 17.25 6.44293 17.25 6.85715L17.25 8.20226C16.1147 6.4326 14.2003 5.25 12 5.25C9.08743 5.25 6.67706 7.321 5.90929 10.085C5.79843 10.4841 6.0321 10.8975 6.4312 11.0084C6.83031 11.1192 7.24371 10.8855 7.35457 10.4864ZM18.0908 13.915C18.2016 13.5159 17.968 13.1025 17.5689 12.9916C17.1698 12.8808 16.7563 13.1145 16.6455 13.5136C16.0364 15.7064 14.1611 17.25 12 17.25C10.1666 17.25 8.54099 16.1409 7.71645 14.4643H9.2C9.61421 14.4643 9.95 14.1285 9.95 13.7143C9.95 13.3001 9.61421 12.9643 9.2 12.9643H6C5.58579 12.9643 5.25 13.3001 5.25 13.7143V17.1429C5.25 17.5571 5.58579 17.8929 6 17.8929C6.41421 17.8929 6.75 17.5571 6.75 17.1429V15.7979C7.88503 17.567 9.80013 18.75 12 18.75C14.9126 18.75 17.323 16.679 18.0908 13.915Z" fill="#272727"/>
</svg>
