<svg width="24" height="24" viewBox="0 0 24 24" fill="none" xmlns="http://www.w3.org/2000/svg">
<path fill-rule="evenodd" clip-rule="evenodd" d="M6 0C2.68629 0 0 2.68629 0 6V18C0 21.3137 2.68629 24 6 24H18C21.3137 24 24 21.3137 24 18V6C24 2.68629 21.3137 0 18 0H6ZM7 3.25C4.92893 3.25 3.25 4.92893 3.25 7V8.36364C3.25 8.77785 3.58579 9.11364 4 9.11364C4.41421 9.11364 4.75 8.77785 4.75 8.36364V7C4.75 5.75736 5.75736 4.75 7 4.75H9.81818C10.2324 4.75 10.5682 4.41421 10.5682 4C10.5682 3.58579 10.2324 3.25 9.81818 3.25H7ZM14.1818 3.25C13.7676 3.25 13.4318 3.58579 13.4318 4C13.4318 4.41421 13.7676 4.75 14.1818 4.75H17C18.2426 4.75 19.25 5.75736 19.25 7V8.36364C19.25 8.77785 19.5858 9.11364 20 9.11364C20.4142 9.11364 20.75 8.77785 20.75 8.36364V7C20.75 4.92893 19.0711 3.25 17 3.25H14.1818ZM2 11.25C1.58579 11.25 1.25 11.5858 1.25 12C1.25 12.4142 1.58579 12.75 2 12.75H22C22.4142 12.75 22.75 12.4142 22.75 12C22.75 11.5858 22.4142 11.25 22 11.25H2ZM4.75 15.6364C4.75 15.2222 4.41421 14.8864 4 14.8864C3.58579 14.8864 3.25 15.2222 3.25 15.6364V17C3.25 19.0711 4.92893 20.75 7 20.75H9.81818C10.2324 20.75 10.5682 20.4142 10.5682 20C10.5682 19.5858 10.2324 19.25 9.81818 19.25H7C5.75736 19.25 4.75 18.2426 4.75 17V15.6364ZM20.75 15.6364C20.75 15.2222 20.4142 14.8864 20 14.8864C19.5858 14.8864 19.25 15.2222 19.25 15.6364V17C19.25 18.2426 18.2426 19.25 17 19.25H14.1818C13.7676 19.25 13.4318 19.5858 13.4318 20C13.4318 20.4142 13.7676 20.75 14.1818 20.75H17C19.0711 20.75 20.75 19.0711 20.75 17V15.6364Z" fill="#272727"/>
</svg>
