<svg width="24" height="24" viewBox="0 0 24 24" fill="none" xmlns="http://www.w3.org/2000/svg">
<path fill-rule="evenodd" clip-rule="evenodd" d="M0 12C0 5.37258 5.37258 0 12 0C18.6274 0 24 5.37258 24 12C24 18.6274 18.6274 24 12 24C5.37258 24 0 18.6274 0 12ZM4.5 9C4.5 8.58579 4.83579 8.25 5.25 8.25H11.3445C11.6775 6.95608 12.8521 6 14.25 6C15.6479 6 16.8225 6.95608 17.1555 8.25H18.75C19.1642 8.25 19.5 8.58579 19.5 9C19.5 9.41421 19.1642 9.75 18.75 9.75H17.1555C16.8225 11.0439 15.6479 12 14.25 12C12.8521 12 11.6775 11.0439 11.3445 9.75H5.25C4.83579 9.75 4.5 9.41421 4.5 9ZM4.5 15C4.5 14.5858 4.83579 14.25 5.25 14.25H6.84451C7.17755 12.9561 8.35212 12 9.75 12C11.1479 12 12.3225 12.9561 12.6555 14.25H18.75C19.1642 14.25 19.5 14.5858 19.5 15C19.5 15.4142 19.1642 15.75 18.75 15.75H12.6555C12.3225 17.0439 11.1479 18 9.75 18C8.35212 18 7.17755 17.0439 6.84451 15.75H5.25C4.83579 15.75 4.5 15.4142 4.5 15Z" fill="#272727"/>
</svg>
