<svg width="24" height="24" viewBox="0 0 24 24" fill="none" xmlns="http://www.w3.org/2000/svg">
<path fill-rule="evenodd" clip-rule="evenodd" d="M12.5303 2.46967C12.2374 2.17678 11.7626 2.17678 11.4697 2.46967L8.46967 5.46967C8.17678 5.76256 8.17678 6.23744 8.46967 6.53033C8.76256 6.82322 9.23744 6.82322 9.53033 6.53033L11.25 4.81066V9H7C5.34315 9 4 10.3431 4 12V19C4 20.6569 5.34315 22 7 22H17C18.6569 22 20 20.6569 20 19V12C20 10.3431 18.6569 9 17 9H12.75V4.81066L14.4697 6.53033C14.7626 6.82322 15.2374 6.82322 15.5303 6.53033C15.8232 6.23744 15.8232 5.76256 15.5303 5.46967L12.5303 2.46967ZM12.75 9H11.25V15C11.25 15.4142 11.5858 15.75 12 15.75C12.4142 15.75 12.75 15.4142 12.75 15V9Z" fill="#272727"/>
</svg>
