<svg width="24" height="24" viewBox="0 0 24 24" fill="none" xmlns="http://www.w3.org/2000/svg">
<path fill-rule="evenodd" clip-rule="evenodd" d="M0.999998 7.55561C0.447714 7.55561 0 8.00333 0 8.55561V15.4445C0 15.9968 0.447716 16.4445 1 16.4445H5.67939C5.77969 16.4445 5.87768 16.4747 5.96062 16.5311L12.4375 20.9371C13.1014 21.3888 14 20.9133 14 20.1103V3.88977C14 3.08683 13.1014 2.61132 12.4375 3.06295L5.96062 7.46901C5.87768 7.52543 5.77969 7.5556 5.67939 7.5556L0.999998 7.55561ZM17.7071 8.29294C17.3166 7.90241 16.6834 7.90241 16.2929 8.29294C15.9024 8.68346 15.9024 9.31663 16.2929 9.70715L18.5858 12L16.2929 14.2929C15.9024 14.6835 15.9024 15.3166 16.2929 15.7072C16.6834 16.0977 17.3166 16.0977 17.7071 15.7072L20 13.4143L22.2929 15.7072C22.6834 16.0977 23.3166 16.0977 23.7071 15.7072C24.0976 15.3166 24.0976 14.6835 23.7071 14.2929L21.4142 12L23.7071 9.70715C24.0976 9.31663 24.0976 8.68346 23.7071 8.29294C23.3166 7.90241 22.6834 7.90241 22.2929 8.29294L20 10.5858L17.7071 8.29294Z" fill="#272727"/>
</svg>
