<svg width="24" height="24" viewBox="0 0 24 24" fill="none" xmlns="http://www.w3.org/2000/svg">
<path fill-rule="evenodd" clip-rule="evenodd" d="M8 5C4.13401 5 1 8.13401 1 12C1 15.866 4.13401 19 8 19H16C19.866 19 23 15.866 23 12C23 8.13401 19.866 5 16 5H8ZM8 6.25C4.82436 6.25 2.25 8.82436 2.25 12C2.25 15.1756 4.82436 17.75 8 17.75C11.1756 17.75 13.75 15.1756 13.75 12C13.75 8.82436 11.1756 6.25 8 6.25ZM3.75 12C3.75 9.65279 5.65279 7.75 8 7.75C10.3472 7.75 12.25 9.65279 12.25 12C12.25 14.3472 10.3472 16.25 8 16.25C5.65279 16.25 3.75 14.3472 3.75 12Z" fill="#272727"/>
</svg>
