<svg width="24" height="24" viewBox="0 0 24 24" fill="none" xmlns="http://www.w3.org/2000/svg">
<path fill-rule="evenodd" clip-rule="evenodd" d="M0 12C0 5.37258 5.37258 0 12 0C18.6274 0 24 5.37258 24 12C24 18.6274 18.6274 24 12 24C5.37258 24 0 18.6274 0 12ZM11.9543 8.75C9.28312 8.75 7.19276 9.66354 5.5399 11.3777C5.25239 11.6759 4.77759 11.6846 4.47942 11.397C4.18124 11.1095 4.17259 10.6347 4.4601 10.3366C6.40658 8.31785 8.8918 7.25 11.9543 7.25C15.0093 7.25 17.5885 8.31379 19.5398 10.3364C19.8274 10.6345 19.8188 11.1093 19.5207 11.3969C19.2226 11.6845 18.7478 11.676 18.4602 11.3779C16.8124 9.66976 14.633 8.75 11.9543 8.75ZM11.9974 11.6061C10.1238 11.6061 8.80881 12.3266 7.63593 13.5247C7.34617 13.8207 6.87132 13.8257 6.57533 13.5359C6.27935 13.2462 6.2743 12.7713 6.56406 12.4753C7.95973 11.0497 9.64283 10.1061 11.9974 10.1061C14.3513 10.1061 16.0397 11.0492 17.4359 12.4753C17.7257 12.7713 17.7207 13.2462 17.4247 13.5359C17.1287 13.8257 16.6538 13.8207 16.3641 13.5247C15.1917 12.3271 13.8716 11.6061 11.9974 11.6061ZM12.0001 14.4643C11.1227 14.4643 10.2572 14.8893 9.77851 15.4388C9.50644 15.7512 9.03269 15.7838 8.72036 15.5117C8.40803 15.2396 8.37539 14.7659 8.64747 14.4536C9.41318 13.5746 10.6922 12.9643 12.0001 12.9643C13.3073 12.9643 14.5896 13.5741 15.3557 14.4536C15.6278 14.7659 15.5951 15.2396 15.2828 15.5117C14.9705 15.7838 14.4967 15.7512 14.2247 15.4388C13.7463 14.8898 12.8781 14.4643 12.0001 14.4643ZM12 18C12.5523 18 13 17.5523 13 17C13 16.4477 12.5523 16 12 16C11.4477 16 11 16.4477 11 17C11 17.5523 11.4477 18 12 18Z" fill="#272727"/>
</svg>
