<svg width="24" height="24" viewBox="0 0 24 24" fill="none" xmlns="http://www.w3.org/2000/svg">
<path d="M19 10H20C20 9.73478 19.8946 9.48043 19.7071 9.29289L19 10ZM12 3L12.7071 2.29289C12.5196 2.10536 12.2652 2 12 2V3ZM17 20H7V22H17V20ZM6 19V5H4V19H6ZM18 10V19H20V10H18ZM7 4H12V2H7V4ZM19.7071 9.29289L12.7071 2.29289L11.2929 3.70711L18.2929 10.7071L19.7071 9.29289ZM11 3V9.5H13V3H11ZM12.5 11H19V9H12.5V11ZM7 20C6.44771 20 6 19.5523 6 19H4C4 20.6569 5.34315 22 7 22V20ZM17 22C18.6569 22 20 20.6569 20 19H18C18 19.5523 17.5523 20 17 20V22ZM11 9.5C11 10.3284 11.6716 11 12.5 11V9C12.7761 9 13 9.22386 13 9.5H11ZM6 5C6 4.44772 6.44772 4 7 4V2C5.34315 2 4 3.34315 4 5H6Z" fill="#272727"/>
<path d="M7.184 17L9.232 11.4H10.384L12.432 17H11.344L10.896 15.704H8.712L8.256 17H7.184ZM8.992 14.904H10.616L9.8 12.576L8.992 14.904ZM14.3411 17.096C13.9998 17.096 13.7198 17.0427 13.5011 16.936C13.2825 16.824 13.1198 16.6773 13.0131 16.496C12.9065 16.3147 12.8531 16.1147 12.8531 15.896C12.8531 15.528 12.9971 15.2293 13.2851 15C13.5731 14.7707 14.0051 14.656 14.5811 14.656H15.5891V14.56C15.5891 14.288 15.5118 14.088 15.3571 13.96C15.2025 13.832 15.0105 13.768 14.7811 13.768C14.5731 13.768 14.3918 13.8187 14.2371 13.92C14.0825 14.016 13.9865 14.16 13.9491 14.352H12.9491C12.9758 14.064 13.0718 13.8133 13.2371 13.6C13.4078 13.3867 13.6265 13.224 13.8931 13.112C14.1598 12.9947 14.4585 12.936 14.7891 12.936C15.3545 12.936 15.7998 13.0773 16.1251 13.36C16.4505 13.6427 16.6131 14.0427 16.6131 14.56V17H15.7411L15.6451 16.36C15.5278 16.5733 15.3625 16.7493 15.1491 16.888C14.9411 17.0267 14.6718 17.096 14.3411 17.096ZM14.5731 16.296C14.8665 16.296 15.0931 16.2 15.2531 16.008C15.4185 15.816 15.5225 15.5787 15.5651 15.296H14.6931C14.4211 15.296 14.2265 15.3467 14.1091 15.448C13.9918 15.544 13.9331 15.664 13.9331 15.808C13.9331 15.9627 13.9918 16.0827 14.1091 16.168C14.2265 16.2533 14.3811 16.296 14.5731 16.296Z" fill="#333333"/>
</svg>
